<svg xmlns="http://www.w3.org/2000/svg" xmlns:xlink="http://www.w3.org/1999/xlink" width="1474" zoomAndPan="magnify" viewBox="0 0 1105.5 310.499991" height="414" preserveAspectRatio="xMidYMid meet" version="1.0"><defs><g/><clipPath id="a0970a62ab"><path d="M 0.640625 37.808594 L 132.425781 37.808594 L 132.425781 171.097656 L 0.640625 171.097656 Z M 0.640625 37.808594 " clip-rule="nonzero"/></clipPath><clipPath id="0b56aa4d8f"><path d="M 1 214.136719 L 575.714844 214.136719 L 575.714844 283.777344 L 1 283.777344 Z M 1 214.136719 " clip-rule="nonzero"/></clipPath><clipPath id="037b294f73"><path d="M 0.640625 31.804688 L 176.605469 31.804688 L 176.605469 240.71875 L 0.640625 240.71875 Z M 0.640625 31.804688 " clip-rule="nonzero"/></clipPath></defs><g fill="#212121" fill-opacity="1"><g transform="translate(96.519842, 268.292422)"><g><path d="M 13.90625 -11.75 C 13.90625 -10.90625 13.675781 -10.140625 13.21875 -9.453125 C 12.757812 -8.765625 12.128906 -8.222656 11.328125 -7.828125 C 10.535156 -7.429688 9.640625 -7.234375 8.640625 -7.234375 C 7.535156 -7.234375 6.484375 -7.414062 5.484375 -7.78125 L 5.484375 -2.390625 C 5.484375 -1.597656 5.675781 -1.070312 6.0625 -0.8125 C 6.445312 -0.550781 7.066406 -0.421875 7.921875 -0.421875 L 7.921875 0 L 0.59375 0 L 0.59375 -0.421875 C 1.46875 -0.421875 2.070312 -0.566406 2.40625 -0.859375 C 2.75 -1.160156 2.921875 -1.671875 2.921875 -2.390625 L 2.921875 -13.9375 C 2.921875 -14.675781 2.738281 -15.179688 2.375 -15.453125 C 2.007812 -15.734375 1.460938 -15.875 0.734375 -15.875 L 0.59375 -15.875 L 0.59375 -16.3125 L 7.734375 -16.3125 C 8.765625 -16.3125 9.75 -16.148438 10.6875 -15.828125 C 11.632812 -15.515625 12.40625 -15.015625 13 -14.328125 C 13.601562 -13.640625 13.90625 -12.78125 13.90625 -11.75 Z M 5.484375 -15.09375 L 5.484375 -8.609375 C 6.222656 -8.296875 6.894531 -8.140625 7.5 -8.140625 C 8.53125 -8.140625 9.359375 -8.457031 9.984375 -9.09375 C 10.617188 -9.738281 10.9375 -10.59375 10.9375 -11.65625 C 10.9375 -12.757812 10.601562 -13.660156 9.9375 -14.359375 C 9.28125 -15.054688 8.363281 -15.40625 7.1875 -15.40625 C 6.664062 -15.40625 6.097656 -15.300781 5.484375 -15.09375 Z M 5.484375 -15.09375 "/></g></g></g><g fill="#212121" fill-opacity="1"><g transform="translate(111.44477, 268.292422)"><g><path d="M 4.390625 -9.046875 L 4.4375 -9.046875 C 4.851562 -9.773438 5.300781 -10.328125 5.78125 -10.703125 C 6.257812 -11.085938 6.800781 -11.28125 7.40625 -11.28125 C 7.832031 -11.28125 8.179688 -11.144531 8.453125 -10.875 C 8.722656 -10.613281 8.859375 -10.296875 8.859375 -9.921875 C 8.859375 -9.617188 8.75 -9.363281 8.53125 -9.15625 C 8.320312 -8.957031 8.082031 -8.859375 7.8125 -8.859375 C 7.582031 -8.859375 7.394531 -8.898438 7.25 -8.984375 C 7.113281 -9.066406 6.972656 -9.179688 6.828125 -9.328125 C 6.796875 -9.335938 6.738281 -9.382812 6.65625 -9.46875 C 6.582031 -9.550781 6.503906 -9.609375 6.421875 -9.640625 C 6.335938 -9.679688 6.242188 -9.703125 6.140625 -9.703125 C 5.773438 -9.703125 5.460938 -9.554688 5.203125 -9.265625 C 4.941406 -8.972656 4.671875 -8.570312 4.390625 -8.0625 L 4.390625 -2.515625 C 4.390625 -1.898438 4.457031 -1.441406 4.59375 -1.140625 C 4.726562 -0.835938 4.9375 -0.640625 5.21875 -0.546875 C 5.507812 -0.460938 5.929688 -0.421875 6.484375 -0.421875 L 6.484375 0 L 0.640625 0 L 0.640625 -0.421875 L 0.765625 -0.421875 C 1.347656 -0.421875 1.769531 -0.5625 2.03125 -0.84375 C 2.300781 -1.132812 2.4375 -1.660156 2.4375 -2.421875 L 2.4375 -7.828125 C 2.4375 -8.578125 2.359375 -9.066406 2.203125 -9.296875 C 2.046875 -9.523438 1.769531 -9.640625 1.375 -9.640625 C 1.132812 -9.640625 0.9375 -9.59375 0.78125 -9.5 L 0.640625 -9.890625 L 3.96875 -11.28125 L 4.390625 -11.28125 Z M 4.390625 -9.046875 "/></g></g></g><g fill="#212121" fill-opacity="1"><g transform="translate(121.173397, 268.292422)"><g><path d="M 6.765625 -11.28125 C 7.703125 -11.28125 8.578125 -11.03125 9.390625 -10.53125 C 10.203125 -10.03125 10.847656 -9.363281 11.328125 -8.53125 C 11.816406 -7.695312 12.0625 -6.804688 12.0625 -5.859375 C 12.0625 -4.753906 11.796875 -3.726562 11.265625 -2.78125 C 10.742188 -1.832031 10.046875 -1.078125 9.171875 -0.515625 C 8.296875 0.046875 7.359375 0.328125 6.359375 0.328125 C 5.410156 0.328125 4.523438 0.0820312 3.703125 -0.40625 C 2.890625 -0.90625 2.242188 -1.578125 1.765625 -2.421875 C 1.296875 -3.273438 1.0625 -4.203125 1.0625 -5.203125 C 1.0625 -6.273438 1.320312 -7.273438 1.84375 -8.203125 C 2.375 -9.140625 3.078125 -9.882812 3.953125 -10.4375 C 4.828125 -11 5.765625 -11.28125 6.765625 -11.28125 Z M 3.203125 -6.140625 C 3.203125 -5.210938 3.347656 -4.316406 3.640625 -3.453125 C 3.929688 -2.585938 4.351562 -1.878906 4.90625 -1.328125 C 5.46875 -0.773438 6.132812 -0.5 6.90625 -0.5 C 7.8125 -0.5 8.539062 -0.894531 9.09375 -1.6875 C 9.644531 -2.488281 9.921875 -3.546875 9.921875 -4.859375 C 9.921875 -5.910156 9.757812 -6.859375 9.4375 -7.703125 C 9.125 -8.546875 8.679688 -9.210938 8.109375 -9.703125 C 7.546875 -10.191406 6.898438 -10.4375 6.171875 -10.4375 C 5.265625 -10.4375 4.539062 -10.046875 4 -9.265625 C 3.46875 -8.492188 3.203125 -7.453125 3.203125 -6.140625 Z M 3.203125 -6.140625 "/></g></g></g><g fill="#212121" fill-opacity="1"><g transform="translate(134.864499, 268.292422)"><g><path d="M 3.484375 -17.09375 C 3.835938 -17.09375 4.128906 -16.972656 4.359375 -16.734375 C 4.597656 -16.492188 4.71875 -16.207031 4.71875 -15.875 C 4.71875 -15.53125 4.597656 -15.238281 4.359375 -15 C 4.128906 -14.757812 3.835938 -14.640625 3.484375 -14.640625 C 3.148438 -14.640625 2.863281 -14.757812 2.625 -15 C 2.394531 -15.238281 2.28125 -15.53125 2.28125 -15.875 C 2.28125 -16.207031 2.394531 -16.492188 2.625 -16.734375 C 2.863281 -16.972656 3.148438 -17.09375 3.484375 -17.09375 Z M 4.578125 -0.421875 C 4.578125 1.203125 4.238281 2.515625 3.5625 3.515625 C 2.882812 4.523438 1.820312 5.03125 0.375 5.03125 C -0.238281 5.03125 -0.742188 4.914062 -1.140625 4.6875 C -1.535156 4.46875 -1.734375 4.1875 -1.734375 3.84375 C -1.734375 3.570312 -1.632812 3.335938 -1.4375 3.140625 C -1.238281 2.941406 -1.003906 2.84375 -0.734375 2.84375 C -0.484375 2.84375 -0.257812 2.898438 -0.0625 3.015625 C 0.132812 3.140625 0.359375 3.3125 0.609375 3.53125 C 0.785156 3.707031 0.945312 3.84375 1.09375 3.9375 C 1.238281 4.03125 1.390625 4.078125 1.546875 4.078125 C 1.953125 4.078125 2.234375 3.867188 2.390625 3.453125 C 2.554688 3.046875 2.640625 2.578125 2.640625 2.046875 L 2.640625 -8.09375 C 2.640625 -8.644531 2.539062 -9.0625 2.34375 -9.34375 C 2.15625 -9.632812 1.878906 -9.78125 1.515625 -9.78125 C 1.265625 -9.78125 1.035156 -9.734375 0.828125 -9.640625 L 0.6875 -10.0625 L 4.171875 -11.28125 L 4.578125 -11.28125 Z M 4.578125 -0.421875 "/></g></g></g><g fill="#212121" fill-opacity="1"><g transform="translate(141.888195, 268.292422)"><g><path d="M 5.578125 -11.28125 C 6.804688 -11.28125 7.804688 -10.867188 8.578125 -10.046875 C 9.347656 -9.222656 9.734375 -8.148438 9.734375 -6.828125 L 2.28125 -6.828125 L 2.28125 -6.53125 C 2.28125 -5.6875 2.445312 -4.878906 2.78125 -4.109375 C 3.113281 -3.347656 3.578125 -2.726562 4.171875 -2.25 C 4.773438 -1.78125 5.457031 -1.546875 6.21875 -1.546875 C 7.71875 -1.546875 8.769531 -2.382812 9.375 -4.0625 L 9.734375 -3.875 C 9.472656 -2.570312 8.945312 -1.546875 8.15625 -0.796875 C 7.375 -0.046875 6.425781 0.328125 5.3125 0.328125 C 4.488281 0.328125 3.722656 0.113281 3.015625 -0.3125 C 2.316406 -0.738281 1.75 -1.378906 1.3125 -2.234375 C 0.882812 -3.085938 0.671875 -4.125 0.671875 -5.34375 C 0.671875 -6.507812 0.875 -7.539062 1.28125 -8.4375 C 1.695312 -9.34375 2.273438 -10.039062 3.015625 -10.53125 C 3.753906 -11.03125 4.609375 -11.28125 5.578125 -11.28125 Z M 4.90625 -10.4375 C 4.25 -10.4375 3.675781 -10.175781 3.1875 -9.65625 C 2.707031 -9.132812 2.421875 -8.441406 2.328125 -7.578125 L 7.28125 -7.578125 C 7.25 -8.429688 7.03125 -9.117188 6.625 -9.640625 C 6.226562 -10.171875 5.65625 -10.4375 4.90625 -10.4375 Z M 4.90625 -10.4375 "/></g></g></g><g fill="#212121" fill-opacity="1"><g transform="translate(152.874364, 268.292422)"><g><path d="M 3.9375 -14.5 L 4.3125 -14.5 L 4.3125 -11.015625 L 6.8125 -11.015625 L 6.8125 -10.28125 L 4.3125 -10.28125 L 4.3125 -2.640625 C 4.3125 -2.222656 4.429688 -1.851562 4.671875 -1.53125 C 4.910156 -1.207031 5.242188 -1.046875 5.671875 -1.046875 C 5.953125 -1.046875 6.203125 -1.113281 6.421875 -1.25 C 6.648438 -1.382812 6.890625 -1.617188 7.140625 -1.953125 L 7.625 -1.953125 C 7.207031 -1.191406 6.757812 -0.617188 6.28125 -0.234375 C 5.8125 0.140625 5.257812 0.328125 4.625 0.328125 C 3.925781 0.328125 3.375 0.0703125 2.96875 -0.4375 C 2.570312 -0.945312 2.375 -1.648438 2.375 -2.546875 L 2.375 -10.28125 L 0.6875 -10.28125 L 0.6875 -10.75 C 1.5 -11.082031 2.179688 -11.566406 2.734375 -12.203125 C 3.285156 -12.847656 3.6875 -13.613281 3.9375 -14.5 Z M 3.9375 -14.5 "/></g></g></g><g fill="#212121" fill-opacity="1"><g transform="translate(161.369161, 268.292422)"><g><path d="M 6.765625 -11.28125 C 7.703125 -11.28125 8.578125 -11.03125 9.390625 -10.53125 C 10.203125 -10.03125 10.847656 -9.363281 11.328125 -8.53125 C 11.816406 -7.695312 12.0625 -6.804688 12.0625 -5.859375 C 12.0625 -4.753906 11.796875 -3.726562 11.265625 -2.78125 C 10.742188 -1.832031 10.046875 -1.078125 9.171875 -0.515625 C 8.296875 0.046875 7.359375 0.328125 6.359375 0.328125 C 5.410156 0.328125 4.523438 0.0820312 3.703125 -0.40625 C 2.890625 -0.90625 2.242188 -1.578125 1.765625 -2.421875 C 1.296875 -3.273438 1.0625 -4.203125 1.0625 -5.203125 C 1.0625 -6.273438 1.320312 -7.273438 1.84375 -8.203125 C 2.375 -9.140625 3.078125 -9.882812 3.953125 -10.4375 C 4.828125 -11 5.765625 -11.28125 6.765625 -11.28125 Z M 3.203125 -6.140625 C 3.203125 -5.210938 3.347656 -4.316406 3.640625 -3.453125 C 3.929688 -2.585938 4.351562 -1.878906 4.90625 -1.328125 C 5.46875 -0.773438 6.132812 -0.5 6.90625 -0.5 C 7.8125 -0.5 8.539062 -0.894531 9.09375 -1.6875 C 9.644531 -2.488281 9.921875 -3.546875 9.921875 -4.859375 C 9.921875 -5.910156 9.757812 -6.859375 9.4375 -7.703125 C 9.125 -8.546875 8.679688 -9.210938 8.109375 -9.703125 C 7.546875 -10.191406 6.898438 -10.4375 6.171875 -10.4375 C 5.265625 -10.4375 4.539062 -10.046875 4 -9.265625 C 3.46875 -8.492188 3.203125 -7.453125 3.203125 -6.140625 Z M 3.203125 -6.140625 "/></g></g></g><g fill="#212121" fill-opacity="1"><g transform="translate(175.060261, 268.292422)"><g><path d="M 4.46875 -11.28125 C 4.925781 -11.28125 5.390625 -11.195312 5.859375 -11.03125 C 6.191406 -10.925781 6.460938 -10.875 6.671875 -10.875 C 6.816406 -10.875 6.96875 -10.921875 7.125 -11.015625 L 7.546875 -11.015625 L 7.546875 -7.671875 L 7.125 -7.671875 C 7 -8.535156 6.6875 -9.238281 6.1875 -9.78125 C 5.695312 -10.332031 5.109375 -10.609375 4.421875 -10.609375 C 3.859375 -10.609375 3.398438 -10.472656 3.046875 -10.203125 C 2.691406 -9.929688 2.515625 -9.566406 2.515625 -9.109375 C 2.515625 -8.742188 2.613281 -8.429688 2.8125 -8.171875 C 3.007812 -7.910156 3.285156 -7.671875 3.640625 -7.453125 C 3.992188 -7.234375 4.550781 -6.925781 5.3125 -6.53125 C 6.289062 -6.007812 7.039062 -5.492188 7.5625 -4.984375 C 8.09375 -4.472656 8.359375 -3.789062 8.359375 -2.9375 C 8.359375 -2.175781 8.160156 -1.550781 7.765625 -1.0625 C 7.378906 -0.570312 6.910156 -0.21875 6.359375 0 C 5.816406 0.21875 5.300781 0.328125 4.8125 0.328125 C 4.34375 0.328125 3.703125 0.21875 2.890625 0 C 2.523438 -0.113281 2.28125 -0.171875 2.15625 -0.171875 C 1.945312 -0.171875 1.804688 -0.113281 1.734375 0 L 1.234375 0 L 1.234375 -3.703125 L 1.640625 -3.703125 C 1.742188 -2.722656 2.097656 -1.925781 2.703125 -1.3125 C 3.304688 -0.707031 4.019531 -0.40625 4.84375 -0.40625 C 5.332031 -0.40625 5.757812 -0.5625 6.125 -0.875 C 6.488281 -1.195312 6.671875 -1.59375 6.671875 -2.0625 C 6.671875 -2.613281 6.507812 -3.046875 6.1875 -3.359375 C 5.875 -3.679688 5.523438 -3.957031 5.140625 -4.1875 C 4.753906 -4.414062 4.492188 -4.5625 4.359375 -4.625 C 4.296875 -4.675781 4.078125 -4.804688 3.703125 -5.015625 C 3.128906 -5.328125 2.671875 -5.601562 2.328125 -5.84375 C 1.992188 -6.09375 1.710938 -6.414062 1.484375 -6.8125 C 1.253906 -7.207031 1.140625 -7.695312 1.140625 -8.28125 C 1.140625 -9.164062 1.453125 -9.882812 2.078125 -10.4375 C 2.703125 -11 3.5 -11.28125 4.46875 -11.28125 Z M 4.46875 -11.28125 "/></g></g></g><g fill="#212121" fill-opacity="1"><g transform="translate(184.788884, 268.292422)"><g/></g></g><g fill="#212121" fill-opacity="1"><g transform="translate(191.314303, 268.292422)"><g><path d="M 5.578125 -11.28125 C 6.804688 -11.28125 7.804688 -10.867188 8.578125 -10.046875 C 9.347656 -9.222656 9.734375 -8.148438 9.734375 -6.828125 L 2.28125 -6.828125 L 2.28125 -6.53125 C 2.28125 -5.6875 2.445312 -4.878906 2.78125 -4.109375 C 3.113281 -3.347656 3.578125 -2.726562 4.171875 -2.25 C 4.773438 -1.78125 5.457031 -1.546875 6.21875 -1.546875 C 7.71875 -1.546875 8.769531 -2.382812 9.375 -4.0625 L 9.734375 -3.875 C 9.472656 -2.570312 8.945312 -1.546875 8.15625 -0.796875 C 7.375 -0.046875 6.425781 0.328125 5.3125 0.328125 C 4.488281 0.328125 3.722656 0.113281 3.015625 -0.3125 C 2.316406 -0.738281 1.75 -1.378906 1.3125 -2.234375 C 0.882812 -3.085938 0.671875 -4.125 0.671875 -5.34375 C 0.671875 -6.507812 0.875 -7.539062 1.28125 -8.4375 C 1.695312 -9.34375 2.273438 -10.039062 3.015625 -10.53125 C 3.753906 -11.03125 4.609375 -11.28125 5.578125 -11.28125 Z M 4.90625 -10.4375 C 4.25 -10.4375 3.675781 -10.175781 3.1875 -9.65625 C 2.707031 -9.132812 2.421875 -8.441406 2.328125 -7.578125 L 7.28125 -7.578125 C 7.25 -8.429688 7.03125 -9.117188 6.625 -9.640625 C 6.226562 -10.171875 5.65625 -10.4375 4.90625 -10.4375 Z M 4.90625 -10.4375 "/></g></g></g><g fill="#212121" fill-opacity="1"><g transform="translate(202.300472, 268.292422)"><g/></g></g><g fill="#212121" fill-opacity="1"><g transform="translate(208.825891, 268.292422)"><g><path d="M 5.984375 -16.65625 C 6.515625 -16.65625 6.976562 -16.601562 7.375 -16.5 C 7.769531 -16.40625 8.175781 -16.269531 8.59375 -16.09375 C 8.800781 -16.007812 9.003906 -15.9375 9.203125 -15.875 C 9.398438 -15.8125 9.578125 -15.78125 9.734375 -15.78125 C 10.109375 -15.78125 10.410156 -16.070312 10.640625 -16.65625 L 11.078125 -16.65625 L 11.078125 -11.25 L 10.640625 -11.25 C 10.554688 -12.09375 10.300781 -12.859375 9.875 -13.546875 C 9.457031 -14.234375 8.9375 -14.773438 8.3125 -15.171875 C 7.6875 -15.566406 7.019531 -15.765625 6.3125 -15.765625 C 5.539062 -15.765625 4.875 -15.53125 4.3125 -15.0625 C 3.757812 -14.59375 3.484375 -14.023438 3.484375 -13.359375 C 3.484375 -12.585938 3.863281 -11.914062 4.625 -11.34375 C 5.164062 -10.945312 5.921875 -10.472656 6.890625 -9.921875 C 7.742188 -9.398438 8.453125 -8.945312 9.015625 -8.5625 C 9.585938 -8.1875 10.117188 -7.773438 10.609375 -7.328125 C 11.054688 -6.898438 11.410156 -6.410156 11.671875 -5.859375 C 11.929688 -5.304688 12.0625 -4.738281 12.0625 -4.15625 C 12.0625 -3.34375 11.835938 -2.585938 11.390625 -1.890625 C 10.953125 -1.203125 10.347656 -0.65625 9.578125 -0.25 C 8.804688 0.15625 7.960938 0.359375 7.046875 0.359375 C 6.460938 0.359375 5.941406 0.304688 5.484375 0.203125 C 5.035156 0.0976562 4.566406 -0.0390625 4.078125 -0.21875 C 3.546875 -0.40625 3.144531 -0.5 2.875 -0.5 C 2.445312 -0.5 2.125 -0.210938 1.90625 0.359375 L 1.46875 0.359375 L 1.46875 -5.125 L 1.90625 -5.125 C 2.164062 -3.71875 2.695312 -2.601562 3.5 -1.78125 C 4.300781 -0.957031 5.332031 -0.546875 6.59375 -0.546875 C 7.5 -0.546875 8.242188 -0.789062 8.828125 -1.28125 C 9.410156 -1.769531 9.703125 -2.390625 9.703125 -3.140625 C 9.703125 -3.515625 9.628906 -3.859375 9.484375 -4.171875 C 9.347656 -4.492188 9.113281 -4.835938 8.78125 -5.203125 C 8.476562 -5.515625 8.050781 -5.851562 7.5 -6.21875 C 6.945312 -6.59375 6.210938 -7.0625 5.296875 -7.625 C 4.515625 -8.09375 3.914062 -8.460938 3.5 -8.734375 C 3.09375 -9.015625 2.789062 -9.257812 2.59375 -9.46875 C 1.78125 -10.289062 1.375 -11.28125 1.375 -12.4375 C 1.375 -13.226562 1.578125 -13.941406 1.984375 -14.578125 C 2.390625 -15.222656 2.9375 -15.726562 3.625 -16.09375 C 4.320312 -16.46875 5.109375 -16.65625 5.984375 -16.65625 Z M 5.984375 -16.65625 "/></g></g></g><g fill="#212121" fill-opacity="1"><g transform="translate(222.51699, 268.292422)"><g><path d="M 6.765625 -11.28125 C 7.703125 -11.28125 8.578125 -11.03125 9.390625 -10.53125 C 10.203125 -10.03125 10.847656 -9.363281 11.328125 -8.53125 C 11.816406 -7.695312 12.0625 -6.804688 12.0625 -5.859375 C 12.0625 -4.753906 11.796875 -3.726562 11.265625 -2.78125 C 10.742188 -1.832031 10.046875 -1.078125 9.171875 -0.515625 C 8.296875 0.046875 7.359375 0.328125 6.359375 0.328125 C 5.410156 0.328125 4.523438 0.0820312 3.703125 -0.40625 C 2.890625 -0.90625 2.242188 -1.578125 1.765625 -2.421875 C 1.296875 -3.273438 1.0625 -4.203125 1.0625 -5.203125 C 1.0625 -6.273438 1.320312 -7.273438 1.84375 -8.203125 C 2.375 -9.140625 3.078125 -9.882812 3.953125 -10.4375 C 4.828125 -11 5.765625 -11.28125 6.765625 -11.28125 Z M 3.203125 -6.140625 C 3.203125 -5.210938 3.347656 -4.316406 3.640625 -3.453125 C 3.929688 -2.585938 4.351562 -1.878906 4.90625 -1.328125 C 5.46875 -0.773438 6.132812 -0.5 6.90625 -0.5 C 7.8125 -0.5 8.539062 -0.894531 9.09375 -1.6875 C 9.644531 -2.488281 9.921875 -3.546875 9.921875 -4.859375 C 9.921875 -5.910156 9.757812 -6.859375 9.4375 -7.703125 C 9.125 -8.546875 8.679688 -9.210938 8.109375 -9.703125 C 7.546875 -10.191406 6.898438 -10.4375 6.171875 -10.4375 C 5.265625 -10.4375 4.539062 -10.046875 4 -9.265625 C 3.46875 -8.492188 3.203125 -7.453125 3.203125 -6.140625 Z M 3.203125 -6.140625 "/></g></g></g><g fill="#212121" fill-opacity="1"><g transform="translate(236.20809, 268.292422)"><g><path d="M 4.296875 -17.015625 L 4.296875 -2.484375 C 4.296875 -1.703125 4.410156 -1.160156 4.640625 -0.859375 C 4.867188 -0.566406 5.285156 -0.421875 5.890625 -0.421875 L 5.890625 0 L 0.546875 0 L 0.546875 -0.421875 C 0.984375 -0.421875 1.328125 -0.46875 1.578125 -0.5625 C 1.835938 -0.664062 2.03125 -0.863281 2.15625 -1.15625 C 2.28125 -1.457031 2.34375 -1.898438 2.34375 -2.484375 L 2.34375 -13.71875 C 2.34375 -14.78125 1.972656 -15.3125 1.234375 -15.3125 C 1.023438 -15.3125 0.84375 -15.269531 0.6875 -15.1875 L 0.546875 -15.59375 L 3.875 -17.015625 Z M 4.296875 -17.015625 "/></g></g></g><g fill="#212121" fill-opacity="1"><g transform="translate(243.231783, 268.292422)"><g><path d="M 4.359375 -3.140625 C 4.359375 -2.566406 4.53125 -2.097656 4.875 -1.734375 C 5.226562 -1.367188 5.660156 -1.1875 6.171875 -1.1875 C 6.628906 -1.1875 7.101562 -1.304688 7.59375 -1.546875 C 8.082031 -1.796875 8.550781 -2.160156 9 -2.640625 L 9 -9.203125 C 9 -10.117188 8.457031 -10.578125 7.375 -10.578125 L 7.140625 -10.578125 L 7.140625 -11.015625 L 10.9375 -11.015625 L 10.9375 -2.5625 C 10.9375 -2.28125 11.019531 -1.992188 11.1875 -1.703125 C 11.351562 -1.410156 11.617188 -1.265625 11.984375 -1.265625 C 12.191406 -1.265625 12.453125 -1.328125 12.765625 -1.453125 L 12.765625 -1 L 9.453125 0.28125 L 9 0.28125 L 9 -2.046875 L 8.953125 -2.046875 C 7.671875 -0.460938 6.4375 0.328125 5.25 0.328125 C 4.644531 0.328125 4.128906 0.175781 3.703125 -0.125 C 3.273438 -0.4375 2.953125 -0.828125 2.734375 -1.296875 C 2.523438 -1.773438 2.421875 -2.257812 2.421875 -2.75 L 2.421875 -9.015625 C 2.421875 -9.628906 2.28125 -10.039062 2 -10.25 C 1.726562 -10.46875 1.300781 -10.578125 0.71875 -10.578125 L 0.421875 -10.578125 L 0.421875 -11.015625 L 4.359375 -11.015625 Z M 4.359375 -3.140625 "/></g></g></g><g fill="#212121" fill-opacity="1"><g transform="translate(256.922882, 268.292422)"><g><path d="M 5.984375 -11.28125 C 6.660156 -11.28125 7.289062 -11.160156 7.875 -10.921875 C 8.46875 -10.679688 8.929688 -10.367188 9.265625 -9.984375 C 9.609375 -9.597656 9.78125 -9.179688 9.78125 -8.734375 C 9.78125 -8.453125 9.671875 -8.210938 9.453125 -8.015625 C 9.242188 -7.828125 8.972656 -7.734375 8.640625 -7.734375 C 8.398438 -7.734375 8.210938 -7.765625 8.078125 -7.828125 C 7.941406 -7.890625 7.804688 -7.992188 7.671875 -8.140625 C 7.578125 -8.222656 7.507812 -8.363281 7.46875 -8.5625 C 7.425781 -8.769531 7.394531 -8.898438 7.375 -8.953125 C 7.3125 -9.359375 7.234375 -9.632812 7.140625 -9.78125 C 6.828125 -10.300781 6.304688 -10.5625 5.578125 -10.5625 C 4.640625 -10.5625 3.882812 -10.1875 3.3125 -9.4375 C 2.75 -8.695312 2.46875 -7.710938 2.46875 -6.484375 C 2.46875 -5.003906 2.816406 -3.816406 3.515625 -2.921875 C 4.210938 -2.035156 5.140625 -1.59375 6.296875 -1.59375 C 7.148438 -1.59375 7.863281 -1.828125 8.4375 -2.296875 C 9.007812 -2.773438 9.425781 -3.429688 9.6875 -4.265625 L 10.0625 -4.109375 C 9.75 -2.835938 9.195312 -1.796875 8.40625 -0.984375 C 7.613281 -0.179688 6.703125 0.253906 5.671875 0.328125 L 5.59375 0.421875 C 6.09375 0.453125 6.488281 0.625 6.78125 0.9375 C 7.070312 1.25 7.21875 1.640625 7.21875 2.109375 C 7.21875 2.722656 6.972656 3.21875 6.484375 3.59375 C 5.992188 3.976562 5.328125 4.171875 4.484375 4.171875 C 4.242188 4.171875 4.0625 4.164062 3.9375 4.15625 L 3.34375 4.125 L 3.46875 3.71875 L 3.78125 3.71875 C 4.238281 3.71875 4.617188 3.609375 4.921875 3.390625 C 5.234375 3.179688 5.390625 2.921875 5.390625 2.609375 C 5.390625 2.359375 5.285156 2.132812 5.078125 1.9375 C 4.867188 1.75 4.597656 1.65625 4.265625 1.65625 L 4.03125 1.6875 L 4.953125 0.3125 C 4.097656 0.226562 3.335938 -0.0625 2.671875 -0.5625 C 2.015625 -1.070312 1.5 -1.742188 1.125 -2.578125 C 0.75 -3.410156 0.5625 -4.335938 0.5625 -5.359375 C 0.5625 -6.503906 0.789062 -7.519531 1.25 -8.40625 C 1.71875 -9.300781 2.363281 -10.003906 3.1875 -10.515625 C 4.007812 -11.023438 4.941406 -11.28125 5.984375 -11.28125 Z M 5.984375 -11.28125 "/></g></g></g><g fill="#212121" fill-opacity="1"><g transform="translate(267.909052, 268.292422)"><g><path d="M 6.765625 -11.28125 C 7.703125 -11.28125 8.578125 -11.03125 9.390625 -10.53125 C 10.203125 -10.03125 10.847656 -9.363281 11.328125 -8.53125 C 11.816406 -7.695312 12.0625 -6.804688 12.0625 -5.859375 C 12.0625 -4.753906 11.796875 -3.726562 11.265625 -2.78125 C 10.742188 -1.832031 10.046875 -1.078125 9.171875 -0.515625 C 8.296875 0.046875 7.359375 0.328125 6.359375 0.328125 C 5.410156 0.328125 4.523438 0.0820312 3.703125 -0.40625 C 2.890625 -0.90625 2.242188 -1.578125 1.765625 -2.421875 C 1.296875 -3.273438 1.0625 -4.203125 1.0625 -5.203125 C 1.0625 -6.273438 1.320312 -7.273438 1.84375 -8.203125 C 2.375 -9.140625 3.078125 -9.882812 3.953125 -10.4375 C 4.828125 -11 5.765625 -11.28125 6.765625 -11.28125 Z M 3.203125 -6.140625 C 3.203125 -5.210938 3.347656 -4.316406 3.640625 -3.453125 C 3.929688 -2.585938 4.351562 -1.878906 4.90625 -1.328125 C 5.46875 -0.773438 6.132812 -0.5 6.90625 -0.5 C 7.8125 -0.5 8.539062 -0.894531 9.09375 -1.6875 C 9.644531 -2.488281 9.921875 -3.546875 9.921875 -4.859375 C 9.921875 -5.910156 9.757812 -6.859375 9.4375 -7.703125 C 9.125 -8.546875 8.679688 -9.210938 8.109375 -9.703125 C 7.546875 -10.191406 6.898438 -10.4375 6.171875 -10.4375 C 5.265625 -10.4375 4.539062 -10.046875 4 -9.265625 C 3.46875 -8.492188 3.203125 -7.453125 3.203125 -6.140625 Z M 5.03125 -16.3125 C 5.425781 -16.3125 5.789062 -16.226562 6.125 -16.0625 C 6.457031 -15.90625 6.859375 -15.675781 7.328125 -15.375 C 7.679688 -15.144531 7.960938 -14.972656 8.171875 -14.859375 C 8.390625 -14.742188 8.597656 -14.6875 8.796875 -14.6875 C 9.160156 -14.6875 9.421875 -14.84375 9.578125 -15.15625 C 9.742188 -15.46875 9.859375 -15.851562 9.921875 -16.3125 L 10.28125 -16.3125 L 10.28125 -16.140625 C 10.28125 -15.253906 10.066406 -14.550781 9.640625 -14.03125 C 9.210938 -13.507812 8.6875 -13.25 8.0625 -13.25 C 7.664062 -13.25 7.296875 -13.328125 6.953125 -13.484375 C 6.617188 -13.648438 6.222656 -13.882812 5.765625 -14.1875 C 5.421875 -14.425781 5.140625 -14.597656 4.921875 -14.703125 C 4.710938 -14.816406 4.503906 -14.875 4.296875 -14.875 C 3.972656 -14.875 3.738281 -14.75 3.59375 -14.5 C 3.445312 -14.25 3.320312 -13.847656 3.21875 -13.296875 L 2.875 -13.296875 C 2.875 -14.222656 3.066406 -14.957031 3.453125 -15.5 C 3.835938 -16.039062 4.363281 -16.3125 5.03125 -16.3125 Z M 5.03125 -16.3125 "/></g></g></g><g fill="#212121" fill-opacity="1"><g transform="translate(281.600151, 268.292422)"><g><path d="M 5.578125 -11.28125 C 6.804688 -11.28125 7.804688 -10.867188 8.578125 -10.046875 C 9.347656 -9.222656 9.734375 -8.148438 9.734375 -6.828125 L 2.28125 -6.828125 L 2.28125 -6.53125 C 2.28125 -5.6875 2.445312 -4.878906 2.78125 -4.109375 C 3.113281 -3.347656 3.578125 -2.726562 4.171875 -2.25 C 4.773438 -1.78125 5.457031 -1.546875 6.21875 -1.546875 C 7.71875 -1.546875 8.769531 -2.382812 9.375 -4.0625 L 9.734375 -3.875 C 9.472656 -2.570312 8.945312 -1.546875 8.15625 -0.796875 C 7.375 -0.046875 6.425781 0.328125 5.3125 0.328125 C 4.488281 0.328125 3.722656 0.113281 3.015625 -0.3125 C 2.316406 -0.738281 1.75 -1.378906 1.3125 -2.234375 C 0.882812 -3.085938 0.671875 -4.125 0.671875 -5.34375 C 0.671875 -6.507812 0.875 -7.539062 1.28125 -8.4375 C 1.695312 -9.34375 2.273438 -10.039062 3.015625 -10.53125 C 3.753906 -11.03125 4.609375 -11.28125 5.578125 -11.28125 Z M 4.90625 -10.4375 C 4.25 -10.4375 3.675781 -10.175781 3.1875 -9.65625 C 2.707031 -9.132812 2.421875 -8.441406 2.328125 -7.578125 L 7.28125 -7.578125 C 7.25 -8.429688 7.03125 -9.117188 6.625 -9.640625 C 6.226562 -10.171875 5.65625 -10.4375 4.90625 -10.4375 Z M 4.90625 -10.4375 "/></g></g></g><g fill="#212121" fill-opacity="1"><g transform="translate(292.586332, 268.292422)"><g><path d="M 4.46875 -11.28125 C 4.925781 -11.28125 5.390625 -11.195312 5.859375 -11.03125 C 6.191406 -10.925781 6.460938 -10.875 6.671875 -10.875 C 6.816406 -10.875 6.96875 -10.921875 7.125 -11.015625 L 7.546875 -11.015625 L 7.546875 -7.671875 L 7.125 -7.671875 C 7 -8.535156 6.6875 -9.238281 6.1875 -9.78125 C 5.695312 -10.332031 5.109375 -10.609375 4.421875 -10.609375 C 3.859375 -10.609375 3.398438 -10.472656 3.046875 -10.203125 C 2.691406 -9.929688 2.515625 -9.566406 2.515625 -9.109375 C 2.515625 -8.742188 2.613281 -8.429688 2.8125 -8.171875 C 3.007812 -7.910156 3.285156 -7.671875 3.640625 -7.453125 C 3.992188 -7.234375 4.550781 -6.925781 5.3125 -6.53125 C 6.289062 -6.007812 7.039062 -5.492188 7.5625 -4.984375 C 8.09375 -4.472656 8.359375 -3.789062 8.359375 -2.9375 C 8.359375 -2.175781 8.160156 -1.550781 7.765625 -1.0625 C 7.378906 -0.570312 6.910156 -0.21875 6.359375 0 C 5.816406 0.21875 5.300781 0.328125 4.8125 0.328125 C 4.34375 0.328125 3.703125 0.21875 2.890625 0 C 2.523438 -0.113281 2.28125 -0.171875 2.15625 -0.171875 C 1.945312 -0.171875 1.804688 -0.113281 1.734375 0 L 1.234375 0 L 1.234375 -3.703125 L 1.640625 -3.703125 C 1.742188 -2.722656 2.097656 -1.925781 2.703125 -1.3125 C 3.304688 -0.707031 4.019531 -0.40625 4.84375 -0.40625 C 5.332031 -0.40625 5.757812 -0.5625 6.125 -0.875 C 6.488281 -1.195312 6.671875 -1.59375 6.671875 -2.0625 C 6.671875 -2.613281 6.507812 -3.046875 6.1875 -3.359375 C 5.875 -3.679688 5.523438 -3.957031 5.140625 -4.1875 C 4.753906 -4.414062 4.492188 -4.5625 4.359375 -4.625 C 4.296875 -4.675781 4.078125 -4.804688 3.703125 -5.015625 C 3.128906 -5.328125 2.671875 -5.601562 2.328125 -5.84375 C 1.992188 -6.09375 1.710938 -6.414062 1.484375 -6.8125 C 1.253906 -7.207031 1.140625 -7.695312 1.140625 -8.28125 C 1.140625 -9.164062 1.453125 -9.882812 2.078125 -10.4375 C 2.703125 -11 3.5 -11.28125 4.46875 -11.28125 Z M 4.46875 -11.28125 "/></g></g></g><g fill="#212121" fill-opacity="1"><g transform="translate(302.314966, 268.292422)"><g/></g></g><g fill="#212121" fill-opacity="1"><g transform="translate(308.840385, 268.292422)"><g><path d="M 10.796875 -17.015625 L 10.796875 -3.15625 C 10.796875 -2.394531 10.878906 -1.894531 11.046875 -1.65625 C 11.210938 -1.425781 11.46875 -1.3125 11.8125 -1.3125 C 11.976562 -1.3125 12.21875 -1.363281 12.53125 -1.46875 L 12.703125 -1.09375 L 8.859375 0.28125 L 8.859375 -1.28125 C 8.316406 -0.726562 7.785156 -0.320312 7.265625 -0.0625 C 6.742188 0.195312 6.164062 0.328125 5.53125 0.328125 C 4.675781 0.328125 3.882812 0.0820312 3.15625 -0.40625 C 2.425781 -0.894531 1.84375 -1.554688 1.40625 -2.390625 C 0.976562 -3.234375 0.765625 -4.140625 0.765625 -5.109375 C 0.765625 -6.191406 1.019531 -7.207031 1.53125 -8.15625 C 2.039062 -9.113281 2.722656 -9.875 3.578125 -10.4375 C 4.429688 -11 5.351562 -11.28125 6.34375 -11.28125 C 6.800781 -11.28125 7.226562 -11.210938 7.625 -11.078125 C 8.019531 -10.953125 8.429688 -10.738281 8.859375 -10.4375 L 8.859375 -13.84375 C 8.859375 -14.832031 8.515625 -15.328125 7.828125 -15.328125 C 7.722656 -15.328125 7.617188 -15.316406 7.515625 -15.296875 C 7.421875 -15.273438 7.304688 -15.234375 7.171875 -15.171875 L 6.984375 -15.5625 L 10.390625 -17.015625 Z M 2.890625 -5.953125 C 2.890625 -5.035156 3.0625 -4.203125 3.40625 -3.453125 C 3.75 -2.703125 4.207031 -2.101562 4.78125 -1.65625 C 5.363281 -1.21875 6 -1 6.6875 -1 C 7.539062 -1 8.265625 -1.363281 8.859375 -2.09375 L 8.859375 -7.453125 C 8.859375 -8.253906 8.691406 -8.890625 8.359375 -9.359375 C 8.023438 -9.828125 7.644531 -10.148438 7.21875 -10.328125 C 6.789062 -10.515625 6.398438 -10.609375 6.046875 -10.609375 C 5.492188 -10.609375 4.976562 -10.398438 4.5 -9.984375 C 4.019531 -9.578125 3.628906 -9.015625 3.328125 -8.296875 C 3.035156 -7.585938 2.890625 -6.804688 2.890625 -5.953125 Z M 2.890625 -5.953125 "/></g></g></g><g fill="#212121" fill-opacity="1"><g transform="translate(322.531496, 268.292422)"><g><path d="M 5.578125 -11.28125 C 6.804688 -11.28125 7.804688 -10.867188 8.578125 -10.046875 C 9.347656 -9.222656 9.734375 -8.148438 9.734375 -6.828125 L 2.28125 -6.828125 L 2.28125 -6.53125 C 2.28125 -5.6875 2.445312 -4.878906 2.78125 -4.109375 C 3.113281 -3.347656 3.578125 -2.726562 4.171875 -2.25 C 4.773438 -1.78125 5.457031 -1.546875 6.21875 -1.546875 C 7.71875 -1.546875 8.769531 -2.382812 9.375 -4.0625 L 9.734375 -3.875 C 9.472656 -2.570312 8.945312 -1.546875 8.15625 -0.796875 C 7.375 -0.046875 6.425781 0.328125 5.3125 0.328125 C 4.488281 0.328125 3.722656 0.113281 3.015625 -0.3125 C 2.316406 -0.738281 1.75 -1.378906 1.3125 -2.234375 C 0.882812 -3.085938 0.671875 -4.125 0.671875 -5.34375 C 0.671875 -6.507812 0.875 -7.539062 1.28125 -8.4375 C 1.695312 -9.34375 2.273438 -10.039062 3.015625 -10.53125 C 3.753906 -11.03125 4.609375 -11.28125 5.578125 -11.28125 Z M 4.90625 -10.4375 C 4.25 -10.4375 3.675781 -10.175781 3.1875 -9.65625 C 2.707031 -9.132812 2.421875 -8.441406 2.328125 -7.578125 L 7.28125 -7.578125 C 7.25 -8.429688 7.03125 -9.117188 6.625 -9.640625 C 6.226562 -10.171875 5.65625 -10.4375 4.90625 -10.4375 Z M 4.90625 -10.4375 "/></g></g></g><g fill="#212121" fill-opacity="1"><g transform="translate(333.517665, 268.292422)"><g/></g></g><g fill="#212121" fill-opacity="1"><g transform="translate(340.043084, 268.292422)"><g><path d="M 13.984375 -12.703125 L 13.578125 -12.703125 C 13.421875 -13.597656 13.128906 -14.265625 12.703125 -14.703125 C 12.273438 -15.140625 11.679688 -15.359375 10.921875 -15.359375 L 5.765625 -15.359375 L 5.765625 -9.0625 L 9.984375 -9.0625 C 10.742188 -9.0625 11.28125 -9.25 11.59375 -9.625 C 11.914062 -10.007812 12.085938 -10.613281 12.109375 -11.4375 L 12.53125 -11.4375 L 12.53125 -5.703125 L 12.109375 -5.703125 C 12.109375 -6.523438 11.945312 -7.128906 11.625 -7.515625 C 11.3125 -7.910156 10.75 -8.109375 9.9375 -8.109375 L 5.765625 -8.109375 L 5.765625 -2.15625 C 5.765625 -1.351562 6.082031 -0.953125 6.71875 -0.953125 L 10.890625 -0.953125 C 11.765625 -0.953125 12.53125 -1.21875 13.1875 -1.75 C 13.851562 -2.28125 14.394531 -3.050781 14.8125 -4.0625 L 15.3125 -4.0625 L 13.984375 0 L 0.859375 0 L 0.859375 -0.421875 C 1.679688 -0.421875 2.273438 -0.5625 2.640625 -0.84375 C 3.015625 -1.125 3.203125 -1.640625 3.203125 -2.390625 L 3.203125 -14.078125 C 3.203125 -14.710938 3.015625 -15.171875 2.640625 -15.453125 C 2.273438 -15.734375 1.679688 -15.875 0.859375 -15.875 L 0.859375 -16.3125 L 13.796875 -16.3125 Z M 13.984375 -12.703125 "/></g></g></g><g fill="#212121" fill-opacity="1"><g transform="translate(356.462833, 268.292422)"><g><path d="M 4.25 -8.953125 C 5.070312 -9.835938 5.742188 -10.445312 6.265625 -10.78125 C 6.785156 -11.113281 7.363281 -11.28125 8 -11.28125 C 8.695312 -11.28125 9.257812 -11.09375 9.6875 -10.71875 C 10.113281 -10.34375 10.421875 -9.882812 10.609375 -9.34375 C 10.796875 -8.8125 10.890625 -8.285156 10.890625 -7.765625 L 10.890625 -2.515625 C 10.890625 -1.710938 11.015625 -1.171875 11.265625 -0.890625 C 11.523438 -0.609375 11.960938 -0.453125 12.578125 -0.421875 L 12.578125 0 L 7.03125 0 L 7.03125 -0.421875 C 7.53125 -0.421875 7.914062 -0.476562 8.1875 -0.59375 C 8.457031 -0.707031 8.648438 -0.910156 8.765625 -1.203125 C 8.890625 -1.492188 8.953125 -1.929688 8.953125 -2.515625 L 8.953125 -7.859375 C 8.953125 -8.359375 8.785156 -8.816406 8.453125 -9.234375 C 8.117188 -9.660156 7.660156 -9.875 7.078125 -9.875 C 6.585938 -9.875 6.117188 -9.742188 5.671875 -9.484375 C 5.234375 -9.222656 4.757812 -8.820312 4.25 -8.28125 L 4.25 -2.515625 C 4.25 -1.691406 4.382812 -1.140625 4.65625 -0.859375 C 4.925781 -0.585938 5.390625 -0.441406 6.046875 -0.421875 L 6.046875 0 L 0.59375 0 L 0.59375 -0.421875 C 1.082031 -0.472656 1.445312 -0.5625 1.6875 -0.6875 C 1.925781 -0.8125 2.085938 -1.007812 2.171875 -1.28125 C 2.253906 -1.550781 2.296875 -1.9375 2.296875 -2.4375 L 2.296875 -8.359375 C 2.296875 -8.722656 2.21875 -9.035156 2.0625 -9.296875 C 1.90625 -9.566406 1.65625 -9.703125 1.3125 -9.703125 C 1.144531 -9.703125 0.992188 -9.675781 0.859375 -9.625 C 0.734375 -9.570312 0.644531 -9.535156 0.59375 -9.515625 L 0.421875 -9.96875 L 3.84375 -11.28125 L 4.25 -11.28125 Z M 4.25 -8.953125 "/></g></g></g><g fill="#212121" fill-opacity="1"><g transform="translate(370.153943, 268.292422)"><g><path d="M 6.03125 -11.28125 C 6.914062 -11.28125 7.726562 -11.046875 8.46875 -10.578125 L 11.0625 -10.578125 C 11.28125 -10.578125 11.410156 -10.546875 11.453125 -10.484375 C 11.492188 -10.421875 11.515625 -10.253906 11.515625 -9.984375 C 11.515625 -9.753906 11.5 -9.609375 11.46875 -9.546875 C 11.4375 -9.492188 11.335938 -9.46875 11.171875 -9.46875 L 9.375 -9.46875 C 9.59375 -9.125 9.75 -8.800781 9.84375 -8.5 C 9.9375 -8.195312 9.984375 -7.847656 9.984375 -7.453125 C 9.984375 -6.722656 9.8125 -6.066406 9.46875 -5.484375 C 9.125 -4.910156 8.640625 -4.460938 8.015625 -4.140625 C 7.390625 -3.816406 6.679688 -3.65625 5.890625 -3.65625 C 5.378906 -3.65625 4.851562 -3.734375 4.3125 -3.890625 C 3.6875 -3.316406 3.375 -2.84375 3.375 -2.46875 C 3.375 -2.257812 3.488281 -2.09375 3.71875 -1.96875 C 3.945312 -1.84375 4.425781 -1.78125 5.15625 -1.78125 L 7.859375 -1.78125 C 8.804688 -1.78125 9.632812 -1.570312 10.34375 -1.15625 C 11.0625 -0.75 11.421875 -0.140625 11.421875 0.671875 C 11.421875 1.421875 11.132812 2.132812 10.5625 2.8125 C 9.988281 3.488281 9.234375 4.023438 8.296875 4.421875 C 7.359375 4.828125 6.347656 5.03125 5.265625 5.03125 C 4.535156 5.03125 3.816406 4.921875 3.109375 4.703125 C 2.410156 4.492188 1.84375 4.210938 1.40625 3.859375 C 0.976562 3.515625 0.765625 3.160156 0.765625 2.796875 C 0.765625 2.492188 0.90625 2.132812 1.1875 1.71875 C 1.46875 1.300781 2.078125 0.625 3.015625 -0.3125 C 2.222656 -0.550781 1.828125 -0.9375 1.828125 -1.46875 C 1.828125 -1.894531 1.992188 -2.328125 2.328125 -2.765625 C 2.660156 -3.203125 3.125 -3.65625 3.71875 -4.125 C 3.09375 -4.457031 2.601562 -4.910156 2.25 -5.484375 C 1.90625 -6.066406 1.734375 -6.695312 1.734375 -7.375 C 1.734375 -8.101562 1.914062 -8.765625 2.28125 -9.359375 C 2.65625 -9.953125 3.171875 -10.421875 3.828125 -10.765625 C 4.484375 -11.109375 5.21875 -11.28125 6.03125 -11.28125 Z M 3.75 -8.375 C 3.75 -7.789062 3.828125 -7.179688 3.984375 -6.546875 C 4.140625 -5.910156 4.40625 -5.367188 4.78125 -4.921875 C 5.164062 -4.472656 5.648438 -4.25 6.234375 -4.25 C 6.765625 -4.25 7.1875 -4.5 7.5 -5 C 7.8125 -5.5 7.96875 -6.132812 7.96875 -6.90625 C 7.96875 -7.382812 7.878906 -7.910156 7.703125 -8.484375 C 7.535156 -9.054688 7.269531 -9.550781 6.90625 -9.96875 C 6.539062 -10.394531 6.070312 -10.609375 5.5 -10.609375 C 5.03125 -10.609375 4.617188 -10.40625 4.265625 -10 C 3.921875 -9.601562 3.75 -9.0625 3.75 -8.375 Z M 7.359375 0.03125 L 6.484375 0.03125 C 5.765625 0.03125 5.179688 0.0195312 4.734375 0 C 4.285156 -0.03125 3.894531 -0.09375 3.5625 -0.1875 C 3.195312 0.21875 2.925781 0.582031 2.75 0.90625 C 2.570312 1.238281 2.484375 1.550781 2.484375 1.84375 C 2.484375 2.414062 2.875 2.851562 3.65625 3.15625 C 4.445312 3.457031 5.394531 3.609375 6.5 3.609375 C 7.289062 3.609375 8.003906 3.503906 8.640625 3.296875 C 9.273438 3.085938 9.773438 2.800781 10.140625 2.4375 C 10.503906 2.082031 10.6875 1.679688 10.6875 1.234375 C 10.6875 0.722656 10.421875 0.394531 9.890625 0.25 C 9.359375 0.113281 8.515625 0.0390625 7.359375 0.03125 Z M 7.359375 0.03125 "/></g></g></g><g fill="#212121" fill-opacity="1"><g transform="translate(382.611216, 268.292422)"><g><path d="M 5.578125 -11.28125 C 6.804688 -11.28125 7.804688 -10.867188 8.578125 -10.046875 C 9.347656 -9.222656 9.734375 -8.148438 9.734375 -6.828125 L 2.28125 -6.828125 L 2.28125 -6.53125 C 2.28125 -5.6875 2.445312 -4.878906 2.78125 -4.109375 C 3.113281 -3.347656 3.578125 -2.726562 4.171875 -2.25 C 4.773438 -1.78125 5.457031 -1.546875 6.21875 -1.546875 C 7.71875 -1.546875 8.769531 -2.382812 9.375 -4.0625 L 9.734375 -3.875 C 9.472656 -2.570312 8.945312 -1.546875 8.15625 -0.796875 C 7.375 -0.046875 6.425781 0.328125 5.3125 0.328125 C 4.488281 0.328125 3.722656 0.113281 3.015625 -0.3125 C 2.316406 -0.738281 1.75 -1.378906 1.3125 -2.234375 C 0.882812 -3.085938 0.671875 -4.125 0.671875 -5.34375 C 0.671875 -6.507812 0.875 -7.539062 1.28125 -8.4375 C 1.695312 -9.34375 2.273438 -10.039062 3.015625 -10.53125 C 3.753906 -11.03125 4.609375 -11.28125 5.578125 -11.28125 Z M 4.90625 -10.4375 C 4.25 -10.4375 3.675781 -10.175781 3.1875 -9.65625 C 2.707031 -9.132812 2.421875 -8.441406 2.328125 -7.578125 L 7.28125 -7.578125 C 7.25 -8.429688 7.03125 -9.117188 6.625 -9.640625 C 6.226562 -10.171875 5.65625 -10.4375 4.90625 -10.4375 Z M 4.90625 -10.4375 "/></g></g></g><g fill="#212121" fill-opacity="1"><g transform="translate(393.597386, 268.292422)"><g><path d="M 4.25 -8.953125 C 5.070312 -9.835938 5.742188 -10.445312 6.265625 -10.78125 C 6.785156 -11.113281 7.363281 -11.28125 8 -11.28125 C 8.695312 -11.28125 9.257812 -11.09375 9.6875 -10.71875 C 10.113281 -10.34375 10.421875 -9.882812 10.609375 -9.34375 C 10.796875 -8.8125 10.890625 -8.285156 10.890625 -7.765625 L 10.890625 -2.515625 C 10.890625 -1.710938 11.015625 -1.171875 11.265625 -0.890625 C 11.523438 -0.609375 11.960938 -0.453125 12.578125 -0.421875 L 12.578125 0 L 7.03125 0 L 7.03125 -0.421875 C 7.53125 -0.421875 7.914062 -0.476562 8.1875 -0.59375 C 8.457031 -0.707031 8.648438 -0.910156 8.765625 -1.203125 C 8.890625 -1.492188 8.953125 -1.929688 8.953125 -2.515625 L 8.953125 -7.859375 C 8.953125 -8.359375 8.785156 -8.816406 8.453125 -9.234375 C 8.117188 -9.660156 7.660156 -9.875 7.078125 -9.875 C 6.585938 -9.875 6.117188 -9.742188 5.671875 -9.484375 C 5.234375 -9.222656 4.757812 -8.820312 4.25 -8.28125 L 4.25 -2.515625 C 4.25 -1.691406 4.382812 -1.140625 4.65625 -0.859375 C 4.925781 -0.585938 5.390625 -0.441406 6.046875 -0.421875 L 6.046875 0 L 0.59375 0 L 0.59375 -0.421875 C 1.082031 -0.472656 1.445312 -0.5625 1.6875 -0.6875 C 1.925781 -0.8125 2.085938 -1.007812 2.171875 -1.28125 C 2.253906 -1.550781 2.296875 -1.9375 2.296875 -2.4375 L 2.296875 -8.359375 C 2.296875 -8.722656 2.21875 -9.035156 2.0625 -9.296875 C 1.90625 -9.566406 1.65625 -9.703125 1.3125 -9.703125 C 1.144531 -9.703125 0.992188 -9.675781 0.859375 -9.625 C 0.734375 -9.570312 0.644531 -9.535156 0.59375 -9.515625 L 0.421875 -9.96875 L 3.84375 -11.28125 L 4.25 -11.28125 Z M 4.25 -8.953125 "/></g></g></g><g fill="#212121" fill-opacity="1"><g transform="translate(407.288496, 268.292422)"><g><path d="M 4.265625 -8.953125 L 4.3125 -8.953125 C 4.84375 -9.660156 5.4375 -10.222656 6.09375 -10.640625 C 6.757812 -11.066406 7.414062 -11.28125 8.0625 -11.28125 C 9 -11.28125 9.707031 -10.925781 10.1875 -10.21875 C 10.675781 -9.507812 10.921875 -8.644531 10.921875 -7.625 L 10.921875 -2.546875 C 10.921875 -1.941406 10.984375 -1.488281 11.109375 -1.1875 C 11.234375 -0.882812 11.414062 -0.679688 11.65625 -0.578125 C 11.90625 -0.472656 12.257812 -0.421875 12.71875 -0.421875 L 12.71875 0 L 7.21875 0 L 7.21875 -0.421875 C 7.644531 -0.421875 7.976562 -0.46875 8.21875 -0.5625 C 8.46875 -0.664062 8.65625 -0.863281 8.78125 -1.15625 C 8.90625 -1.457031 8.96875 -1.910156 8.96875 -2.515625 L 8.96875 -7.921875 C 8.96875 -8.429688 8.804688 -8.875 8.484375 -9.25 C 8.160156 -9.632812 7.695312 -9.828125 7.09375 -9.828125 C 6.601562 -9.828125 6.140625 -9.710938 5.703125 -9.484375 C 5.273438 -9.253906 4.796875 -8.878906 4.265625 -8.359375 L 4.265625 -2.515625 C 4.265625 -1.898438 4.320312 -1.445312 4.4375 -1.15625 C 4.5625 -0.863281 4.753906 -0.664062 5.015625 -0.5625 C 5.273438 -0.46875 5.660156 -0.421875 6.171875 -0.421875 L 6.171875 0 L 0.59375 0 L 0.59375 -0.421875 C 1.019531 -0.421875 1.351562 -0.472656 1.59375 -0.578125 C 1.84375 -0.679688 2.023438 -0.882812 2.140625 -1.1875 C 2.265625 -1.5 2.328125 -1.953125 2.328125 -2.546875 L 2.328125 -13.6875 C 2.328125 -14.351562 2.222656 -14.789062 2.015625 -15 C 1.804688 -15.21875 1.546875 -15.328125 1.234375 -15.328125 C 1.015625 -15.328125 0.800781 -15.28125 0.59375 -15.1875 L 0.453125 -15.59375 L 3.84375 -17.015625 L 4.265625 -17.015625 Z M 4.265625 -8.953125 "/></g></g></g><g fill="#212121" fill-opacity="1"><g transform="translate(420.979607, 268.292422)"><g><path d="M 5.671875 -11.28125 C 8.046875 -11.28125 9.234375 -10.328125 9.234375 -8.421875 L 9.234375 -2.140625 C 9.234375 -1.710938 9.296875 -1.429688 9.421875 -1.296875 C 9.546875 -1.160156 9.710938 -1.09375 9.921875 -1.09375 C 10.160156 -1.09375 10.378906 -1.160156 10.578125 -1.296875 C 10.785156 -1.429688 11.085938 -1.6875 11.484375 -2.0625 L 11.484375 -1.46875 C 10.878906 -0.789062 10.382812 -0.320312 10 -0.0625 C 9.613281 0.195312 9.21875 0.328125 8.8125 0.328125 C 8.34375 0.328125 7.96875 0.164062 7.6875 -0.15625 C 7.414062 -0.476562 7.28125 -0.957031 7.28125 -1.59375 C 6.582031 -0.925781 5.9375 -0.4375 5.34375 -0.125 C 4.757812 0.175781 4.117188 0.328125 3.421875 0.328125 C 2.722656 0.328125 2.132812 0.0664062 1.65625 -0.453125 C 1.1875 -0.972656 0.953125 -1.601562 0.953125 -2.34375 C 0.953125 -3.613281 1.625 -4.597656 2.96875 -5.296875 C 4.25 -5.972656 5.6875 -6.597656 7.28125 -7.171875 L 7.28125 -7.828125 C 7.28125 -8.460938 7.238281 -8.96875 7.15625 -9.34375 C 7.070312 -9.726562 6.875 -10.035156 6.5625 -10.265625 C 6.25 -10.492188 5.78125 -10.609375 5.15625 -10.609375 C 4.53125 -10.609375 4.066406 -10.457031 3.765625 -10.15625 C 3.472656 -9.851562 3.328125 -9.484375 3.328125 -9.046875 L 3.34375 -8.421875 C 3.34375 -8.148438 3.253906 -7.925781 3.078125 -7.75 C 2.910156 -7.582031 2.691406 -7.5 2.421875 -7.5 C 2.117188 -7.5 1.875 -7.582031 1.6875 -7.75 C 1.5 -7.925781 1.40625 -8.175781 1.40625 -8.5 C 1.40625 -9.289062 1.773438 -9.953125 2.515625 -10.484375 C 3.253906 -11.015625 4.304688 -11.28125 5.671875 -11.28125 Z M 2.96875 -2.96875 C 2.96875 -2.425781 3.132812 -1.960938 3.46875 -1.578125 C 3.8125 -1.203125 4.238281 -1.015625 4.75 -1.015625 C 5.550781 -1.015625 6.394531 -1.410156 7.28125 -2.203125 L 7.28125 -6.53125 C 6.175781 -6.070312 5.320312 -5.671875 4.71875 -5.328125 C 4.125 -4.984375 3.679688 -4.628906 3.390625 -4.265625 C 3.109375 -3.898438 2.96875 -3.46875 2.96875 -2.96875 Z M 2.96875 -2.96875 "/></g></g></g><g fill="#212121" fill-opacity="1"><g transform="translate(433.43688, 268.292422)"><g><path d="M 4.390625 -9.046875 L 4.4375 -9.046875 C 4.851562 -9.773438 5.300781 -10.328125 5.78125 -10.703125 C 6.257812 -11.085938 6.800781 -11.28125 7.40625 -11.28125 C 7.832031 -11.28125 8.179688 -11.144531 8.453125 -10.875 C 8.722656 -10.613281 8.859375 -10.296875 8.859375 -9.921875 C 8.859375 -9.617188 8.75 -9.363281 8.53125 -9.15625 C 8.320312 -8.957031 8.082031 -8.859375 7.8125 -8.859375 C 7.582031 -8.859375 7.394531 -8.898438 7.25 -8.984375 C 7.113281 -9.066406 6.972656 -9.179688 6.828125 -9.328125 C 6.796875 -9.335938 6.738281 -9.382812 6.65625 -9.46875 C 6.582031 -9.550781 6.503906 -9.609375 6.421875 -9.640625 C 6.335938 -9.679688 6.242188 -9.703125 6.140625 -9.703125 C 5.773438 -9.703125 5.460938 -9.554688 5.203125 -9.265625 C 4.941406 -8.972656 4.671875 -8.570312 4.390625 -8.0625 L 4.390625 -2.515625 C 4.390625 -1.898438 4.457031 -1.441406 4.59375 -1.140625 C 4.726562 -0.835938 4.9375 -0.640625 5.21875 -0.546875 C 5.507812 -0.460938 5.929688 -0.421875 6.484375 -0.421875 L 6.484375 0 L 0.640625 0 L 0.640625 -0.421875 L 0.765625 -0.421875 C 1.347656 -0.421875 1.769531 -0.5625 2.03125 -0.84375 C 2.300781 -1.132812 2.4375 -1.660156 2.4375 -2.421875 L 2.4375 -7.828125 C 2.4375 -8.578125 2.359375 -9.066406 2.203125 -9.296875 C 2.046875 -9.523438 1.769531 -9.640625 1.375 -9.640625 C 1.132812 -9.640625 0.9375 -9.59375 0.78125 -9.5 L 0.640625 -9.890625 L 3.96875 -11.28125 L 4.390625 -11.28125 Z M 4.390625 -9.046875 "/></g></g></g><g fill="#212121" fill-opacity="1"><g transform="translate(443.165514, 268.292422)"><g><path d="M 3.234375 -17.09375 C 3.578125 -17.09375 3.867188 -16.972656 4.109375 -16.734375 C 4.347656 -16.492188 4.46875 -16.207031 4.46875 -15.875 C 4.46875 -15.53125 4.347656 -15.238281 4.109375 -15 C 3.867188 -14.757812 3.578125 -14.640625 3.234375 -14.640625 C 2.898438 -14.640625 2.613281 -14.757812 2.375 -15 C 2.132812 -15.238281 2.015625 -15.53125 2.015625 -15.875 C 2.015625 -16.207031 2.132812 -16.492188 2.375 -16.734375 C 2.613281 -16.972656 2.898438 -17.09375 3.234375 -17.09375 Z M 4.265625 -2.46875 C 4.265625 -1.695312 4.390625 -1.164062 4.640625 -0.875 C 4.898438 -0.59375 5.316406 -0.441406 5.890625 -0.421875 L 5.890625 0 L 0.546875 0 L 0.546875 -0.421875 C 1.191406 -0.421875 1.648438 -0.570312 1.921875 -0.875 C 2.191406 -1.175781 2.328125 -1.722656 2.328125 -2.515625 L 2.328125 -8.265625 C 2.328125 -8.691406 2.226562 -9.035156 2.03125 -9.296875 C 1.84375 -9.566406 1.550781 -9.703125 1.15625 -9.703125 C 0.988281 -9.703125 0.832031 -9.664062 0.6875 -9.59375 L 0.546875 -10.015625 L 3.84375 -11.28125 L 4.265625 -11.28125 Z M 4.265625 -2.46875 "/></g></g></g><g fill="#212121" fill-opacity="1"><g transform="translate(450.189208, 268.292422)"><g><path d="M 5.671875 -11.28125 C 8.046875 -11.28125 9.234375 -10.328125 9.234375 -8.421875 L 9.234375 -2.140625 C 9.234375 -1.710938 9.296875 -1.429688 9.421875 -1.296875 C 9.546875 -1.160156 9.710938 -1.09375 9.921875 -1.09375 C 10.160156 -1.09375 10.378906 -1.160156 10.578125 -1.296875 C 10.785156 -1.429688 11.085938 -1.6875 11.484375 -2.0625 L 11.484375 -1.46875 C 10.878906 -0.789062 10.382812 -0.320312 10 -0.0625 C 9.613281 0.195312 9.21875 0.328125 8.8125 0.328125 C 8.34375 0.328125 7.96875 0.164062 7.6875 -0.15625 C 7.414062 -0.476562 7.28125 -0.957031 7.28125 -1.59375 C 6.582031 -0.925781 5.9375 -0.4375 5.34375 -0.125 C 4.757812 0.175781 4.117188 0.328125 3.421875 0.328125 C 2.722656 0.328125 2.132812 0.0664062 1.65625 -0.453125 C 1.1875 -0.972656 0.953125 -1.601562 0.953125 -2.34375 C 0.953125 -3.613281 1.625 -4.597656 2.96875 -5.296875 C 4.25 -5.972656 5.6875 -6.597656 7.28125 -7.171875 L 7.28125 -7.828125 C 7.28125 -8.460938 7.238281 -8.96875 7.15625 -9.34375 C 7.070312 -9.726562 6.875 -10.035156 6.5625 -10.265625 C 6.25 -10.492188 5.78125 -10.609375 5.15625 -10.609375 C 4.53125 -10.609375 4.066406 -10.457031 3.765625 -10.15625 C 3.472656 -9.851562 3.328125 -9.484375 3.328125 -9.046875 L 3.34375 -8.421875 C 3.34375 -8.148438 3.253906 -7.925781 3.078125 -7.75 C 2.910156 -7.582031 2.691406 -7.5 2.421875 -7.5 C 2.117188 -7.5 1.875 -7.582031 1.6875 -7.75 C 1.5 -7.925781 1.40625 -8.175781 1.40625 -8.5 C 1.40625 -9.289062 1.773438 -9.953125 2.515625 -10.484375 C 3.253906 -11.015625 4.304688 -11.28125 5.671875 -11.28125 Z M 2.96875 -2.96875 C 2.96875 -2.425781 3.132812 -1.960938 3.46875 -1.578125 C 3.8125 -1.203125 4.238281 -1.015625 4.75 -1.015625 C 5.550781 -1.015625 6.394531 -1.410156 7.28125 -2.203125 L 7.28125 -6.53125 C 6.175781 -6.070312 5.320312 -5.671875 4.71875 -5.328125 C 4.125 -4.984375 3.679688 -4.628906 3.390625 -4.265625 C 3.109375 -3.898438 2.96875 -3.46875 2.96875 -2.96875 Z M 2.96875 -2.96875 "/></g></g></g><path fill="#545454" d="M 66.734375 143.308594 C 45.335938 143.308594 27.996094 125.964844 27.996094 104.570312 C 27.996094 83.175781 45.335938 65.832031 66.734375 65.832031 C 88.128906 65.832031 105.472656 83.175781 105.472656 104.570312 C 105.472656 125.964844 88.128906 143.308594 66.734375 143.308594 Z M 120.5 104.570312 C 120.5 102.898438 120.410156 101.25 120.261719 99.617188 L 131.585938 93.726562 C 131.164062 91.171875 130.59375 88.667969 129.882812 86.222656 L 117.132812 85.820312 C 115.96875 82.691406 114.519531 79.699219 112.824219 76.878906 L 120.457031 66.65625 C 118.964844 64.550781 117.355469 62.539062 115.640625 60.628906 L 103.96875 65.804688 C 101.585938 63.515625 99 61.445312 96.230469 59.625 L 98.6875 47.097656 C 96.453125 45.855469 94.140625 44.738281 91.757812 43.757812 L 83.492188 53.480469 C 80.382812 52.464844 77.152344 51.726562 73.828125 51.285156 L 70.59375 38.9375 C 69.316406 38.863281 68.03125 38.824219 66.734375 38.824219 C 65.4375 38.824219 64.152344 38.863281 62.871094 38.9375 L 59.640625 51.285156 C 56.308594 51.726562 53.078125 52.464844 49.972656 53.480469 L 41.703125 43.757812 C 39.324219 44.738281 37.011719 45.855469 34.78125 47.097656 L 37.234375 59.625 C 34.46875 61.445312 31.878906 63.519531 29.496094 65.804688 L 17.828125 60.628906 C 16.109375 62.539062 14.5 64.550781 13.011719 66.65625 L 20.644531 76.878906 C 18.945312 79.699219 17.5 82.691406 16.335938 85.820312 L 3.582031 86.222656 C 2.875 88.667969 2.304688 91.175781 1.878906 93.726562 L 13.203125 99.617188 C 13.054688 101.25 12.96875 102.898438 12.96875 104.570312 C 12.96875 106.242188 13.054688 107.890625 13.203125 109.523438 L 1.878906 115.414062 C 2.304688 117.96875 2.875 120.472656 3.582031 122.917969 L 16.335938 123.320312 C 17.5 126.449219 18.945312 129.4375 20.644531 132.261719 L 13.011719 142.484375 C 14.5 144.589844 16.109375 146.601562 17.828125 148.511719 L 29.496094 143.335938 C 31.878906 145.621094 34.46875 147.695312 37.234375 149.515625 L 34.78125 162.042969 C 37.011719 163.285156 39.324219 164.402344 41.703125 165.382812 L 49.972656 155.660156 C 53.078125 156.675781 56.308594 157.414062 59.640625 157.855469 L 62.871094 170.203125 C 64.152344 170.277344 65.4375 170.320312 66.734375 170.320312 C 68.03125 170.320312 69.316406 170.277344 70.59375 170.203125 L 73.828125 157.855469 C 77.152344 157.417969 80.382812 156.675781 83.492188 155.660156 L 91.757812 165.382812 C 94.140625 164.402344 96.453125 163.285156 98.6875 162.042969 L 96.230469 149.515625 C 99 147.695312 101.585938 145.621094 103.96875 143.335938 L 115.640625 148.511719 C 117.359375 146.601562 118.96875 144.589844 120.457031 142.484375 L 112.824219 132.261719 C 114.523438 129.4375 115.96875 126.449219 117.132812 123.320312 L 129.882812 122.917969 C 130.59375 120.472656 131.164062 117.96875 131.585938 115.414062 L 120.261719 109.523438 C 120.410156 107.890625 120.5 106.242188 120.5 104.570312 " fill-opacity="1" fill-rule="nonzero"/><g clip-path="url(#a0970a62ab)"><path fill="#d9d9d9" d="M 66.734375 143.308594 L 66.734375 142.324219 C 56.304688 142.324219 46.875 138.097656 40.039062 131.265625 C 33.207031 124.429688 28.980469 114.996094 28.980469 104.570312 C 28.980469 94.144531 33.207031 84.710938 40.039062 77.875 C 46.875 71.042969 56.304688 66.820312 66.734375 66.816406 C 77.160156 66.820312 86.589844 71.042969 93.429688 77.875 C 100.261719 84.710938 104.484375 94.144531 104.484375 104.570312 C 104.484375 114.996094 100.261719 124.429688 93.429688 131.265625 C 86.589844 138.097656 77.160156 142.324219 66.734375 142.324219 L 66.734375 144.296875 C 88.671875 144.296875 106.460938 126.511719 106.460938 104.570312 C 106.460938 82.628906 88.671875 64.84375 66.734375 64.84375 C 44.789062 64.84375 27.007812 82.628906 27.007812 104.570312 C 27.007812 126.511719 44.789062 144.296875 66.734375 144.296875 Z M 120.5 104.570312 L 121.488281 104.570312 C 121.488281 102.863281 121.398438 101.183594 121.246094 99.527344 L 120.261719 99.617188 L 120.71875 100.496094 L 132.042969 94.601562 C 132.421875 94.40625 132.632812 93.984375 132.5625 93.5625 C 132.128906 90.972656 131.554688 88.429688 130.832031 85.945312 C 130.710938 85.535156 130.339844 85.246094 129.914062 85.234375 L 117.164062 84.832031 L 117.132812 85.820312 L 118.058594 85.472656 C 116.871094 82.289062 115.398438 79.242188 113.667969 76.367188 L 112.824219 76.878906 L 113.613281 77.46875 L 121.246094 67.246094 C 121.503906 66.902344 121.507812 66.4375 121.257812 66.085938 C 119.75 63.949219 118.117188 61.90625 116.375 59.96875 C 116.089844 59.652344 115.628906 59.554688 115.238281 59.726562 L 103.566406 64.902344 L 103.96875 65.804688 L 104.652344 65.09375 C 102.226562 62.761719 99.59375 60.652344 96.773438 58.800781 L 96.230469 59.625 L 97.199219 59.816406 L 99.65625 47.289062 C 99.738281 46.871094 99.539062 46.445312 99.167969 46.238281 C 96.902344 44.972656 94.554688 43.839844 92.136719 42.84375 C 91.738281 42.679688 91.28125 42.789062 91.003906 43.117188 L 82.738281 52.84375 L 83.492188 53.480469 L 83.800781 52.542969 C 80.636719 51.503906 77.34375 50.753906 73.957031 50.308594 L 73.828125 51.285156 L 74.78125 51.035156 L 71.546875 38.6875 C 71.441406 38.269531 71.078125 37.976562 70.648438 37.949219 C 69.355469 37.878906 68.050781 37.835938 66.734375 37.835938 C 65.417969 37.835938 64.113281 37.878906 62.816406 37.949219 C 62.386719 37.976562 62.027344 38.269531 61.917969 38.6875 L 58.683594 51.035156 L 59.640625 51.285156 L 59.511719 50.308594 C 56.121094 50.753906 52.832031 51.507812 49.664062 52.542969 L 49.972656 53.480469 L 50.726562 52.84375 L 42.457031 43.117188 C 42.179688 42.789062 41.726562 42.679688 41.328125 42.84375 C 38.910156 43.839844 36.5625 44.972656 34.296875 46.238281 C 33.925781 46.445312 33.730469 46.871094 33.808594 47.289062 L 36.265625 59.816406 L 37.234375 59.625 L 36.695312 58.800781 C 33.875 60.652344 31.238281 62.765625 28.8125 65.09375 L 29.496094 65.804688 L 29.898438 64.902344 L 18.226562 59.726562 C 17.839844 59.554688 17.378906 59.652344 17.09375 59.96875 C 15.347656 61.910156 13.714844 63.949219 12.207031 66.085938 C 11.960938 66.433594 11.96875 66.90625 12.222656 67.246094 L 19.851562 77.46875 L 20.644531 76.878906 L 19.796875 76.367188 C 18.066406 79.242188 16.59375 82.289062 15.410156 85.476562 L 16.335938 85.820312 L 16.304688 84.832031 L 3.550781 85.234375 C 3.121094 85.246094 2.75 85.535156 2.632812 85.945312 C 1.914062 88.429688 1.335938 90.972656 0.90625 93.566406 C 0.835938 93.988281 1.046875 94.410156 1.425781 94.605469 L 12.75 100.496094 L 13.203125 99.617188 L 12.21875 99.527344 C 12.066406 101.183594 11.980469 102.867188 11.980469 104.570312 C 11.980469 106.273438 12.066406 107.957031 12.222656 109.613281 L 13.203125 109.523438 L 12.75 108.644531 L 1.425781 114.539062 C 1.046875 114.734375 0.835938 115.15625 0.90625 115.578125 C 1.335938 118.167969 1.914062 120.710938 2.632812 123.195312 C 2.75 123.605469 3.121094 123.894531 3.550781 123.90625 L 16.304688 124.308594 L 16.335938 123.320312 L 15.410156 123.667969 C 16.59375 126.851562 18.066406 129.898438 19.796875 132.773438 L 20.644531 132.261719 L 19.851562 131.671875 L 12.222656 141.894531 C 11.96875 142.238281 11.960938 142.707031 12.207031 143.054688 C 13.714844 145.191406 15.347656 147.234375 17.09375 149.171875 C 17.378906 149.488281 17.839844 149.589844 18.230469 149.414062 L 29.898438 144.238281 L 29.496094 143.335938 L 28.8125 144.046875 C 31.238281 146.375 33.875 148.488281 36.695312 150.339844 L 37.234375 149.515625 L 36.265625 149.324219 L 33.808594 161.851562 C 33.730469 162.269531 33.925781 162.695312 34.296875 162.902344 C 36.5625 164.164062 38.910156 165.300781 41.332031 166.296875 C 41.722656 166.457031 42.179688 166.347656 42.457031 166.023438 L 50.726562 156.300781 L 49.972656 155.660156 L 49.667969 156.597656 C 52.832031 157.632812 56.121094 158.386719 59.511719 158.832031 L 59.640625 157.855469 L 58.683594 158.105469 L 61.917969 170.457031 C 62.027344 170.867188 62.390625 171.164062 62.816406 171.191406 C 64.109375 171.265625 65.414062 171.308594 66.734375 171.308594 C 68.050781 171.308594 69.355469 171.265625 70.652344 171.191406 C 71.074219 171.164062 71.441406 170.867188 71.546875 170.457031 L 74.78125 158.105469 L 73.828125 157.855469 L 73.957031 158.832031 C 77.34375 158.386719 80.636719 157.632812 83.796875 156.597656 L 83.492188 155.660156 L 82.738281 156.300781 L 91.003906 166.023438 C 91.28125 166.347656 91.738281 166.457031 92.132812 166.296875 C 94.554688 165.300781 96.902344 164.164062 99.167969 162.902344 C 99.539062 162.695312 99.738281 162.269531 99.65625 161.851562 L 97.199219 149.324219 L 96.230469 149.515625 L 96.773438 150.339844 C 99.59375 148.488281 102.226562 146.375 104.652344 144.046875 L 103.96875 143.335938 L 103.566406 144.238281 L 115.238281 149.414062 C 115.628906 149.589844 116.089844 149.488281 116.375 149.171875 C 118.117188 147.230469 119.75 145.191406 121.257812 143.054688 C 121.507812 142.707031 121.5 142.238281 121.246094 141.894531 L 113.613281 131.671875 L 112.824219 132.261719 L 113.667969 132.769531 C 115.398438 129.898438 116.871094 126.851562 118.058594 123.664062 L 117.132812 123.320312 L 117.164062 124.308594 L 129.914062 123.90625 C 130.34375 123.894531 130.714844 123.609375 130.832031 123.195312 C 131.554688 120.710938 132.128906 118.167969 132.5625 115.574219 C 132.632812 115.152344 132.421875 114.734375 132.042969 114.535156 L 120.71875 108.644531 L 120.261719 109.523438 L 121.246094 109.613281 C 121.398438 107.957031 121.488281 106.273438 121.488281 104.570312 L 119.511719 104.570312 C 119.511719 106.207031 119.425781 107.828125 119.277344 109.433594 C 119.242188 109.835938 119.449219 110.210938 119.804688 110.398438 L 131.132812 116.289062 L 131.585938 115.414062 L 130.613281 115.25 C 130.195312 117.769531 129.636719 120.234375 128.933594 122.644531 L 129.882812 122.917969 L 129.851562 121.933594 L 117.101562 122.332031 C 116.699219 122.347656 116.34375 122.597656 116.207031 122.976562 C 115.0625 126.046875 113.644531 128.980469 111.976562 131.753906 C 111.765625 132.09375 111.789062 132.53125 112.03125 132.851562 L 119.664062 143.078125 L 120.457031 142.484375 L 119.648438 141.914062 C 118.183594 143.988281 116.597656 145.96875 114.902344 147.851562 L 115.640625 148.511719 L 116.039062 147.609375 L 104.367188 142.433594 C 104 142.269531 103.574219 142.34375 103.285156 142.625 C 100.945312 144.867188 98.402344 146.902344 95.6875 148.691406 C 95.351562 148.910156 95.183594 149.3125 95.261719 149.707031 L 97.71875 162.230469 L 98.6875 162.042969 L 98.207031 161.179688 C 96.007812 162.402344 93.730469 163.503906 91.382812 164.46875 L 91.757812 165.382812 L 92.511719 164.742188 L 84.246094 155.019531 C 83.984375 154.714844 83.566406 154.597656 83.183594 154.722656 C 80.136719 155.71875 76.964844 156.445312 73.695312 156.875 C 73.296875 156.929688 72.972656 157.214844 72.871094 157.605469 L 69.640625 169.953125 L 70.59375 170.203125 L 70.535156 169.21875 C 69.273438 169.292969 68.007812 169.332031 66.734375 169.332031 C 65.457031 169.332031 64.195312 169.292969 62.929688 169.21875 L 62.871094 170.203125 L 63.828125 169.953125 L 60.59375 157.605469 C 60.492188 157.214844 60.167969 156.929688 59.769531 156.875 C 56.5 156.445312 53.332031 155.71875 50.28125 154.722656 C 49.898438 154.597656 49.480469 154.714844 49.222656 155.019531 L 40.953125 164.742188 L 41.703125 165.382812 L 42.082031 164.46875 C 39.734375 163.503906 37.460938 162.402344 35.261719 161.175781 L 34.78125 162.042969 L 35.75 162.230469 L 38.207031 149.707031 C 38.28125 149.3125 38.113281 148.910156 37.78125 148.691406 C 35.0625 146.902344 32.519531 144.867188 30.179688 142.625 C 29.890625 142.34375 29.464844 142.269531 29.097656 142.433594 L 17.429688 147.609375 L 17.828125 148.511719 L 18.5625 147.851562 C 16.867188 145.96875 15.285156 143.988281 13.820312 141.914062 L 13.011719 142.484375 L 13.804688 143.078125 L 21.433594 132.851562 C 21.675781 132.53125 21.695312 132.097656 21.488281 131.753906 C 19.820312 128.980469 18.402344 126.046875 17.261719 122.976562 C 17.121094 122.597656 16.765625 122.347656 16.363281 122.332031 L 3.609375 121.933594 L 3.582031 122.917969 L 4.53125 122.644531 C 3.832031 120.238281 3.273438 117.769531 2.851562 115.253906 L 1.878906 115.414062 L 2.335938 116.289062 L 13.660156 110.398438 C 14.015625 110.210938 14.222656 109.832031 14.1875 109.429688 C 14.039062 107.828125 13.957031 106.207031 13.957031 104.570312 C 13.957031 102.933594 14.039062 101.3125 14.1875 99.710938 C 14.222656 99.308594 14.015625 98.929688 13.660156 98.742188 L 2.335938 92.851562 L 1.878906 93.726562 L 2.851562 93.890625 C 3.273438 91.371094 3.832031 88.90625 4.53125 86.496094 L 3.582031 86.222656 L 3.609375 87.207031 L 16.363281 86.808594 C 16.765625 86.796875 17.121094 86.542969 17.261719 86.164062 C 18.402344 83.09375 19.820312 80.160156 21.488281 77.386719 C 21.695312 77.042969 21.675781 76.609375 21.433594 76.285156 L 13.804688 66.066406 L 13.011719 66.65625 L 13.820312 67.226562 C 15.285156 65.152344 16.867188 63.171875 18.5625 61.289062 L 17.828125 60.628906 L 17.429688 61.53125 L 29.097656 66.707031 C 29.464844 66.871094 29.890625 66.796875 30.179688 66.515625 C 32.519531 64.273438 35.0625 62.238281 37.78125 60.449219 C 38.113281 60.230469 38.28125 59.828125 38.207031 59.433594 L 35.75 46.910156 L 34.78125 47.097656 L 35.261719 47.964844 C 37.457031 46.738281 39.734375 45.640625 42.082031 44.667969 L 41.703125 43.757812 L 40.953125 44.394531 L 49.21875 54.121094 C 49.480469 54.429688 49.898438 54.546875 50.28125 54.421875 C 53.332031 53.421875 56.5 52.695312 59.769531 52.265625 C 60.167969 52.210938 60.492188 51.925781 60.59375 51.535156 L 63.828125 39.1875 L 62.871094 38.9375 L 62.929688 39.921875 C 64.191406 39.851562 65.457031 39.808594 66.734375 39.808594 C 68.007812 39.808594 69.277344 39.851562 70.539062 39.921875 L 70.59375 38.9375 L 69.640625 39.1875 L 72.875 51.535156 C 72.972656 51.925781 73.300781 52.210938 73.699219 52.265625 C 76.964844 52.695312 80.136719 53.421875 83.183594 54.421875 C 83.566406 54.546875 83.984375 54.429688 84.246094 54.121094 L 92.511719 44.394531 L 91.757812 43.757812 L 91.382812 44.667969 C 93.730469 45.640625 96.007812 46.738281 98.207031 47.964844 L 98.6875 47.097656 L 97.71875 46.910156 L 95.261719 59.433594 C 95.183594 59.828125 95.351562 60.230469 95.6875 60.449219 C 98.402344 62.238281 100.945312 64.269531 103.285156 66.515625 C 103.574219 66.796875 104 66.871094 104.367188 66.707031 L 116.039062 61.53125 L 115.640625 60.628906 L 114.902344 61.289062 C 116.59375 63.171875 118.179688 65.152344 119.648438 67.226562 L 120.457031 66.65625 L 119.664062 66.0625 L 112.03125 76.285156 C 111.789062 76.609375 111.765625 77.042969 111.976562 77.386719 C 113.640625 80.15625 115.0625 83.09375 116.207031 86.164062 C 116.34375 86.539062 116.699219 86.792969 117.101562 86.804688 L 129.851562 87.207031 L 129.882812 86.222656 L 128.933594 86.496094 C 129.636719 88.902344 130.195312 91.371094 130.613281 93.886719 L 131.585938 93.726562 L 131.132812 92.851562 L 119.804688 98.742188 C 119.449219 98.929688 119.242188 99.308594 119.277344 99.710938 C 119.425781 101.3125 119.511719 102.933594 119.511719 104.570312 L 120.5 104.570312 " fill-opacity="1" fill-rule="nonzero"/></g><path fill="#545454" d="M 66.734375 61.296875 C 42.871094 61.296875 23.460938 80.707031 23.460938 104.570312 C 23.460938 128.429688 42.871094 147.84375 66.734375 147.84375 C 90.59375 147.84375 110.007812 128.429688 110.007812 104.570312 C 110.007812 80.707031 90.59375 61.296875 66.734375 61.296875 Z M 66.734375 65.832031 C 88.128906 65.832031 105.472656 83.175781 105.472656 104.570312 C 105.472656 125.964844 88.128906 143.308594 66.734375 143.308594 C 45.335938 143.308594 27.996094 125.964844 27.996094 104.570312 C 27.996094 83.175781 45.335938 65.832031 66.734375 65.832031 " fill-opacity="1" fill-rule="nonzero"/><path fill="#d9d9d9" d="M 66.734375 61.296875 L 66.734375 60.308594 C 42.324219 60.308594 22.472656 80.160156 22.472656 104.570312 C 22.472656 128.976562 42.324219 148.828125 66.734375 148.832031 C 91.140625 148.828125 110.992188 128.976562 110.992188 104.570312 C 110.992188 80.160156 91.140625 60.308594 66.734375 60.308594 L 66.734375 62.285156 C 78.390625 62.285156 88.957031 67.023438 96.617188 74.683594 C 104.277344 82.34375 109.019531 92.910156 109.019531 104.570312 C 109.019531 116.230469 104.277344 126.792969 96.617188 134.457031 C 88.957031 142.117188 78.390625 146.855469 66.734375 146.855469 C 55.074219 146.855469 44.507812 142.117188 36.847656 134.457031 C 29.1875 126.792969 24.449219 116.230469 24.449219 104.570312 C 24.449219 92.910156 29.1875 82.34375 36.847656 74.683594 C 44.507812 67.023438 55.074219 62.285156 66.734375 62.285156 Z M 66.734375 66.816406 C 77.160156 66.820312 86.589844 71.042969 93.429688 77.875 C 100.261719 84.710938 104.484375 94.144531 104.484375 104.570312 C 104.484375 114.996094 100.261719 124.429688 93.429688 131.265625 C 86.589844 138.097656 77.160156 142.324219 66.734375 142.324219 C 56.304688 142.324219 46.875 138.097656 40.039062 131.265625 C 33.207031 124.429688 28.980469 114.996094 28.980469 104.570312 C 28.980469 94.144531 33.207031 84.710938 40.039062 77.875 C 46.875 71.042969 56.304688 66.820312 66.734375 66.816406 L 66.734375 64.84375 C 44.789062 64.84375 27.007812 82.628906 27.007812 104.570312 C 27.007812 126.511719 44.789062 144.296875 66.734375 144.296875 C 88.671875 144.296875 106.460938 126.511719 106.460938 104.570312 C 106.460938 82.628906 88.671875 64.84375 66.734375 64.84375 L 66.734375 66.816406 " fill-opacity="1" fill-rule="nonzero"/><g clip-path="url(#0b56aa4d8f)"><path fill="#ff3131" d="M 1.320312 274.078125 C 45.992188 253.230469 93.34375 237.957031 141.785156 228.074219 L 159.996094 224.601562 L 178.304688 221.664062 L 196.695312 219.21875 L 215.136719 217.261719 C 239.773438 215.011719 264.53125 214.132812 289.269531 214.503906 C 314.007812 214.972656 338.71875 216.703125 363.265625 219.777344 L 381.628906 222.363281 L 399.925781 225.429688 L 418.128906 228.988281 L 436.214844 233.074219 C 484.28125 244.601562 531.085938 261.476562 575.027344 283.851562 C 530.039062 263.6875 483.144531 248.15625 435.183594 237.539062 L 417.148438 233.804688 L 399.03125 230.488281 L 380.847656 227.648438 L 362.589844 225.289062 C 338.21875 222.402344 313.707031 220.730469 289.171875 220.359375 C 264.632812 219.890625 240.074219 220.734375 215.625 222.777344 L 197.292969 224.515625 L 179.019531 226.738281 L 160.804688 229.429688 L 142.652344 232.546875 C 94.359375 241.535156 46.960938 255.460938 1.320312 274.078125 Z M 1.320312 274.078125 " fill-opacity="1" fill-rule="nonzero"/></g><g clip-path="url(#037b294f73)"><path fill="#1E1F1C" d="M 176.644531 240.257812 L 111.90625 240.257812 L 71.710938 174.976562 L 56.210938 174.976562 L 56.210938 240.257812 L 0.894531 240.257812 L 0.8125 173.941406 L 55.941406 123.433594 L 78.558594 123.5625 C 90.324219 123.691406 101.046875 115.417969 101.046875 102.625 C 101.046875 89.699219 90.1875 81.691406 78.558594 81.691406 L 55.949219 81.691406 L 0.640625 31.941406 L 79.726562 31.941406 C 124.695312 31.941406 156.875 62.308594 156.875 99.660156 C 156.875 125.632812 141.234375 147.347656 120.820312 156.652344 Z M 176.644531 240.257812 " fill-opacity="1" fill-rule="nonzero"/></g><g fill="#1E1F1C" fill-opacity="1"><g transform="translate(176.624533, 194.567215)"><g><path d="M 13.40625 -14.453125 L 37.875 -73.65625 L 38.9375 -73.65625 L 63.3125 -14.25 C 64.925781 -10.238281 66.523438 -7.175781 68.109375 -5.0625 C 69.691406 -2.957031 71.75 -1.90625 74.28125 -1.90625 L 74.28125 0 L 40.40625 0 L 40.40625 -1.90625 C 43.789062 -1.96875 46.046875 -2.226562 47.171875 -2.6875 C 48.296875 -3.144531 48.859375 -4.179688 48.859375 -5.796875 C 48.859375 -6.296875 48.734375 -6.859375 48.484375 -7.484375 C 48.234375 -8.117188 48.039062 -8.648438 47.90625 -9.078125 L 43.359375 -20.46875 L 20.15625 -20.46875 L 16.875 -12.5625 C 15.894531 -10.59375 15.40625 -8.867188 15.40625 -7.390625 C 15.40625 -5.203125 16.210938 -3.738281 17.828125 -3 C 19.453125 -2.269531 21.738281 -1.90625 24.6875 -1.90625 L 24.6875 0 L 1.484375 0 L 1.484375 -1.90625 C 3.867188 -2.113281 6.007812 -3.203125 7.90625 -5.171875 C 9.8125 -7.140625 11.644531 -10.234375 13.40625 -14.453125 Z M 41.78125 -24.375 L 31.765625 -48.640625 L 21.734375 -24.375 Z M 41.78125 -24.375 "/></g></g></g><g fill="#1E1F1C" fill-opacity="1"><g transform="translate(257.761782, 194.567215)"><g><path d="M 52.4375 -22.6875 L 74.8125 -72.484375 L 102.984375 -72.484375 L 102.984375 -70.59375 C 100.585938 -70.519531 98.738281 -70.304688 97.4375 -69.953125 C 96.132812 -69.597656 95.148438 -68.820312 94.484375 -67.625 C 93.816406 -66.4375 93.484375 -64.644531 93.484375 -62.25 L 93.484375 -11.078125 C 93.484375 -8.335938 93.816406 -6.316406 94.484375 -5.015625 C 95.148438 -3.710938 96.117188 -2.882812 97.390625 -2.53125 C 98.660156 -2.175781 100.523438 -1.96875 102.984375 -1.90625 L 102.984375 0 L 66.265625 0 L 66.265625 -1.90625 C 69.003906 -1.96875 71.078125 -2.191406 72.484375 -2.578125 C 73.890625 -2.972656 74.925781 -3.800781 75.59375 -5.0625 C 76.269531 -6.332031 76.609375 -8.300781 76.609375 -10.96875 L 76.609375 -67 L 76.390625 -67 L 46.421875 0 L 44.953125 0 L 15.09375 -66.46875 L 14.875 -66.46875 L 14.875 -10.546875 C 14.875 -7.597656 15.71875 -5.421875 17.40625 -4.015625 C 19.09375 -2.609375 21.660156 -1.90625 25.109375 -1.90625 L 25.109375 0 L 1.578125 0 L 1.578125 -1.90625 C 4.742188 -1.90625 7.132812 -2.75 8.75 -4.4375 C 10.375 -6.125 11.1875 -8.269531 11.1875 -10.875 L 11.1875 -61.40625 C 11.1875 -63.9375 10.882812 -65.851562 10.28125 -67.15625 C 9.6875 -68.457031 8.71875 -69.335938 7.375 -69.796875 C 6.039062 -70.253906 4.109375 -70.519531 1.578125 -70.59375 L 1.578125 -72.484375 L 29.96875 -72.484375 Z M 52.4375 -22.6875 "/></g></g></g><g fill="#1E1F1C" fill-opacity="1"><g transform="translate(367.492194, 194.567215)"><g><path d="M 43.265625 -74.078125 C 50.367188 -74.078125 56.910156 -72.5625 62.890625 -69.53125 C 68.867188 -66.507812 73.613281 -62.113281 77.125 -56.34375 C 80.644531 -50.570312 82.40625 -43.785156 82.40625 -35.984375 C 82.40625 -29.015625 80.820312 -22.679688 77.65625 -16.984375 C 74.488281 -11.285156 69.953125 -6.78125 64.046875 -3.46875 C 58.140625 -0.164062 51.242188 1.484375 43.359375 1.484375 C 35.765625 1.484375 29.015625 -0.113281 23.109375 -3.3125 C 17.203125 -6.519531 12.59375 -10.972656 9.28125 -16.671875 C 5.976562 -22.367188 4.328125 -28.910156 4.328125 -36.296875 C 4.328125 -43.546875 5.992188 -50.035156 9.328125 -55.765625 C 12.671875 -61.492188 17.296875 -65.976562 23.203125 -69.21875 C 29.117188 -72.457031 35.804688 -74.078125 43.265625 -74.078125 Z M 23.109375 -36.515625 C 23.109375 -30.878906 23.789062 -25.457031 25.15625 -20.25 C 26.53125 -15.050781 28.710938 -10.742188 31.703125 -7.328125 C 34.691406 -3.921875 38.546875 -2.21875 43.265625 -2.21875 C 47.335938 -2.21875 50.90625 -3.570312 53.96875 -6.28125 C 57.03125 -8.988281 59.40625 -12.851562 61.09375 -17.875 C 62.78125 -22.90625 63.625 -28.800781 63.625 -35.5625 C 63.625 -42.875 62.796875 -49.148438 61.140625 -54.390625 C 59.492188 -59.628906 57.140625 -63.601562 54.078125 -66.3125 C 51.015625 -69.019531 47.441406 -70.375 43.359375 -70.375 C 39.640625 -70.375 36.25 -69.125 33.1875 -66.625 C 30.125 -64.132812 27.675781 -60.335938 25.84375 -55.234375 C 24.019531 -50.140625 23.109375 -43.898438 23.109375 -36.515625 Z M 23.109375 -36.515625 "/></g></g></g><g fill="#1E1F1C" fill-opacity="1"><g transform="translate(426.506836, 189.792674)"><g><path d="M 52.125 -107.953125 C 48.144531 -107.953125 45.347656 -107.519531 43.734375 -106.65625 C 42.117188 -105.800781 41.3125 -104.351562 41.3125 -102.3125 C 41.3125 -100.695312 41.742188 -98.8125 42.609375 -96.65625 L 67.296875 -34.703125 L 89.71875 -89.71875 C 91.550781 -94.34375 92.46875 -97.570312 92.46875 -99.40625 C 92.46875 -101.988281 91.5 -104.054688 89.5625 -105.609375 C 87.625 -107.171875 84.503906 -107.953125 80.203125 -107.953125 L 80.203125 -110.859375 L 113.453125 -110.859375 L 113.453125 -107.953125 C 109.460938 -107.953125 105.960938 -105.878906 102.953125 -101.734375 C 99.941406 -97.597656 96.929688 -91.820312 93.921875 -84.40625 L 58.421875 2.265625 L 55.515625 2.265625 L 16.296875 -95.703125 C 14.472656 -100.429688 12.695312 -103.65625 10.96875 -105.375 C 9.25 -107.09375 6.507812 -107.953125 2.75 -107.953125 L 2.75 -110.859375 L 52.125 -110.859375 Z M 52.125 -107.953125 "/></g></g></g></svg>