<svg xmlns="http://www.w3.org/2000/svg" xmlns:xlink="http://www.w3.org/1999/xlink" width="812" zoomAndPan="magnify" viewBox="0 0 609 312.749988" height="417" preserveAspectRatio="xMidYMid meet" version="1.0"><defs><g/><clipPath id="ac978cf4e3"><path d="M 0.242188 214.3125 L 575.78125 214.3125 L 575.78125 284.007812 L 0.242188 284.007812 Z M 0.242188 214.3125 " clip-rule="nonzero"/></clipPath><clipPath id="6302229147"><path d="M 0.242188 37.839844 L 132.136719 37.839844 L 132.136719 171.234375 L 0.242188 171.234375 Z M 0.242188 37.839844 " clip-rule="nonzero"/></clipPath><clipPath id="340bfb9370"><path d="M 0.242188 31.828125 L 176.351562 31.828125 L 176.351562 240.910156 L 0.242188 240.910156 Z M 0.242188 31.828125 " clip-rule="nonzero"/></clipPath></defs><g fill="#212121" fill-opacity="1"><g transform="translate(54.849999, 289.282127)"><g><path d="M 17.5625 -14.828125 C 17.5625 -13.773438 17.269531 -12.8125 16.6875 -11.9375 C 16.113281 -11.070312 15.320312 -10.390625 14.3125 -9.890625 C 13.300781 -9.390625 12.164062 -9.140625 10.90625 -9.140625 C 9.507812 -9.140625 8.179688 -9.367188 6.921875 -9.828125 L 6.921875 -3.03125 C 6.921875 -2.03125 7.164062 -1.363281 7.65625 -1.03125 C 8.144531 -0.707031 8.929688 -0.546875 10.015625 -0.546875 L 10.015625 0 L 0.75 0 L 0.75 -0.546875 C 1.84375 -0.546875 2.601562 -0.726562 3.03125 -1.09375 C 3.46875 -1.457031 3.6875 -2.101562 3.6875 -3.03125 L 3.6875 -17.59375 C 3.6875 -18.53125 3.457031 -19.171875 3 -19.515625 C 2.539062 -19.867188 1.847656 -20.046875 0.921875 -20.046875 L 0.75 -20.046875 L 0.75 -20.59375 L 9.765625 -20.59375 C 11.066406 -20.59375 12.3125 -20.390625 13.5 -19.984375 C 14.6875 -19.585938 15.660156 -18.953125 16.421875 -18.078125 C 17.179688 -17.210938 17.5625 -16.128906 17.5625 -14.828125 Z M 6.921875 -19.0625 L 6.921875 -10.875 C 7.859375 -10.476562 8.707031 -10.28125 9.46875 -10.28125 C 10.769531 -10.28125 11.816406 -10.679688 12.609375 -11.484375 C 13.410156 -12.296875 13.8125 -13.375 13.8125 -14.71875 C 13.8125 -16.113281 13.390625 -17.25 12.546875 -18.125 C 11.710938 -19.007812 10.554688 -19.453125 9.078125 -19.453125 C 8.421875 -19.453125 7.703125 -19.320312 6.921875 -19.0625 Z M 6.921875 -19.0625 "/></g></g></g><g fill="#212121" fill-opacity="1"><g transform="translate(73.697896, 289.282127)"><g><path d="M 5.546875 -11.421875 L 5.609375 -11.421875 C 6.128906 -12.335938 6.691406 -13.035156 7.296875 -13.515625 C 7.910156 -13.992188 8.59375 -14.234375 9.34375 -14.234375 C 9.882812 -14.234375 10.320312 -14.066406 10.65625 -13.734375 C 11 -13.410156 11.171875 -13.007812 11.171875 -12.53125 C 11.171875 -12.144531 11.035156 -11.820312 10.765625 -11.5625 C 10.503906 -11.300781 10.203125 -11.171875 9.859375 -11.171875 C 9.578125 -11.171875 9.347656 -11.226562 9.171875 -11.34375 C 8.992188 -11.457031 8.8125 -11.601562 8.625 -11.78125 C 8.59375 -11.800781 8.523438 -11.859375 8.421875 -11.953125 C 8.316406 -12.054688 8.207031 -12.128906 8.09375 -12.171875 C 7.988281 -12.222656 7.878906 -12.25 7.765625 -12.25 C 7.304688 -12.25 6.910156 -12.0625 6.578125 -11.6875 C 6.242188 -11.320312 5.898438 -10.820312 5.546875 -10.1875 L 5.546875 -3.171875 C 5.546875 -2.398438 5.628906 -1.820312 5.796875 -1.4375 C 5.960938 -1.0625 6.222656 -0.816406 6.578125 -0.703125 C 6.941406 -0.597656 7.476562 -0.546875 8.1875 -0.546875 L 8.1875 0 L 0.8125 0 L 0.8125 -0.546875 L 0.953125 -0.546875 C 1.691406 -0.546875 2.234375 -0.722656 2.578125 -1.078125 C 2.921875 -1.441406 3.09375 -2.101562 3.09375 -3.0625 L 3.09375 -9.890625 C 3.09375 -10.828125 2.988281 -11.441406 2.78125 -11.734375 C 2.582031 -12.023438 2.234375 -12.171875 1.734375 -12.171875 C 1.429688 -12.171875 1.179688 -12.109375 0.984375 -11.984375 L 0.8125 -12.5 L 5 -14.234375 L 5.546875 -14.234375 Z M 5.546875 -11.421875 "/></g></g></g><g fill="#212121" fill-opacity="1"><g transform="translate(85.983583, 289.282127)"><g><path d="M 8.546875 -14.234375 C 9.722656 -14.234375 10.820312 -13.914062 11.84375 -13.28125 C 12.875 -12.65625 13.691406 -11.816406 14.296875 -10.765625 C 14.910156 -9.722656 15.21875 -8.601562 15.21875 -7.40625 C 15.21875 -6 14.890625 -4.695312 14.234375 -3.5 C 13.578125 -2.300781 12.691406 -1.347656 11.578125 -0.640625 C 10.472656 0.0664062 9.289062 0.421875 8.03125 0.421875 C 6.832031 0.421875 5.71875 0.109375 4.6875 -0.515625 C 3.65625 -1.148438 2.835938 -2 2.234375 -3.0625 C 1.640625 -4.132812 1.34375 -5.300781 1.34375 -6.5625 C 1.34375 -7.914062 1.671875 -9.179688 2.328125 -10.359375 C 2.992188 -11.546875 3.878906 -12.488281 4.984375 -13.1875 C 6.097656 -13.882812 7.285156 -14.234375 8.546875 -14.234375 Z M 4.046875 -7.765625 C 4.046875 -6.585938 4.226562 -5.453125 4.59375 -4.359375 C 4.96875 -3.273438 5.503906 -2.378906 6.203125 -1.671875 C 6.898438 -0.972656 7.738281 -0.625 8.71875 -0.625 C 9.851562 -0.625 10.769531 -1.128906 11.46875 -2.140625 C 12.175781 -3.148438 12.53125 -4.484375 12.53125 -6.140625 C 12.53125 -7.460938 12.328125 -8.65625 11.921875 -9.71875 C 11.523438 -10.789062 10.96875 -11.632812 10.25 -12.25 C 9.53125 -12.875 8.710938 -13.1875 7.796875 -13.1875 C 6.648438 -13.1875 5.738281 -12.695312 5.0625 -11.71875 C 4.382812 -10.738281 4.046875 -9.421875 4.046875 -7.765625 Z M 4.046875 -7.765625 "/></g></g></g><g fill="#212121" fill-opacity="1"><g transform="translate(103.273329, 289.282127)"><g><path d="M 4.40625 -21.578125 C 4.84375 -21.578125 5.210938 -21.425781 5.515625 -21.125 C 5.816406 -20.820312 5.96875 -20.460938 5.96875 -20.046875 C 5.96875 -19.609375 5.816406 -19.238281 5.515625 -18.9375 C 5.210938 -18.632812 4.84375 -18.484375 4.40625 -18.484375 C 3.988281 -18.484375 3.628906 -18.632812 3.328125 -18.9375 C 3.023438 -19.238281 2.875 -19.609375 2.875 -20.046875 C 2.875 -20.460938 3.023438 -20.820312 3.328125 -21.125 C 3.628906 -21.425781 3.988281 -21.578125 4.40625 -21.578125 Z M 5.78125 -0.546875 C 5.78125 1.515625 5.347656 3.179688 4.484375 4.453125 C 3.628906 5.722656 2.296875 6.359375 0.484375 6.359375 C -0.296875 6.359375 -0.9375 6.21875 -1.4375 5.9375 C -1.9375 5.65625 -2.1875 5.296875 -2.1875 4.859375 C -2.1875 4.515625 -2.0625 4.21875 -1.8125 3.96875 C -1.5625 3.71875 -1.265625 3.59375 -0.921875 3.59375 C -0.609375 3.59375 -0.328125 3.664062 -0.078125 3.8125 C 0.171875 3.96875 0.457031 4.1875 0.78125 4.46875 C 1 4.6875 1.195312 4.851562 1.375 4.96875 C 1.550781 5.09375 1.742188 5.15625 1.953125 5.15625 C 2.472656 5.15625 2.832031 4.894531 3.03125 4.375 C 3.226562 3.851562 3.328125 3.253906 3.328125 2.578125 L 3.328125 -10.21875 C 3.328125 -10.914062 3.207031 -11.441406 2.96875 -11.796875 C 2.726562 -12.160156 2.378906 -12.34375 1.921875 -12.34375 C 1.597656 -12.34375 1.304688 -12.285156 1.046875 -12.171875 L 0.875 -12.703125 L 5.28125 -14.234375 L 5.78125 -14.234375 Z M 5.78125 -0.546875 "/></g></g></g><g fill="#212121" fill-opacity="1"><g transform="translate(112.143078, 289.282127)"><g><path d="M 7.046875 -14.234375 C 8.597656 -14.234375 9.859375 -13.710938 10.828125 -12.671875 C 11.796875 -11.640625 12.28125 -10.289062 12.28125 -8.625 L 2.875 -8.625 L 2.875 -8.234375 C 2.875 -7.179688 3.082031 -6.171875 3.5 -5.203125 C 3.925781 -4.234375 4.515625 -3.445312 5.265625 -2.84375 C 6.023438 -2.25 6.890625 -1.953125 7.859375 -1.953125 C 9.753906 -1.953125 11.082031 -3.007812 11.84375 -5.125 L 12.28125 -4.890625 C 11.96875 -3.242188 11.3125 -1.945312 10.3125 -1 C 9.3125 -0.0507812 8.113281 0.421875 6.71875 0.421875 C 5.675781 0.421875 4.707031 0.148438 3.8125 -0.390625 C 2.925781 -0.929688 2.207031 -1.738281 1.65625 -2.8125 C 1.113281 -3.894531 0.84375 -5.207031 0.84375 -6.75 C 0.84375 -8.21875 1.097656 -9.519531 1.609375 -10.65625 C 2.128906 -11.800781 2.859375 -12.679688 3.796875 -13.296875 C 4.742188 -13.921875 5.828125 -14.234375 7.046875 -14.234375 Z M 6.203125 -13.1875 C 5.359375 -13.1875 4.628906 -12.851562 4.015625 -12.1875 C 3.410156 -11.53125 3.050781 -10.65625 2.9375 -9.5625 L 9.203125 -9.5625 C 9.160156 -10.632812 8.882812 -11.503906 8.375 -12.171875 C 7.863281 -12.847656 7.140625 -13.1875 6.203125 -13.1875 Z M 6.203125 -13.1875 "/></g></g></g><g fill="#212121" fill-opacity="1"><g transform="translate(126.016886, 289.282127)"><g><path d="M 4.96875 -18.3125 L 5.453125 -18.3125 L 5.453125 -13.90625 L 8.59375 -13.90625 L 8.59375 -12.96875 L 5.453125 -12.96875 L 5.453125 -3.328125 C 5.453125 -2.804688 5.601562 -2.335938 5.90625 -1.921875 C 6.207031 -1.515625 6.625 -1.3125 7.15625 -1.3125 C 7.519531 -1.3125 7.84375 -1.394531 8.125 -1.5625 C 8.40625 -1.738281 8.703125 -2.035156 9.015625 -2.453125 L 9.625 -2.453125 C 9.101562 -1.492188 8.539062 -0.773438 7.9375 -0.296875 C 7.34375 0.179688 6.644531 0.421875 5.84375 0.421875 C 4.96875 0.421875 4.273438 0.0976562 3.765625 -0.546875 C 3.253906 -1.203125 3 -2.085938 3 -3.203125 L 3 -12.96875 L 0.875 -12.96875 L 0.875 -13.578125 C 1.882812 -13.992188 2.738281 -14.601562 3.4375 -15.40625 C 4.144531 -16.21875 4.65625 -17.1875 4.96875 -18.3125 Z M 4.96875 -18.3125 "/></g></g></g><g fill="#212121" fill-opacity="1"><g transform="translate(136.744426, 289.282127)"><g><path d="M 8.546875 -14.234375 C 9.722656 -14.234375 10.820312 -13.914062 11.84375 -13.28125 C 12.875 -12.65625 13.691406 -11.816406 14.296875 -10.765625 C 14.910156 -9.722656 15.21875 -8.601562 15.21875 -7.40625 C 15.21875 -6 14.890625 -4.695312 14.234375 -3.5 C 13.578125 -2.300781 12.691406 -1.347656 11.578125 -0.640625 C 10.472656 0.0664062 9.289062 0.421875 8.03125 0.421875 C 6.832031 0.421875 5.71875 0.109375 4.6875 -0.515625 C 3.65625 -1.148438 2.835938 -2 2.234375 -3.0625 C 1.640625 -4.132812 1.34375 -5.300781 1.34375 -6.5625 C 1.34375 -7.914062 1.671875 -9.179688 2.328125 -10.359375 C 2.992188 -11.546875 3.878906 -12.488281 4.984375 -13.1875 C 6.097656 -13.882812 7.285156 -14.234375 8.546875 -14.234375 Z M 4.046875 -7.765625 C 4.046875 -6.585938 4.226562 -5.453125 4.59375 -4.359375 C 4.96875 -3.273438 5.503906 -2.378906 6.203125 -1.671875 C 6.898438 -0.972656 7.738281 -0.625 8.71875 -0.625 C 9.851562 -0.625 10.769531 -1.128906 11.46875 -2.140625 C 12.175781 -3.148438 12.53125 -4.484375 12.53125 -6.140625 C 12.53125 -7.460938 12.328125 -8.65625 11.921875 -9.71875 C 11.523438 -10.789062 10.96875 -11.632812 10.25 -12.25 C 9.53125 -12.875 8.710938 -13.1875 7.796875 -13.1875 C 6.648438 -13.1875 5.738281 -12.695312 5.0625 -11.71875 C 4.382812 -10.738281 4.046875 -9.421875 4.046875 -7.765625 Z M 4.046875 -7.765625 "/></g></g></g><g fill="#212121" fill-opacity="1"><g transform="translate(154.034169, 289.282127)"><g><path d="M 5.640625 -14.234375 C 6.210938 -14.234375 6.800781 -14.132812 7.40625 -13.9375 C 7.820312 -13.789062 8.160156 -13.71875 8.421875 -13.71875 C 8.597656 -13.71875 8.785156 -13.78125 8.984375 -13.90625 L 9.53125 -13.90625 L 9.53125 -9.6875 L 8.984375 -9.6875 C 8.828125 -10.78125 8.4375 -11.671875 7.8125 -12.359375 C 7.195312 -13.046875 6.453125 -13.390625 5.578125 -13.390625 C 4.878906 -13.390625 4.300781 -13.21875 3.84375 -12.875 C 3.394531 -12.539062 3.171875 -12.085938 3.171875 -11.515625 C 3.171875 -11.046875 3.296875 -10.644531 3.546875 -10.3125 C 3.796875 -9.988281 4.144531 -9.6875 4.59375 -9.40625 C 5.050781 -9.125 5.757812 -8.734375 6.71875 -8.234375 C 7.957031 -7.578125 8.90625 -6.925781 9.5625 -6.28125 C 10.21875 -5.644531 10.546875 -4.789062 10.546875 -3.71875 C 10.546875 -2.757812 10.300781 -1.96875 9.8125 -1.34375 C 9.320312 -0.726562 8.734375 -0.28125 8.046875 0 C 7.359375 0.28125 6.703125 0.421875 6.078125 0.421875 C 5.484375 0.421875 4.675781 0.28125 3.65625 0 C 3.195312 -0.132812 2.890625 -0.203125 2.734375 -0.203125 C 2.472656 -0.203125 2.289062 -0.132812 2.1875 0 L 1.5625 0 L 1.5625 -4.671875 L 2.0625 -4.671875 C 2.207031 -3.429688 2.660156 -2.425781 3.421875 -1.65625 C 4.179688 -0.894531 5.078125 -0.515625 6.109375 -0.515625 C 6.734375 -0.515625 7.273438 -0.710938 7.734375 -1.109375 C 8.191406 -1.503906 8.421875 -2.003906 8.421875 -2.609375 C 8.421875 -3.304688 8.21875 -3.851562 7.8125 -4.25 C 7.414062 -4.65625 6.972656 -5 6.484375 -5.28125 C 5.992188 -5.570312 5.671875 -5.757812 5.515625 -5.84375 C 5.429688 -5.90625 5.148438 -6.066406 4.671875 -6.328125 C 3.953125 -6.722656 3.378906 -7.078125 2.953125 -7.390625 C 2.523438 -7.703125 2.164062 -8.101562 1.875 -8.59375 C 1.582031 -9.09375 1.4375 -9.710938 1.4375 -10.453125 C 1.4375 -11.578125 1.832031 -12.488281 2.625 -13.1875 C 3.414062 -13.882812 4.421875 -14.234375 5.640625 -14.234375 Z M 5.640625 -14.234375 "/></g></g></g><g fill="#212121" fill-opacity="1"><g transform="translate(166.319857, 289.282127)"><g/></g></g><g fill="#212121" fill-opacity="1"><g transform="translate(174.560352, 289.282127)"><g><path d="M 7.046875 -14.234375 C 8.597656 -14.234375 9.859375 -13.710938 10.828125 -12.671875 C 11.796875 -11.640625 12.28125 -10.289062 12.28125 -8.625 L 2.875 -8.625 L 2.875 -8.234375 C 2.875 -7.179688 3.082031 -6.171875 3.5 -5.203125 C 3.925781 -4.234375 4.515625 -3.445312 5.265625 -2.84375 C 6.023438 -2.25 6.890625 -1.953125 7.859375 -1.953125 C 9.753906 -1.953125 11.082031 -3.007812 11.84375 -5.125 L 12.28125 -4.890625 C 11.96875 -3.242188 11.3125 -1.945312 10.3125 -1 C 9.3125 -0.0507812 8.113281 0.421875 6.71875 0.421875 C 5.675781 0.421875 4.707031 0.148438 3.8125 -0.390625 C 2.925781 -0.929688 2.207031 -1.738281 1.65625 -2.8125 C 1.113281 -3.894531 0.84375 -5.207031 0.84375 -6.75 C 0.84375 -8.21875 1.097656 -9.519531 1.609375 -10.65625 C 2.128906 -11.800781 2.859375 -12.679688 3.796875 -13.296875 C 4.742188 -13.921875 5.828125 -14.234375 7.046875 -14.234375 Z M 6.203125 -13.1875 C 5.359375 -13.1875 4.628906 -12.851562 4.015625 -12.1875 C 3.410156 -11.53125 3.050781 -10.65625 2.9375 -9.5625 L 9.203125 -9.5625 C 9.160156 -10.632812 8.882812 -11.503906 8.375 -12.171875 C 7.863281 -12.847656 7.140625 -13.1875 6.203125 -13.1875 Z M 6.203125 -13.1875 "/></g></g></g><g fill="#212121" fill-opacity="1"><g transform="translate(188.434161, 289.282127)"><g/></g></g><g fill="#212121" fill-opacity="1"><g transform="translate(196.674655, 289.282127)"><g><path d="M 7.546875 -21.03125 C 8.234375 -21.03125 8.820312 -20.96875 9.3125 -20.84375 C 9.8125 -20.71875 10.320312 -20.539062 10.84375 -20.3125 C 11.101562 -20.21875 11.359375 -20.128906 11.609375 -20.046875 C 11.859375 -19.960938 12.082031 -19.921875 12.28125 -19.921875 C 12.757812 -19.921875 13.140625 -20.289062 13.421875 -21.03125 L 14 -21.03125 L 14 -14.203125 L 13.421875 -14.203125 C 13.328125 -15.265625 13.015625 -16.226562 12.484375 -17.09375 C 11.953125 -17.96875 11.289062 -18.65625 10.5 -19.15625 C 9.707031 -19.65625 8.863281 -19.90625 7.96875 -19.90625 C 6.988281 -19.90625 6.148438 -19.609375 5.453125 -19.015625 C 4.753906 -18.421875 4.40625 -17.707031 4.40625 -16.875 C 4.40625 -15.894531 4.882812 -15.046875 5.84375 -14.328125 C 6.519531 -13.828125 7.46875 -13.226562 8.6875 -12.53125 C 9.769531 -11.863281 10.671875 -11.289062 11.390625 -10.8125 C 12.109375 -10.332031 12.773438 -9.816406 13.390625 -9.265625 C 13.953125 -8.722656 14.394531 -8.101562 14.71875 -7.40625 C 15.050781 -6.707031 15.21875 -5.988281 15.21875 -5.25 C 15.21875 -4.226562 14.9375 -3.273438 14.375 -2.390625 C 13.820312 -1.515625 13.0625 -0.820312 12.09375 -0.3125 C 11.125 0.195312 10.0625 0.453125 8.90625 0.453125 C 8.164062 0.453125 7.507812 0.382812 6.9375 0.25 C 6.363281 0.125 5.769531 -0.046875 5.15625 -0.265625 C 4.476562 -0.503906 3.96875 -0.625 3.625 -0.625 C 3.082031 -0.625 2.671875 -0.265625 2.390625 0.453125 L 1.859375 0.453125 L 1.859375 -6.46875 L 2.390625 -6.46875 C 2.734375 -4.695312 3.410156 -3.289062 4.421875 -2.25 C 5.429688 -1.207031 6.734375 -0.6875 8.328125 -0.6875 C 9.472656 -0.6875 10.410156 -0.992188 11.140625 -1.609375 C 11.878906 -2.234375 12.25 -3.015625 12.25 -3.953125 C 12.25 -4.429688 12.160156 -4.867188 11.984375 -5.265625 C 11.804688 -5.671875 11.507812 -6.101562 11.09375 -6.5625 C 10.707031 -6.957031 10.164062 -7.390625 9.46875 -7.859375 C 8.769531 -8.335938 7.84375 -8.925781 6.6875 -9.625 C 5.707031 -10.21875 4.957031 -10.6875 4.4375 -11.03125 C 3.914062 -11.382812 3.523438 -11.691406 3.265625 -11.953125 C 2.242188 -12.992188 1.734375 -14.242188 1.734375 -15.703125 C 1.734375 -16.703125 1.988281 -17.601562 2.5 -18.40625 C 3.007812 -19.21875 3.703125 -19.859375 4.578125 -20.328125 C 5.460938 -20.796875 6.453125 -21.03125 7.546875 -21.03125 Z M 7.546875 -21.03125 "/></g></g></g><g fill="#212121" fill-opacity="1"><g transform="translate(213.964404, 289.282127)"><g><path d="M 8.546875 -14.234375 C 9.722656 -14.234375 10.820312 -13.914062 11.84375 -13.28125 C 12.875 -12.65625 13.691406 -11.816406 14.296875 -10.765625 C 14.910156 -9.722656 15.21875 -8.601562 15.21875 -7.40625 C 15.21875 -6 14.890625 -4.695312 14.234375 -3.5 C 13.578125 -2.300781 12.691406 -1.347656 11.578125 -0.640625 C 10.472656 0.0664062 9.289062 0.421875 8.03125 0.421875 C 6.832031 0.421875 5.71875 0.109375 4.6875 -0.515625 C 3.65625 -1.148438 2.835938 -2 2.234375 -3.0625 C 1.640625 -4.132812 1.34375 -5.300781 1.34375 -6.5625 C 1.34375 -7.914062 1.671875 -9.179688 2.328125 -10.359375 C 2.992188 -11.546875 3.878906 -12.488281 4.984375 -13.1875 C 6.097656 -13.882812 7.285156 -14.234375 8.546875 -14.234375 Z M 4.046875 -7.765625 C 4.046875 -6.585938 4.226562 -5.453125 4.59375 -4.359375 C 4.96875 -3.273438 5.503906 -2.378906 6.203125 -1.671875 C 6.898438 -0.972656 7.738281 -0.625 8.71875 -0.625 C 9.851562 -0.625 10.769531 -1.128906 11.46875 -2.140625 C 12.175781 -3.148438 12.53125 -4.484375 12.53125 -6.140625 C 12.53125 -7.460938 12.328125 -8.65625 11.921875 -9.71875 C 11.523438 -10.789062 10.96875 -11.632812 10.25 -12.25 C 9.53125 -12.875 8.710938 -13.1875 7.796875 -13.1875 C 6.648438 -13.1875 5.738281 -12.695312 5.0625 -11.71875 C 4.382812 -10.738281 4.046875 -9.421875 4.046875 -7.765625 Z M 4.046875 -7.765625 "/></g></g></g><g fill="#212121" fill-opacity="1"><g transform="translate(231.254152, 289.282127)"><g><path d="M 5.421875 -21.484375 L 5.421875 -3.140625 C 5.421875 -2.140625 5.566406 -1.457031 5.859375 -1.09375 C 6.148438 -0.726562 6.675781 -0.546875 7.4375 -0.546875 L 7.4375 0 L 0.6875 0 L 0.6875 -0.546875 C 1.25 -0.546875 1.6875 -0.601562 2 -0.71875 C 2.320312 -0.84375 2.5625 -1.09375 2.71875 -1.46875 C 2.882812 -1.84375 2.96875 -2.398438 2.96875 -3.140625 L 2.96875 -17.328125 C 2.96875 -18.660156 2.5 -19.328125 1.5625 -19.328125 C 1.300781 -19.328125 1.070312 -19.28125 0.875 -19.1875 L 0.6875 -19.6875 L 4.890625 -21.484375 Z M 5.421875 -21.484375 "/></g></g></g><g fill="#212121" fill-opacity="1"><g transform="translate(240.1239, 289.282127)"><g><path d="M 5.515625 -3.953125 C 5.515625 -3.234375 5.734375 -2.644531 6.171875 -2.1875 C 6.609375 -1.726562 7.148438 -1.5 7.796875 -1.5 C 8.367188 -1.5 8.960938 -1.648438 9.578125 -1.953125 C 10.203125 -2.265625 10.796875 -2.722656 11.359375 -3.328125 L 11.359375 -11.625 C 11.359375 -12.78125 10.675781 -13.359375 9.3125 -13.359375 L 9.015625 -13.359375 L 9.015625 -13.90625 L 13.8125 -13.90625 L 13.8125 -3.234375 C 13.8125 -2.878906 13.914062 -2.515625 14.125 -2.140625 C 14.332031 -1.773438 14.671875 -1.59375 15.140625 -1.59375 C 15.398438 -1.59375 15.726562 -1.671875 16.125 -1.828125 L 16.125 -1.265625 L 11.921875 0.359375 L 11.359375 0.359375 L 11.359375 -2.578125 L 11.296875 -2.578125 C 9.679688 -0.578125 8.125 0.421875 6.625 0.421875 C 5.863281 0.421875 5.210938 0.226562 4.671875 -0.15625 C 4.128906 -0.550781 3.722656 -1.046875 3.453125 -1.640625 C 3.191406 -2.242188 3.0625 -2.851562 3.0625 -3.46875 L 3.0625 -11.390625 C 3.0625 -12.171875 2.882812 -12.691406 2.53125 -12.953125 C 2.1875 -13.222656 1.644531 -13.359375 0.90625 -13.359375 L 0.546875 -13.359375 L 0.546875 -13.90625 L 5.515625 -13.90625 Z M 5.515625 -3.953125 "/></g></g></g><g fill="#212121" fill-opacity="1"><g transform="translate(257.413638, 289.282127)"><g><path d="M 7.546875 -14.234375 C 8.410156 -14.234375 9.210938 -14.082031 9.953125 -13.78125 C 10.691406 -13.488281 11.273438 -13.097656 11.703125 -12.609375 C 12.128906 -12.117188 12.34375 -11.59375 12.34375 -11.03125 C 12.34375 -10.664062 12.207031 -10.363281 11.9375 -10.125 C 11.664062 -9.882812 11.320312 -9.765625 10.90625 -9.765625 C 10.601562 -9.765625 10.367188 -9.804688 10.203125 -9.890625 C 10.035156 -9.972656 9.863281 -10.101562 9.6875 -10.28125 C 9.5625 -10.375 9.472656 -10.550781 9.421875 -10.8125 C 9.367188 -11.070312 9.332031 -11.234375 9.3125 -11.296875 C 9.238281 -11.816406 9.140625 -12.164062 9.015625 -12.34375 C 8.617188 -13.007812 7.960938 -13.34375 7.046875 -13.34375 C 5.867188 -13.34375 4.914062 -12.867188 4.1875 -11.921875 C 3.46875 -10.984375 3.109375 -9.738281 3.109375 -8.1875 C 3.109375 -6.320312 3.546875 -4.828125 4.421875 -3.703125 C 5.304688 -2.578125 6.476562 -2.015625 7.9375 -2.015625 C 9.019531 -2.015625 9.925781 -2.3125 10.65625 -2.90625 C 11.382812 -3.507812 11.910156 -4.335938 12.234375 -5.390625 L 12.703125 -5.1875 C 12.304688 -3.582031 11.609375 -2.269531 10.609375 -1.25 C 9.609375 -0.238281 8.457031 0.316406 7.15625 0.421875 L 7.078125 0.546875 C 7.691406 0.578125 8.179688 0.785156 8.546875 1.171875 C 8.921875 1.566406 9.109375 2.066406 9.109375 2.671875 C 9.109375 3.453125 8.796875 4.082031 8.171875 4.5625 C 7.554688 5.039062 6.722656 5.28125 5.671875 5.28125 C 5.367188 5.28125 5.132812 5.269531 4.96875 5.25 L 4.21875 5.21875 L 4.375 4.703125 L 4.765625 4.703125 C 5.347656 4.703125 5.832031 4.566406 6.21875 4.296875 C 6.601562 4.023438 6.796875 3.691406 6.796875 3.296875 C 6.796875 2.972656 6.664062 2.691406 6.40625 2.453125 C 6.15625 2.210938 5.816406 2.09375 5.390625 2.09375 L 5.09375 2.125 L 6.265625 0.390625 C 5.179688 0.285156 4.21875 -0.0820312 3.375 -0.71875 C 2.539062 -1.351562 1.890625 -2.195312 1.421875 -3.25 C 0.953125 -4.300781 0.71875 -5.472656 0.71875 -6.765625 C 0.71875 -8.210938 1.003906 -9.5 1.578125 -10.625 C 2.160156 -11.75 2.972656 -12.628906 4.015625 -13.265625 C 5.054688 -13.910156 6.234375 -14.234375 7.546875 -14.234375 Z M 7.546875 -14.234375 "/></g></g></g><g fill="#212121" fill-opacity="1"><g transform="translate(271.287435, 289.282127)"><g><path d="M 8.546875 -14.234375 C 9.722656 -14.234375 10.820312 -13.914062 11.84375 -13.28125 C 12.875 -12.65625 13.691406 -11.816406 14.296875 -10.765625 C 14.910156 -9.722656 15.21875 -8.601562 15.21875 -7.40625 C 15.21875 -6 14.890625 -4.695312 14.234375 -3.5 C 13.578125 -2.300781 12.691406 -1.347656 11.578125 -0.640625 C 10.472656 0.0664062 9.289062 0.421875 8.03125 0.421875 C 6.832031 0.421875 5.71875 0.109375 4.6875 -0.515625 C 3.65625 -1.148438 2.835938 -2 2.234375 -3.0625 C 1.640625 -4.132812 1.34375 -5.300781 1.34375 -6.5625 C 1.34375 -7.914062 1.671875 -9.179688 2.328125 -10.359375 C 2.992188 -11.546875 3.878906 -12.488281 4.984375 -13.1875 C 6.097656 -13.882812 7.285156 -14.234375 8.546875 -14.234375 Z M 4.046875 -7.765625 C 4.046875 -6.585938 4.226562 -5.453125 4.59375 -4.359375 C 4.96875 -3.273438 5.503906 -2.378906 6.203125 -1.671875 C 6.898438 -0.972656 7.738281 -0.625 8.71875 -0.625 C 9.851562 -0.625 10.769531 -1.128906 11.46875 -2.140625 C 12.175781 -3.148438 12.53125 -4.484375 12.53125 -6.140625 C 12.53125 -7.460938 12.328125 -8.65625 11.921875 -9.71875 C 11.523438 -10.789062 10.96875 -11.632812 10.25 -12.25 C 9.53125 -12.875 8.710938 -13.1875 7.796875 -13.1875 C 6.648438 -13.1875 5.738281 -12.695312 5.0625 -11.71875 C 4.382812 -10.738281 4.046875 -9.421875 4.046875 -7.765625 Z M 6.359375 -20.59375 C 6.859375 -20.59375 7.316406 -20.488281 7.734375 -20.28125 C 8.148438 -20.082031 8.660156 -19.796875 9.265625 -19.421875 C 9.703125 -19.117188 10.054688 -18.894531 10.328125 -18.75 C 10.597656 -18.613281 10.863281 -18.546875 11.125 -18.546875 C 11.582031 -18.546875 11.910156 -18.738281 12.109375 -19.125 C 12.304688 -19.519531 12.445312 -20.007812 12.53125 -20.59375 L 12.984375 -20.59375 L 12.984375 -20.375 C 12.984375 -19.257812 12.710938 -18.367188 12.171875 -17.703125 C 11.628906 -17.046875 10.96875 -16.71875 10.1875 -16.71875 C 9.6875 -16.71875 9.222656 -16.820312 8.796875 -17.03125 C 8.367188 -17.25 7.863281 -17.546875 7.28125 -17.921875 C 6.84375 -18.222656 6.488281 -18.441406 6.21875 -18.578125 C 5.945312 -18.722656 5.679688 -18.796875 5.421875 -18.796875 C 5.023438 -18.796875 4.726562 -18.632812 4.53125 -18.3125 C 4.34375 -17.988281 4.191406 -17.476562 4.078125 -16.78125 L 3.625 -16.78125 C 3.625 -17.957031 3.867188 -18.882812 4.359375 -19.5625 C 4.847656 -20.25 5.515625 -20.59375 6.359375 -20.59375 Z M 6.359375 -20.59375 "/></g></g></g><g fill="#212121" fill-opacity="1"><g transform="translate(288.577172, 289.282127)"><g><path d="M 7.046875 -14.234375 C 8.597656 -14.234375 9.859375 -13.710938 10.828125 -12.671875 C 11.796875 -11.640625 12.28125 -10.289062 12.28125 -8.625 L 2.875 -8.625 L 2.875 -8.234375 C 2.875 -7.179688 3.082031 -6.171875 3.5 -5.203125 C 3.925781 -4.234375 4.515625 -3.445312 5.265625 -2.84375 C 6.023438 -2.25 6.890625 -1.953125 7.859375 -1.953125 C 9.753906 -1.953125 11.082031 -3.007812 11.84375 -5.125 L 12.28125 -4.890625 C 11.96875 -3.242188 11.3125 -1.945312 10.3125 -1 C 9.3125 -0.0507812 8.113281 0.421875 6.71875 0.421875 C 5.675781 0.421875 4.707031 0.148438 3.8125 -0.390625 C 2.925781 -0.929688 2.207031 -1.738281 1.65625 -2.8125 C 1.113281 -3.894531 0.84375 -5.207031 0.84375 -6.75 C 0.84375 -8.21875 1.097656 -9.519531 1.609375 -10.65625 C 2.128906 -11.800781 2.859375 -12.679688 3.796875 -13.296875 C 4.742188 -13.921875 5.828125 -14.234375 7.046875 -14.234375 Z M 6.203125 -13.1875 C 5.359375 -13.1875 4.628906 -12.851562 4.015625 -12.1875 C 3.410156 -11.53125 3.050781 -10.65625 2.9375 -9.5625 L 9.203125 -9.5625 C 9.160156 -10.632812 8.882812 -11.503906 8.375 -12.171875 C 7.863281 -12.847656 7.140625 -13.1875 6.203125 -13.1875 Z M 6.203125 -13.1875 "/></g></g></g><g fill="#212121" fill-opacity="1"><g transform="translate(302.45097, 289.282127)"><g><path d="M 5.640625 -14.234375 C 6.210938 -14.234375 6.800781 -14.132812 7.40625 -13.9375 C 7.820312 -13.789062 8.160156 -13.71875 8.421875 -13.71875 C 8.597656 -13.71875 8.785156 -13.78125 8.984375 -13.90625 L 9.53125 -13.90625 L 9.53125 -9.6875 L 8.984375 -9.6875 C 8.828125 -10.78125 8.4375 -11.671875 7.8125 -12.359375 C 7.195312 -13.046875 6.453125 -13.390625 5.578125 -13.390625 C 4.878906 -13.390625 4.300781 -13.21875 3.84375 -12.875 C 3.394531 -12.539062 3.171875 -12.085938 3.171875 -11.515625 C 3.171875 -11.046875 3.296875 -10.644531 3.546875 -10.3125 C 3.796875 -9.988281 4.144531 -9.6875 4.59375 -9.40625 C 5.050781 -9.125 5.757812 -8.734375 6.71875 -8.234375 C 7.957031 -7.578125 8.90625 -6.925781 9.5625 -6.28125 C 10.21875 -5.644531 10.546875 -4.789062 10.546875 -3.71875 C 10.546875 -2.757812 10.300781 -1.96875 9.8125 -1.34375 C 9.320312 -0.726562 8.734375 -0.28125 8.046875 0 C 7.359375 0.28125 6.703125 0.421875 6.078125 0.421875 C 5.484375 0.421875 4.675781 0.28125 3.65625 0 C 3.195312 -0.132812 2.890625 -0.203125 2.734375 -0.203125 C 2.472656 -0.203125 2.289062 -0.132812 2.1875 0 L 1.5625 0 L 1.5625 -4.671875 L 2.0625 -4.671875 C 2.207031 -3.429688 2.660156 -2.425781 3.421875 -1.65625 C 4.179688 -0.894531 5.078125 -0.515625 6.109375 -0.515625 C 6.734375 -0.515625 7.273438 -0.710938 7.734375 -1.109375 C 8.191406 -1.503906 8.421875 -2.003906 8.421875 -2.609375 C 8.421875 -3.304688 8.21875 -3.851562 7.8125 -4.25 C 7.414062 -4.65625 6.972656 -5 6.484375 -5.28125 C 5.992188 -5.570312 5.671875 -5.757812 5.515625 -5.84375 C 5.429688 -5.90625 5.148438 -6.066406 4.671875 -6.328125 C 3.953125 -6.722656 3.378906 -7.078125 2.953125 -7.390625 C 2.523438 -7.703125 2.164062 -8.101562 1.875 -8.59375 C 1.582031 -9.09375 1.4375 -9.710938 1.4375 -10.453125 C 1.4375 -11.578125 1.832031 -12.488281 2.625 -13.1875 C 3.414062 -13.882812 4.421875 -14.234375 5.640625 -14.234375 Z M 5.640625 -14.234375 "/></g></g></g><g fill="#212121" fill-opacity="1"><g transform="translate(314.736658, 289.282127)"><g/></g></g><g fill="#212121" fill-opacity="1"><g transform="translate(322.977142, 289.282127)"><g><path d="M 13.640625 -21.484375 L 13.640625 -3.984375 C 13.640625 -3.023438 13.742188 -2.394531 13.953125 -2.09375 C 14.160156 -1.789062 14.484375 -1.640625 14.921875 -1.640625 C 15.117188 -1.640625 15.421875 -1.710938 15.828125 -1.859375 L 16.03125 -1.375 L 11.171875 0.359375 L 11.171875 -1.625 C 10.492188 -0.914062 9.828125 -0.394531 9.171875 -0.0625 C 8.515625 0.257812 7.785156 0.421875 6.984375 0.421875 C 5.898438 0.421875 4.898438 0.113281 3.984375 -0.5 C 3.066406 -1.125 2.332031 -1.960938 1.78125 -3.015625 C 1.226562 -4.078125 0.953125 -5.21875 0.953125 -6.4375 C 0.953125 -7.820312 1.273438 -9.113281 1.921875 -10.3125 C 2.578125 -11.507812 3.441406 -12.460938 4.515625 -13.171875 C 5.597656 -13.878906 6.757812 -14.234375 8 -14.234375 C 8.582031 -14.234375 9.125 -14.148438 9.625 -13.984375 C 10.125 -13.828125 10.640625 -13.5625 11.171875 -13.1875 L 11.171875 -17.46875 C 11.171875 -18.726562 10.742188 -19.359375 9.890625 -19.359375 C 9.753906 -19.359375 9.625 -19.34375 9.5 -19.3125 C 9.375 -19.28125 9.222656 -19.226562 9.046875 -19.15625 L 8.8125 -19.65625 L 13.125 -21.484375 Z M 3.65625 -7.515625 C 3.65625 -6.359375 3.867188 -5.304688 4.296875 -4.359375 C 4.722656 -3.410156 5.300781 -2.65625 6.03125 -2.09375 C 6.757812 -1.539062 7.566406 -1.265625 8.453125 -1.265625 C 9.523438 -1.265625 10.429688 -1.722656 11.171875 -2.640625 L 11.171875 -9.40625 C 11.171875 -10.425781 10.960938 -11.226562 10.546875 -11.8125 C 10.128906 -12.40625 9.648438 -12.816406 9.109375 -13.046875 C 8.566406 -13.273438 8.078125 -13.390625 7.640625 -13.390625 C 6.941406 -13.390625 6.285156 -13.128906 5.671875 -12.609375 C 5.066406 -12.097656 4.578125 -11.390625 4.203125 -10.484375 C 3.835938 -9.585938 3.65625 -8.597656 3.65625 -7.515625 Z M 3.65625 -7.515625 "/></g></g></g><g fill="#212121" fill-opacity="1"><g transform="translate(340.266879, 289.282127)"><g><path d="M 7.046875 -14.234375 C 8.597656 -14.234375 9.859375 -13.710938 10.828125 -12.671875 C 11.796875 -11.640625 12.28125 -10.289062 12.28125 -8.625 L 2.875 -8.625 L 2.875 -8.234375 C 2.875 -7.179688 3.082031 -6.171875 3.5 -5.203125 C 3.925781 -4.234375 4.515625 -3.445312 5.265625 -2.84375 C 6.023438 -2.25 6.890625 -1.953125 7.859375 -1.953125 C 9.753906 -1.953125 11.082031 -3.007812 11.84375 -5.125 L 12.28125 -4.890625 C 11.96875 -3.242188 11.3125 -1.945312 10.3125 -1 C 9.3125 -0.0507812 8.113281 0.421875 6.71875 0.421875 C 5.675781 0.421875 4.707031 0.148438 3.8125 -0.390625 C 2.925781 -0.929688 2.207031 -1.738281 1.65625 -2.8125 C 1.113281 -3.894531 0.84375 -5.207031 0.84375 -6.75 C 0.84375 -8.21875 1.097656 -9.519531 1.609375 -10.65625 C 2.128906 -11.800781 2.859375 -12.679688 3.796875 -13.296875 C 4.742188 -13.921875 5.828125 -14.234375 7.046875 -14.234375 Z M 6.203125 -13.1875 C 5.359375 -13.1875 4.628906 -12.851562 4.015625 -12.1875 C 3.410156 -11.53125 3.050781 -10.65625 2.9375 -9.5625 L 9.203125 -9.5625 C 9.160156 -10.632812 8.882812 -11.503906 8.375 -12.171875 C 7.863281 -12.847656 7.140625 -13.1875 6.203125 -13.1875 Z M 6.203125 -13.1875 "/></g></g></g><g fill="#212121" fill-opacity="1"><g transform="translate(354.140676, 289.282127)"><g/></g></g><g fill="#212121" fill-opacity="1"><g transform="translate(362.381159, 289.282127)"><g><path d="M 17.65625 -16.03125 L 17.140625 -16.03125 C 16.941406 -17.164062 16.570312 -18.007812 16.03125 -18.5625 C 15.488281 -19.113281 14.738281 -19.390625 13.78125 -19.390625 L 7.28125 -19.390625 L 7.28125 -11.453125 L 12.609375 -11.453125 C 13.578125 -11.453125 14.257812 -11.691406 14.65625 -12.171875 C 15.050781 -12.648438 15.257812 -13.40625 15.28125 -14.4375 L 15.828125 -14.4375 L 15.828125 -7.1875 L 15.28125 -7.1875 C 15.28125 -8.226562 15.078125 -9 14.671875 -9.5 C 14.273438 -10 13.570312 -10.25 12.5625 -10.25 L 7.28125 -10.25 L 7.28125 -2.734375 C 7.28125 -1.710938 7.679688 -1.203125 8.484375 -1.203125 L 13.75 -1.203125 C 14.851562 -1.203125 15.820312 -1.535156 16.65625 -2.203125 C 17.5 -2.867188 18.179688 -3.84375 18.703125 -5.125 L 19.328125 -5.125 L 17.65625 0 L 1.078125 0 L 1.078125 -0.546875 C 2.117188 -0.546875 2.875 -0.71875 3.34375 -1.0625 C 3.8125 -1.414062 4.046875 -2.070312 4.046875 -3.03125 L 4.046875 -17.765625 C 4.046875 -18.566406 3.8125 -19.144531 3.34375 -19.5 C 2.875 -19.863281 2.117188 -20.046875 1.078125 -20.046875 L 1.078125 -20.59375 L 17.40625 -20.59375 Z M 17.65625 -16.03125 "/></g></g></g><g fill="#212121" fill-opacity="1"><g transform="translate(383.116797, 289.282127)"><g><path d="M 5.359375 -11.296875 C 6.398438 -12.410156 7.25 -13.175781 7.90625 -13.59375 C 8.570312 -14.019531 9.300781 -14.234375 10.09375 -14.234375 C 10.976562 -14.234375 11.6875 -14 12.21875 -13.53125 C 12.757812 -13.0625 13.148438 -12.484375 13.390625 -11.796875 C 13.628906 -11.117188 13.75 -10.453125 13.75 -9.796875 L 13.75 -3.171875 C 13.75 -2.148438 13.910156 -1.460938 14.234375 -1.109375 C 14.554688 -0.765625 15.109375 -0.578125 15.890625 -0.546875 L 15.890625 0 L 8.875 0 L 8.875 -0.546875 C 9.507812 -0.546875 9.992188 -0.613281 10.328125 -0.75 C 10.671875 -0.882812 10.914062 -1.132812 11.0625 -1.5 C 11.21875 -1.875 11.296875 -2.429688 11.296875 -3.171875 L 11.296875 -9.921875 C 11.296875 -10.554688 11.085938 -11.140625 10.671875 -11.671875 C 10.253906 -12.203125 9.675781 -12.46875 8.9375 -12.46875 C 8.3125 -12.46875 7.71875 -12.300781 7.15625 -11.96875 C 6.601562 -11.644531 6.003906 -11.140625 5.359375 -10.453125 L 5.359375 -3.171875 C 5.359375 -2.140625 5.53125 -1.445312 5.875 -1.09375 C 6.21875 -0.738281 6.804688 -0.554688 7.640625 -0.546875 L 7.640625 0 L 0.75 0 L 0.75 -0.546875 C 1.363281 -0.597656 1.820312 -0.703125 2.125 -0.859375 C 2.425781 -1.023438 2.628906 -1.273438 2.734375 -1.609375 C 2.847656 -1.953125 2.90625 -2.445312 2.90625 -3.09375 L 2.90625 -10.546875 C 2.90625 -11.003906 2.804688 -11.398438 2.609375 -11.734375 C 2.410156 -12.078125 2.085938 -12.25 1.640625 -12.25 C 1.441406 -12.25 1.257812 -12.210938 1.09375 -12.140625 C 0.925781 -12.078125 0.8125 -12.035156 0.75 -12.015625 L 0.546875 -12.59375 L 4.859375 -14.234375 L 5.359375 -14.234375 Z M 5.359375 -11.296875 "/></g></g></g><g fill="#212121" fill-opacity="1"><g transform="translate(400.406534, 289.282127)"><g><path d="M 7.609375 -14.234375 C 8.734375 -14.234375 9.765625 -13.941406 10.703125 -13.359375 L 13.96875 -13.359375 C 14.25 -13.359375 14.410156 -13.316406 14.453125 -13.234375 C 14.503906 -13.160156 14.53125 -12.953125 14.53125 -12.609375 C 14.53125 -12.316406 14.507812 -12.132812 14.46875 -12.0625 C 14.4375 -11.988281 14.316406 -11.953125 14.109375 -11.953125 L 11.84375 -11.953125 C 12.113281 -11.515625 12.304688 -11.101562 12.421875 -10.71875 C 12.546875 -10.34375 12.609375 -9.90625 12.609375 -9.40625 C 12.609375 -8.488281 12.390625 -7.664062 11.953125 -6.9375 C 11.515625 -6.207031 10.898438 -5.632812 10.109375 -5.21875 C 9.328125 -4.8125 8.4375 -4.609375 7.4375 -4.609375 C 6.789062 -4.609375 6.128906 -4.710938 5.453125 -4.921875 C 4.648438 -4.203125 4.25 -3.597656 4.25 -3.109375 C 4.25 -2.859375 4.394531 -2.648438 4.6875 -2.484375 C 4.976562 -2.328125 5.582031 -2.25 6.5 -2.25 L 9.921875 -2.25 C 11.117188 -2.25 12.164062 -1.988281 13.0625 -1.46875 C 13.96875 -0.945312 14.421875 -0.175781 14.421875 0.84375 C 14.421875 1.800781 14.054688 2.703125 13.328125 3.546875 C 12.609375 4.398438 11.65625 5.082031 10.46875 5.59375 C 9.28125 6.101562 8.007812 6.359375 6.65625 6.359375 C 5.738281 6.359375 4.832031 6.222656 3.9375 5.953125 C 3.050781 5.679688 2.332031 5.320312 1.78125 4.875 C 1.226562 4.4375 0.953125 3.988281 0.953125 3.53125 C 0.953125 3.15625 1.128906 2.703125 1.484375 2.171875 C 1.847656 1.640625 2.625 0.785156 3.8125 -0.390625 C 2.8125 -0.691406 2.3125 -1.179688 2.3125 -1.859375 C 2.3125 -2.398438 2.519531 -2.941406 2.9375 -3.484375 C 3.351562 -4.035156 3.941406 -4.613281 4.703125 -5.21875 C 3.898438 -5.632812 3.28125 -6.207031 2.84375 -6.9375 C 2.40625 -7.664062 2.1875 -8.457031 2.1875 -9.3125 C 2.1875 -10.238281 2.421875 -11.078125 2.890625 -11.828125 C 3.359375 -12.578125 4.003906 -13.164062 4.828125 -13.59375 C 5.660156 -14.019531 6.585938 -14.234375 7.609375 -14.234375 Z M 4.734375 -10.578125 C 4.734375 -9.835938 4.832031 -9.066406 5.03125 -8.265625 C 5.226562 -7.472656 5.566406 -6.789062 6.046875 -6.21875 C 6.523438 -5.644531 7.132812 -5.359375 7.875 -5.359375 C 8.539062 -5.359375 9.070312 -5.671875 9.46875 -6.296875 C 9.863281 -6.929688 10.0625 -7.738281 10.0625 -8.71875 C 10.0625 -9.320312 9.953125 -9.988281 9.734375 -10.71875 C 9.515625 -11.445312 9.175781 -12.070312 8.71875 -12.59375 C 8.257812 -13.125 7.671875 -13.390625 6.953125 -13.390625 C 6.347656 -13.390625 5.828125 -13.132812 5.390625 -12.625 C 4.953125 -12.125 4.734375 -11.441406 4.734375 -10.578125 Z M 9.296875 0.03125 L 8.1875 0.03125 C 7.28125 0.03125 6.539062 0.015625 5.96875 -0.015625 C 5.40625 -0.046875 4.914062 -0.117188 4.5 -0.234375 C 4.039062 0.285156 3.695312 0.75 3.46875 1.15625 C 3.25 1.5625 3.140625 1.957031 3.140625 2.34375 C 3.140625 3.0625 3.632812 3.609375 4.625 3.984375 C 5.613281 4.367188 6.8125 4.5625 8.21875 4.5625 C 9.207031 4.5625 10.101562 4.429688 10.90625 4.171875 C 11.707031 3.910156 12.335938 3.546875 12.796875 3.078125 C 13.253906 2.617188 13.484375 2.113281 13.484375 1.5625 C 13.484375 0.914062 13.148438 0.503906 12.484375 0.328125 C 11.816406 0.148438 10.753906 0.0507812 9.296875 0.03125 Z M 9.296875 0.03125 "/></g></g></g><g fill="#212121" fill-opacity="1"><g transform="translate(416.138122, 289.282127)"><g><path d="M 7.046875 -14.234375 C 8.597656 -14.234375 9.859375 -13.710938 10.828125 -12.671875 C 11.796875 -11.640625 12.28125 -10.289062 12.28125 -8.625 L 2.875 -8.625 L 2.875 -8.234375 C 2.875 -7.179688 3.082031 -6.171875 3.5 -5.203125 C 3.925781 -4.234375 4.515625 -3.445312 5.265625 -2.84375 C 6.023438 -2.25 6.890625 -1.953125 7.859375 -1.953125 C 9.753906 -1.953125 11.082031 -3.007812 11.84375 -5.125 L 12.28125 -4.890625 C 11.96875 -3.242188 11.3125 -1.945312 10.3125 -1 C 9.3125 -0.0507812 8.113281 0.421875 6.71875 0.421875 C 5.675781 0.421875 4.707031 0.148438 3.8125 -0.390625 C 2.925781 -0.929688 2.207031 -1.738281 1.65625 -2.8125 C 1.113281 -3.894531 0.84375 -5.207031 0.84375 -6.75 C 0.84375 -8.21875 1.097656 -9.519531 1.609375 -10.65625 C 2.128906 -11.800781 2.859375 -12.679688 3.796875 -13.296875 C 4.742188 -13.921875 5.828125 -14.234375 7.046875 -14.234375 Z M 6.203125 -13.1875 C 5.359375 -13.1875 4.628906 -12.851562 4.015625 -12.1875 C 3.410156 -11.53125 3.050781 -10.65625 2.9375 -9.5625 L 9.203125 -9.5625 C 9.160156 -10.632812 8.882812 -11.503906 8.375 -12.171875 C 7.863281 -12.847656 7.140625 -13.1875 6.203125 -13.1875 Z M 6.203125 -13.1875 "/></g></g></g><g fill="#212121" fill-opacity="1"><g transform="translate(430.011919, 289.282127)"><g><path d="M 5.359375 -11.296875 C 6.398438 -12.410156 7.25 -13.175781 7.90625 -13.59375 C 8.570312 -14.019531 9.300781 -14.234375 10.09375 -14.234375 C 10.976562 -14.234375 11.6875 -14 12.21875 -13.53125 C 12.757812 -13.0625 13.148438 -12.484375 13.390625 -11.796875 C 13.628906 -11.117188 13.75 -10.453125 13.75 -9.796875 L 13.75 -3.171875 C 13.75 -2.148438 13.910156 -1.460938 14.234375 -1.109375 C 14.554688 -0.765625 15.109375 -0.578125 15.890625 -0.546875 L 15.890625 0 L 8.875 0 L 8.875 -0.546875 C 9.507812 -0.546875 9.992188 -0.613281 10.328125 -0.75 C 10.671875 -0.882812 10.914062 -1.132812 11.0625 -1.5 C 11.21875 -1.875 11.296875 -2.429688 11.296875 -3.171875 L 11.296875 -9.921875 C 11.296875 -10.554688 11.085938 -11.140625 10.671875 -11.671875 C 10.253906 -12.203125 9.675781 -12.46875 8.9375 -12.46875 C 8.3125 -12.46875 7.71875 -12.300781 7.15625 -11.96875 C 6.601562 -11.644531 6.003906 -11.140625 5.359375 -10.453125 L 5.359375 -3.171875 C 5.359375 -2.140625 5.53125 -1.445312 5.875 -1.09375 C 6.21875 -0.738281 6.804688 -0.554688 7.640625 -0.546875 L 7.640625 0 L 0.75 0 L 0.75 -0.546875 C 1.363281 -0.597656 1.820312 -0.703125 2.125 -0.859375 C 2.425781 -1.023438 2.628906 -1.273438 2.734375 -1.609375 C 2.847656 -1.953125 2.90625 -2.445312 2.90625 -3.09375 L 2.90625 -10.546875 C 2.90625 -11.003906 2.804688 -11.398438 2.609375 -11.734375 C 2.410156 -12.078125 2.085938 -12.25 1.640625 -12.25 C 1.441406 -12.25 1.257812 -12.210938 1.09375 -12.140625 C 0.925781 -12.078125 0.8125 -12.035156 0.75 -12.015625 L 0.546875 -12.59375 L 4.859375 -14.234375 L 5.359375 -14.234375 Z M 5.359375 -11.296875 "/></g></g></g><g fill="#212121" fill-opacity="1"><g transform="translate(447.30168, 289.282127)"><g><path d="M 5.390625 -11.296875 L 5.453125 -11.296875 C 6.109375 -12.191406 6.851562 -12.90625 7.6875 -13.4375 C 8.53125 -13.96875 9.363281 -14.234375 10.1875 -14.234375 C 11.363281 -14.234375 12.253906 -13.785156 12.859375 -12.890625 C 13.472656 -12.003906 13.78125 -10.914062 13.78125 -9.625 L 13.78125 -3.203125 C 13.78125 -2.441406 13.859375 -1.867188 14.015625 -1.484375 C 14.179688 -1.109375 14.414062 -0.859375 14.71875 -0.734375 C 15.03125 -0.609375 15.476562 -0.546875 16.0625 -0.546875 L 16.0625 0 L 9.109375 0 L 9.109375 -0.546875 C 9.648438 -0.546875 10.070312 -0.601562 10.375 -0.71875 C 10.6875 -0.84375 10.921875 -1.09375 11.078125 -1.46875 C 11.242188 -1.84375 11.328125 -2.410156 11.328125 -3.171875 L 11.328125 -10.015625 C 11.328125 -10.648438 11.117188 -11.207031 10.703125 -11.6875 C 10.296875 -12.164062 9.710938 -12.40625 8.953125 -12.40625 C 8.335938 -12.40625 7.753906 -12.257812 7.203125 -11.96875 C 6.660156 -11.675781 6.054688 -11.203125 5.390625 -10.546875 L 5.390625 -3.171875 C 5.390625 -2.398438 5.460938 -1.828125 5.609375 -1.453125 C 5.765625 -1.085938 6.003906 -0.84375 6.328125 -0.71875 C 6.660156 -0.601562 7.148438 -0.546875 7.796875 -0.546875 L 7.796875 0 L 0.75 0 L 0.75 -0.546875 C 1.289062 -0.546875 1.710938 -0.609375 2.015625 -0.734375 C 2.328125 -0.859375 2.554688 -1.113281 2.703125 -1.5 C 2.859375 -1.894531 2.9375 -2.460938 2.9375 -3.203125 L 2.9375 -17.296875 C 2.9375 -18.128906 2.804688 -18.679688 2.546875 -18.953125 C 2.285156 -19.222656 1.957031 -19.359375 1.5625 -19.359375 C 1.28125 -19.359375 1.007812 -19.300781 0.75 -19.1875 L 0.5625 -19.6875 L 4.859375 -21.484375 L 5.390625 -21.484375 Z M 5.390625 -11.296875 "/></g></g></g><g fill="#212121" fill-opacity="1"><g transform="translate(464.591417, 289.282127)"><g><path d="M 7.15625 -14.234375 C 10.15625 -14.234375 11.65625 -13.035156 11.65625 -10.640625 L 11.65625 -2.703125 C 11.65625 -2.160156 11.734375 -1.800781 11.890625 -1.625 C 12.054688 -1.457031 12.269531 -1.375 12.53125 -1.375 C 12.820312 -1.375 13.097656 -1.457031 13.359375 -1.625 C 13.617188 -1.800781 14 -2.128906 14.5 -2.609375 L 14.5 -1.859375 C 13.738281 -0.992188 13.113281 -0.394531 12.625 -0.0625 C 12.132812 0.257812 11.632812 0.421875 11.125 0.421875 C 10.539062 0.421875 10.070312 0.21875 9.71875 -0.1875 C 9.375 -0.601562 9.203125 -1.210938 9.203125 -2.015625 C 8.316406 -1.171875 7.5 -0.550781 6.75 -0.15625 C 6.007812 0.226562 5.195312 0.421875 4.3125 0.421875 C 3.4375 0.421875 2.695312 0.09375 2.09375 -0.5625 C 1.5 -1.226562 1.203125 -2.03125 1.203125 -2.96875 C 1.203125 -4.5625 2.050781 -5.800781 3.75 -6.6875 C 5.363281 -7.539062 7.179688 -8.328125 9.203125 -9.046875 L 9.203125 -9.890625 C 9.203125 -10.691406 9.144531 -11.332031 9.03125 -11.8125 C 8.925781 -12.289062 8.675781 -12.671875 8.28125 -12.953125 C 7.894531 -13.242188 7.300781 -13.390625 6.5 -13.390625 C 5.71875 -13.390625 5.140625 -13.195312 4.765625 -12.8125 C 4.390625 -12.4375 4.203125 -11.972656 4.203125 -11.421875 L 4.21875 -10.640625 C 4.21875 -10.296875 4.109375 -10.015625 3.890625 -9.796875 C 3.671875 -9.578125 3.394531 -9.46875 3.0625 -9.46875 C 2.675781 -9.46875 2.363281 -9.578125 2.125 -9.796875 C 1.882812 -10.015625 1.765625 -10.328125 1.765625 -10.734375 C 1.765625 -11.734375 2.234375 -12.566406 3.171875 -13.234375 C 4.109375 -13.898438 5.4375 -14.234375 7.15625 -14.234375 Z M 3.75 -3.75 C 3.75 -3.070312 3.960938 -2.488281 4.390625 -2 C 4.816406 -1.519531 5.351562 -1.28125 6 -1.28125 C 7.007812 -1.28125 8.078125 -1.78125 9.203125 -2.78125 L 9.203125 -8.234375 C 7.804688 -7.660156 6.726562 -7.15625 5.96875 -6.71875 C 5.207031 -6.289062 4.644531 -5.847656 4.28125 -5.390625 C 3.925781 -4.929688 3.75 -4.382812 3.75 -3.75 Z M 3.75 -3.75 "/></g></g></g><g fill="#212121" fill-opacity="1"><g transform="translate(480.323028, 289.282127)"><g><path d="M 5.546875 -11.421875 L 5.609375 -11.421875 C 6.128906 -12.335938 6.691406 -13.035156 7.296875 -13.515625 C 7.910156 -13.992188 8.59375 -14.234375 9.34375 -14.234375 C 9.882812 -14.234375 10.320312 -14.066406 10.65625 -13.734375 C 11 -13.410156 11.171875 -13.007812 11.171875 -12.53125 C 11.171875 -12.144531 11.035156 -11.820312 10.765625 -11.5625 C 10.503906 -11.300781 10.203125 -11.171875 9.859375 -11.171875 C 9.578125 -11.171875 9.347656 -11.226562 9.171875 -11.34375 C 8.992188 -11.457031 8.8125 -11.601562 8.625 -11.78125 C 8.59375 -11.800781 8.523438 -11.859375 8.421875 -11.953125 C 8.316406 -12.054688 8.207031 -12.128906 8.09375 -12.171875 C 7.988281 -12.222656 7.878906 -12.25 7.765625 -12.25 C 7.304688 -12.25 6.910156 -12.0625 6.578125 -11.6875 C 6.242188 -11.320312 5.898438 -10.820312 5.546875 -10.1875 L 5.546875 -3.171875 C 5.546875 -2.398438 5.628906 -1.820312 5.796875 -1.4375 C 5.960938 -1.0625 6.222656 -0.816406 6.578125 -0.703125 C 6.941406 -0.597656 7.476562 -0.546875 8.1875 -0.546875 L 8.1875 0 L 0.8125 0 L 0.8125 -0.546875 L 0.953125 -0.546875 C 1.691406 -0.546875 2.234375 -0.722656 2.578125 -1.078125 C 2.921875 -1.441406 3.09375 -2.101562 3.09375 -3.0625 L 3.09375 -9.890625 C 3.09375 -10.828125 2.988281 -11.441406 2.78125 -11.734375 C 2.582031 -12.023438 2.234375 -12.171875 1.734375 -12.171875 C 1.429688 -12.171875 1.179688 -12.109375 0.984375 -11.984375 L 0.8125 -12.5 L 5 -14.234375 L 5.546875 -14.234375 Z M 5.546875 -11.421875 "/></g></g></g><g fill="#212121" fill-opacity="1"><g transform="translate(492.608694, 289.282127)"><g><path d="M 4.078125 -21.578125 C 4.515625 -21.578125 4.882812 -21.425781 5.1875 -21.125 C 5.488281 -20.820312 5.640625 -20.460938 5.640625 -20.046875 C 5.640625 -19.609375 5.488281 -19.238281 5.1875 -18.9375 C 4.882812 -18.632812 4.515625 -18.484375 4.078125 -18.484375 C 3.660156 -18.484375 3.300781 -18.632812 3 -18.9375 C 2.695312 -19.238281 2.546875 -19.609375 2.546875 -20.046875 C 2.546875 -20.460938 2.695312 -20.820312 3 -21.125 C 3.300781 -21.425781 3.660156 -21.578125 4.078125 -21.578125 Z M 5.390625 -3.109375 C 5.390625 -2.128906 5.550781 -1.457031 5.875 -1.09375 C 6.195312 -0.738281 6.71875 -0.554688 7.4375 -0.546875 L 7.4375 0 L 0.6875 0 L 0.6875 -0.546875 C 1.507812 -0.546875 2.085938 -0.734375 2.421875 -1.109375 C 2.765625 -1.484375 2.9375 -2.171875 2.9375 -3.171875 L 2.9375 -10.421875 C 2.9375 -10.960938 2.816406 -11.398438 2.578125 -11.734375 C 2.335938 -12.078125 1.96875 -12.25 1.46875 -12.25 C 1.25 -12.25 1.050781 -12.203125 0.875 -12.109375 L 0.6875 -12.640625 L 4.859375 -14.234375 L 5.390625 -14.234375 Z M 5.390625 -3.109375 "/></g></g></g><g fill="#212121" fill-opacity="1"><g transform="translate(501.478419, 289.282127)"><g><path d="M 7.15625 -14.234375 C 10.15625 -14.234375 11.65625 -13.035156 11.65625 -10.640625 L 11.65625 -2.703125 C 11.65625 -2.160156 11.734375 -1.800781 11.890625 -1.625 C 12.054688 -1.457031 12.269531 -1.375 12.53125 -1.375 C 12.820312 -1.375 13.097656 -1.457031 13.359375 -1.625 C 13.617188 -1.800781 14 -2.128906 14.5 -2.609375 L 14.5 -1.859375 C 13.738281 -0.992188 13.113281 -0.394531 12.625 -0.0625 C 12.132812 0.257812 11.632812 0.421875 11.125 0.421875 C 10.539062 0.421875 10.070312 0.21875 9.71875 -0.1875 C 9.375 -0.601562 9.203125 -1.210938 9.203125 -2.015625 C 8.316406 -1.171875 7.5 -0.550781 6.75 -0.15625 C 6.007812 0.226562 5.195312 0.421875 4.3125 0.421875 C 3.4375 0.421875 2.695312 0.09375 2.09375 -0.5625 C 1.5 -1.226562 1.203125 -2.03125 1.203125 -2.96875 C 1.203125 -4.5625 2.050781 -5.800781 3.75 -6.6875 C 5.363281 -7.539062 7.179688 -8.328125 9.203125 -9.046875 L 9.203125 -9.890625 C 9.203125 -10.691406 9.144531 -11.332031 9.03125 -11.8125 C 8.925781 -12.289062 8.675781 -12.671875 8.28125 -12.953125 C 7.894531 -13.242188 7.300781 -13.390625 6.5 -13.390625 C 5.71875 -13.390625 5.140625 -13.195312 4.765625 -12.8125 C 4.390625 -12.4375 4.203125 -11.972656 4.203125 -11.421875 L 4.21875 -10.640625 C 4.21875 -10.296875 4.109375 -10.015625 3.890625 -9.796875 C 3.671875 -9.578125 3.394531 -9.46875 3.0625 -9.46875 C 2.675781 -9.46875 2.363281 -9.578125 2.125 -9.796875 C 1.882812 -10.015625 1.765625 -10.328125 1.765625 -10.734375 C 1.765625 -11.734375 2.234375 -12.566406 3.171875 -13.234375 C 4.109375 -13.898438 5.4375 -14.234375 7.15625 -14.234375 Z M 3.75 -3.75 C 3.75 -3.070312 3.960938 -2.488281 4.390625 -2 C 4.816406 -1.519531 5.351562 -1.28125 6 -1.28125 C 7.007812 -1.28125 8.078125 -1.78125 9.203125 -2.78125 L 9.203125 -8.234375 C 7.804688 -7.660156 6.726562 -7.15625 5.96875 -6.71875 C 5.207031 -6.289062 4.644531 -5.847656 4.28125 -5.390625 C 3.925781 -4.929688 3.75 -4.382812 3.75 -3.75 Z M 3.75 -3.75 "/></g></g></g><g clip-path="url(#ac978cf4e3)"><path fill="#ff3131" d="M 0.925781 274.300781 C 45.636719 253.433594 93.023438 238.148438 141.503906 228.257812 L 159.730469 224.785156 L 178.050781 221.84375 L 196.457031 219.394531 L 214.917969 217.4375 C 239.570312 215.183594 264.351562 214.308594 289.109375 214.675781 C 313.863281 215.148438 338.597656 216.878906 363.164062 219.957031 L 381.542969 222.542969 L 399.855469 225.613281 L 418.074219 229.171875 L 436.171875 233.265625 C 484.277344 244.800781 531.121094 261.691406 575.097656 284.078125 C 530.070312 263.902344 483.140625 248.359375 435.140625 237.730469 L 417.089844 233.992188 L 398.960938 230.675781 L 380.761719 227.832031 L 362.488281 225.472656 C 338.097656 222.582031 313.566406 220.910156 289.007812 220.539062 C 264.453125 220.066406 239.875 220.914062 215.402344 222.957031 L 197.054688 224.699219 L 178.769531 226.921875 L 160.539062 229.617188 L 142.375 232.738281 C 94.039062 241.730469 46.601562 255.667969 0.925781 274.300781 Z M 0.925781 274.300781 " fill-opacity="1" fill-rule="nonzero"/></g><path fill="#545454" d="M 66.390625 143.425781 C 44.976562 143.425781 27.621094 126.066406 27.621094 104.65625 C 27.621094 83.242188 44.976562 65.882812 66.390625 65.882812 C 87.804688 65.882812 105.160156 83.242188 105.160156 104.65625 C 105.160156 126.066406 87.804688 143.425781 66.390625 143.425781 Z M 120.199219 104.65625 C 120.199219 102.984375 120.113281 101.332031 119.964844 99.699219 L 131.296875 93.800781 C 130.871094 91.246094 130.304688 88.738281 129.589844 86.289062 L 116.832031 85.890625 C 115.667969 82.757812 114.214844 79.765625 112.519531 76.941406 L 120.15625 66.710938 C 118.667969 64.605469 117.054688 62.589844 115.335938 60.675781 L 103.65625 65.859375 C 101.273438 63.566406 98.683594 61.496094 95.910156 59.671875 L 98.371094 47.136719 C 96.136719 45.890625 93.820312 44.777344 91.433594 43.792969 L 83.164062 53.523438 C 80.054688 52.507812 76.820312 51.765625 73.492188 51.328125 L 70.253906 38.96875 C 68.972656 38.894531 67.6875 38.855469 66.390625 38.855469 C 65.09375 38.855469 63.808594 38.894531 62.527344 38.96875 L 59.292969 51.328125 C 55.960938 51.765625 52.726562 52.507812 49.617188 53.523438 L 41.34375 43.792969 C 38.960938 44.777344 36.644531 45.890625 34.410156 47.136719 L 36.871094 59.671875 C 34.097656 61.496094 31.507812 63.570312 29.125 65.859375 L 17.445312 60.675781 C 15.726562 62.589844 14.113281 64.605469 12.625 66.710938 L 20.261719 76.941406 C 18.5625 79.765625 17.117188 82.761719 15.949219 85.890625 L 3.1875 86.289062 C 2.480469 88.742188 1.910156 91.246094 1.484375 93.804688 L 12.816406 99.699219 C 12.667969 101.332031 12.582031 102.984375 12.582031 104.65625 C 12.582031 106.328125 12.667969 107.976562 12.816406 109.609375 L 1.484375 115.507812 C 1.910156 118.0625 2.480469 120.570312 3.1875 123.019531 L 15.949219 123.421875 C 17.117188 126.550781 18.5625 129.542969 20.261719 132.367188 L 12.625 142.601562 C 14.113281 144.707031 15.726562 146.722656 17.445312 148.632812 L 29.125 143.449219 C 31.507812 145.742188 34.097656 147.8125 36.871094 149.636719 L 34.410156 162.171875 C 36.644531 163.414062 38.960938 164.535156 41.34375 165.515625 L 49.617188 155.785156 C 52.726562 156.800781 55.960938 157.542969 59.292969 157.984375 L 62.527344 170.34375 C 63.808594 170.414062 65.09375 170.457031 66.390625 170.457031 C 67.6875 170.457031 68.972656 170.414062 70.253906 170.34375 L 73.488281 157.984375 C 76.820312 157.546875 80.054688 156.800781 83.164062 155.785156 L 91.433594 165.515625 C 93.820312 164.535156 96.136719 163.414062 98.371094 162.171875 L 95.910156 149.636719 C 98.683594 147.8125 101.273438 145.742188 103.65625 143.449219 L 115.335938 148.632812 C 117.054688 146.71875 118.667969 144.707031 120.15625 142.601562 L 112.519531 132.367188 C 114.21875 129.542969 115.667969 126.550781 116.832031 123.421875 L 129.59375 123.019531 C 130.304688 120.570312 130.871094 118.0625 131.296875 115.507812 L 119.964844 109.609375 C 120.113281 107.976562 120.199219 106.328125 120.199219 104.65625 " fill-opacity="1" fill-rule="nonzero"/><g clip-path="url(#6302229147)"><path fill="#d9d9d9" d="M 66.390625 143.425781 L 66.390625 142.4375 C 55.953125 142.4375 46.515625 138.210938 39.675781 131.371094 C 32.835938 124.53125 28.609375 115.089844 28.609375 104.65625 C 28.609375 94.21875 32.835938 84.777344 39.675781 77.941406 C 46.515625 71.101562 55.953125 66.875 66.390625 66.871094 C 76.828125 66.875 86.265625 71.101562 93.105469 77.941406 C 99.945312 84.777344 104.171875 94.21875 104.171875 104.65625 C 104.171875 115.089844 99.945312 124.53125 93.105469 131.371094 C 86.265625 138.210938 76.828125 142.4375 66.390625 142.4375 L 66.390625 144.414062 C 88.347656 144.414062 106.148438 126.613281 106.148438 104.65625 C 106.148438 82.695312 88.347656 64.898438 66.390625 64.894531 C 44.429688 64.898438 26.632812 82.695312 26.632812 104.65625 C 26.632812 126.613281 44.429688 144.414062 66.390625 144.414062 Z M 120.199219 104.65625 L 121.1875 104.65625 C 121.1875 102.949219 121.097656 101.265625 120.945312 99.609375 L 119.964844 99.699219 L 120.417969 100.574219 L 131.753906 94.679688 C 132.132812 94.484375 132.34375 94.0625 132.273438 93.640625 C 131.839844 91.046875 131.265625 88.5 130.539062 86.015625 C 130.421875 85.605469 130.046875 85.316406 129.625 85.300781 L 116.859375 84.902344 L 116.832031 85.890625 L 117.757812 85.542969 C 116.570312 82.355469 115.09375 79.304688 113.363281 76.429688 L 112.519531 76.941406 L 113.308594 77.53125 L 120.949219 67.300781 C 121.203125 66.957031 121.210938 66.488281 120.960938 66.140625 C 119.449219 64 117.816406 61.957031 116.070312 60.015625 C 115.785156 59.699219 115.324219 59.601562 114.933594 59.773438 L 103.253906 64.957031 L 103.65625 65.859375 L 104.339844 65.144531 C 101.914062 62.816406 99.277344 60.703125 96.453125 58.847656 L 95.910156 59.671875 L 96.882812 59.863281 L 99.339844 47.328125 C 99.421875 46.910156 99.226562 46.484375 98.851562 46.273438 C 96.582031 45.011719 94.234375 43.875 91.8125 42.878906 C 91.414062 42.714844 90.960938 42.824219 90.683594 43.152344 L 82.410156 52.886719 L 83.164062 53.523438 L 83.472656 52.585938 C 80.304688 51.546875 77.011719 50.796875 73.621094 50.347656 L 73.492188 51.328125 L 74.449219 51.078125 L 71.210938 38.71875 C 71.101562 38.300781 70.742188 38.007812 70.308594 37.980469 C 69.015625 37.90625 67.707031 37.867188 66.390625 37.867188 C 65.074219 37.867188 63.769531 37.90625 62.472656 37.980469 C 62.042969 38.007812 61.679688 38.300781 61.570312 38.71875 L 58.335938 51.078125 L 59.292969 51.328125 L 59.160156 50.347656 C 55.769531 50.796875 52.476562 51.546875 49.308594 52.585938 L 49.617188 53.523438 L 50.371094 52.886719 L 42.097656 43.152344 C 41.816406 42.824219 41.363281 42.714844 40.964844 42.878906 C 38.546875 43.875 36.199219 45.011719 33.929688 46.273438 C 33.558594 46.484375 33.359375 46.910156 33.441406 47.328125 L 35.898438 59.863281 L 36.871094 59.671875 L 36.328125 58.847656 C 33.503906 60.703125 30.867188 62.816406 28.441406 65.144531 L 29.125 65.859375 L 29.527344 64.957031 L 17.847656 59.773438 C 17.457031 59.601562 16.996094 59.699219 16.710938 60.015625 C 14.964844 61.960938 13.332031 64 11.820312 66.140625 C 11.574219 66.488281 11.582031 66.960938 11.835938 67.300781 L 19.472656 77.53125 L 20.261719 76.941406 L 19.417969 76.429688 C 17.683594 79.308594 16.210938 82.355469 15.023438 85.546875 L 15.949219 85.890625 L 15.921875 84.902344 L 3.15625 85.300781 C 2.726562 85.316406 2.355469 85.601562 2.238281 86.015625 C 1.519531 88.503906 0.941406 91.046875 0.507812 93.640625 C 0.441406 94.0625 0.648438 94.484375 1.027344 94.679688 L 12.363281 100.574219 L 12.816406 99.699219 L 11.832031 99.609375 C 11.679688 101.265625 11.59375 102.949219 11.59375 104.65625 C 11.59375 106.363281 11.679688 108.042969 11.835938 109.699219 L 12.816406 109.609375 L 12.363281 108.734375 L 1.027344 114.632812 C 0.648438 114.828125 0.441406 115.25 0.507812 115.671875 C 0.941406 118.265625 1.519531 120.808594 2.238281 123.296875 C 2.355469 123.707031 2.726562 123.996094 3.15625 124.007812 L 15.921875 124.410156 L 15.949219 123.421875 L 15.023438 123.765625 C 16.210938 126.953125 17.683594 130 19.417969 132.878906 L 20.261719 132.367188 L 19.472656 131.777344 L 11.835938 142.011719 C 11.582031 142.351562 11.574219 142.824219 11.820312 143.171875 C 13.332031 145.308594 14.964844 147.351562 16.710938 149.292969 C 16.996094 149.609375 17.457031 149.710938 17.847656 149.535156 L 29.527344 144.355469 L 29.125 143.449219 L 28.441406 144.164062 C 30.867188 146.496094 33.503906 148.605469 36.328125 150.460938 L 36.871094 149.636719 L 35.898438 149.445312 L 33.441406 161.980469 C 33.359375 162.402344 33.558594 162.828125 33.929688 163.035156 C 36.199219 164.296875 38.546875 165.433594 40.96875 166.429688 C 41.363281 166.59375 41.820312 166.484375 42.09375 166.15625 L 50.371094 156.425781 L 49.617188 155.785156 L 49.3125 156.726562 C 52.476562 157.761719 55.769531 158.515625 59.160156 158.960938 L 59.292969 157.984375 L 58.335938 158.234375 L 61.570312 170.59375 C 61.679688 171.003906 62.042969 171.304688 62.472656 171.328125 C 63.765625 171.402344 65.070312 171.445312 66.390625 171.445312 C 67.710938 171.445312 69.015625 171.402344 70.3125 171.328125 C 70.738281 171.304688 71.101562 171.003906 71.210938 170.59375 L 74.445312 158.234375 L 73.488281 157.984375 L 73.621094 158.960938 C 77.011719 158.515625 80.304688 157.761719 83.46875 156.726562 L 83.164062 155.785156 L 82.410156 156.425781 L 90.683594 166.15625 C 90.960938 166.484375 91.417969 166.59375 91.8125 166.429688 C 94.234375 165.433594 96.582031 164.296875 98.851562 163.035156 C 99.226562 162.828125 99.421875 162.402344 99.339844 161.980469 L 96.882812 149.445312 L 95.910156 149.636719 L 96.453125 150.460938 C 99.277344 148.605469 101.914062 146.492188 104.339844 144.164062 L 103.65625 143.449219 L 103.253906 144.355469 L 114.933594 149.535156 C 115.324219 149.710938 115.785156 149.609375 116.070312 149.292969 C 117.816406 147.351562 119.453125 145.308594 120.960938 143.171875 C 121.207031 142.824219 121.203125 142.351562 120.949219 142.011719 L 113.308594 131.777344 L 112.519531 132.367188 L 113.363281 132.878906 C 115.097656 130.003906 116.570312 126.953125 117.757812 123.765625 L 116.832031 123.421875 L 116.859375 124.410156 L 129.625 124.007812 C 130.054688 123.996094 130.421875 123.707031 130.542969 123.296875 C 131.265625 120.808594 131.839844 118.261719 132.273438 115.667969 C 132.34375 115.246094 132.132812 114.828125 131.753906 114.628906 L 120.417969 108.734375 L 119.964844 109.609375 L 120.945312 109.699219 C 121.097656 108.042969 121.1875 106.363281 121.1875 104.65625 L 119.210938 104.65625 C 119.210938 106.292969 119.125 107.914062 118.980469 109.523438 C 118.941406 109.921875 119.148438 110.300781 119.507812 110.488281 L 130.839844 116.382812 L 131.296875 115.507812 L 130.320312 115.34375 C 129.902344 117.863281 129.34375 120.332031 128.644531 122.746094 L 129.59375 123.019531 L 129.5625 122.03125 L 116.800781 122.433594 C 116.394531 122.445312 116.042969 122.699219 115.902344 123.074219 C 114.761719 126.148438 113.339844 129.085938 111.671875 131.859375 C 111.460938 132.203125 111.484375 132.636719 111.722656 132.960938 L 119.363281 143.191406 L 120.15625 142.601562 L 119.347656 142.03125 C 117.882812 144.105469 116.296875 146.085938 114.601562 147.96875 L 115.335938 148.632812 L 115.734375 147.730469 L 104.054688 142.546875 C 103.6875 142.386719 103.261719 142.460938 102.972656 142.738281 C 100.628906 144.984375 98.085938 147.023438 95.367188 148.808594 C 95.03125 149.03125 94.863281 149.433594 94.941406 149.828125 L 97.402344 162.363281 L 98.371094 162.171875 L 97.890625 161.308594 C 95.691406 162.535156 93.410156 163.636719 91.0625 164.601562 L 91.433594 165.515625 L 92.191406 164.878906 L 83.917969 155.144531 C 83.65625 154.839844 83.238281 154.722656 82.855469 154.847656 C 79.804688 155.84375 76.628906 156.574219 73.359375 157.003906 C 72.960938 157.058594 72.632812 157.34375 72.535156 157.734375 L 69.300781 170.089844 L 70.253906 170.34375 L 70.195312 169.355469 C 68.933594 169.429688 67.664062 169.46875 66.390625 169.46875 C 65.117188 169.46875 63.847656 169.429688 62.585938 169.355469 L 62.527344 170.34375 L 63.484375 170.089844 L 60.246094 157.734375 C 60.144531 157.34375 59.820312 157.058594 59.421875 157.003906 C 56.152344 156.570312 52.976562 155.84375 49.925781 154.847656 C 49.542969 154.722656 49.125 154.839844 48.863281 155.144531 L 40.589844 164.878906 L 41.34375 165.515625 L 41.71875 164.601562 C 39.371094 163.636719 37.09375 162.535156 34.890625 161.308594 L 34.410156 162.171875 L 35.382812 162.363281 L 37.839844 149.828125 C 37.917969 149.433594 37.75 149.03125 37.414062 148.8125 C 34.695312 147.023438 32.148438 144.984375 29.808594 142.738281 C 29.519531 142.460938 29.09375 142.386719 28.726562 142.546875 L 17.046875 147.730469 L 17.445312 148.632812 L 18.183594 147.972656 C 16.484375 146.089844 14.902344 144.105469 13.433594 142.03125 L 12.625 142.601562 L 13.417969 143.191406 L 21.054688 132.960938 C 21.296875 132.636719 21.316406 132.203125 21.109375 131.859375 C 19.441406 129.085938 18.023438 126.148438 16.878906 123.074219 C 16.738281 122.699219 16.382812 122.445312 15.980469 122.433594 L 3.21875 122.03125 L 3.1875 123.019531 L 4.136719 122.746094 C 3.441406 120.335938 2.878906 117.863281 2.460938 115.347656 L 1.484375 115.507812 L 1.941406 116.382812 L 13.277344 110.488281 C 13.632812 110.300781 13.839844 109.921875 13.800781 109.519531 C 13.65625 107.914062 13.570312 106.292969 13.570312 104.65625 C 13.570312 103.019531 13.65625 101.394531 13.800781 99.789062 C 13.839844 99.390625 13.628906 99.007812 13.273438 98.824219 L 1.941406 92.925781 L 1.484375 93.804688 L 2.460938 93.964844 C 2.878906 91.445312 3.441406 88.980469 4.136719 86.566406 L 3.1875 86.289062 L 3.21875 87.277344 L 15.980469 86.878906 C 16.382812 86.867188 16.738281 86.613281 16.878906 86.234375 C 18.023438 83.160156 19.441406 80.222656 21.109375 77.449219 C 21.316406 77.105469 21.296875 76.671875 21.054688 76.347656 L 13.417969 66.121094 L 12.625 66.710938 L 13.433594 67.28125 C 14.902344 65.207031 16.484375 63.222656 18.179688 61.339844 L 17.445312 60.675781 L 17.046875 61.582031 L 28.726562 66.761719 C 29.09375 66.925781 29.519531 66.851562 29.808594 66.570312 C 32.148438 64.324219 34.695312 62.289062 37.414062 60.5 C 37.75 60.277344 37.917969 59.878906 37.839844 59.484375 L 35.382812 46.949219 L 34.410156 47.136719 L 34.890625 48.003906 C 37.089844 46.773438 39.371094 45.675781 41.71875 44.703125 L 41.34375 43.792969 L 40.589844 44.429688 L 48.863281 54.167969 C 49.125 54.472656 49.542969 54.589844 49.925781 54.464844 C 52.976562 53.464844 56.152344 52.738281 59.421875 52.308594 C 59.820312 52.253906 60.144531 51.96875 60.246094 51.578125 L 63.484375 39.21875 L 62.527344 38.96875 L 62.585938 39.957031 C 63.847656 39.882812 65.113281 39.84375 66.390625 39.84375 C 67.667969 39.84375 68.9375 39.882812 70.199219 39.957031 L 70.253906 38.96875 L 69.300781 39.21875 L 72.535156 51.578125 C 72.636719 51.96875 72.960938 52.253906 73.363281 52.308594 C 76.628906 52.738281 79.804688 53.464844 82.855469 54.464844 C 83.238281 54.589844 83.65625 54.472656 83.917969 54.167969 L 92.191406 44.429688 L 91.433594 43.792969 L 91.058594 44.703125 C 93.410156 45.675781 95.6875 46.773438 97.890625 48.003906 L 98.371094 47.136719 L 97.402344 46.949219 L 94.941406 59.484375 C 94.863281 59.878906 95.03125 60.277344 95.367188 60.5 C 98.085938 62.289062 100.628906 64.320312 102.972656 66.570312 C 103.261719 66.851562 103.6875 66.925781 104.054688 66.761719 L 115.734375 61.582031 L 115.335938 60.675781 L 114.601562 61.339844 C 116.292969 63.222656 117.878906 65.207031 119.347656 67.28125 L 120.15625 66.710938 L 119.363281 66.117188 L 111.722656 76.347656 C 111.484375 76.671875 111.460938 77.105469 111.671875 77.449219 C 113.339844 80.222656 114.761719 83.160156 115.902344 86.234375 C 116.042969 86.609375 116.394531 86.863281 116.800781 86.875 L 129.558594 87.277344 L 129.589844 86.289062 L 128.644531 86.566406 C 129.34375 88.976562 129.902344 91.445312 130.320312 93.964844 L 131.296875 93.800781 L 130.839844 92.925781 L 119.507812 98.824219 C 119.148438 99.007812 118.941406 99.390625 118.980469 99.789062 C 119.125 101.394531 119.210938 103.019531 119.210938 104.65625 L 120.199219 104.65625 " fill-opacity="1" fill-rule="nonzero"/></g><path fill="#545454" d="M 66.390625 61.34375 C 42.511719 61.34375 23.085938 80.773438 23.085938 104.65625 C 23.085938 128.535156 42.511719 147.960938 66.390625 147.960938 C 90.269531 147.960938 109.699219 128.535156 109.699219 104.65625 C 109.699219 80.773438 90.269531 61.34375 66.390625 61.34375 Z M 66.390625 65.882812 C 87.804688 65.882812 105.160156 83.242188 105.160156 104.65625 C 105.160156 126.066406 87.804688 143.425781 66.390625 143.425781 C 44.976562 143.425781 27.621094 126.066406 27.621094 104.65625 C 27.621094 83.242188 44.976562 65.882812 66.390625 65.882812 " fill-opacity="1" fill-rule="nonzero"/><path fill="#d9d9d9" d="M 66.390625 61.34375 L 66.390625 60.355469 C 41.964844 60.359375 22.09375 80.226562 22.09375 104.65625 C 22.09375 129.082031 41.964844 148.949219 66.390625 148.949219 C 90.816406 148.949219 110.6875 129.082031 110.6875 104.65625 C 110.6875 80.226562 90.816406 60.359375 66.390625 60.355469 L 66.390625 62.332031 C 78.058594 62.335938 88.632812 67.078125 96.300781 74.746094 C 103.964844 82.410156 108.710938 92.984375 108.710938 104.65625 C 108.710938 116.324219 103.964844 126.898438 96.300781 134.566406 C 88.632812 142.230469 78.058594 146.972656 66.390625 146.972656 C 54.722656 146.972656 44.148438 142.230469 36.480469 134.566406 C 28.816406 126.898438 24.074219 116.324219 24.074219 104.65625 C 24.074219 92.984375 28.816406 82.410156 36.480469 74.746094 C 44.148438 67.078125 54.722656 62.335938 66.390625 62.332031 Z M 66.390625 66.871094 C 76.828125 66.875 86.265625 71.101562 93.105469 77.941406 C 99.945312 84.777344 104.171875 94.21875 104.171875 104.65625 C 104.171875 115.089844 99.945312 124.53125 93.105469 131.371094 C 86.265625 138.210938 76.828125 142.4375 66.390625 142.4375 C 55.953125 142.4375 46.515625 138.210938 39.675781 131.371094 C 32.835938 124.53125 28.609375 115.089844 28.609375 104.65625 C 28.609375 94.21875 32.835938 84.777344 39.675781 77.941406 C 46.515625 71.101562 55.953125 66.875 66.390625 66.871094 L 66.390625 64.894531 C 44.429688 64.898438 26.632812 82.695312 26.632812 104.65625 C 26.632812 126.613281 44.429688 144.414062 66.390625 144.414062 C 88.347656 144.414062 106.148438 126.613281 106.148438 104.65625 C 106.148438 82.695312 88.347656 64.898438 66.390625 64.894531 L 66.390625 66.871094 " fill-opacity="1" fill-rule="nonzero"/><g clip-path="url(#340bfb9370)"><path fill="#212121" d="M 176.390625 240.453125 L 111.601562 240.453125 L 71.371094 175.117188 L 55.859375 175.117188 L 55.859375 240.453125 L 0.5 240.453125 L 0.417969 174.082031 L 55.589844 123.535156 L 78.226562 123.660156 C 90 123.789062 100.730469 115.511719 100.730469 102.710938 C 100.730469 89.773438 89.863281 81.757812 78.226562 81.757812 L 55.597656 81.757812 L 0.242188 31.964844 L 79.394531 31.964844 C 124.402344 31.964844 156.605469 62.359375 156.605469 99.742188 C 156.605469 125.738281 140.953125 147.464844 120.523438 156.777344 Z M 176.390625 240.453125 " fill-opacity="1" fill-rule="nonzero"/></g><g fill="#212121" fill-opacity="1"><g transform="translate(176.371271, 194.72487)"><g><path d="M 13.40625 -14.46875 L 37.90625 -73.703125 L 38.96875 -73.703125 L 63.359375 -14.25 C 64.972656 -10.238281 66.570312 -7.175781 68.15625 -5.0625 C 69.738281 -2.957031 71.800781 -1.90625 74.34375 -1.90625 L 74.34375 0 L 40.4375 0 L 40.4375 -1.90625 C 43.820312 -1.96875 46.078125 -2.226562 47.203125 -2.6875 C 48.328125 -3.144531 48.890625 -4.1875 48.890625 -5.8125 C 48.890625 -6.300781 48.765625 -6.863281 48.515625 -7.5 C 48.273438 -8.132812 48.082031 -8.660156 47.9375 -9.078125 L 43.40625 -20.484375 L 20.171875 -20.484375 L 16.890625 -12.5625 C 15.910156 -10.59375 15.421875 -8.867188 15.421875 -7.390625 C 15.421875 -5.210938 16.226562 -3.753906 17.84375 -3.015625 C 19.46875 -2.273438 21.753906 -1.90625 24.703125 -1.90625 L 24.703125 0 L 1.484375 0 L 1.484375 -1.90625 C 3.867188 -2.113281 6.007812 -3.203125 7.90625 -5.171875 C 9.8125 -7.140625 11.644531 -10.238281 13.40625 -14.46875 Z M 41.8125 -24.390625 L 31.78125 -48.671875 L 21.75 -24.390625 Z M 41.8125 -24.390625 "/></g></g></g><g fill="#212121" fill-opacity="1"><g transform="translate(257.574265, 194.72487)"><g><path d="M 52.484375 -22.703125 L 74.859375 -72.546875 L 103.0625 -72.546875 L 103.0625 -70.640625 C 100.664062 -70.566406 98.816406 -70.351562 97.515625 -70 C 96.210938 -69.65625 95.226562 -68.882812 94.5625 -67.6875 C 93.894531 -66.488281 93.5625 -64.691406 93.5625 -62.296875 L 93.5625 -11.09375 C 93.5625 -8.34375 93.894531 -6.316406 94.5625 -5.015625 C 95.226562 -3.710938 96.191406 -2.882812 97.453125 -2.53125 C 98.722656 -2.175781 100.59375 -1.96875 103.0625 -1.90625 L 103.0625 0 L 66.3125 0 L 66.3125 -1.90625 C 69.0625 -1.96875 71.140625 -2.191406 72.546875 -2.578125 C 73.953125 -2.972656 74.988281 -3.800781 75.65625 -5.0625 C 76.320312 -6.332031 76.65625 -8.304688 76.65625 -10.984375 L 76.65625 -67.046875 L 76.453125 -67.046875 L 46.46875 0 L 44.984375 0 L 15.09375 -66.53125 L 14.890625 -66.53125 L 14.890625 -10.5625 C 14.890625 -7.601562 15.734375 -5.421875 17.421875 -4.015625 C 19.109375 -2.609375 21.675781 -1.90625 25.125 -1.90625 L 25.125 0 L 1.578125 0 L 1.578125 -1.90625 C 4.742188 -1.90625 7.132812 -2.75 8.75 -4.4375 C 10.375 -6.125 11.1875 -8.269531 11.1875 -10.875 L 11.1875 -61.453125 C 11.1875 -63.984375 10.882812 -65.898438 10.28125 -67.203125 C 9.6875 -68.503906 8.722656 -69.382812 7.390625 -69.84375 C 6.054688 -70.300781 4.117188 -70.566406 1.578125 -70.640625 L 1.578125 -72.546875 L 29.984375 -72.546875 Z M 52.484375 -22.703125 "/></g></g></g><g fill="#212121" fill-opacity="1"><g transform="translate(367.39359, 194.72487)"><g><path d="M 43.296875 -74.125 C 50.398438 -74.125 56.941406 -72.609375 62.921875 -69.578125 C 68.910156 -66.554688 73.664062 -62.160156 77.1875 -56.390625 C 80.707031 -50.617188 82.46875 -43.820312 82.46875 -36 C 82.46875 -29.03125 80.882812 -22.695312 77.71875 -17 C 74.550781 -11.300781 70.007812 -6.796875 64.09375 -3.484375 C 58.175781 -0.171875 51.28125 1.484375 43.40625 1.484375 C 35.800781 1.484375 29.039062 -0.113281 23.125 -3.3125 C 17.207031 -6.519531 12.59375 -10.972656 9.28125 -16.671875 C 5.976562 -22.378906 4.328125 -28.929688 4.328125 -36.328125 C 4.328125 -43.578125 6 -50.066406 9.34375 -55.796875 C 12.6875 -61.535156 17.3125 -66.023438 23.21875 -69.265625 C 29.132812 -72.503906 35.828125 -74.125 43.296875 -74.125 Z M 23.125 -36.53125 C 23.125 -30.90625 23.8125 -25.484375 25.1875 -20.265625 C 26.5625 -15.054688 28.742188 -10.742188 31.734375 -7.328125 C 34.722656 -3.921875 38.578125 -2.21875 43.296875 -2.21875 C 47.378906 -2.21875 50.953125 -3.570312 54.015625 -6.28125 C 57.078125 -8.988281 59.453125 -12.859375 61.140625 -17.890625 C 62.828125 -22.929688 63.671875 -28.828125 63.671875 -35.578125 C 63.671875 -42.898438 62.84375 -49.179688 61.1875 -54.421875 C 59.53125 -59.671875 57.171875 -63.648438 54.109375 -66.359375 C 51.046875 -69.078125 47.476562 -70.4375 43.40625 -70.4375 C 39.664062 -70.4375 36.265625 -69.1875 33.203125 -66.6875 C 30.140625 -64.1875 27.691406 -60.382812 25.859375 -55.28125 C 24.035156 -50.175781 23.125 -43.925781 23.125 -36.53125 Z M 23.125 -36.53125 "/></g></g></g><g fill="#212121" fill-opacity="1"><g transform="translate(426.456051, 189.946468)"><g><path d="M 52.171875 -108.046875 C 48.179688 -108.046875 45.378906 -107.613281 43.765625 -106.75 C 42.148438 -105.882812 41.34375 -104.429688 41.34375 -102.390625 C 41.34375 -100.773438 41.773438 -98.890625 42.640625 -96.734375 L 67.34375 -34.71875 L 89.796875 -89.796875 C 91.628906 -94.421875 92.546875 -97.648438 92.546875 -99.484375 C 92.546875 -102.066406 91.570312 -104.140625 89.625 -105.703125 C 87.6875 -107.265625 84.566406 -108.046875 80.265625 -108.046875 L 80.265625 -110.953125 L 113.53125 -110.953125 L 113.53125 -108.046875 C 109.550781 -108.046875 106.050781 -105.972656 103.03125 -101.828125 C 100.019531 -97.679688 97.007812 -91.894531 94 -84.46875 L 58.46875 2.265625 L 55.5625 2.265625 L 16.3125 -95.765625 C 14.476562 -100.503906 12.695312 -103.734375 10.96875 -105.453125 C 9.25 -107.179688 6.507812 -108.046875 2.75 -108.046875 L 2.75 -110.953125 L 52.171875 -110.953125 Z M 52.171875 -108.046875 "/></g></g></g></svg>