<svg xmlns="http://www.w3.org/2000/svg" xmlns:xlink="http://www.w3.org/1999/xlink" width="580" zoomAndPan="magnify" viewBox="0 0 434.88 434.999989" height="580" preserveAspectRatio="xMidYMid meet" version="1.0"><defs><clipPath id="ad24a789e1"><path d="M 0 0.0585938 L 434.265625 0.0585938 L 434.265625 434.328125 L 0 434.328125 Z M 0 0.0585938 " clip-rule="nonzero"/></clipPath><clipPath id="f5193b1987"><path d="M 217.132812 0.0585938 C 97.214844 0.0585938 0 97.273438 0 217.195312 C 0 337.113281 97.214844 434.328125 217.132812 434.328125 C 337.054688 434.328125 434.265625 337.113281 434.265625 217.195312 C 434.265625 97.273438 337.054688 0.0585938 217.132812 0.0585938 Z M 217.132812 0.0585938 " clip-rule="nonzero"/></clipPath><clipPath id="ea337ddec7"><path d="M 62.203125 250.3125 L 390 250.3125 L 390 290.078125 L 62.203125 290.078125 Z M 62.203125 250.3125 " clip-rule="nonzero"/></clipPath><clipPath id="e37bc2bc62"><path d="M 62.199219 150 L 137 150 L 137 226 L 62.199219 226 Z M 62.199219 150 " clip-rule="nonzero"/></clipPath><clipPath id="1591b7ece8"><path d="M 62.203125 149.621094 L 137.386719 149.621094 L 137.386719 225.730469 L 62.203125 225.730469 Z M 62.203125 149.621094 " clip-rule="nonzero"/></clipPath><clipPath id="8e6b3e1b34"><path d="M 62.203125 146.1875 L 162.589844 146.1875 L 162.589844 265.488281 L 62.203125 265.488281 Z M 62.203125 146.1875 " clip-rule="nonzero"/></clipPath></defs><g clip-path="url(#ad24a789e1)"><g clip-path="url(#f5193b1987)"><path fill="#ffffff" d="M 0 0.0585938 L 434.265625 0.0585938 L 434.265625 434.328125 L 0 434.328125 Z M 0 0.0585938 " fill-opacity="1" fill-rule="nonzero"/></g></g><path fill="#212121" d="M 103.339844 284.628906 C 103.339844 285.230469 103.175781 285.777344 102.84375 286.277344 C 102.515625 286.773438 102.0625 287.160156 101.488281 287.445312 C 100.910156 287.730469 100.265625 287.871094 99.546875 287.871094 C 98.75 287.871094 97.992188 287.742188 97.277344 287.480469 L 97.277344 291.359375 C 97.277344 291.929688 97.414062 292.3125 97.695312 292.5 C 97.972656 292.683594 98.421875 292.777344 99.039062 292.777344 L 99.039062 293.089844 L 93.757812 293.089844 L 93.757812 292.777344 C 94.382812 292.777344 94.8125 292.675781 95.058594 292.464844 C 95.308594 292.257812 95.433594 291.890625 95.433594 291.359375 L 95.433594 283.050781 C 95.433594 282.515625 95.300781 282.148438 95.039062 281.953125 C 94.777344 281.753906 94.382812 281.648438 93.855469 281.648438 L 93.757812 281.648438 L 93.757812 281.339844 L 98.898438 281.339844 C 99.636719 281.339844 100.347656 281.453125 101.027344 281.6875 C 101.703125 281.914062 102.257812 282.273438 102.691406 282.773438 C 103.121094 283.269531 103.339844 283.886719 103.339844 284.628906 Z M 97.277344 282.210938 L 97.277344 286.882812 C 97.808594 287.109375 98.292969 287.222656 98.726562 287.222656 C 99.46875 287.222656 100.066406 286.996094 100.519531 286.535156 C 100.972656 286.070312 101.203125 285.457031 101.203125 284.691406 C 101.203125 283.894531 100.964844 283.246094 100.480469 282.746094 C 100.003906 282.242188 99.347656 281.988281 98.503906 281.988281 C 98.128906 281.988281 97.722656 282.066406 97.277344 282.210938 Z M 97.277344 282.210938 " fill-opacity="1" fill-rule="nonzero"/><path fill="#212121" d="M 107.234375 286.570312 L 107.269531 286.570312 C 107.566406 286.050781 107.886719 285.652344 108.234375 285.375 C 108.582031 285.105469 108.972656 284.964844 109.398438 284.964844 C 109.707031 284.964844 109.957031 285.0625 110.148438 285.25 C 110.34375 285.4375 110.441406 285.667969 110.441406 285.9375 C 110.441406 286.160156 110.363281 286.34375 110.210938 286.492188 C 110.0625 286.640625 109.890625 286.714844 109.695312 286.714844 C 109.535156 286.714844 109.402344 286.683594 109.300781 286.617188 C 109.199219 286.550781 109.097656 286.46875 108.992188 286.367188 C 108.972656 286.355469 108.933594 286.320312 108.875 286.269531 C 108.816406 286.210938 108.753906 286.167969 108.6875 286.144531 C 108.628906 286.113281 108.566406 286.097656 108.5 286.097656 C 108.238281 286.097656 108.011719 286.207031 107.824219 286.417969 C 107.632812 286.628906 107.4375 286.914062 107.234375 287.277344 L 107.234375 291.277344 C 107.234375 291.71875 107.28125 292.050781 107.378906 292.269531 C 107.472656 292.480469 107.621094 292.621094 107.824219 292.6875 C 108.03125 292.746094 108.335938 292.777344 108.742188 292.777344 L 108.742188 293.089844 L 104.535156 293.089844 L 104.535156 292.777344 L 104.617188 292.777344 C 105.039062 292.777344 105.347656 292.675781 105.542969 292.472656 C 105.738281 292.265625 105.835938 291.890625 105.835938 291.339844 L 105.835938 287.445312 C 105.835938 286.910156 105.777344 286.558594 105.660156 286.394531 C 105.546875 286.226562 105.347656 286.144531 105.0625 286.144531 C 104.890625 286.144531 104.746094 286.179688 104.636719 286.25 L 104.535156 285.957031 L 106.925781 284.964844 L 107.234375 284.964844 Z M 107.234375 286.570312 " fill-opacity="1" fill-rule="nonzero"/><path fill="#212121" d="M 115.949219 284.964844 C 116.621094 284.964844 117.246094 285.148438 117.828125 285.511719 C 118.417969 285.867188 118.882812 286.347656 119.226562 286.945312 C 119.578125 287.539062 119.753906 288.179688 119.753906 288.863281 C 119.753906 289.664062 119.566406 290.410156 119.191406 291.089844 C 118.816406 291.777344 118.3125 292.320312 117.675781 292.722656 C 117.046875 293.125 116.371094 293.328125 115.65625 293.328125 C 114.972656 293.328125 114.335938 293.152344 113.75 292.792969 C 113.160156 292.433594 112.695312 291.949219 112.351562 291.339844 C 112.011719 290.730469 111.84375 290.0625 111.84375 289.34375 C 111.84375 288.574219 112.03125 287.851562 112.402344 287.175781 C 112.78125 286.5 113.289062 285.964844 113.917969 285.5625 C 114.554688 285.167969 115.230469 284.964844 115.949219 284.964844 Z M 113.382812 288.65625 C 113.382812 289.332031 113.488281 289.976562 113.695312 290.601562 C 113.910156 291.222656 114.214844 291.730469 114.613281 292.132812 C 115.007812 292.535156 115.488281 292.730469 116.046875 292.730469 C 116.691406 292.730469 117.214844 292.445312 117.613281 291.867188 C 118.019531 291.292969 118.21875 290.53125 118.21875 289.585938 C 118.21875 288.832031 118.105469 288.148438 117.871094 287.542969 C 117.644531 286.933594 117.328125 286.449219 116.917969 286.097656 C 116.511719 285.742188 116.042969 285.5625 115.523438 285.5625 C 114.867188 285.5625 114.347656 285.84375 113.964844 286.402344 C 113.574219 286.960938 113.382812 287.710938 113.382812 288.65625 Z M 113.382812 288.65625 " fill-opacity="1" fill-rule="nonzero"/><path fill="#212121" d="M 123.445312 280.777344 C 123.691406 280.777344 123.902344 280.863281 124.078125 281.035156 C 124.246094 281.207031 124.335938 281.414062 124.335938 281.648438 C 124.335938 281.898438 124.246094 282.113281 124.078125 282.28125 C 123.902344 282.457031 123.691406 282.542969 123.445312 282.542969 C 123.207031 282.542969 123 282.457031 122.828125 282.28125 C 122.65625 282.113281 122.570312 281.898438 122.570312 281.648438 C 122.570312 281.414062 122.65625 281.207031 122.828125 281.035156 C 123 280.863281 123.207031 280.777344 123.445312 280.777344 Z M 124.226562 292.777344 C 124.226562 293.953125 123.980469 294.902344 123.488281 295.628906 C 123 296.355469 122.242188 296.71875 121.207031 296.71875 C 120.761719 296.71875 120.398438 296.636719 120.113281 296.476562 C 119.828125 296.316406 119.683594 296.109375 119.683594 295.859375 C 119.683594 295.664062 119.757812 295.496094 119.898438 295.351562 C 120.042969 295.210938 120.210938 295.140625 120.40625 295.140625 C 120.585938 295.140625 120.746094 295.179688 120.886719 295.265625 C 121.03125 295.351562 121.191406 295.476562 121.378906 295.636719 C 121.503906 295.761719 121.613281 295.855469 121.714844 295.921875 C 121.816406 295.996094 121.925781 296.03125 122.046875 296.03125 C 122.339844 296.03125 122.546875 295.882812 122.660156 295.585938 C 122.769531 295.285156 122.828125 294.945312 122.828125 294.558594 L 122.828125 287.257812 C 122.828125 286.859375 122.761719 286.558594 122.625 286.359375 C 122.488281 286.148438 122.289062 286.046875 122.027344 286.046875 C 121.84375 286.046875 121.675781 286.078125 121.527344 286.144531 L 121.429688 285.839844 L 123.941406 284.964844 L 124.226562 284.964844 Z M 124.226562 292.777344 " fill-opacity="1" fill-rule="nonzero"/><path fill="#212121" d="M 130.003906 284.964844 C 130.890625 284.964844 131.609375 285.265625 132.160156 285.859375 C 132.710938 286.445312 132.988281 287.21875 132.988281 288.167969 L 127.628906 288.167969 L 127.628906 288.390625 C 127.628906 288.992188 127.746094 289.566406 127.984375 290.121094 C 128.226562 290.671875 128.5625 291.121094 128.988281 291.464844 C 129.421875 291.804688 129.917969 291.972656 130.46875 291.972656 C 131.546875 291.972656 132.304688 291.371094 132.738281 290.164062 L 132.988281 290.296875 C 132.8125 291.238281 132.4375 291.980469 131.867188 292.519531 C 131.296875 293.058594 130.613281 293.328125 129.816406 293.328125 C 129.222656 293.328125 128.671875 293.171875 128.160156 292.867188 C 127.65625 292.558594 127.246094 292.097656 126.933594 291.484375 C 126.621094 290.867188 126.46875 290.117188 126.46875 289.238281 C 126.46875 288.398438 126.613281 287.65625 126.90625 287.007812 C 127.203125 286.355469 127.617188 285.855469 128.152344 285.5 C 128.691406 285.144531 129.308594 284.964844 130.003906 284.964844 Z M 129.523438 285.5625 C 129.042969 285.5625 128.625 285.753906 128.277344 286.132812 C 127.933594 286.507812 127.726562 287.007812 127.664062 287.632812 L 131.234375 287.632812 C 131.210938 287.023438 131.050781 286.523438 130.761719 286.144531 C 130.46875 285.757812 130.058594 285.5625 129.523438 285.5625 Z M 129.523438 285.5625 " fill-opacity="1" fill-rule="nonzero"/><path fill="#212121" d="M 136.730469 282.640625 L 137.003906 282.640625 L 137.003906 285.152344 L 138.796875 285.152344 L 138.796875 285.6875 L 137.003906 285.6875 L 137.003906 291.191406 C 137.003906 291.488281 137.089844 291.753906 137.261719 291.992188 C 137.433594 292.222656 137.671875 292.339844 137.976562 292.339844 C 138.183594 292.339844 138.367188 292.292969 138.527344 292.195312 C 138.6875 292.097656 138.859375 291.925781 139.035156 291.6875 L 139.382812 291.6875 C 139.085938 292.238281 138.765625 292.648438 138.421875 292.917969 C 138.082031 293.191406 137.683594 293.328125 137.226562 293.328125 C 136.730469 293.328125 136.332031 293.144531 136.042969 292.777344 C 135.75 292.402344 135.605469 291.898438 135.605469 291.261719 L 135.605469 285.6875 L 134.394531 285.6875 L 134.394531 285.339844 C 134.96875 285.105469 135.457031 284.757812 135.855469 284.296875 C 136.257812 283.835938 136.550781 283.28125 136.730469 282.640625 Z M 136.730469 282.640625 " fill-opacity="1" fill-rule="nonzero"/><path fill="#212121" d="M 144.882812 284.964844 C 145.554688 284.964844 146.179688 285.148438 146.761719 285.511719 C 147.351562 285.867188 147.816406 286.347656 148.160156 286.945312 C 148.511719 287.539062 148.6875 288.179688 148.6875 288.863281 C 148.6875 289.664062 148.5 290.410156 148.125 291.089844 C 147.75 291.777344 147.246094 292.320312 146.609375 292.722656 C 145.980469 293.125 145.304688 293.328125 144.589844 293.328125 C 143.90625 293.328125 143.269531 293.152344 142.683594 292.792969 C 142.09375 292.433594 141.628906 291.949219 141.285156 291.339844 C 140.945312 290.730469 140.777344 290.0625 140.777344 289.34375 C 140.777344 288.574219 140.964844 287.851562 141.339844 287.175781 C 141.71875 286.5 142.222656 285.964844 142.851562 285.5625 C 143.488281 285.167969 144.164062 284.964844 144.882812 284.964844 Z M 142.316406 288.65625 C 142.316406 289.332031 142.421875 289.976562 142.628906 290.601562 C 142.84375 291.222656 143.148438 291.730469 143.546875 292.132812 C 143.945312 292.535156 144.421875 292.730469 144.980469 292.730469 C 145.628906 292.730469 146.148438 292.445312 146.550781 291.867188 C 146.953125 291.292969 147.15625 290.53125 147.15625 289.585938 C 147.15625 288.832031 147.039062 288.148438 146.808594 287.542969 C 146.578125 286.933594 146.265625 286.449219 145.855469 286.097656 C 145.445312 285.742188 144.976562 285.5625 144.457031 285.5625 C 143.800781 285.5625 143.28125 285.84375 142.898438 286.402344 C 142.507812 286.960938 142.316406 287.710938 142.316406 288.65625 Z M 142.316406 288.65625 " fill-opacity="1" fill-rule="nonzero"/><path fill="#212121" d="M 153.082031 284.964844 C 153.40625 284.964844 153.742188 285.023438 154.089844 285.136719 C 154.324219 285.222656 154.519531 285.261719 154.667969 285.261719 C 154.769531 285.261719 154.875 285.226562 154.988281 285.152344 L 155.300781 285.152344 L 155.300781 287.5625 L 154.988281 287.5625 C 154.898438 286.9375 154.675781 286.429688 154.320312 286.035156 C 153.96875 285.644531 153.546875 285.449219 153.046875 285.449219 C 152.648438 285.449219 152.320312 285.546875 152.058594 285.742188 C 151.800781 285.933594 151.675781 286.191406 151.675781 286.519531 C 151.675781 286.785156 151.746094 287.015625 151.890625 287.203125 C 152.03125 287.390625 152.230469 287.5625 152.484375 287.722656 C 152.746094 287.882812 153.148438 288.105469 153.695312 288.390625 C 154.402344 288.765625 154.945312 289.136719 155.316406 289.503906 C 155.691406 289.867188 155.878906 290.355469 155.878906 290.964844 C 155.878906 291.515625 155.738281 291.964844 155.460938 292.320312 C 155.179688 292.675781 154.847656 292.929688 154.453125 293.089844 C 154.0625 293.25 153.6875 293.328125 153.332031 293.328125 C 152.992188 293.328125 152.53125 293.25 151.953125 293.089844 C 151.6875 293.011719 151.515625 292.972656 151.425781 292.972656 C 151.277344 292.972656 151.171875 293.011719 151.113281 293.089844 L 150.757812 293.089844 L 150.757812 290.421875 L 151.042969 290.421875 C 151.125 291.132812 151.382812 291.703125 151.816406 292.144531 C 152.25 292.578125 152.761719 292.792969 153.347656 292.792969 C 153.707031 292.792969 154.011719 292.683594 154.277344 292.457031 C 154.535156 292.230469 154.667969 291.945312 154.667969 291.601562 C 154.667969 291.203125 154.550781 290.890625 154.320312 290.664062 C 154.09375 290.433594 153.839844 290.234375 153.5625 290.074219 C 153.28125 289.910156 153.101562 289.804688 153.011719 289.753906 C 152.960938 289.71875 152.800781 289.628906 152.53125 289.476562 C 152.121094 289.253906 151.792969 289.050781 151.550781 288.871094 C 151.304688 288.691406 151.101562 288.464844 150.9375 288.183594 C 150.769531 287.898438 150.6875 287.546875 150.6875 287.125 C 150.6875 286.480469 150.910156 285.964844 151.363281 285.5625 C 151.8125 285.167969 152.386719 284.964844 153.082031 284.964844 Z M 153.082031 284.964844 " fill-opacity="1" fill-rule="nonzero"/><path fill="#212121" d="M 165.585938 284.964844 C 166.46875 284.964844 167.1875 285.265625 167.738281 285.859375 C 168.292969 286.445312 168.566406 287.21875 168.566406 288.167969 L 163.207031 288.167969 L 163.207031 288.390625 C 163.207031 288.992188 163.324219 289.566406 163.5625 290.121094 C 163.804688 290.671875 164.140625 291.121094 164.570312 291.464844 C 165 291.804688 165.496094 291.972656 166.046875 291.972656 C 167.128906 291.972656 167.882812 291.371094 168.320312 290.164062 L 168.566406 290.296875 C 168.390625 291.238281 168.015625 291.980469 167.445312 292.519531 C 166.875 293.058594 166.191406 293.328125 165.398438 293.328125 C 164.800781 293.328125 164.25 293.171875 163.742188 292.867188 C 163.234375 292.558594 162.824219 292.097656 162.511719 291.484375 C 162.203125 290.867188 162.046875 290.117188 162.046875 289.238281 C 162.046875 288.398438 162.191406 287.65625 162.484375 287.007812 C 162.78125 286.355469 163.195312 285.855469 163.730469 285.5 C 164.269531 285.144531 164.890625 284.964844 165.585938 284.964844 Z M 165.101562 285.5625 C 164.621094 285.5625 164.207031 285.753906 163.855469 286.132812 C 163.511719 286.507812 163.304688 287.007812 163.242188 287.632812 L 166.8125 287.632812 C 166.789062 287.023438 166.628906 286.523438 166.339844 286.144531 C 166.050781 285.757812 165.636719 285.5625 165.101562 285.5625 Z M 165.101562 285.5625 " fill-opacity="1" fill-rule="nonzero"/><path fill="#212121" d="M 178.476562 281.089844 C 178.867188 281.089844 179.199219 281.125 179.480469 281.195312 C 179.765625 281.265625 180.054688 281.371094 180.355469 281.5 C 180.5 281.550781 180.648438 281.601562 180.789062 281.648438 C 180.933594 281.699219 181.058594 281.722656 181.175781 281.722656 C 181.445312 281.722656 181.664062 281.511719 181.824219 281.089844 L 182.152344 281.089844 L 182.152344 284.984375 L 181.824219 284.984375 C 181.769531 284.378906 181.59375 283.828125 181.289062 283.335938 C 180.988281 282.835938 180.609375 282.445312 180.160156 282.160156 C 179.707031 281.871094 179.226562 281.730469 178.714844 281.730469 C 178.15625 281.730469 177.679688 281.898438 177.28125 282.238281 C 176.882812 282.578125 176.683594 282.984375 176.683594 283.460938 C 176.683594 284.019531 176.957031 284.503906 177.503906 284.914062 C 177.890625 285.199219 178.429688 285.542969 179.125 285.9375 C 179.742188 286.320312 180.257812 286.648438 180.667969 286.917969 C 181.074219 287.191406 181.453125 287.488281 181.804688 287.800781 C 182.125 288.113281 182.378906 288.464844 182.5625 288.863281 C 182.753906 289.261719 182.847656 289.671875 182.847656 290.09375 C 182.847656 290.675781 182.6875 291.222656 182.367188 291.722656 C 182.050781 292.222656 181.621094 292.621094 181.066406 292.910156 C 180.515625 293.199219 179.910156 293.347656 179.25 293.347656 C 178.828125 293.347656 178.453125 293.308594 178.128906 293.230469 C 177.800781 293.160156 177.460938 293.0625 177.113281 292.9375 C 176.726562 292.800781 176.4375 292.730469 176.238281 292.730469 C 175.929688 292.730469 175.695312 292.9375 175.535156 293.347656 L 175.234375 293.347656 L 175.234375 289.398438 L 175.535156 289.398438 C 175.730469 290.410156 176.117188 291.210938 176.695312 291.804688 C 177.269531 292.398438 178.011719 292.695312 178.921875 292.695312 C 179.574219 292.695312 180.105469 292.523438 180.523438 292.171875 C 180.945312 291.8125 181.15625 291.367188 181.15625 290.832031 C 181.15625 290.5625 181.105469 290.3125 181.003906 290.085938 C 180.902344 289.851562 180.734375 289.605469 180.496094 289.34375 C 180.277344 289.117188 179.96875 288.871094 179.570312 288.605469 C 179.171875 288.332031 178.644531 287.996094 177.984375 287.597656 C 177.425781 287.257812 177 286.992188 176.703125 286.792969 C 176.40625 286.59375 176.183594 286.417969 176.035156 286.269531 C 175.453125 285.675781 175.160156 284.960938 175.160156 284.128906 C 175.160156 283.558594 175.308594 283.046875 175.597656 282.585938 C 175.886719 282.121094 176.285156 281.757812 176.78125 281.488281 C 177.285156 281.222656 177.851562 281.089844 178.476562 281.089844 Z M 178.476562 281.089844 " fill-opacity="1" fill-rule="nonzero"/><path fill="#212121" d="M 188.898438 284.964844 C 189.570312 284.964844 190.195312 285.148438 190.78125 285.511719 C 191.367188 285.867188 191.832031 286.347656 192.179688 286.945312 C 192.527344 287.539062 192.703125 288.179688 192.703125 288.863281 C 192.703125 289.664062 192.515625 290.410156 192.140625 291.089844 C 191.769531 291.777344 191.261719 292.320312 190.628906 292.722656 C 189.996094 293.125 189.324219 293.328125 188.605469 293.328125 C 187.921875 293.328125 187.289062 293.152344 186.699219 292.792969 C 186.113281 292.433594 185.644531 291.949219 185.300781 291.339844 C 184.964844 290.730469 184.792969 290.0625 184.792969 289.34375 C 184.792969 288.574219 184.980469 287.851562 185.355469 287.175781 C 185.734375 286.5 186.238281 285.964844 186.871094 285.5625 C 187.503906 285.167969 188.179688 284.964844 188.898438 284.964844 Z M 186.335938 288.65625 C 186.335938 289.332031 186.4375 289.976562 186.648438 290.601562 C 186.859375 291.222656 187.164062 291.730469 187.5625 292.132812 C 187.960938 292.535156 188.4375 292.730469 189 292.730469 C 189.644531 292.730469 190.167969 292.445312 190.566406 291.867188 C 190.96875 291.292969 191.171875 290.53125 191.171875 289.585938 C 191.171875 288.832031 191.054688 288.148438 190.824219 287.542969 C 190.597656 286.933594 190.28125 286.449219 189.871094 286.097656 C 189.460938 285.742188 188.992188 285.5625 188.472656 285.5625 C 187.816406 285.5625 187.300781 285.84375 186.914062 286.402344 C 186.527344 286.960938 186.335938 287.710938 186.335938 288.65625 Z M 186.335938 288.65625 " fill-opacity="1" fill-rule="nonzero"/><path fill="#212121" d="M 196.972656 280.828125 L 196.972656 291.296875 C 196.972656 291.867188 197.058594 292.257812 197.222656 292.464844 C 197.390625 292.675781 197.6875 292.777344 198.125 292.777344 L 198.125 293.089844 L 194.277344 293.089844 L 194.277344 292.777344 C 194.597656 292.777344 194.847656 292.746094 195.023438 292.679688 C 195.207031 292.605469 195.34375 292.464844 195.433594 292.25 C 195.527344 292.035156 195.578125 291.71875 195.578125 291.296875 L 195.578125 283.203125 C 195.578125 282.441406 195.308594 282.058594 194.773438 282.058594 C 194.625 282.058594 194.492188 282.085938 194.382812 282.140625 L 194.277344 281.855469 L 196.671875 280.828125 Z M 196.972656 280.828125 " fill-opacity="1" fill-rule="nonzero"/><path fill="#212121" d="M 202.085938 290.832031 C 202.085938 291.242188 202.207031 291.578125 202.457031 291.839844 C 202.707031 292.101562 203.015625 292.234375 203.382812 292.234375 C 203.710938 292.234375 204.046875 292.148438 204.398438 291.972656 C 204.757812 291.796875 205.09375 291.535156 205.414062 291.191406 L 205.414062 286.457031 C 205.414062 285.796875 205.027344 285.464844 204.25 285.464844 L 204.078125 285.464844 L 204.078125 285.152344 L 206.8125 285.152344 L 206.8125 291.242188 C 206.8125 291.445312 206.871094 291.652344 206.992188 291.867188 C 207.109375 292.078125 207.304688 292.179688 207.570312 292.179688 C 207.71875 292.179688 207.90625 292.132812 208.132812 292.046875 L 208.132812 292.367188 L 205.734375 293.292969 L 205.414062 293.292969 L 205.414062 291.617188 L 205.378906 291.617188 C 204.457031 292.757812 203.570312 293.328125 202.714844 293.328125 C 202.28125 293.328125 201.910156 293.21875 201.601562 293 C 201.292969 292.773438 201.0625 292.492188 200.910156 292.152344 C 200.757812 291.808594 200.6875 291.460938 200.6875 291.109375 L 200.6875 286.589844 C 200.6875 286.144531 200.582031 285.847656 200.382812 285.699219 C 200.1875 285.542969 199.878906 285.464844 199.457031 285.464844 L 199.25 285.464844 L 199.25 285.152344 L 202.085938 285.152344 Z M 202.085938 290.832031 " fill-opacity="1" fill-rule="nonzero"/><path fill="#212121" d="M 213.097656 284.964844 C 213.589844 284.964844 214.046875 285.054688 214.46875 285.226562 C 214.890625 285.390625 215.222656 285.613281 215.464844 285.894531 C 215.710938 286.175781 215.832031 286.472656 215.832031 286.792969 C 215.832031 287.003906 215.753906 287.175781 215.601562 287.3125 C 215.445312 287.449219 215.25 287.515625 215.011719 287.515625 C 214.839844 287.515625 214.707031 287.496094 214.613281 287.445312 C 214.515625 287.398438 214.417969 287.324219 214.316406 287.222656 C 214.246094 287.167969 214.195312 287.070312 214.167969 286.917969 C 214.136719 286.773438 214.113281 286.679688 214.105469 286.644531 C 214.0625 286.347656 214.007812 286.148438 213.933594 286.046875 C 213.707031 285.667969 213.332031 285.476562 212.8125 285.476562 C 212.140625 285.476562 211.597656 285.746094 211.183594 286.285156 C 210.773438 286.820312 210.566406 287.53125 210.566406 288.417969 C 210.566406 289.480469 210.816406 290.332031 211.316406 290.976562 C 211.820312 291.617188 212.488281 291.9375 213.320312 291.9375 C 213.9375 291.9375 214.453125 291.769531 214.871094 291.429688 C 215.285156 291.085938 215.585938 290.613281 215.769531 290.011719 L 216.035156 290.128906 C 215.808594 291.042969 215.414062 291.792969 214.84375 292.375 C 214.273438 292.953125 213.617188 293.269531 212.875 293.328125 L 212.832031 293.402344 C 213.179688 293.417969 213.457031 293.535156 213.667969 293.757812 C 213.882812 293.980469 213.988281 294.269531 213.988281 294.613281 C 213.988281 295.058594 213.808594 295.417969 213.453125 295.691406 C 213.101562 295.964844 212.628906 296.101562 212.027344 296.101562 C 211.855469 296.101562 211.722656 296.09375 211.628906 296.085938 L 211.199219 296.066406 L 211.289062 295.773438 L 211.511719 295.773438 C 211.84375 295.773438 212.121094 295.695312 212.339844 295.539062 C 212.558594 295.382812 212.671875 295.195312 212.671875 294.96875 C 212.671875 294.785156 212.59375 294.625 212.449219 294.488281 C 212.304688 294.351562 212.109375 294.285156 211.867188 294.285156 L 211.699219 294.300781 L 212.367188 293.3125 C 211.75 293.25 211.199219 293.042969 210.71875 292.679688 C 210.242188 292.316406 209.875 291.835938 209.605469 291.234375 C 209.339844 290.632812 209.207031 289.964844 209.207031 289.226562 C 209.207031 288.402344 209.367188 287.667969 209.695312 287.027344 C 210.027344 286.382812 210.488281 285.882812 211.085938 285.519531 C 211.675781 285.152344 212.347656 284.964844 213.097656 284.964844 Z M 213.097656 284.964844 " fill-opacity="1" fill-rule="nonzero"/><path fill="#212121" d="M 221.574219 284.964844 C 222.246094 284.964844 222.871094 285.148438 223.453125 285.511719 C 224.042969 285.867188 224.507812 286.347656 224.851562 286.945312 C 225.203125 287.539062 225.378906 288.179688 225.378906 288.863281 C 225.378906 289.664062 225.191406 290.410156 224.816406 291.089844 C 224.445312 291.777344 223.9375 292.320312 223.304688 292.722656 C 222.671875 293.125 222 293.328125 221.28125 293.328125 C 220.597656 293.328125 219.964844 293.152344 219.375 292.792969 C 218.789062 292.433594 218.320312 291.949219 217.976562 291.339844 C 217.640625 290.730469 217.46875 290.0625 217.46875 289.34375 C 217.46875 288.574219 217.65625 287.851562 218.03125 287.175781 C 218.410156 286.5 218.914062 285.964844 219.542969 285.5625 C 220.179688 285.167969 220.855469 284.964844 221.574219 284.964844 Z M 219.011719 288.65625 C 219.011719 289.332031 219.113281 289.976562 219.320312 290.601562 C 219.535156 291.222656 219.839844 291.730469 220.238281 292.132812 C 220.636719 292.535156 221.113281 292.730469 221.671875 292.730469 C 222.320312 292.730469 222.84375 292.445312 223.242188 291.867188 C 223.644531 291.292969 223.847656 290.53125 223.847656 289.585938 C 223.847656 288.832031 223.730469 288.148438 223.5 287.542969 C 223.273438 286.933594 222.957031 286.449219 222.546875 286.097656 C 222.136719 285.742188 221.667969 285.5625 221.148438 285.5625 C 220.492188 285.5625 219.972656 285.84375 219.589844 286.402344 C 219.203125 286.960938 219.011719 287.710938 219.011719 288.65625 Z M 220.328125 281.339844 C 220.613281 281.339844 220.875 281.398438 221.113281 281.515625 C 221.347656 281.628906 221.640625 281.792969 221.984375 282.007812 C 222.234375 282.179688 222.433594 282.308594 222.589844 282.390625 C 222.746094 282.46875 222.894531 282.507812 223.046875 282.507812 C 223.304688 282.507812 223.492188 282.398438 223.605469 282.175781 C 223.71875 281.949219 223.796875 281.671875 223.847656 281.339844 L 224.105469 281.339844 L 224.105469 281.460938 C 224.105469 282.101562 223.949219 282.609375 223.640625 282.988281 C 223.332031 283.363281 222.957031 283.550781 222.511719 283.550781 C 222.226562 283.550781 221.960938 283.492188 221.71875 283.371094 C 221.472656 283.246094 221.1875 283.078125 220.855469 282.863281 C 220.605469 282.691406 220.402344 282.566406 220.25 282.488281 C 220.09375 282.40625 219.941406 282.363281 219.792969 282.363281 C 219.566406 282.363281 219.398438 282.457031 219.285156 282.640625 C 219.179688 282.824219 219.09375 283.117188 219.027344 283.511719 L 218.769531 283.511719 C 218.769531 282.84375 218.90625 282.3125 219.1875 281.925781 C 219.46875 281.535156 219.847656 281.339844 220.328125 281.339844 Z M 220.328125 281.339844 " fill-opacity="1" fill-rule="nonzero"/><path fill="#212121" d="M 230.574219 284.964844 C 231.460938 284.964844 232.179688 285.265625 232.730469 285.859375 C 233.285156 286.445312 233.558594 287.21875 233.558594 288.167969 L 228.199219 288.167969 L 228.199219 288.390625 C 228.199219 288.992188 228.316406 289.566406 228.554688 290.121094 C 228.796875 290.671875 229.132812 291.121094 229.5625 291.464844 C 229.992188 291.804688 230.488281 291.972656 231.039062 291.972656 C 232.121094 291.972656 232.875 291.371094 233.308594 290.164062 L 233.558594 290.296875 C 233.382812 291.238281 233.007812 291.980469 232.4375 292.519531 C 231.867188 293.058594 231.183594 293.328125 230.390625 293.328125 C 229.792969 293.328125 229.242188 293.171875 228.734375 292.867188 C 228.226562 292.558594 227.816406 292.097656 227.503906 291.484375 C 227.195312 290.867188 227.039062 290.117188 227.039062 289.238281 C 227.039062 288.398438 227.183594 287.65625 227.476562 287.007812 C 227.773438 286.355469 228.1875 285.855469 228.722656 285.5 C 229.261719 285.144531 229.882812 284.964844 230.574219 284.964844 Z M 230.09375 285.5625 C 229.613281 285.5625 229.199219 285.753906 228.847656 286.132812 C 228.503906 286.507812 228.296875 287.007812 228.234375 287.632812 L 231.804688 287.632812 C 231.78125 287.023438 231.621094 286.523438 231.332031 286.144531 C 231.042969 285.757812 230.628906 285.5625 230.09375 285.5625 Z M 230.09375 285.5625 " fill-opacity="1" fill-rule="nonzero"/><path fill="#212121" d="M 237.683594 284.964844 C 238.007812 284.964844 238.34375 285.023438 238.6875 285.136719 C 238.925781 285.222656 239.121094 285.261719 239.269531 285.261719 C 239.367188 285.261719 239.476562 285.226562 239.589844 285.152344 L 239.902344 285.152344 L 239.902344 287.5625 L 239.589844 287.5625 C 239.5 286.9375 239.277344 286.429688 238.921875 286.035156 C 238.570312 285.644531 238.144531 285.449219 237.648438 285.449219 C 237.25 285.449219 236.917969 285.546875 236.660156 285.742188 C 236.402344 285.933594 236.277344 286.191406 236.277344 286.519531 C 236.277344 286.785156 236.347656 287.015625 236.488281 287.203125 C 236.632812 287.390625 236.832031 287.5625 237.085938 287.722656 C 237.347656 287.882812 237.75 288.105469 238.296875 288.390625 C 239.003906 288.765625 239.542969 289.136719 239.917969 289.503906 C 240.292969 289.867188 240.480469 290.355469 240.480469 290.964844 C 240.480469 291.515625 240.339844 291.964844 240.0625 292.320312 C 239.78125 292.675781 239.445312 292.929688 239.054688 293.089844 C 238.664062 293.25 238.289062 293.328125 237.933594 293.328125 C 237.59375 293.328125 237.132812 293.25 236.550781 293.089844 C 236.289062 293.011719 236.117188 292.972656 236.027344 292.972656 C 235.878906 292.972656 235.773438 293.011719 235.714844 293.089844 L 235.359375 293.089844 L 235.359375 290.421875 L 235.644531 290.421875 C 235.726562 291.132812 235.984375 291.703125 236.417969 292.144531 C 236.851562 292.578125 237.363281 292.792969 237.949219 292.792969 C 238.304688 292.792969 238.613281 292.683594 238.875 292.457031 C 239.136719 292.230469 239.269531 291.945312 239.269531 291.601562 C 239.269531 291.203125 239.152344 290.890625 238.921875 290.664062 C 238.695312 290.433594 238.441406 290.234375 238.164062 290.074219 C 237.882812 289.910156 237.699219 289.804688 237.613281 289.753906 C 237.5625 289.71875 237.402344 289.628906 237.128906 289.476562 C 236.722656 289.253906 236.394531 289.050781 236.152344 288.871094 C 235.90625 288.691406 235.703125 288.464844 235.535156 288.183594 C 235.371094 287.898438 235.289062 287.546875 235.289062 287.125 C 235.289062 286.480469 235.511719 285.964844 235.964844 285.5625 C 236.414062 285.167969 236.988281 284.964844 237.683594 284.964844 Z M 237.683594 284.964844 " fill-opacity="1" fill-rule="nonzero"/><path fill="#212121" d="M 253.945312 280.828125 L 253.945312 290.816406 C 253.945312 291.363281 254 291.722656 254.121094 291.894531 C 254.238281 292.066406 254.425781 292.152344 254.671875 292.152344 C 254.785156 292.152344 254.957031 292.113281 255.191406 292.027344 L 255.304688 292.304688 L 252.535156 293.292969 L 252.535156 292.160156 C 252.148438 292.566406 251.769531 292.863281 251.394531 293.054688 C 251.023438 293.234375 250.605469 293.328125 250.148438 293.328125 C 249.53125 293.328125 248.960938 293.152344 248.4375 292.804688 C 247.914062 292.445312 247.496094 291.96875 247.183594 291.367188 C 246.867188 290.761719 246.710938 290.109375 246.710938 289.414062 C 246.710938 288.625 246.894531 287.886719 247.261719 287.203125 C 247.636719 286.523438 248.128906 285.980469 248.742188 285.574219 C 249.359375 285.167969 250.019531 284.964844 250.726562 284.964844 C 251.058594 284.964844 251.371094 285.015625 251.65625 285.109375 C 251.9375 285.199219 252.234375 285.351562 252.535156 285.5625 L 252.535156 283.121094 C 252.535156 282.402344 252.292969 282.042969 251.804688 282.042969 C 251.726562 282.042969 251.65625 282.050781 251.582031 282.070312 C 251.511719 282.085938 251.425781 282.117188 251.324219 282.160156 L 251.191406 281.871094 L 253.648438 280.828125 Z M 248.253906 288.800781 C 248.253906 289.460938 248.371094 290.0625 248.617188 290.601562 C 248.859375 291.144531 249.191406 291.574219 249.605469 291.894531 C 250.019531 292.210938 250.480469 292.367188 250.988281 292.367188 C 251.597656 292.367188 252.113281 292.105469 252.535156 291.582031 L 252.535156 287.722656 C 252.535156 287.140625 252.414062 286.683594 252.179688 286.347656 C 251.941406 286.007812 251.667969 285.777344 251.359375 285.644531 C 251.050781 285.515625 250.773438 285.449219 250.523438 285.449219 C 250.125 285.449219 249.75 285.597656 249.402344 285.894531 C 249.054688 286.1875 248.777344 286.589844 248.5625 287.105469 C 248.355469 287.617188 248.253906 288.183594 248.253906 288.800781 Z M 248.253906 288.800781 " fill-opacity="1" fill-rule="nonzero"/><path fill="#212121" d="M 260.039062 284.964844 C 260.925781 284.964844 261.644531 285.265625 262.195312 285.859375 C 262.746094 286.445312 263.023438 287.21875 263.023438 288.167969 L 257.664062 288.167969 L 257.664062 288.390625 C 257.664062 288.992188 257.78125 289.566406 258.019531 290.121094 C 258.261719 290.671875 258.597656 291.121094 259.023438 291.464844 C 259.457031 291.804688 259.953125 291.972656 260.503906 291.972656 C 261.582031 291.972656 262.339844 291.371094 262.773438 290.164062 L 263.023438 290.296875 C 262.847656 291.238281 262.472656 291.980469 261.902344 292.519531 C 261.332031 293.058594 260.648438 293.328125 259.851562 293.328125 C 259.257812 293.328125 258.707031 293.171875 258.195312 292.867188 C 257.691406 292.558594 257.28125 292.097656 256.96875 291.484375 C 256.65625 290.867188 256.503906 290.117188 256.503906 289.238281 C 256.503906 288.398438 256.648438 287.65625 256.941406 287.007812 C 257.238281 286.355469 257.652344 285.855469 258.1875 285.5 C 258.726562 285.144531 259.347656 284.964844 260.039062 284.964844 Z M 259.558594 285.5625 C 259.078125 285.5625 258.664062 285.753906 258.3125 286.132812 C 257.96875 286.507812 257.761719 287.007812 257.699219 287.632812 L 261.269531 287.632812 C 261.246094 287.023438 261.085938 286.523438 260.796875 286.144531 C 260.503906 285.757812 260.09375 285.5625 259.558594 285.5625 Z M 259.558594 285.5625 " fill-opacity="1" fill-rule="nonzero"/><path fill="#212121" d="M 278.695312 283.941406 L 278.398438 283.941406 C 278.285156 283.296875 278.074219 282.8125 277.765625 282.496094 C 277.457031 282.183594 277.03125 282.023438 276.484375 282.023438 L 272.78125 282.023438 L 272.78125 286.554688 L 275.816406 286.554688 C 276.367188 286.554688 276.757812 286.417969 276.984375 286.144531 C 277.207031 285.871094 277.328125 285.4375 277.339844 284.851562 L 277.652344 284.851562 L 277.652344 288.988281 L 277.339844 288.988281 C 277.339844 288.394531 277.222656 287.953125 276.992188 287.667969 C 276.765625 287.382812 276.363281 287.238281 275.789062 287.238281 L 272.78125 287.238281 L 272.78125 291.527344 C 272.78125 292.113281 273.007812 292.402344 273.464844 292.402344 L 276.46875 292.402344 C 277.09375 292.402344 277.648438 292.210938 278.125 291.832031 C 278.605469 291.453125 278.992188 290.894531 279.289062 290.164062 L 279.644531 290.164062 L 278.695312 293.089844 L 269.242188 293.089844 L 269.242188 292.777344 C 269.835938 292.777344 270.269531 292.679688 270.535156 292.480469 C 270.800781 292.28125 270.9375 291.90625 270.9375 291.359375 L 270.9375 282.953125 C 270.9375 282.496094 270.800781 282.164062 270.535156 281.960938 C 270.269531 281.753906 269.835938 281.648438 269.242188 281.648438 L 269.242188 281.339844 L 278.550781 281.339844 Z M 278.695312 283.941406 " fill-opacity="1" fill-rule="nonzero"/><path fill="#212121" d="M 283.503906 286.644531 C 284.097656 286.007812 284.582031 285.570312 284.957031 285.332031 C 285.335938 285.089844 285.75 284.964844 286.203125 284.964844 C 286.707031 284.964844 287.109375 285.101562 287.414062 285.367188 C 287.722656 285.636719 287.945312 285.964844 288.082031 286.359375 C 288.21875 286.746094 288.285156 287.125 288.285156 287.5 L 288.285156 291.277344 C 288.285156 291.863281 288.378906 292.253906 288.5625 292.457031 C 288.746094 292.652344 289.0625 292.757812 289.507812 292.777344 L 289.507812 293.089844 L 285.507812 293.089844 L 285.507812 292.777344 C 285.867188 292.777344 286.144531 292.738281 286.335938 292.660156 C 286.53125 292.585938 286.671875 292.441406 286.753906 292.234375 C 286.84375 292.019531 286.886719 291.703125 286.886719 291.277344 L 286.886719 287.425781 C 286.886719 287.066406 286.769531 286.730469 286.53125 286.429688 C 286.292969 286.125 285.964844 285.972656 285.542969 285.972656 C 285.1875 285.972656 284.847656 286.070312 284.527344 286.257812 C 284.210938 286.445312 283.871094 286.730469 283.503906 287.125 L 283.503906 291.277344 C 283.503906 291.867188 283.601562 292.265625 283.796875 292.464844 C 283.992188 292.667969 284.328125 292.773438 284.804688 292.777344 L 284.804688 293.089844 L 280.875 293.089844 L 280.875 292.777344 C 281.226562 292.746094 281.488281 292.6875 281.660156 292.597656 C 281.832031 292.503906 281.949219 292.363281 282.007812 292.171875 C 282.070312 291.972656 282.105469 291.691406 282.105469 291.324219 L 282.105469 287.070312 C 282.105469 286.808594 282.046875 286.585938 281.9375 286.394531 C 281.824219 286.195312 281.636719 286.097656 281.382812 286.097656 C 281.269531 286.097656 281.164062 286.121094 281.074219 286.160156 C 280.976562 286.195312 280.910156 286.222656 280.875 286.234375 L 280.761719 285.902344 L 283.21875 284.964844 L 283.503906 284.964844 Z M 283.503906 286.644531 " fill-opacity="1" fill-rule="nonzero"/><path fill="#212121" d="M 294.640625 284.964844 C 295.285156 284.964844 295.871094 285.132812 296.40625 285.464844 L 298.265625 285.464844 C 298.425781 285.464844 298.519531 285.492188 298.542969 285.539062 C 298.570312 285.578125 298.585938 285.699219 298.585938 285.894531 C 298.585938 286.0625 298.574219 286.164062 298.550781 286.207031 C 298.535156 286.25 298.464844 286.269531 298.347656 286.269531 L 297.054688 286.269531 C 297.210938 286.519531 297.320312 286.753906 297.386719 286.972656 C 297.457031 287.1875 297.492188 287.4375 297.492188 287.722656 C 297.492188 288.246094 297.367188 288.714844 297.117188 289.128906 C 296.867188 289.546875 296.515625 289.875 296.066406 290.109375 C 295.621094 290.34375 295.113281 290.457031 294.542969 290.457031 C 294.175781 290.457031 293.796875 290.402344 293.414062 290.28125 C 292.953125 290.691406 292.726562 291.035156 292.726562 291.3125 C 292.726562 291.457031 292.808594 291.578125 292.976562 291.671875 C 293.140625 291.761719 293.488281 291.804688 294.007812 291.804688 L 295.960938 291.804688 C 296.640625 291.804688 297.238281 291.953125 297.75 292.25 C 298.265625 292.550781 298.523438 292.988281 298.523438 293.570312 C 298.523438 294.117188 298.316406 294.632812 297.902344 295.113281 C 297.492188 295.597656 296.949219 295.988281 296.273438 296.28125 C 295.59375 296.570312 294.871094 296.71875 294.097656 296.71875 C 293.574219 296.71875 293.058594 296.640625 292.550781 296.484375 C 292.042969 296.328125 291.632812 296.125 291.320312 295.871094 C 291.003906 295.621094 290.847656 295.363281 290.847656 295.101562 C 290.847656 294.890625 290.949219 294.632812 291.152344 294.328125 C 291.359375 294.023438 291.800781 293.535156 292.476562 292.867188 C 291.90625 292.695312 291.621094 292.414062 291.621094 292.027344 C 291.621094 291.71875 291.742188 291.410156 291.980469 291.101562 C 292.214844 290.785156 292.550781 290.457031 292.984375 290.109375 C 292.527344 289.875 292.175781 289.546875 291.925781 289.128906 C 291.675781 288.714844 291.550781 288.261719 291.550781 287.773438 C 291.550781 287.246094 291.683594 286.765625 291.953125 286.339844 C 292.21875 285.910156 292.585938 285.578125 293.058594 285.332031 C 293.53125 285.089844 294.058594 284.964844 294.640625 284.964844 Z M 293.003906 287.054688 C 293.003906 287.476562 293.058594 287.914062 293.171875 288.371094 C 293.285156 288.824219 293.476562 289.214844 293.75 289.539062 C 294.023438 289.867188 294.371094 290.03125 294.792969 290.03125 C 295.171875 290.03125 295.476562 289.851562 295.703125 289.496094 C 295.925781 289.132812 296.039062 288.671875 296.039062 288.113281 C 296.039062 287.769531 295.976562 287.390625 295.851562 286.972656 C 295.730469 286.558594 295.535156 286.203125 295.273438 285.902344 C 295.011719 285.601562 294.679688 285.449219 294.269531 285.449219 C 293.921875 285.449219 293.625 285.59375 293.378906 285.886719 C 293.128906 286.171875 293.003906 286.558594 293.003906 287.054688 Z M 295.605469 293.105469 L 294.972656 293.105469 C 294.453125 293.105469 294.03125 293.097656 293.707031 293.078125 C 293.386719 293.0625 293.105469 293.023438 292.871094 292.953125 C 292.605469 293.25 292.410156 293.515625 292.28125 293.75 C 292.15625 293.980469 292.09375 294.207031 292.09375 294.425781 C 292.09375 294.835938 292.375 295.148438 292.941406 295.363281 C 293.503906 295.582031 294.1875 295.691406 294.988281 295.691406 C 295.554688 295.691406 296.0625 295.617188 296.519531 295.46875 C 296.976562 295.320312 297.335938 295.113281 297.597656 294.84375 C 297.859375 294.582031 297.992188 294.292969 297.992188 293.980469 C 297.992188 293.609375 297.800781 293.375 297.421875 293.277344 C 297.039062 293.171875 296.433594 293.117188 295.605469 293.105469 Z M 295.605469 293.105469 " fill-opacity="1" fill-rule="nonzero"/><path fill="#212121" d="M 303.289062 284.964844 C 304.171875 284.964844 304.890625 285.265625 305.445312 285.859375 C 305.996094 286.445312 306.273438 287.21875 306.273438 288.167969 L 300.910156 288.167969 L 300.910156 288.390625 C 300.910156 288.992188 301.027344 289.566406 301.265625 290.121094 C 301.507812 290.671875 301.84375 291.121094 302.273438 291.464844 C 302.703125 291.804688 303.199219 291.972656 303.75 291.972656 C 304.832031 291.972656 305.589844 291.371094 306.023438 290.164062 L 306.273438 290.296875 C 306.09375 291.238281 305.71875 291.980469 305.148438 292.519531 C 304.578125 293.058594 303.894531 293.328125 303.101562 293.328125 C 302.507812 293.328125 301.953125 293.171875 301.445312 292.867188 C 300.9375 292.558594 300.53125 292.097656 300.214844 291.484375 C 299.90625 290.867188 299.753906 290.117188 299.753906 289.238281 C 299.753906 288.398438 299.898438 287.65625 300.1875 287.007812 C 300.484375 286.355469 300.902344 285.855469 301.4375 285.5 C 301.976562 285.144531 302.59375 284.964844 303.289062 284.964844 Z M 302.808594 285.5625 C 302.328125 285.5625 301.910156 285.753906 301.5625 286.132812 C 301.214844 286.507812 301.011719 287.007812 300.945312 287.632812 L 304.515625 287.632812 C 304.492188 287.023438 304.335938 286.523438 304.046875 286.144531 C 303.753906 285.757812 303.34375 285.5625 302.808594 285.5625 Z M 302.808594 285.5625 " fill-opacity="1" fill-rule="nonzero"/><path fill="#212121" d="M 310.234375 286.644531 C 310.828125 286.007812 311.3125 285.570312 311.6875 285.332031 C 312.066406 285.089844 312.480469 284.964844 312.933594 284.964844 C 313.4375 284.964844 313.84375 285.101562 314.144531 285.367188 C 314.453125 285.636719 314.675781 285.964844 314.8125 286.359375 C 314.949219 286.746094 315.019531 287.125 315.019531 287.5 L 315.019531 291.277344 C 315.019531 291.863281 315.109375 292.253906 315.292969 292.457031 C 315.476562 292.652344 315.792969 292.757812 316.238281 292.777344 L 316.238281 293.089844 L 312.238281 293.089844 L 312.238281 292.777344 C 312.601562 292.777344 312.875 292.738281 313.066406 292.660156 C 313.261719 292.585938 313.402344 292.441406 313.484375 292.234375 C 313.574219 292.019531 313.621094 291.703125 313.621094 291.277344 L 313.621094 287.425781 C 313.621094 287.066406 313.5 286.730469 313.261719 286.429688 C 313.023438 286.125 312.695312 285.972656 312.273438 285.972656 C 311.917969 285.972656 311.578125 286.070312 311.257812 286.257812 C 310.941406 286.445312 310.601562 286.730469 310.234375 287.125 L 310.234375 291.277344 C 310.234375 291.867188 310.332031 292.265625 310.527344 292.464844 C 310.726562 292.667969 311.058594 292.773438 311.535156 292.777344 L 311.535156 293.089844 L 307.609375 293.089844 L 307.609375 292.777344 C 307.957031 292.746094 308.21875 292.6875 308.390625 292.597656 C 308.5625 292.503906 308.679688 292.363281 308.738281 292.171875 C 308.804688 291.972656 308.835938 291.691406 308.835938 291.324219 L 308.835938 287.070312 C 308.835938 286.808594 308.777344 286.585938 308.667969 286.394531 C 308.554688 286.195312 308.367188 286.097656 308.113281 286.097656 C 308 286.097656 307.898438 286.121094 307.804688 286.160156 C 307.707031 286.195312 307.644531 286.222656 307.609375 286.234375 L 307.492188 285.902344 L 309.949219 284.964844 L 310.234375 284.964844 Z M 310.234375 286.644531 " fill-opacity="1" fill-rule="nonzero"/><path fill="#212121" d="M 320.109375 286.644531 L 320.144531 286.644531 C 320.519531 286.132812 320.941406 285.722656 321.417969 285.421875 C 321.898438 285.117188 322.371094 284.964844 322.84375 284.964844 C 323.511719 284.964844 324.019531 285.222656 324.367188 285.734375 C 324.714844 286.238281 324.890625 286.859375 324.890625 287.597656 L 324.890625 291.261719 C 324.890625 291.695312 324.9375 292.023438 325.023438 292.242188 C 325.117188 292.457031 325.253906 292.597656 325.425781 292.667969 C 325.605469 292.742188 325.859375 292.777344 326.191406 292.777344 L 326.191406 293.089844 L 322.226562 293.089844 L 322.226562 292.777344 C 322.535156 292.777344 322.777344 292.746094 322.949219 292.679688 C 323.128906 292.605469 323.261719 292.464844 323.351562 292.25 C 323.445312 292.035156 323.492188 291.714844 323.492188 291.277344 L 323.492188 287.375 C 323.492188 287.011719 323.371094 286.695312 323.136719 286.417969 C 322.90625 286.148438 322.570312 286.007812 322.140625 286.007812 C 321.789062 286.007812 321.457031 286.09375 321.140625 286.257812 C 320.832031 286.425781 320.488281 286.695312 320.109375 287.070312 L 320.109375 291.277344 C 320.109375 291.71875 320.148438 292.046875 320.234375 292.257812 C 320.320312 292.46875 320.457031 292.605469 320.644531 292.679688 C 320.832031 292.746094 321.109375 292.777344 321.480469 292.777344 L 321.480469 293.089844 L 317.464844 293.089844 L 317.464844 292.777344 C 317.769531 292.777344 318.011719 292.742188 318.183594 292.667969 C 318.363281 292.597656 318.492188 292.453125 318.578125 292.234375 C 318.664062 292.007812 318.710938 291.683594 318.710938 291.261719 L 318.710938 283.21875 C 318.710938 282.746094 318.632812 282.429688 318.488281 282.273438 C 318.339844 282.121094 318.152344 282.042969 317.925781 282.042969 C 317.765625 282.042969 317.609375 282.074219 317.464844 282.140625 L 317.355469 281.855469 L 319.804688 280.828125 L 320.109375 280.828125 Z M 320.109375 286.644531 " fill-opacity="1" fill-rule="nonzero"/><path fill="#212121" d="M 330.96875 284.964844 C 332.679688 284.964844 333.535156 285.652344 333.535156 287.015625 L 333.535156 291.546875 C 333.535156 291.855469 333.578125 292.0625 333.667969 292.160156 C 333.761719 292.257812 333.882812 292.304688 334.035156 292.304688 C 334.199219 292.304688 334.355469 292.257812 334.503906 292.160156 C 334.652344 292.0625 334.871094 291.875 335.15625 291.601562 L 335.15625 292.027344 C 334.722656 292.523438 334.367188 292.863281 334.085938 293.054688 C 333.808594 293.234375 333.523438 293.328125 333.230469 293.328125 C 332.898438 293.328125 332.632812 293.214844 332.429688 292.980469 C 332.234375 292.746094 332.136719 292.398438 332.136719 291.9375 C 331.632812 292.417969 331.164062 292.773438 330.738281 293 C 330.316406 293.21875 329.851562 293.328125 329.347656 293.328125 C 328.851562 293.328125 328.425781 293.140625 328.085938 292.769531 C 327.746094 292.390625 327.578125 291.929688 327.578125 291.394531 C 327.578125 290.484375 328.058594 289.777344 329.027344 289.273438 C 329.949219 288.785156 330.984375 288.335938 332.136719 287.925781 L 332.136719 287.445312 C 332.136719 286.988281 332.101562 286.621094 332.039062 286.347656 C 331.980469 286.078125 331.835938 285.859375 331.609375 285.699219 C 331.390625 285.53125 331.050781 285.449219 330.597656 285.449219 C 330.152344 285.449219 329.820312 285.558594 329.605469 285.777344 C 329.394531 285.992188 329.285156 286.257812 329.285156 286.570312 L 329.296875 287.015625 C 329.296875 287.214844 329.234375 287.375 329.109375 287.5 C 328.984375 287.625 328.824219 287.6875 328.636719 287.6875 C 328.414062 287.6875 328.238281 287.625 328.101562 287.5 C 327.964844 287.375 327.898438 287.195312 327.898438 286.964844 C 327.898438 286.394531 328.164062 285.917969 328.699219 285.539062 C 329.234375 285.160156 329.988281 284.964844 330.96875 284.964844 Z M 329.027344 290.949219 C 329.027344 291.335938 329.148438 291.667969 329.394531 291.949219 C 329.636719 292.222656 329.941406 292.359375 330.3125 292.359375 C 330.886719 292.359375 331.496094 292.070312 332.136719 291.5 L 332.136719 288.390625 C 331.339844 288.71875 330.726562 289.003906 330.292969 289.253906 C 329.859375 289.5 329.539062 289.753906 329.332031 290.011719 C 329.128906 290.277344 329.027344 290.585938 329.027344 290.949219 Z M 329.027344 290.949219 " fill-opacity="1" fill-rule="nonzero"/><path fill="#212121" d="M 339.019531 286.570312 L 339.054688 286.570312 C 339.351562 286.050781 339.671875 285.652344 340.019531 285.375 C 340.367188 285.105469 340.757812 284.964844 341.183594 284.964844 C 341.492188 284.964844 341.742188 285.0625 341.933594 285.25 C 342.128906 285.4375 342.226562 285.667969 342.226562 285.9375 C 342.226562 286.160156 342.148438 286.34375 341.996094 286.492188 C 341.847656 286.640625 341.675781 286.714844 341.476562 286.714844 C 341.316406 286.714844 341.1875 286.683594 341.085938 286.617188 C 340.984375 286.550781 340.882812 286.46875 340.773438 286.367188 C 340.757812 286.355469 340.71875 286.320312 340.660156 286.269531 C 340.597656 286.210938 340.535156 286.167969 340.472656 286.144531 C 340.410156 286.113281 340.347656 286.097656 340.285156 286.097656 C 340.023438 286.097656 339.796875 286.207031 339.609375 286.417969 C 339.417969 286.628906 339.21875 286.914062 339.019531 287.277344 L 339.019531 291.277344 C 339.019531 291.71875 339.066406 292.050781 339.164062 292.269531 C 339.257812 292.480469 339.40625 292.621094 339.609375 292.6875 C 339.816406 292.746094 340.121094 292.777344 340.523438 292.777344 L 340.523438 293.089844 L 336.320312 293.089844 L 336.320312 292.777344 L 336.402344 292.777344 C 336.824219 292.777344 337.132812 292.675781 337.328125 292.472656 C 337.523438 292.265625 337.621094 291.890625 337.621094 291.339844 L 337.621094 287.445312 C 337.621094 286.910156 337.5625 286.558594 337.445312 286.394531 C 337.332031 286.226562 337.132812 286.144531 336.847656 286.144531 C 336.671875 286.144531 336.53125 286.179688 336.417969 286.25 L 336.320312 285.957031 L 338.707031 284.964844 L 339.019531 284.964844 Z M 339.019531 286.570312 " fill-opacity="1" fill-rule="nonzero"/><path fill="#212121" d="M 345.1875 280.777344 C 345.4375 280.777344 345.644531 280.863281 345.820312 281.035156 C 345.988281 281.207031 346.078125 281.414062 346.078125 281.648438 C 346.078125 281.898438 345.988281 282.113281 345.820312 282.28125 C 345.644531 282.457031 345.4375 282.542969 345.1875 282.542969 C 344.949219 282.542969 344.742188 282.457031 344.570312 282.28125 C 344.398438 282.113281 344.3125 281.898438 344.3125 281.648438 C 344.3125 281.414062 344.398438 281.207031 344.570312 281.035156 C 344.742188 280.863281 344.949219 280.777344 345.1875 280.777344 Z M 345.933594 291.3125 C 345.933594 291.875 346.027344 292.257812 346.210938 292.464844 C 346.394531 292.667969 346.691406 292.773438 347.101562 292.777344 L 347.101562 293.089844 L 343.253906 293.089844 L 343.253906 292.777344 C 343.722656 292.777344 344.050781 292.667969 344.242188 292.457031 C 344.4375 292.242188 344.535156 291.847656 344.535156 291.277344 L 344.535156 287.140625 C 344.535156 286.835938 344.46875 286.585938 344.332031 286.394531 C 344.191406 286.195312 343.984375 286.097656 343.699219 286.097656 C 343.574219 286.097656 343.460938 286.125 343.359375 286.179688 L 343.253906 285.875 L 345.632812 284.964844 L 345.933594 284.964844 Z M 345.933594 291.3125 " fill-opacity="1" fill-rule="nonzero"/><path fill="#212121" d="M 351.996094 284.964844 C 353.707031 284.964844 354.5625 285.652344 354.5625 287.015625 L 354.5625 291.546875 C 354.5625 291.855469 354.605469 292.0625 354.695312 292.160156 C 354.789062 292.257812 354.910156 292.304688 355.058594 292.304688 C 355.226562 292.304688 355.382812 292.257812 355.53125 292.160156 C 355.679688 292.0625 355.898438 291.875 356.183594 291.601562 L 356.183594 292.027344 C 355.75 292.523438 355.390625 292.863281 355.113281 293.054688 C 354.832031 293.234375 354.546875 293.328125 354.257812 293.328125 C 353.925781 293.328125 353.65625 293.214844 353.457031 292.980469 C 353.261719 292.746094 353.164062 292.398438 353.164062 291.9375 C 352.65625 292.417969 352.191406 292.773438 351.765625 293 C 351.339844 293.21875 350.878906 293.328125 350.375 293.328125 C 349.875 293.328125 349.453125 293.140625 349.109375 292.769531 C 348.773438 292.390625 348.601562 291.929688 348.601562 291.394531 C 348.601562 290.484375 349.085938 289.777344 350.054688 289.273438 C 350.972656 288.785156 352.007812 288.335938 353.164062 287.925781 L 353.164062 287.445312 C 353.164062 286.988281 353.128906 286.621094 353.066406 286.347656 C 353.003906 286.078125 352.863281 285.859375 352.636719 285.699219 C 352.417969 285.53125 352.078125 285.449219 351.621094 285.449219 C 351.175781 285.449219 350.847656 285.558594 350.632812 285.777344 C 350.417969 285.992188 350.3125 286.257812 350.3125 286.570312 L 350.320312 287.015625 C 350.320312 287.214844 350.257812 287.375 350.136719 287.5 C 350.011719 287.625 349.851562 287.6875 349.664062 287.6875 C 349.441406 287.6875 349.265625 287.625 349.128906 287.5 C 348.992188 287.375 348.921875 287.195312 348.921875 286.964844 C 348.921875 286.394531 349.191406 285.917969 349.726562 285.539062 C 350.257812 285.160156 351.015625 284.964844 351.996094 284.964844 Z M 350.054688 290.949219 C 350.054688 291.335938 350.175781 291.667969 350.417969 291.949219 C 350.664062 292.222656 350.96875 292.359375 351.335938 292.359375 C 351.910156 292.359375 352.523438 292.070312 353.164062 291.5 L 353.164062 288.390625 C 352.367188 288.71875 351.75 289.003906 351.320312 289.253906 C 350.886719 289.5 350.566406 289.753906 350.359375 290.011719 C 350.15625 290.277344 350.054688 290.585938 350.054688 290.949219 Z M 350.054688 290.949219 " fill-opacity="1" fill-rule="nonzero"/><g clip-path="url(#ea337ddec7)"><path fill="#ff3131" d="M 62.59375 284.539062 C 88.078125 272.632812 115.089844 263.914062 142.726562 258.269531 L 153.113281 256.289062 L 163.558594 254.609375 L 174.050781 253.210938 L 184.570312 252.09375 C 198.625 250.808594 212.75 250.308594 226.863281 250.519531 C 240.972656 250.789062 255.070312 251.777344 269.074219 253.53125 L 279.550781 255.007812 L 289.988281 256.761719 L 300.375 258.789062 L 310.691406 261.125 C 338.113281 267.707031 364.8125 277.347656 389.882812 290.121094 C 364.214844 278.605469 337.464844 269.738281 310.101562 263.675781 L 299.8125 261.539062 L 289.480469 259.648438 L 279.105469 258.027344 L 268.691406 256.679688 C 254.785156 255.03125 240.804688 254.078125 226.804688 253.863281 C 212.808594 253.59375 198.796875 254.078125 184.847656 255.246094 L 174.390625 256.238281 L 163.96875 257.507812 L 153.574219 259.042969 L 143.222656 260.824219 C 115.667969 265.957031 88.628906 273.910156 62.59375 284.539062 Z M 62.59375 284.539062 " fill-opacity="1" fill-rule="nonzero"/></g><g clip-path="url(#e37bc2bc62)"><path fill="#545454" d="M 99.910156 209.863281 C 87.703125 209.863281 77.808594 199.960938 77.808594 187.742188 C 77.808594 175.523438 87.703125 165.621094 99.910156 165.621094 C 112.113281 165.621094 122.007812 175.523438 122.007812 187.742188 C 122.007812 199.960938 112.113281 209.863281 99.910156 209.863281 Z M 130.582031 187.742188 C 130.582031 186.789062 130.53125 185.847656 130.445312 184.914062 L 136.90625 181.550781 C 136.664062 180.09375 136.339844 178.660156 135.933594 177.261719 L 128.660156 177.035156 C 127.996094 175.25 127.167969 173.542969 126.203125 171.929688 L 130.554688 166.09375 C 129.707031 164.890625 128.789062 163.742188 127.808594 162.648438 L 121.152344 165.605469 C 119.792969 164.296875 118.316406 163.117188 116.734375 162.078125 L 118.136719 154.925781 C 116.863281 154.210938 115.542969 153.578125 114.183594 153.015625 L 109.46875 158.566406 C 107.699219 157.988281 105.855469 157.566406 103.957031 157.316406 L 102.109375 150.261719 C 101.378906 150.222656 100.648438 150.199219 99.910156 150.199219 C 99.167969 150.199219 98.4375 150.222656 97.707031 150.261719 L 95.863281 157.316406 C 93.964844 157.566406 92.121094 157.988281 90.347656 158.566406 L 85.632812 153.015625 C 84.273438 153.578125 82.953125 154.210938 81.679688 154.925781 L 83.082031 162.078125 C 81.5 163.117188 80.023438 164.300781 78.667969 165.605469 L 72.007812 162.648438 C 71.027344 163.742188 70.109375 164.890625 69.261719 166.09375 L 73.613281 171.929688 C 72.644531 173.542969 71.820312 175.25 71.15625 177.035156 L 63.882812 177.261719 C 63.480469 178.664062 63.152344 180.09375 62.910156 181.550781 L 69.371094 184.914062 C 69.285156 185.847656 69.238281 186.789062 69.238281 187.742188 C 69.238281 188.699219 69.285156 189.636719 69.371094 190.570312 L 62.910156 193.933594 C 63.152344 195.394531 63.480469 196.824219 63.882812 198.222656 L 71.15625 198.449219 C 71.820312 200.238281 72.644531 201.945312 73.613281 203.554688 L 69.261719 209.394531 C 70.109375 210.597656 71.027344 211.746094 72.007812 212.835938 L 78.667969 209.878906 C 80.023438 211.1875 81.5 212.367188 83.082031 213.410156 L 81.679688 220.5625 C 82.953125 221.269531 84.273438 221.910156 85.632812 222.46875 L 90.347656 216.917969 C 92.121094 217.496094 93.964844 217.921875 95.863281 218.171875 L 97.707031 225.222656 C 98.4375 225.265625 99.167969 225.289062 99.910156 225.289062 C 100.648438 225.289062 101.378906 225.265625 102.109375 225.222656 L 103.953125 218.171875 C 105.855469 217.921875 107.699219 217.496094 109.46875 216.917969 L 114.183594 222.46875 C 115.542969 221.910156 116.863281 221.269531 118.136719 220.5625 L 116.734375 213.410156 C 118.316406 212.367188 119.792969 211.1875 121.152344 209.878906 L 127.808594 212.835938 C 128.789062 211.742188 129.707031 210.597656 130.554688 209.394531 L 126.203125 203.554688 C 127.171875 201.945312 127.996094 200.238281 128.660156 198.449219 L 135.9375 198.222656 C 136.339844 196.824219 136.664062 195.394531 136.90625 193.933594 L 130.445312 190.570312 C 130.53125 189.636719 130.582031 188.699219 130.582031 187.742188 " fill-opacity="1" fill-rule="nonzero"/></g><g clip-path="url(#1591b7ece8)"><path fill="#d9d9d9" d="M 99.910156 209.863281 L 99.910156 209.300781 C 93.960938 209.300781 88.578125 206.890625 84.679688 202.988281 C 80.78125 199.085938 78.371094 193.695312 78.371094 187.742188 C 78.371094 181.789062 80.78125 176.402344 84.679688 172.5 C 88.578125 168.597656 93.960938 166.1875 99.910156 166.183594 C 105.859375 166.1875 111.238281 168.597656 115.136719 172.5 C 119.035156 176.402344 121.445312 181.789062 121.445312 187.742188 C 121.445312 193.695312 119.035156 199.085938 115.136719 202.988281 C 111.238281 206.890625 105.859375 209.300781 99.910156 209.300781 L 99.910156 210.429688 C 112.425781 210.429688 122.570312 200.273438 122.570312 187.742188 C 122.570312 175.214844 112.425781 165.058594 99.910156 165.054688 C 87.390625 165.058594 77.246094 175.214844 77.246094 187.742188 C 77.246094 200.273438 87.390625 210.429688 99.910156 210.429688 Z M 130.582031 187.742188 L 131.144531 187.742188 C 131.144531 186.769531 131.09375 185.808594 131.003906 184.863281 L 130.445312 184.914062 L 130.707031 185.414062 L 137.167969 182.050781 C 137.382812 181.941406 137.503906 181.699219 137.464844 181.457031 C 137.214844 179.976562 136.886719 178.523438 136.472656 177.109375 C 136.40625 176.875 136.195312 176.707031 135.953125 176.699219 L 128.675781 176.472656 L 128.660156 177.035156 L 129.1875 176.839844 C 128.511719 175.019531 127.671875 173.277344 126.683594 171.636719 L 126.203125 171.929688 L 126.652344 172.265625 L 131.007812 166.429688 C 131.152344 166.234375 131.15625 165.964844 131.015625 165.765625 C 130.152344 164.546875 129.222656 163.378906 128.226562 162.273438 C 128.066406 162.09375 127.800781 162.035156 127.578125 162.132812 L 120.921875 165.09375 L 121.152344 165.605469 L 121.539062 165.199219 C 120.15625 163.871094 118.65625 162.664062 117.042969 161.605469 L 116.734375 162.078125 L 117.289062 162.183594 L 118.691406 155.03125 C 118.738281 154.792969 118.625 154.550781 118.410156 154.429688 C 117.117188 153.710938 115.78125 153.0625 114.398438 152.496094 C 114.171875 152.402344 113.914062 152.464844 113.757812 152.652344 L 109.039062 158.203125 L 109.46875 158.566406 L 109.644531 158.03125 C 107.839844 157.441406 105.960938 157.011719 104.03125 156.757812 L 103.957031 157.316406 L 104.503906 157.171875 L 102.65625 150.121094 C 102.59375 149.882812 102.390625 149.714844 102.140625 149.699219 C 101.40625 149.65625 100.660156 149.636719 99.910156 149.636719 C 99.160156 149.636719 98.414062 149.65625 97.675781 149.699219 C 97.429688 149.714844 97.222656 149.882812 97.160156 150.121094 L 95.316406 157.171875 L 95.863281 157.316406 L 95.785156 156.757812 C 93.855469 157.011719 91.976562 157.441406 90.171875 158.03125 L 90.347656 158.566406 L 90.777344 158.203125 L 86.0625 152.652344 C 85.902344 152.464844 85.640625 152.402344 85.414062 152.496094 C 84.035156 153.0625 82.699219 153.710938 81.40625 154.429688 C 81.195312 154.550781 81.082031 154.792969 81.125 155.03125 L 82.527344 162.183594 L 83.082031 162.078125 L 82.773438 161.605469 C 81.164062 162.664062 79.660156 163.871094 78.277344 165.199219 L 78.667969 165.605469 L 78.894531 165.09375 L 72.238281 162.132812 C 72.015625 162.035156 71.753906 162.09375 71.589844 162.273438 C 70.59375 163.382812 69.664062 164.546875 68.800781 165.765625 C 68.664062 165.964844 68.667969 166.234375 68.8125 166.429688 L 73.164062 172.265625 L 73.613281 171.929688 L 73.132812 171.636719 C 72.144531 173.28125 71.304688 175.019531 70.628906 176.839844 L 71.15625 177.035156 L 71.140625 176.472656 L 63.863281 176.699219 C 63.617188 176.707031 63.40625 176.871094 63.339844 177.109375 C 62.929688 178.527344 62.601562 179.976562 62.355469 181.457031 C 62.316406 181.699219 62.433594 181.941406 62.648438 182.050781 L 69.113281 185.414062 L 69.371094 184.914062 L 68.808594 184.863281 C 68.722656 185.808594 68.671875 186.769531 68.671875 187.742188 C 68.671875 188.71875 68.722656 189.675781 68.8125 190.621094 L 69.371094 190.570312 L 69.113281 190.070312 L 62.648438 193.4375 C 62.433594 193.546875 62.316406 193.789062 62.355469 194.027344 C 62.601562 195.507812 62.929688 196.960938 63.339844 198.378906 C 63.40625 198.613281 63.617188 198.777344 63.863281 198.785156 L 71.140625 199.015625 L 71.15625 198.449219 L 70.628906 198.648438 C 71.304688 200.464844 72.144531 202.203125 73.132812 203.847656 L 73.613281 203.554688 L 73.164062 203.21875 L 68.8125 209.058594 C 68.667969 209.253906 68.664062 209.523438 68.800781 209.71875 C 69.664062 210.9375 70.59375 212.105469 71.589844 213.210938 C 71.753906 213.394531 72.015625 213.453125 72.238281 213.351562 L 78.894531 210.394531 L 78.667969 209.878906 L 78.277344 210.285156 C 79.660156 211.617188 81.164062 212.820312 82.773438 213.878906 L 83.082031 213.410156 L 82.527344 213.300781 L 81.125 220.453125 C 81.082031 220.691406 81.195312 220.9375 81.40625 221.054688 C 82.699219 221.773438 84.035156 222.421875 85.417969 222.992188 C 85.640625 223.085938 85.902344 223.023438 86.058594 222.835938 L 90.777344 217.28125 L 90.347656 216.917969 L 90.171875 217.453125 C 91.976562 218.042969 93.855469 218.476562 95.785156 218.730469 L 95.863281 218.171875 L 95.316406 218.316406 L 97.160156 225.367188 C 97.222656 225.601562 97.429688 225.773438 97.675781 225.785156 C 98.414062 225.828125 99.15625 225.851562 99.910156 225.851562 C 100.660156 225.851562 101.40625 225.828125 102.144531 225.785156 C 102.386719 225.773438 102.59375 225.601562 102.65625 225.367188 L 104.5 218.316406 L 103.953125 218.171875 L 104.03125 218.730469 C 105.960938 218.476562 107.839844 218.042969 109.644531 217.453125 L 109.46875 216.917969 L 109.039062 217.28125 L 113.757812 222.835938 C 113.914062 223.023438 114.175781 223.085938 114.398438 222.992188 C 115.78125 222.421875 117.117188 221.773438 118.410156 221.054688 C 118.625 220.9375 118.738281 220.691406 118.691406 220.453125 L 117.289062 213.300781 L 116.734375 213.410156 L 117.042969 213.878906 C 118.65625 212.820312 120.15625 211.613281 121.539062 210.285156 L 121.152344 209.878906 L 120.921875 210.394531 L 127.578125 213.351562 C 127.800781 213.453125 128.066406 213.394531 128.226562 213.210938 C 129.222656 212.105469 130.15625 210.9375 131.015625 209.71875 C 131.15625 209.523438 131.152344 209.253906 131.007812 209.058594 L 126.652344 203.21875 L 126.203125 203.554688 L 126.683594 203.847656 C 127.671875 202.207031 128.511719 200.464844 129.1875 198.648438 L 128.660156 198.449219 L 128.675781 199.015625 L 135.953125 198.785156 C 136.199219 198.777344 136.40625 198.613281 136.476562 198.378906 C 136.886719 196.960938 137.214844 195.507812 137.464844 194.027344 C 137.503906 193.785156 137.382812 193.546875 137.167969 193.433594 L 130.707031 190.070312 L 130.445312 190.570312 L 131.003906 190.621094 C 131.09375 189.675781 131.144531 188.71875 131.144531 187.742188 L 130.015625 187.742188 C 130.015625 188.675781 129.96875 189.601562 129.886719 190.519531 C 129.863281 190.75 129.980469 190.964844 130.1875 191.070312 L 136.644531 194.433594 L 136.90625 193.933594 L 136.351562 193.84375 C 136.113281 195.28125 135.792969 196.6875 135.394531 198.066406 L 135.9375 198.222656 L 135.917969 197.65625 L 128.644531 197.886719 C 128.410156 197.894531 128.210938 198.039062 128.132812 198.253906 C 127.480469 200.007812 126.671875 201.683594 125.71875 203.265625 C 125.597656 203.460938 125.613281 203.707031 125.75 203.894531 L 130.105469 209.730469 L 130.554688 209.394531 L 130.09375 209.070312 C 129.261719 210.253906 128.355469 211.382812 127.390625 212.457031 L 127.808594 212.835938 L 128.035156 212.320312 L 121.378906 209.363281 C 121.167969 209.273438 120.925781 209.316406 120.761719 209.472656 C 119.425781 210.753906 117.976562 211.917969 116.425781 212.9375 C 116.234375 213.0625 116.136719 213.292969 116.183594 213.519531 L 117.585938 220.671875 L 118.136719 220.5625 L 117.863281 220.070312 C 116.609375 220.769531 115.308594 221.398438 113.972656 221.949219 L 114.183594 222.46875 L 114.617188 222.105469 L 109.898438 216.550781 C 109.75 216.378906 109.511719 216.3125 109.292969 216.382812 C 107.554688 216.949219 105.746094 217.367188 103.882812 217.613281 C 103.652344 217.644531 103.464844 217.804688 103.410156 218.03125 L 101.566406 225.078125 L 102.109375 225.222656 L 102.078125 224.660156 C 101.359375 224.703125 100.632812 224.726562 99.910156 224.726562 C 99.183594 224.726562 98.460938 224.703125 97.738281 224.660156 L 97.707031 225.222656 L 98.253906 225.078125 L 96.40625 218.03125 C 96.347656 217.804688 96.164062 217.644531 95.9375 217.613281 C 94.074219 217.363281 92.261719 216.949219 90.523438 216.382812 C 90.304688 216.3125 90.066406 216.378906 89.917969 216.550781 L 85.203125 222.105469 L 85.632812 222.46875 L 85.84375 221.949219 C 84.507812 221.398438 83.207031 220.769531 81.953125 220.070312 L 81.679688 220.5625 L 82.234375 220.671875 L 83.632812 213.519531 C 83.679688 213.292969 83.582031 213.0625 83.390625 212.9375 C 81.839844 211.917969 80.390625 210.753906 79.054688 209.472656 C 78.890625 209.316406 78.648438 209.273438 78.4375 209.363281 L 71.78125 212.320312 L 72.007812 212.835938 L 72.429688 212.460938 C 71.460938 211.386719 70.558594 210.253906 69.722656 209.070312 L 69.261719 209.394531 L 69.714844 209.730469 L 74.066406 203.894531 C 74.203125 203.707031 74.214844 203.460938 74.097656 203.265625 C 73.148438 201.683594 72.339844 200.007812 71.6875 198.253906 C 71.605469 198.039062 71.402344 197.894531 71.171875 197.886719 L 63.898438 197.65625 L 63.882812 198.222656 L 64.421875 198.066406 C 64.027344 196.691406 63.707031 195.28125 63.46875 193.84375 L 62.910156 193.933594 L 63.171875 194.433594 L 69.632812 191.070312 C 69.835938 190.964844 69.953125 190.75 69.929688 190.519531 C 69.847656 189.601562 69.800781 188.675781 69.800781 187.742188 C 69.800781 186.808594 69.847656 185.882812 69.929688 184.964844 C 69.953125 184.738281 69.832031 184.519531 69.628906 184.414062 L 63.171875 181.050781 L 62.910156 181.550781 L 63.46875 181.644531 C 63.707031 180.207031 64.027344 178.800781 64.421875 177.421875 L 63.882812 177.261719 L 63.898438 177.828125 L 71.171875 177.601562 C 71.402344 177.59375 71.605469 177.449219 71.6875 177.230469 C 72.339844 175.476562 73.148438 173.800781 74.097656 172.21875 C 74.214844 172.023438 74.203125 171.777344 74.066406 171.589844 L 69.714844 165.757812 L 69.261719 166.09375 L 69.722656 166.417969 C 70.558594 165.234375 71.460938 164.101562 72.425781 163.027344 L 72.007812 162.648438 L 71.78125 163.167969 L 78.4375 166.121094 C 78.648438 166.214844 78.890625 166.171875 79.054688 166.011719 C 80.390625 164.730469 81.839844 163.570312 83.390625 162.546875 C 83.582031 162.421875 83.679688 162.195312 83.632812 161.96875 L 82.234375 154.816406 L 81.679688 154.925781 L 81.953125 155.417969 C 83.207031 154.714844 84.507812 154.089844 85.84375 153.535156 L 85.632812 153.015625 L 85.203125 153.378906 L 89.917969 158.9375 C 90.066406 159.109375 90.304688 159.175781 90.523438 159.105469 C 92.261719 158.535156 94.074219 158.121094 95.9375 157.875 C 96.164062 157.84375 96.347656 157.679688 96.40625 157.457031 L 98.253906 150.40625 L 97.707031 150.261719 L 97.738281 150.828125 C 98.460938 150.785156 99.179688 150.761719 99.910156 150.761719 C 100.636719 150.761719 101.359375 150.785156 102.078125 150.828125 L 102.109375 150.261719 L 101.566406 150.40625 L 103.410156 157.457031 C 103.46875 157.679688 103.652344 157.84375 103.882812 157.875 C 105.746094 158.121094 107.554688 158.535156 109.292969 159.105469 C 109.511719 159.175781 109.75 159.109375 109.898438 158.9375 L 114.617188 153.378906 L 114.183594 153.015625 L 113.96875 153.535156 C 115.308594 154.089844 116.609375 154.714844 117.863281 155.417969 L 118.136719 154.925781 L 117.585938 154.816406 L 116.183594 161.96875 C 116.136719 162.195312 116.234375 162.421875 116.425781 162.546875 C 117.976562 163.570312 119.425781 164.730469 120.761719 166.011719 C 120.925781 166.171875 121.167969 166.214844 121.378906 166.121094 L 128.035156 163.167969 L 127.808594 162.648438 L 127.390625 163.027344 C 128.355469 164.101562 129.257812 165.234375 130.09375 166.417969 L 130.554688 166.09375 L 130.105469 165.753906 L 125.75 171.589844 C 125.613281 171.777344 125.597656 172.023438 125.71875 172.21875 C 126.671875 173.800781 127.480469 175.476562 128.132812 177.230469 C 128.210938 177.445312 128.410156 177.589844 128.644531 177.597656 L 135.914062 177.828125 L 135.933594 177.261719 L 135.394531 177.421875 C 135.792969 178.796875 136.113281 180.207031 136.351562 181.644531 L 136.90625 181.550781 L 136.644531 181.050781 L 130.1875 184.414062 C 129.980469 184.519531 129.863281 184.738281 129.886719 184.964844 C 129.96875 185.882812 130.015625 186.808594 130.015625 187.742188 L 130.582031 187.742188 " fill-opacity="1" fill-rule="nonzero"/></g><path fill="#545454" d="M 99.910156 163.03125 C 86.296875 163.03125 75.222656 174.117188 75.222656 187.742188 C 75.222656 201.367188 86.296875 212.453125 99.910156 212.453125 C 113.519531 212.453125 124.59375 201.367188 124.59375 187.742188 C 124.59375 174.117188 113.519531 163.03125 99.910156 163.03125 Z M 99.910156 165.621094 C 112.113281 165.621094 122.007812 175.523438 122.007812 187.742188 C 122.007812 199.960938 112.113281 209.863281 99.910156 209.863281 C 87.703125 209.863281 77.808594 199.960938 77.808594 187.742188 C 77.808594 175.523438 87.703125 165.621094 99.910156 165.621094 " fill-opacity="1" fill-rule="nonzero"/><path fill="#d9d9d9" d="M 99.910156 163.03125 L 99.910156 162.464844 C 85.984375 162.46875 74.660156 173.804688 74.660156 187.742188 C 74.660156 201.679688 85.984375 213.015625 99.910156 213.015625 C 113.832031 213.015625 125.160156 201.679688 125.160156 187.742188 C 125.160156 173.804688 113.832031 162.46875 99.910156 162.464844 L 99.910156 163.59375 C 106.558594 163.597656 112.585938 166.300781 116.957031 170.675781 C 121.328125 175.050781 124.03125 181.082031 124.03125 187.742188 C 124.03125 194.402344 121.328125 200.433594 116.957031 204.808594 C 112.585938 209.183594 106.558594 211.890625 99.910156 211.890625 C 93.257812 211.890625 87.230469 209.183594 82.859375 204.808594 C 78.492188 200.433594 75.789062 194.402344 75.789062 187.742188 C 75.789062 181.082031 78.492188 175.050781 82.859375 170.675781 C 87.230469 166.300781 93.257812 163.597656 99.910156 163.59375 Z M 99.910156 166.183594 C 105.859375 166.1875 111.238281 168.597656 115.136719 172.5 C 119.035156 176.402344 121.445312 181.789062 121.445312 187.742188 C 121.445312 193.695312 119.035156 199.085938 115.136719 202.988281 C 111.238281 206.890625 105.859375 209.300781 99.910156 209.300781 C 93.960938 209.300781 88.578125 206.890625 84.679688 202.988281 C 80.78125 199.085938 78.371094 193.695312 78.371094 187.742188 C 78.371094 181.789062 80.78125 176.402344 84.679688 172.5 C 88.578125 168.597656 93.960938 166.1875 99.910156 166.183594 L 99.910156 165.054688 C 87.390625 165.058594 77.246094 175.214844 77.246094 187.742188 C 77.246094 200.273438 87.390625 210.429688 99.910156 210.429688 C 112.425781 210.429688 122.570312 200.273438 122.570312 187.742188 C 122.570312 175.214844 112.425781 165.058594 99.910156 165.054688 L 99.910156 166.183594 " fill-opacity="1" fill-rule="nonzero"/><g clip-path="url(#8e6b3e1b34)"><path fill="#212121" d="M 162.609375 265.226562 L 125.679688 265.226562 L 102.746094 227.949219 L 93.90625 227.949219 L 93.90625 265.226562 L 62.351562 265.226562 L 62.304688 227.355469 L 93.75 198.515625 L 106.65625 198.585938 C 113.367188 198.660156 119.484375 193.9375 119.484375 186.632812 C 119.484375 179.25 113.289062 174.679688 106.65625 174.679688 L 93.757812 174.679688 L 62.203125 146.265625 L 107.320312 146.265625 C 132.976562 146.265625 151.332031 163.609375 151.332031 184.941406 C 151.332031 199.773438 142.410156 212.167969 130.765625 217.484375 Z M 162.609375 265.226562 " fill-opacity="1" fill-rule="nonzero"/></g><path fill="#212121" d="M 170.242188 230.878906 L 184.207031 197.082031 L 184.8125 197.082031 L 198.714844 231.003906 C 199.636719 233.292969 200.546875 235.042969 201.449219 236.246094 C 202.351562 237.449219 203.527344 238.046875 204.976562 238.046875 L 204.976562 239.136719 L 185.648438 239.136719 L 185.648438 238.046875 C 187.578125 238.011719 188.863281 237.863281 189.507812 237.601562 C 190.148438 237.339844 190.46875 236.746094 190.46875 235.820312 C 190.46875 235.539062 190.398438 235.21875 190.253906 234.855469 C 190.117188 234.496094 190.007812 234.195312 189.925781 233.957031 L 187.34375 227.449219 L 174.097656 227.449219 L 172.226562 231.96875 C 171.667969 233.089844 171.390625 234.074219 171.390625 234.917969 C 171.390625 236.164062 171.847656 236.992188 172.769531 237.414062 C 173.695312 237.839844 175 238.046875 176.679688 238.046875 L 176.679688 239.136719 L 163.445312 239.136719 L 163.445312 238.046875 C 164.804688 237.929688 166.023438 237.308594 167.105469 236.183594 C 168.191406 235.0625 169.238281 233.292969 170.242188 230.878906 Z M 186.433594 225.21875 L 180.714844 211.363281 L 174.996094 225.21875 Z M 186.433594 225.21875 " fill-opacity="1" fill-rule="nonzero"/><path fill="#212121" d="M 238.804688 226.179688 L 251.558594 197.742188 L 267.632812 197.742188 L 267.632812 198.828125 C 266.265625 198.871094 265.214844 198.992188 264.472656 199.195312 C 263.730469 199.390625 263.167969 199.832031 262.789062 200.515625 C 262.410156 201.199219 262.21875 202.222656 262.21875 203.589844 L 262.21875 232.804688 C 262.21875 234.375 262.410156 235.53125 262.789062 236.273438 C 263.167969 237.019531 263.71875 237.492188 264.4375 237.691406 C 265.160156 237.894531 266.226562 238.011719 267.632812 238.046875 L 267.632812 239.136719 L 246.6875 239.136719 L 246.6875 238.046875 C 248.253906 238.011719 249.4375 237.886719 250.238281 237.664062 C 251.042969 237.441406 251.632812 236.96875 252.011719 236.246094 C 252.390625 235.523438 252.582031 234.398438 252.582031 232.867188 L 252.582031 200.878906 L 252.464844 200.878906 L 235.375 239.136719 L 234.527344 239.136719 L 217.492188 201.175781 L 217.375 201.175781 L 217.375 233.109375 C 217.375 234.796875 217.855469 236.042969 218.816406 236.84375 C 219.78125 237.648438 221.242188 238.046875 223.207031 238.046875 L 223.207031 239.136719 L 209.785156 239.136719 L 209.785156 238.046875 C 211.589844 238.046875 212.953125 237.566406 213.875 236.605469 C 214.800781 235.640625 215.265625 234.417969 215.265625 232.929688 L 215.265625 204.070312 C 215.265625 202.628906 215.089844 201.535156 214.746094 200.789062 C 214.410156 200.046875 213.859375 199.546875 213.101562 199.285156 C 212.339844 199.023438 211.234375 198.871094 209.785156 198.828125 L 209.785156 197.742188 L 225.980469 197.742188 Z M 238.804688 226.179688 " fill-opacity="1" fill-rule="nonzero"/><path fill="#212121" d="M 296.167969 196.839844 C 300.214844 196.839844 303.945312 197.707031 307.351562 199.433594 C 310.765625 201.160156 313.476562 203.667969 315.484375 206.960938 C 317.492188 210.253906 318.496094 214.132812 318.496094 218.59375 C 318.496094 222.570312 317.589844 226.1875 315.789062 229.4375 C 313.980469 232.6875 311.390625 235.257812 308.019531 237.148438 C 304.648438 239.039062 300.71875 239.984375 296.230469 239.984375 C 291.894531 239.984375 288.039062 239.070312 284.667969 237.246094 C 281.292969 235.414062 278.664062 232.875 276.777344 229.621094 C 274.894531 226.367188 273.953125 222.628906 273.953125 218.40625 C 273.953125 214.269531 274.90625 210.570312 276.8125 207.296875 C 278.71875 204.023438 281.355469 201.464844 284.722656 199.613281 C 288.09375 197.765625 291.910156 196.839844 296.167969 196.839844 Z M 284.667969 218.292969 C 284.667969 221.5 285.058594 224.59375 285.84375 227.574219 C 286.628906 230.546875 287.871094 233.007812 289.574219 234.953125 C 291.277344 236.898438 293.476562 237.871094 296.167969 237.871094 C 298.492188 237.871094 300.53125 237.097656 302.277344 235.550781 C 304.023438 234.007812 305.375 231.796875 306.339844 228.925781 C 307.300781 226.050781 307.78125 222.6875 307.78125 218.835938 C 307.78125 214.660156 307.308594 211.074219 306.363281 208.082031 C 305.421875 205.085938 304.074219 202.820312 302.328125 201.273438 C 300.585938 199.71875 298.550781 198.945312 296.230469 198.945312 C 294.097656 198.945312 292.160156 199.660156 290.414062 201.085938 C 288.667969 202.511719 287.269531 204.683594 286.226562 207.59375 C 285.1875 210.507812 284.667969 214.070312 284.667969 218.292969 Z M 284.667969 218.292969 " fill-opacity="1" fill-rule="nonzero"/><path fill="#212121" d="M 334.890625 174.757812 C 332.617188 174.757812 331.019531 175.007812 330.101562 175.5 C 329.179688 175.992188 328.71875 176.824219 328.71875 177.984375 C 328.71875 178.910156 328.964844 179.984375 329.460938 181.214844 L 343.539062 216.597656 L 356.339844 185.171875 C 357.382812 182.53125 357.90625 180.691406 357.90625 179.644531 C 357.90625 178.171875 357.351562 176.988281 356.242188 176.097656 C 355.136719 175.203125 353.359375 174.757812 350.90625 174.757812 L 350.90625 173.101562 L 369.867188 173.101562 L 369.867188 174.757812 C 367.597656 174.757812 365.605469 175.941406 363.882812 178.308594 C 362.167969 180.675781 360.449219 183.976562 358.734375 188.210938 L 338.480469 237.703125 L 336.824219 237.703125 L 314.453125 181.765625 C 313.40625 179.0625 312.390625 177.21875 311.40625 176.238281 C 310.425781 175.253906 308.863281 174.757812 306.71875 174.757812 L 306.71875 173.101562 L 334.890625 173.101562 Z M 334.890625 174.757812 " fill-opacity="1" fill-rule="nonzero"/></svg>