<svg xmlns="http://www.w3.org/2000/svg" xmlns:xlink="http://www.w3.org/1999/xlink" width="812" zoomAndPan="magnify" viewBox="0 0 609 310.499991" height="414" preserveAspectRatio="xMidYMid meet" version="1.0"><defs><g/><clipPath id="e27c6c4f4f"><path d="M 0.488281 37.808594 L 132.277344 37.808594 L 132.277344 171.097656 L 0.488281 171.097656 Z M 0.488281 37.808594 " clip-rule="nonzero"/></clipPath><clipPath id="d8ea8e9c43"><path d="M 1 214.136719 L 575 214.136719 L 575 283.777344 L 1 283.777344 Z M 1 214.136719 " clip-rule="nonzero"/></clipPath><clipPath id="5376094117"><path d="M 0.488281 31.804688 L 176.457031 31.804688 L 176.457031 240.71875 L 0.488281 240.71875 Z M 0.488281 31.804688 " clip-rule="nonzero"/></clipPath></defs><g fill="#d9d9d9" fill-opacity="1"><g transform="translate(96.37031, 268.29242)"><g><path d="M 13.90625 -11.75 C 13.90625 -10.90625 13.675781 -10.140625 13.21875 -9.453125 C 12.757812 -8.765625 12.128906 -8.222656 11.328125 -7.828125 C 10.535156 -7.429688 9.640625 -7.234375 8.640625 -7.234375 C 7.535156 -7.234375 6.484375 -7.414062 5.484375 -7.78125 L 5.484375 -2.390625 C 5.484375 -1.597656 5.675781 -1.070312 6.0625 -0.8125 C 6.445312 -0.550781 7.066406 -0.421875 7.921875 -0.421875 L 7.921875 0 L 0.59375 0 L 0.59375 -0.421875 C 1.46875 -0.421875 2.070312 -0.566406 2.40625 -0.859375 C 2.75 -1.160156 2.921875 -1.671875 2.921875 -2.390625 L 2.921875 -13.9375 C 2.921875 -14.675781 2.738281 -15.179688 2.375 -15.453125 C 2.007812 -15.734375 1.460938 -15.875 0.734375 -15.875 L 0.59375 -15.875 L 0.59375 -16.3125 L 7.734375 -16.3125 C 8.765625 -16.3125 9.75 -16.148438 10.6875 -15.828125 C 11.632812 -15.515625 12.40625 -15.015625 13 -14.328125 C 13.601562 -13.640625 13.90625 -12.78125 13.90625 -11.75 Z M 5.484375 -15.09375 L 5.484375 -8.609375 C 6.222656 -8.296875 6.894531 -8.140625 7.5 -8.140625 C 8.53125 -8.140625 9.359375 -8.457031 9.984375 -9.09375 C 10.617188 -9.738281 10.9375 -10.59375 10.9375 -11.65625 C 10.9375 -12.757812 10.601562 -13.660156 9.9375 -14.359375 C 9.28125 -15.054688 8.363281 -15.40625 7.1875 -15.40625 C 6.664062 -15.40625 6.097656 -15.300781 5.484375 -15.09375 Z M 5.484375 -15.09375 "/></g></g></g><g fill="#d9d9d9" fill-opacity="1"><g transform="translate(111.295237, 268.29242)"><g><path d="M 4.390625 -9.046875 L 4.4375 -9.046875 C 4.851562 -9.773438 5.300781 -10.328125 5.78125 -10.703125 C 6.257812 -11.085938 6.800781 -11.28125 7.40625 -11.28125 C 7.832031 -11.28125 8.179688 -11.144531 8.453125 -10.875 C 8.722656 -10.613281 8.859375 -10.296875 8.859375 -9.921875 C 8.859375 -9.617188 8.75 -9.363281 8.53125 -9.15625 C 8.320312 -8.957031 8.082031 -8.859375 7.8125 -8.859375 C 7.582031 -8.859375 7.394531 -8.898438 7.25 -8.984375 C 7.113281 -9.066406 6.972656 -9.179688 6.828125 -9.328125 C 6.796875 -9.335938 6.738281 -9.382812 6.65625 -9.46875 C 6.582031 -9.550781 6.503906 -9.609375 6.421875 -9.640625 C 6.335938 -9.679688 6.242188 -9.703125 6.140625 -9.703125 C 5.773438 -9.703125 5.460938 -9.554688 5.203125 -9.265625 C 4.941406 -8.972656 4.671875 -8.570312 4.390625 -8.0625 L 4.390625 -2.515625 C 4.390625 -1.898438 4.457031 -1.441406 4.59375 -1.140625 C 4.726562 -0.835938 4.9375 -0.640625 5.21875 -0.546875 C 5.507812 -0.460938 5.929688 -0.421875 6.484375 -0.421875 L 6.484375 0 L 0.640625 0 L 0.640625 -0.421875 L 0.765625 -0.421875 C 1.347656 -0.421875 1.769531 -0.5625 2.03125 -0.84375 C 2.300781 -1.132812 2.4375 -1.660156 2.4375 -2.421875 L 2.4375 -7.828125 C 2.4375 -8.578125 2.359375 -9.066406 2.203125 -9.296875 C 2.046875 -9.523438 1.769531 -9.640625 1.375 -9.640625 C 1.132812 -9.640625 0.9375 -9.59375 0.78125 -9.5 L 0.640625 -9.890625 L 3.96875 -11.28125 L 4.390625 -11.28125 Z M 4.390625 -9.046875 "/></g></g></g><g fill="#d9d9d9" fill-opacity="1"><g transform="translate(121.023863, 268.29242)"><g><path d="M 6.765625 -11.28125 C 7.703125 -11.28125 8.578125 -11.03125 9.390625 -10.53125 C 10.203125 -10.03125 10.847656 -9.363281 11.328125 -8.53125 C 11.816406 -7.695312 12.0625 -6.804688 12.0625 -5.859375 C 12.0625 -4.753906 11.796875 -3.726562 11.265625 -2.78125 C 10.742188 -1.832031 10.046875 -1.078125 9.171875 -0.515625 C 8.296875 0.046875 7.359375 0.328125 6.359375 0.328125 C 5.410156 0.328125 4.523438 0.0820312 3.703125 -0.40625 C 2.890625 -0.90625 2.242188 -1.578125 1.765625 -2.421875 C 1.296875 -3.273438 1.0625 -4.203125 1.0625 -5.203125 C 1.0625 -6.273438 1.320312 -7.273438 1.84375 -8.203125 C 2.375 -9.140625 3.078125 -9.882812 3.953125 -10.4375 C 4.828125 -11 5.765625 -11.28125 6.765625 -11.28125 Z M 3.203125 -6.140625 C 3.203125 -5.210938 3.347656 -4.316406 3.640625 -3.453125 C 3.929688 -2.585938 4.351562 -1.878906 4.90625 -1.328125 C 5.46875 -0.773438 6.132812 -0.5 6.90625 -0.5 C 7.8125 -0.5 8.539062 -0.894531 9.09375 -1.6875 C 9.644531 -2.488281 9.921875 -3.546875 9.921875 -4.859375 C 9.921875 -5.910156 9.757812 -6.859375 9.4375 -7.703125 C 9.125 -8.546875 8.679688 -9.210938 8.109375 -9.703125 C 7.546875 -10.191406 6.898438 -10.4375 6.171875 -10.4375 C 5.265625 -10.4375 4.539062 -10.046875 4 -9.265625 C 3.46875 -8.492188 3.203125 -7.453125 3.203125 -6.140625 Z M 3.203125 -6.140625 "/></g></g></g><g fill="#d9d9d9" fill-opacity="1"><g transform="translate(134.714964, 268.29242)"><g><path d="M 3.484375 -17.09375 C 3.835938 -17.09375 4.128906 -16.972656 4.359375 -16.734375 C 4.597656 -16.492188 4.71875 -16.207031 4.71875 -15.875 C 4.71875 -15.53125 4.597656 -15.238281 4.359375 -15 C 4.128906 -14.757812 3.835938 -14.640625 3.484375 -14.640625 C 3.148438 -14.640625 2.863281 -14.757812 2.625 -15 C 2.394531 -15.238281 2.28125 -15.53125 2.28125 -15.875 C 2.28125 -16.207031 2.394531 -16.492188 2.625 -16.734375 C 2.863281 -16.972656 3.148438 -17.09375 3.484375 -17.09375 Z M 4.578125 -0.421875 C 4.578125 1.203125 4.238281 2.515625 3.5625 3.515625 C 2.882812 4.523438 1.820312 5.03125 0.375 5.03125 C -0.238281 5.03125 -0.742188 4.914062 -1.140625 4.6875 C -1.535156 4.46875 -1.734375 4.1875 -1.734375 3.84375 C -1.734375 3.570312 -1.632812 3.335938 -1.4375 3.140625 C -1.238281 2.941406 -1.003906 2.84375 -0.734375 2.84375 C -0.484375 2.84375 -0.257812 2.898438 -0.0625 3.015625 C 0.132812 3.140625 0.359375 3.3125 0.609375 3.53125 C 0.785156 3.707031 0.945312 3.84375 1.09375 3.9375 C 1.238281 4.03125 1.390625 4.078125 1.546875 4.078125 C 1.953125 4.078125 2.234375 3.867188 2.390625 3.453125 C 2.554688 3.046875 2.640625 2.578125 2.640625 2.046875 L 2.640625 -8.09375 C 2.640625 -8.644531 2.539062 -9.0625 2.34375 -9.34375 C 2.15625 -9.632812 1.878906 -9.78125 1.515625 -9.78125 C 1.265625 -9.78125 1.035156 -9.734375 0.828125 -9.640625 L 0.6875 -10.0625 L 4.171875 -11.28125 L 4.578125 -11.28125 Z M 4.578125 -0.421875 "/></g></g></g><g fill="#d9d9d9" fill-opacity="1"><g transform="translate(141.73866, 268.29242)"><g><path d="M 5.578125 -11.28125 C 6.804688 -11.28125 7.804688 -10.867188 8.578125 -10.046875 C 9.347656 -9.222656 9.734375 -8.148438 9.734375 -6.828125 L 2.28125 -6.828125 L 2.28125 -6.53125 C 2.28125 -5.6875 2.445312 -4.878906 2.78125 -4.109375 C 3.113281 -3.347656 3.578125 -2.726562 4.171875 -2.25 C 4.773438 -1.78125 5.457031 -1.546875 6.21875 -1.546875 C 7.71875 -1.546875 8.769531 -2.382812 9.375 -4.0625 L 9.734375 -3.875 C 9.472656 -2.570312 8.945312 -1.546875 8.15625 -0.796875 C 7.375 -0.046875 6.425781 0.328125 5.3125 0.328125 C 4.488281 0.328125 3.722656 0.113281 3.015625 -0.3125 C 2.316406 -0.738281 1.75 -1.378906 1.3125 -2.234375 C 0.882812 -3.085938 0.671875 -4.125 0.671875 -5.34375 C 0.671875 -6.507812 0.875 -7.539062 1.28125 -8.4375 C 1.695312 -9.34375 2.273438 -10.039062 3.015625 -10.53125 C 3.753906 -11.03125 4.609375 -11.28125 5.578125 -11.28125 Z M 4.90625 -10.4375 C 4.25 -10.4375 3.675781 -10.175781 3.1875 -9.65625 C 2.707031 -9.132812 2.421875 -8.441406 2.328125 -7.578125 L 7.28125 -7.578125 C 7.25 -8.429688 7.03125 -9.117188 6.625 -9.640625 C 6.226562 -10.171875 5.65625 -10.4375 4.90625 -10.4375 Z M 4.90625 -10.4375 "/></g></g></g><g fill="#d9d9d9" fill-opacity="1"><g transform="translate(152.724829, 268.29242)"><g><path d="M 3.9375 -14.5 L 4.3125 -14.5 L 4.3125 -11.015625 L 6.8125 -11.015625 L 6.8125 -10.28125 L 4.3125 -10.28125 L 4.3125 -2.640625 C 4.3125 -2.222656 4.429688 -1.851562 4.671875 -1.53125 C 4.910156 -1.207031 5.242188 -1.046875 5.671875 -1.046875 C 5.953125 -1.046875 6.203125 -1.113281 6.421875 -1.25 C 6.648438 -1.382812 6.890625 -1.617188 7.140625 -1.953125 L 7.625 -1.953125 C 7.207031 -1.191406 6.757812 -0.617188 6.28125 -0.234375 C 5.8125 0.140625 5.257812 0.328125 4.625 0.328125 C 3.925781 0.328125 3.375 0.0703125 2.96875 -0.4375 C 2.570312 -0.945312 2.375 -1.648438 2.375 -2.546875 L 2.375 -10.28125 L 0.6875 -10.28125 L 0.6875 -10.75 C 1.5 -11.082031 2.179688 -11.566406 2.734375 -12.203125 C 3.285156 -12.847656 3.6875 -13.613281 3.9375 -14.5 Z M 3.9375 -14.5 "/></g></g></g><g fill="#d9d9d9" fill-opacity="1"><g transform="translate(161.219625, 268.29242)"><g><path d="M 6.765625 -11.28125 C 7.703125 -11.28125 8.578125 -11.03125 9.390625 -10.53125 C 10.203125 -10.03125 10.847656 -9.363281 11.328125 -8.53125 C 11.816406 -7.695312 12.0625 -6.804688 12.0625 -5.859375 C 12.0625 -4.753906 11.796875 -3.726562 11.265625 -2.78125 C 10.742188 -1.832031 10.046875 -1.078125 9.171875 -0.515625 C 8.296875 0.046875 7.359375 0.328125 6.359375 0.328125 C 5.410156 0.328125 4.523438 0.0820312 3.703125 -0.40625 C 2.890625 -0.90625 2.242188 -1.578125 1.765625 -2.421875 C 1.296875 -3.273438 1.0625 -4.203125 1.0625 -5.203125 C 1.0625 -6.273438 1.320312 -7.273438 1.84375 -8.203125 C 2.375 -9.140625 3.078125 -9.882812 3.953125 -10.4375 C 4.828125 -11 5.765625 -11.28125 6.765625 -11.28125 Z M 3.203125 -6.140625 C 3.203125 -5.210938 3.347656 -4.316406 3.640625 -3.453125 C 3.929688 -2.585938 4.351562 -1.878906 4.90625 -1.328125 C 5.46875 -0.773438 6.132812 -0.5 6.90625 -0.5 C 7.8125 -0.5 8.539062 -0.894531 9.09375 -1.6875 C 9.644531 -2.488281 9.921875 -3.546875 9.921875 -4.859375 C 9.921875 -5.910156 9.757812 -6.859375 9.4375 -7.703125 C 9.125 -8.546875 8.679688 -9.210938 8.109375 -9.703125 C 7.546875 -10.191406 6.898438 -10.4375 6.171875 -10.4375 C 5.265625 -10.4375 4.539062 -10.046875 4 -9.265625 C 3.46875 -8.492188 3.203125 -7.453125 3.203125 -6.140625 Z M 3.203125 -6.140625 "/></g></g></g><g fill="#d9d9d9" fill-opacity="1"><g transform="translate(174.910724, 268.29242)"><g><path d="M 4.46875 -11.28125 C 4.925781 -11.28125 5.390625 -11.195312 5.859375 -11.03125 C 6.191406 -10.925781 6.460938 -10.875 6.671875 -10.875 C 6.816406 -10.875 6.96875 -10.921875 7.125 -11.015625 L 7.546875 -11.015625 L 7.546875 -7.671875 L 7.125 -7.671875 C 7 -8.535156 6.6875 -9.238281 6.1875 -9.78125 C 5.695312 -10.332031 5.109375 -10.609375 4.421875 -10.609375 C 3.859375 -10.609375 3.398438 -10.472656 3.046875 -10.203125 C 2.691406 -9.929688 2.515625 -9.566406 2.515625 -9.109375 C 2.515625 -8.742188 2.613281 -8.429688 2.8125 -8.171875 C 3.007812 -7.910156 3.285156 -7.671875 3.640625 -7.453125 C 3.992188 -7.234375 4.550781 -6.925781 5.3125 -6.53125 C 6.289062 -6.007812 7.039062 -5.492188 7.5625 -4.984375 C 8.09375 -4.472656 8.359375 -3.789062 8.359375 -2.9375 C 8.359375 -2.175781 8.160156 -1.550781 7.765625 -1.0625 C 7.378906 -0.570312 6.910156 -0.21875 6.359375 0 C 5.816406 0.21875 5.300781 0.328125 4.8125 0.328125 C 4.34375 0.328125 3.703125 0.21875 2.890625 0 C 2.523438 -0.113281 2.28125 -0.171875 2.15625 -0.171875 C 1.945312 -0.171875 1.804688 -0.113281 1.734375 0 L 1.234375 0 L 1.234375 -3.703125 L 1.640625 -3.703125 C 1.742188 -2.722656 2.097656 -1.925781 2.703125 -1.3125 C 3.304688 -0.707031 4.019531 -0.40625 4.84375 -0.40625 C 5.332031 -0.40625 5.757812 -0.5625 6.125 -0.875 C 6.488281 -1.195312 6.671875 -1.59375 6.671875 -2.0625 C 6.671875 -2.613281 6.507812 -3.046875 6.1875 -3.359375 C 5.875 -3.679688 5.523438 -3.957031 5.140625 -4.1875 C 4.753906 -4.414062 4.492188 -4.5625 4.359375 -4.625 C 4.296875 -4.675781 4.078125 -4.804688 3.703125 -5.015625 C 3.128906 -5.328125 2.671875 -5.601562 2.328125 -5.84375 C 1.992188 -6.09375 1.710938 -6.414062 1.484375 -6.8125 C 1.253906 -7.207031 1.140625 -7.695312 1.140625 -8.28125 C 1.140625 -9.164062 1.453125 -9.882812 2.078125 -10.4375 C 2.703125 -11 3.5 -11.28125 4.46875 -11.28125 Z M 4.46875 -11.28125 "/></g></g></g><g fill="#d9d9d9" fill-opacity="1"><g transform="translate(184.639346, 268.29242)"><g/></g></g><g fill="#d9d9d9" fill-opacity="1"><g transform="translate(191.164765, 268.29242)"><g><path d="M 5.578125 -11.28125 C 6.804688 -11.28125 7.804688 -10.867188 8.578125 -10.046875 C 9.347656 -9.222656 9.734375 -8.148438 9.734375 -6.828125 L 2.28125 -6.828125 L 2.28125 -6.53125 C 2.28125 -5.6875 2.445312 -4.878906 2.78125 -4.109375 C 3.113281 -3.347656 3.578125 -2.726562 4.171875 -2.25 C 4.773438 -1.78125 5.457031 -1.546875 6.21875 -1.546875 C 7.71875 -1.546875 8.769531 -2.382812 9.375 -4.0625 L 9.734375 -3.875 C 9.472656 -2.570312 8.945312 -1.546875 8.15625 -0.796875 C 7.375 -0.046875 6.425781 0.328125 5.3125 0.328125 C 4.488281 0.328125 3.722656 0.113281 3.015625 -0.3125 C 2.316406 -0.738281 1.75 -1.378906 1.3125 -2.234375 C 0.882812 -3.085938 0.671875 -4.125 0.671875 -5.34375 C 0.671875 -6.507812 0.875 -7.539062 1.28125 -8.4375 C 1.695312 -9.34375 2.273438 -10.039062 3.015625 -10.53125 C 3.753906 -11.03125 4.609375 -11.28125 5.578125 -11.28125 Z M 4.90625 -10.4375 C 4.25 -10.4375 3.675781 -10.175781 3.1875 -9.65625 C 2.707031 -9.132812 2.421875 -8.441406 2.328125 -7.578125 L 7.28125 -7.578125 C 7.25 -8.429688 7.03125 -9.117188 6.625 -9.640625 C 6.226562 -10.171875 5.65625 -10.4375 4.90625 -10.4375 Z M 4.90625 -10.4375 "/></g></g></g><g fill="#d9d9d9" fill-opacity="1"><g transform="translate(202.150933, 268.29242)"><g/></g></g><g fill="#d9d9d9" fill-opacity="1"><g transform="translate(208.676352, 268.29242)"><g><path d="M 5.984375 -16.65625 C 6.515625 -16.65625 6.976562 -16.601562 7.375 -16.5 C 7.769531 -16.40625 8.175781 -16.269531 8.59375 -16.09375 C 8.800781 -16.007812 9.003906 -15.9375 9.203125 -15.875 C 9.398438 -15.8125 9.578125 -15.78125 9.734375 -15.78125 C 10.109375 -15.78125 10.410156 -16.070312 10.640625 -16.65625 L 11.078125 -16.65625 L 11.078125 -11.25 L 10.640625 -11.25 C 10.554688 -12.09375 10.300781 -12.859375 9.875 -13.546875 C 9.457031 -14.234375 8.9375 -14.773438 8.3125 -15.171875 C 7.6875 -15.566406 7.019531 -15.765625 6.3125 -15.765625 C 5.539062 -15.765625 4.875 -15.53125 4.3125 -15.0625 C 3.757812 -14.59375 3.484375 -14.023438 3.484375 -13.359375 C 3.484375 -12.585938 3.863281 -11.914062 4.625 -11.34375 C 5.164062 -10.945312 5.921875 -10.472656 6.890625 -9.921875 C 7.742188 -9.398438 8.453125 -8.945312 9.015625 -8.5625 C 9.585938 -8.1875 10.117188 -7.773438 10.609375 -7.328125 C 11.054688 -6.898438 11.410156 -6.410156 11.671875 -5.859375 C 11.929688 -5.304688 12.0625 -4.738281 12.0625 -4.15625 C 12.0625 -3.34375 11.835938 -2.585938 11.390625 -1.890625 C 10.953125 -1.203125 10.347656 -0.65625 9.578125 -0.25 C 8.804688 0.15625 7.960938 0.359375 7.046875 0.359375 C 6.460938 0.359375 5.941406 0.304688 5.484375 0.203125 C 5.035156 0.0976562 4.566406 -0.0390625 4.078125 -0.21875 C 3.546875 -0.40625 3.144531 -0.5 2.875 -0.5 C 2.445312 -0.5 2.125 -0.210938 1.90625 0.359375 L 1.46875 0.359375 L 1.46875 -5.125 L 1.90625 -5.125 C 2.164062 -3.71875 2.695312 -2.601562 3.5 -1.78125 C 4.300781 -0.957031 5.332031 -0.546875 6.59375 -0.546875 C 7.5 -0.546875 8.242188 -0.789062 8.828125 -1.28125 C 9.410156 -1.769531 9.703125 -2.390625 9.703125 -3.140625 C 9.703125 -3.515625 9.628906 -3.859375 9.484375 -4.171875 C 9.347656 -4.492188 9.113281 -4.835938 8.78125 -5.203125 C 8.476562 -5.515625 8.050781 -5.851562 7.5 -6.21875 C 6.945312 -6.59375 6.210938 -7.0625 5.296875 -7.625 C 4.515625 -8.09375 3.914062 -8.460938 3.5 -8.734375 C 3.09375 -9.015625 2.789062 -9.257812 2.59375 -9.46875 C 1.78125 -10.289062 1.375 -11.28125 1.375 -12.4375 C 1.375 -13.226562 1.578125 -13.941406 1.984375 -14.578125 C 2.390625 -15.222656 2.9375 -15.726562 3.625 -16.09375 C 4.320312 -16.46875 5.109375 -16.65625 5.984375 -16.65625 Z M 5.984375 -16.65625 "/></g></g></g><g fill="#d9d9d9" fill-opacity="1"><g transform="translate(222.36745, 268.29242)"><g><path d="M 6.765625 -11.28125 C 7.703125 -11.28125 8.578125 -11.03125 9.390625 -10.53125 C 10.203125 -10.03125 10.847656 -9.363281 11.328125 -8.53125 C 11.816406 -7.695312 12.0625 -6.804688 12.0625 -5.859375 C 12.0625 -4.753906 11.796875 -3.726562 11.265625 -2.78125 C 10.742188 -1.832031 10.046875 -1.078125 9.171875 -0.515625 C 8.296875 0.046875 7.359375 0.328125 6.359375 0.328125 C 5.410156 0.328125 4.523438 0.0820312 3.703125 -0.40625 C 2.890625 -0.90625 2.242188 -1.578125 1.765625 -2.421875 C 1.296875 -3.273438 1.0625 -4.203125 1.0625 -5.203125 C 1.0625 -6.273438 1.320312 -7.273438 1.84375 -8.203125 C 2.375 -9.140625 3.078125 -9.882812 3.953125 -10.4375 C 4.828125 -11 5.765625 -11.28125 6.765625 -11.28125 Z M 3.203125 -6.140625 C 3.203125 -5.210938 3.347656 -4.316406 3.640625 -3.453125 C 3.929688 -2.585938 4.351562 -1.878906 4.90625 -1.328125 C 5.46875 -0.773438 6.132812 -0.5 6.90625 -0.5 C 7.8125 -0.5 8.539062 -0.894531 9.09375 -1.6875 C 9.644531 -2.488281 9.921875 -3.546875 9.921875 -4.859375 C 9.921875 -5.910156 9.757812 -6.859375 9.4375 -7.703125 C 9.125 -8.546875 8.679688 -9.210938 8.109375 -9.703125 C 7.546875 -10.191406 6.898438 -10.4375 6.171875 -10.4375 C 5.265625 -10.4375 4.539062 -10.046875 4 -9.265625 C 3.46875 -8.492188 3.203125 -7.453125 3.203125 -6.140625 Z M 3.203125 -6.140625 "/></g></g></g><g fill="#d9d9d9" fill-opacity="1"><g transform="translate(236.058549, 268.29242)"><g><path d="M 4.296875 -17.015625 L 4.296875 -2.484375 C 4.296875 -1.703125 4.410156 -1.160156 4.640625 -0.859375 C 4.867188 -0.566406 5.285156 -0.421875 5.890625 -0.421875 L 5.890625 0 L 0.546875 0 L 0.546875 -0.421875 C 0.984375 -0.421875 1.328125 -0.46875 1.578125 -0.5625 C 1.835938 -0.664062 2.03125 -0.863281 2.15625 -1.15625 C 2.28125 -1.457031 2.34375 -1.898438 2.34375 -2.484375 L 2.34375 -13.71875 C 2.34375 -14.78125 1.972656 -15.3125 1.234375 -15.3125 C 1.023438 -15.3125 0.84375 -15.269531 0.6875 -15.1875 L 0.546875 -15.59375 L 3.875 -17.015625 Z M 4.296875 -17.015625 "/></g></g></g><g fill="#d9d9d9" fill-opacity="1"><g transform="translate(243.082242, 268.29242)"><g><path d="M 4.359375 -3.140625 C 4.359375 -2.566406 4.53125 -2.097656 4.875 -1.734375 C 5.226562 -1.367188 5.660156 -1.1875 6.171875 -1.1875 C 6.628906 -1.1875 7.101562 -1.304688 7.59375 -1.546875 C 8.082031 -1.796875 8.550781 -2.160156 9 -2.640625 L 9 -9.203125 C 9 -10.117188 8.457031 -10.578125 7.375 -10.578125 L 7.140625 -10.578125 L 7.140625 -11.015625 L 10.9375 -11.015625 L 10.9375 -2.5625 C 10.9375 -2.28125 11.019531 -1.992188 11.1875 -1.703125 C 11.351562 -1.410156 11.617188 -1.265625 11.984375 -1.265625 C 12.191406 -1.265625 12.453125 -1.328125 12.765625 -1.453125 L 12.765625 -1 L 9.453125 0.28125 L 9 0.28125 L 9 -2.046875 L 8.953125 -2.046875 C 7.671875 -0.460938 6.4375 0.328125 5.25 0.328125 C 4.644531 0.328125 4.128906 0.175781 3.703125 -0.125 C 3.273438 -0.4375 2.953125 -0.828125 2.734375 -1.296875 C 2.523438 -1.773438 2.421875 -2.257812 2.421875 -2.75 L 2.421875 -9.015625 C 2.421875 -9.628906 2.28125 -10.039062 2 -10.25 C 1.726562 -10.46875 1.300781 -10.578125 0.71875 -10.578125 L 0.421875 -10.578125 L 0.421875 -11.015625 L 4.359375 -11.015625 Z M 4.359375 -3.140625 "/></g></g></g><g fill="#d9d9d9" fill-opacity="1"><g transform="translate(256.77334, 268.29242)"><g><path d="M 5.984375 -11.28125 C 6.660156 -11.28125 7.289062 -11.160156 7.875 -10.921875 C 8.46875 -10.679688 8.929688 -10.367188 9.265625 -9.984375 C 9.609375 -9.597656 9.78125 -9.179688 9.78125 -8.734375 C 9.78125 -8.453125 9.671875 -8.210938 9.453125 -8.015625 C 9.242188 -7.828125 8.972656 -7.734375 8.640625 -7.734375 C 8.398438 -7.734375 8.210938 -7.765625 8.078125 -7.828125 C 7.941406 -7.890625 7.804688 -7.992188 7.671875 -8.140625 C 7.578125 -8.222656 7.507812 -8.363281 7.46875 -8.5625 C 7.425781 -8.769531 7.394531 -8.898438 7.375 -8.953125 C 7.3125 -9.359375 7.234375 -9.632812 7.140625 -9.78125 C 6.828125 -10.300781 6.304688 -10.5625 5.578125 -10.5625 C 4.640625 -10.5625 3.882812 -10.1875 3.3125 -9.4375 C 2.75 -8.695312 2.46875 -7.710938 2.46875 -6.484375 C 2.46875 -5.003906 2.816406 -3.816406 3.515625 -2.921875 C 4.210938 -2.035156 5.140625 -1.59375 6.296875 -1.59375 C 7.148438 -1.59375 7.863281 -1.828125 8.4375 -2.296875 C 9.007812 -2.773438 9.425781 -3.429688 9.6875 -4.265625 L 10.0625 -4.109375 C 9.75 -2.835938 9.195312 -1.796875 8.40625 -0.984375 C 7.613281 -0.179688 6.703125 0.253906 5.671875 0.328125 L 5.59375 0.421875 C 6.09375 0.453125 6.488281 0.625 6.78125 0.9375 C 7.070312 1.25 7.21875 1.640625 7.21875 2.109375 C 7.21875 2.722656 6.972656 3.21875 6.484375 3.59375 C 5.992188 3.976562 5.328125 4.171875 4.484375 4.171875 C 4.242188 4.171875 4.0625 4.164062 3.9375 4.15625 L 3.34375 4.125 L 3.46875 3.71875 L 3.78125 3.71875 C 4.238281 3.71875 4.617188 3.609375 4.921875 3.390625 C 5.234375 3.179688 5.390625 2.921875 5.390625 2.609375 C 5.390625 2.359375 5.285156 2.132812 5.078125 1.9375 C 4.867188 1.75 4.597656 1.65625 4.265625 1.65625 L 4.03125 1.6875 L 4.953125 0.3125 C 4.097656 0.226562 3.335938 -0.0625 2.671875 -0.5625 C 2.015625 -1.070312 1.5 -1.742188 1.125 -2.578125 C 0.75 -3.410156 0.5625 -4.335938 0.5625 -5.359375 C 0.5625 -6.503906 0.789062 -7.519531 1.25 -8.40625 C 1.71875 -9.300781 2.363281 -10.003906 3.1875 -10.515625 C 4.007812 -11.023438 4.941406 -11.28125 5.984375 -11.28125 Z M 5.984375 -11.28125 "/></g></g></g><g fill="#d9d9d9" fill-opacity="1"><g transform="translate(267.759509, 268.29242)"><g><path d="M 6.765625 -11.28125 C 7.703125 -11.28125 8.578125 -11.03125 9.390625 -10.53125 C 10.203125 -10.03125 10.847656 -9.363281 11.328125 -8.53125 C 11.816406 -7.695312 12.0625 -6.804688 12.0625 -5.859375 C 12.0625 -4.753906 11.796875 -3.726562 11.265625 -2.78125 C 10.742188 -1.832031 10.046875 -1.078125 9.171875 -0.515625 C 8.296875 0.046875 7.359375 0.328125 6.359375 0.328125 C 5.410156 0.328125 4.523438 0.0820312 3.703125 -0.40625 C 2.890625 -0.90625 2.242188 -1.578125 1.765625 -2.421875 C 1.296875 -3.273438 1.0625 -4.203125 1.0625 -5.203125 C 1.0625 -6.273438 1.320312 -7.273438 1.84375 -8.203125 C 2.375 -9.140625 3.078125 -9.882812 3.953125 -10.4375 C 4.828125 -11 5.765625 -11.28125 6.765625 -11.28125 Z M 3.203125 -6.140625 C 3.203125 -5.210938 3.347656 -4.316406 3.640625 -3.453125 C 3.929688 -2.585938 4.351562 -1.878906 4.90625 -1.328125 C 5.46875 -0.773438 6.132812 -0.5 6.90625 -0.5 C 7.8125 -0.5 8.539062 -0.894531 9.09375 -1.6875 C 9.644531 -2.488281 9.921875 -3.546875 9.921875 -4.859375 C 9.921875 -5.910156 9.757812 -6.859375 9.4375 -7.703125 C 9.125 -8.546875 8.679688 -9.210938 8.109375 -9.703125 C 7.546875 -10.191406 6.898438 -10.4375 6.171875 -10.4375 C 5.265625 -10.4375 4.539062 -10.046875 4 -9.265625 C 3.46875 -8.492188 3.203125 -7.453125 3.203125 -6.140625 Z M 5.03125 -16.3125 C 5.425781 -16.3125 5.789062 -16.226562 6.125 -16.0625 C 6.457031 -15.90625 6.859375 -15.675781 7.328125 -15.375 C 7.679688 -15.144531 7.960938 -14.972656 8.171875 -14.859375 C 8.390625 -14.742188 8.597656 -14.6875 8.796875 -14.6875 C 9.160156 -14.6875 9.421875 -14.84375 9.578125 -15.15625 C 9.742188 -15.46875 9.859375 -15.851562 9.921875 -16.3125 L 10.28125 -16.3125 L 10.28125 -16.140625 C 10.28125 -15.253906 10.066406 -14.550781 9.640625 -14.03125 C 9.210938 -13.507812 8.6875 -13.25 8.0625 -13.25 C 7.664062 -13.25 7.296875 -13.328125 6.953125 -13.484375 C 6.617188 -13.648438 6.222656 -13.882812 5.765625 -14.1875 C 5.421875 -14.425781 5.140625 -14.597656 4.921875 -14.703125 C 4.710938 -14.816406 4.503906 -14.875 4.296875 -14.875 C 3.972656 -14.875 3.738281 -14.75 3.59375 -14.5 C 3.445312 -14.25 3.320312 -13.847656 3.21875 -13.296875 L 2.875 -13.296875 C 2.875 -14.222656 3.066406 -14.957031 3.453125 -15.5 C 3.835938 -16.039062 4.363281 -16.3125 5.03125 -16.3125 Z M 5.03125 -16.3125 "/></g></g></g><g fill="#d9d9d9" fill-opacity="1"><g transform="translate(281.450607, 268.29242)"><g><path d="M 5.578125 -11.28125 C 6.804688 -11.28125 7.804688 -10.867188 8.578125 -10.046875 C 9.347656 -9.222656 9.734375 -8.148438 9.734375 -6.828125 L 2.28125 -6.828125 L 2.28125 -6.53125 C 2.28125 -5.6875 2.445312 -4.878906 2.78125 -4.109375 C 3.113281 -3.347656 3.578125 -2.726562 4.171875 -2.25 C 4.773438 -1.78125 5.457031 -1.546875 6.21875 -1.546875 C 7.71875 -1.546875 8.769531 -2.382812 9.375 -4.0625 L 9.734375 -3.875 C 9.472656 -2.570312 8.945312 -1.546875 8.15625 -0.796875 C 7.375 -0.046875 6.425781 0.328125 5.3125 0.328125 C 4.488281 0.328125 3.722656 0.113281 3.015625 -0.3125 C 2.316406 -0.738281 1.75 -1.378906 1.3125 -2.234375 C 0.882812 -3.085938 0.671875 -4.125 0.671875 -5.34375 C 0.671875 -6.507812 0.875 -7.539062 1.28125 -8.4375 C 1.695312 -9.34375 2.273438 -10.039062 3.015625 -10.53125 C 3.753906 -11.03125 4.609375 -11.28125 5.578125 -11.28125 Z M 4.90625 -10.4375 C 4.25 -10.4375 3.675781 -10.175781 3.1875 -9.65625 C 2.707031 -9.132812 2.421875 -8.441406 2.328125 -7.578125 L 7.28125 -7.578125 C 7.25 -8.429688 7.03125 -9.117188 6.625 -9.640625 C 6.226562 -10.171875 5.65625 -10.4375 4.90625 -10.4375 Z M 4.90625 -10.4375 "/></g></g></g><g fill="#d9d9d9" fill-opacity="1"><g transform="translate(292.436787, 268.29242)"><g><path d="M 4.46875 -11.28125 C 4.925781 -11.28125 5.390625 -11.195312 5.859375 -11.03125 C 6.191406 -10.925781 6.460938 -10.875 6.671875 -10.875 C 6.816406 -10.875 6.96875 -10.921875 7.125 -11.015625 L 7.546875 -11.015625 L 7.546875 -7.671875 L 7.125 -7.671875 C 7 -8.535156 6.6875 -9.238281 6.1875 -9.78125 C 5.695312 -10.332031 5.109375 -10.609375 4.421875 -10.609375 C 3.859375 -10.609375 3.398438 -10.472656 3.046875 -10.203125 C 2.691406 -9.929688 2.515625 -9.566406 2.515625 -9.109375 C 2.515625 -8.742188 2.613281 -8.429688 2.8125 -8.171875 C 3.007812 -7.910156 3.285156 -7.671875 3.640625 -7.453125 C 3.992188 -7.234375 4.550781 -6.925781 5.3125 -6.53125 C 6.289062 -6.007812 7.039062 -5.492188 7.5625 -4.984375 C 8.09375 -4.472656 8.359375 -3.789062 8.359375 -2.9375 C 8.359375 -2.175781 8.160156 -1.550781 7.765625 -1.0625 C 7.378906 -0.570312 6.910156 -0.21875 6.359375 0 C 5.816406 0.21875 5.300781 0.328125 4.8125 0.328125 C 4.34375 0.328125 3.703125 0.21875 2.890625 0 C 2.523438 -0.113281 2.28125 -0.171875 2.15625 -0.171875 C 1.945312 -0.171875 1.804688 -0.113281 1.734375 0 L 1.234375 0 L 1.234375 -3.703125 L 1.640625 -3.703125 C 1.742188 -2.722656 2.097656 -1.925781 2.703125 -1.3125 C 3.304688 -0.707031 4.019531 -0.40625 4.84375 -0.40625 C 5.332031 -0.40625 5.757812 -0.5625 6.125 -0.875 C 6.488281 -1.195312 6.671875 -1.59375 6.671875 -2.0625 C 6.671875 -2.613281 6.507812 -3.046875 6.1875 -3.359375 C 5.875 -3.679688 5.523438 -3.957031 5.140625 -4.1875 C 4.753906 -4.414062 4.492188 -4.5625 4.359375 -4.625 C 4.296875 -4.675781 4.078125 -4.804688 3.703125 -5.015625 C 3.128906 -5.328125 2.671875 -5.601562 2.328125 -5.84375 C 1.992188 -6.09375 1.710938 -6.414062 1.484375 -6.8125 C 1.253906 -7.207031 1.140625 -7.695312 1.140625 -8.28125 C 1.140625 -9.164062 1.453125 -9.882812 2.078125 -10.4375 C 2.703125 -11 3.5 -11.28125 4.46875 -11.28125 Z M 4.46875 -11.28125 "/></g></g></g><g fill="#d9d9d9" fill-opacity="1"><g transform="translate(302.165421, 268.29242)"><g/></g></g><g fill="#d9d9d9" fill-opacity="1"><g transform="translate(308.69084, 268.29242)"><g><path d="M 10.796875 -17.015625 L 10.796875 -3.15625 C 10.796875 -2.394531 10.878906 -1.894531 11.046875 -1.65625 C 11.210938 -1.425781 11.46875 -1.3125 11.8125 -1.3125 C 11.976562 -1.3125 12.21875 -1.363281 12.53125 -1.46875 L 12.703125 -1.09375 L 8.859375 0.28125 L 8.859375 -1.28125 C 8.316406 -0.726562 7.785156 -0.320312 7.265625 -0.0625 C 6.742188 0.195312 6.164062 0.328125 5.53125 0.328125 C 4.675781 0.328125 3.882812 0.0820312 3.15625 -0.40625 C 2.425781 -0.894531 1.84375 -1.554688 1.40625 -2.390625 C 0.976562 -3.234375 0.765625 -4.140625 0.765625 -5.109375 C 0.765625 -6.191406 1.019531 -7.207031 1.53125 -8.15625 C 2.039062 -9.113281 2.722656 -9.875 3.578125 -10.4375 C 4.429688 -11 5.351562 -11.28125 6.34375 -11.28125 C 6.800781 -11.28125 7.226562 -11.210938 7.625 -11.078125 C 8.019531 -10.953125 8.429688 -10.738281 8.859375 -10.4375 L 8.859375 -13.84375 C 8.859375 -14.832031 8.515625 -15.328125 7.828125 -15.328125 C 7.722656 -15.328125 7.617188 -15.316406 7.515625 -15.296875 C 7.421875 -15.273438 7.304688 -15.234375 7.171875 -15.171875 L 6.984375 -15.5625 L 10.390625 -17.015625 Z M 2.890625 -5.953125 C 2.890625 -5.035156 3.0625 -4.203125 3.40625 -3.453125 C 3.75 -2.703125 4.207031 -2.101562 4.78125 -1.65625 C 5.363281 -1.21875 6 -1 6.6875 -1 C 7.539062 -1 8.265625 -1.363281 8.859375 -2.09375 L 8.859375 -7.453125 C 8.859375 -8.253906 8.691406 -8.890625 8.359375 -9.359375 C 8.023438 -9.828125 7.644531 -10.148438 7.21875 -10.328125 C 6.789062 -10.515625 6.398438 -10.609375 6.046875 -10.609375 C 5.492188 -10.609375 4.976562 -10.398438 4.5 -9.984375 C 4.019531 -9.578125 3.628906 -9.015625 3.328125 -8.296875 C 3.035156 -7.585938 2.890625 -6.804688 2.890625 -5.953125 Z M 2.890625 -5.953125 "/></g></g></g><g fill="#d9d9d9" fill-opacity="1"><g transform="translate(322.381949, 268.29242)"><g><path d="M 5.578125 -11.28125 C 6.804688 -11.28125 7.804688 -10.867188 8.578125 -10.046875 C 9.347656 -9.222656 9.734375 -8.148438 9.734375 -6.828125 L 2.28125 -6.828125 L 2.28125 -6.53125 C 2.28125 -5.6875 2.445312 -4.878906 2.78125 -4.109375 C 3.113281 -3.347656 3.578125 -2.726562 4.171875 -2.25 C 4.773438 -1.78125 5.457031 -1.546875 6.21875 -1.546875 C 7.71875 -1.546875 8.769531 -2.382812 9.375 -4.0625 L 9.734375 -3.875 C 9.472656 -2.570312 8.945312 -1.546875 8.15625 -0.796875 C 7.375 -0.046875 6.425781 0.328125 5.3125 0.328125 C 4.488281 0.328125 3.722656 0.113281 3.015625 -0.3125 C 2.316406 -0.738281 1.75 -1.378906 1.3125 -2.234375 C 0.882812 -3.085938 0.671875 -4.125 0.671875 -5.34375 C 0.671875 -6.507812 0.875 -7.539062 1.28125 -8.4375 C 1.695312 -9.34375 2.273438 -10.039062 3.015625 -10.53125 C 3.753906 -11.03125 4.609375 -11.28125 5.578125 -11.28125 Z M 4.90625 -10.4375 C 4.25 -10.4375 3.675781 -10.175781 3.1875 -9.65625 C 2.707031 -9.132812 2.421875 -8.441406 2.328125 -7.578125 L 7.28125 -7.578125 C 7.25 -8.429688 7.03125 -9.117188 6.625 -9.640625 C 6.226562 -10.171875 5.65625 -10.4375 4.90625 -10.4375 Z M 4.90625 -10.4375 "/></g></g></g><g fill="#d9d9d9" fill-opacity="1"><g transform="translate(333.368118, 268.29242)"><g/></g></g><g fill="#d9d9d9" fill-opacity="1"><g transform="translate(339.893536, 268.29242)"><g><path d="M 13.984375 -12.703125 L 13.578125 -12.703125 C 13.421875 -13.597656 13.128906 -14.265625 12.703125 -14.703125 C 12.273438 -15.140625 11.679688 -15.359375 10.921875 -15.359375 L 5.765625 -15.359375 L 5.765625 -9.0625 L 9.984375 -9.0625 C 10.742188 -9.0625 11.28125 -9.25 11.59375 -9.625 C 11.914062 -10.007812 12.085938 -10.613281 12.109375 -11.4375 L 12.53125 -11.4375 L 12.53125 -5.703125 L 12.109375 -5.703125 C 12.109375 -6.523438 11.945312 -7.128906 11.625 -7.515625 C 11.3125 -7.910156 10.75 -8.109375 9.9375 -8.109375 L 5.765625 -8.109375 L 5.765625 -2.15625 C 5.765625 -1.351562 6.082031 -0.953125 6.71875 -0.953125 L 10.890625 -0.953125 C 11.765625 -0.953125 12.53125 -1.21875 13.1875 -1.75 C 13.851562 -2.28125 14.394531 -3.050781 14.8125 -4.0625 L 15.3125 -4.0625 L 13.984375 0 L 0.859375 0 L 0.859375 -0.421875 C 1.679688 -0.421875 2.273438 -0.5625 2.640625 -0.84375 C 3.015625 -1.125 3.203125 -1.640625 3.203125 -2.390625 L 3.203125 -14.078125 C 3.203125 -14.710938 3.015625 -15.171875 2.640625 -15.453125 C 2.273438 -15.734375 1.679688 -15.875 0.859375 -15.875 L 0.859375 -16.3125 L 13.796875 -16.3125 Z M 13.984375 -12.703125 "/></g></g></g><g fill="#d9d9d9" fill-opacity="1"><g transform="translate(356.313284, 268.29242)"><g><path d="M 4.25 -8.953125 C 5.070312 -9.835938 5.742188 -10.445312 6.265625 -10.78125 C 6.785156 -11.113281 7.363281 -11.28125 8 -11.28125 C 8.695312 -11.28125 9.257812 -11.09375 9.6875 -10.71875 C 10.113281 -10.34375 10.421875 -9.882812 10.609375 -9.34375 C 10.796875 -8.8125 10.890625 -8.285156 10.890625 -7.765625 L 10.890625 -2.515625 C 10.890625 -1.710938 11.015625 -1.171875 11.265625 -0.890625 C 11.523438 -0.609375 11.960938 -0.453125 12.578125 -0.421875 L 12.578125 0 L 7.03125 0 L 7.03125 -0.421875 C 7.53125 -0.421875 7.914062 -0.476562 8.1875 -0.59375 C 8.457031 -0.707031 8.648438 -0.910156 8.765625 -1.203125 C 8.890625 -1.492188 8.953125 -1.929688 8.953125 -2.515625 L 8.953125 -7.859375 C 8.953125 -8.359375 8.785156 -8.816406 8.453125 -9.234375 C 8.117188 -9.660156 7.660156 -9.875 7.078125 -9.875 C 6.585938 -9.875 6.117188 -9.742188 5.671875 -9.484375 C 5.234375 -9.222656 4.757812 -8.820312 4.25 -8.28125 L 4.25 -2.515625 C 4.25 -1.691406 4.382812 -1.140625 4.65625 -0.859375 C 4.925781 -0.585938 5.390625 -0.441406 6.046875 -0.421875 L 6.046875 0 L 0.59375 0 L 0.59375 -0.421875 C 1.082031 -0.472656 1.445312 -0.5625 1.6875 -0.6875 C 1.925781 -0.8125 2.085938 -1.007812 2.171875 -1.28125 C 2.253906 -1.550781 2.296875 -1.9375 2.296875 -2.4375 L 2.296875 -8.359375 C 2.296875 -8.722656 2.21875 -9.035156 2.0625 -9.296875 C 1.90625 -9.566406 1.65625 -9.703125 1.3125 -9.703125 C 1.144531 -9.703125 0.992188 -9.675781 0.859375 -9.625 C 0.734375 -9.570312 0.644531 -9.535156 0.59375 -9.515625 L 0.421875 -9.96875 L 3.84375 -11.28125 L 4.25 -11.28125 Z M 4.25 -8.953125 "/></g></g></g><g fill="#d9d9d9" fill-opacity="1"><g transform="translate(370.004394, 268.29242)"><g><path d="M 6.03125 -11.28125 C 6.914062 -11.28125 7.726562 -11.046875 8.46875 -10.578125 L 11.0625 -10.578125 C 11.28125 -10.578125 11.410156 -10.546875 11.453125 -10.484375 C 11.492188 -10.421875 11.515625 -10.253906 11.515625 -9.984375 C 11.515625 -9.753906 11.5 -9.609375 11.46875 -9.546875 C 11.4375 -9.492188 11.335938 -9.46875 11.171875 -9.46875 L 9.375 -9.46875 C 9.59375 -9.125 9.75 -8.800781 9.84375 -8.5 C 9.9375 -8.195312 9.984375 -7.847656 9.984375 -7.453125 C 9.984375 -6.722656 9.8125 -6.066406 9.46875 -5.484375 C 9.125 -4.910156 8.640625 -4.460938 8.015625 -4.140625 C 7.390625 -3.816406 6.679688 -3.65625 5.890625 -3.65625 C 5.378906 -3.65625 4.851562 -3.734375 4.3125 -3.890625 C 3.6875 -3.316406 3.375 -2.84375 3.375 -2.46875 C 3.375 -2.257812 3.488281 -2.09375 3.71875 -1.96875 C 3.945312 -1.84375 4.425781 -1.78125 5.15625 -1.78125 L 7.859375 -1.78125 C 8.804688 -1.78125 9.632812 -1.570312 10.34375 -1.15625 C 11.0625 -0.75 11.421875 -0.140625 11.421875 0.671875 C 11.421875 1.421875 11.132812 2.132812 10.5625 2.8125 C 9.988281 3.488281 9.234375 4.023438 8.296875 4.421875 C 7.359375 4.828125 6.347656 5.03125 5.265625 5.03125 C 4.535156 5.03125 3.816406 4.921875 3.109375 4.703125 C 2.410156 4.492188 1.84375 4.210938 1.40625 3.859375 C 0.976562 3.515625 0.765625 3.160156 0.765625 2.796875 C 0.765625 2.492188 0.90625 2.132812 1.1875 1.71875 C 1.46875 1.300781 2.078125 0.625 3.015625 -0.3125 C 2.222656 -0.550781 1.828125 -0.9375 1.828125 -1.46875 C 1.828125 -1.894531 1.992188 -2.328125 2.328125 -2.765625 C 2.660156 -3.203125 3.125 -3.65625 3.71875 -4.125 C 3.09375 -4.457031 2.601562 -4.910156 2.25 -5.484375 C 1.90625 -6.066406 1.734375 -6.695312 1.734375 -7.375 C 1.734375 -8.101562 1.914062 -8.765625 2.28125 -9.359375 C 2.65625 -9.953125 3.171875 -10.421875 3.828125 -10.765625 C 4.484375 -11.109375 5.21875 -11.28125 6.03125 -11.28125 Z M 3.75 -8.375 C 3.75 -7.789062 3.828125 -7.179688 3.984375 -6.546875 C 4.140625 -5.910156 4.40625 -5.367188 4.78125 -4.921875 C 5.164062 -4.472656 5.648438 -4.25 6.234375 -4.25 C 6.765625 -4.25 7.1875 -4.5 7.5 -5 C 7.8125 -5.5 7.96875 -6.132812 7.96875 -6.90625 C 7.96875 -7.382812 7.878906 -7.910156 7.703125 -8.484375 C 7.535156 -9.054688 7.269531 -9.550781 6.90625 -9.96875 C 6.539062 -10.394531 6.070312 -10.609375 5.5 -10.609375 C 5.03125 -10.609375 4.617188 -10.40625 4.265625 -10 C 3.921875 -9.601562 3.75 -9.0625 3.75 -8.375 Z M 7.359375 0.03125 L 6.484375 0.03125 C 5.765625 0.03125 5.179688 0.0195312 4.734375 0 C 4.285156 -0.03125 3.894531 -0.09375 3.5625 -0.1875 C 3.195312 0.21875 2.925781 0.582031 2.75 0.90625 C 2.570312 1.238281 2.484375 1.550781 2.484375 1.84375 C 2.484375 2.414062 2.875 2.851562 3.65625 3.15625 C 4.445312 3.457031 5.394531 3.609375 6.5 3.609375 C 7.289062 3.609375 8.003906 3.503906 8.640625 3.296875 C 9.273438 3.085938 9.773438 2.800781 10.140625 2.4375 C 10.503906 2.082031 10.6875 1.679688 10.6875 1.234375 C 10.6875 0.722656 10.421875 0.394531 9.890625 0.25 C 9.359375 0.113281 8.515625 0.0390625 7.359375 0.03125 Z M 7.359375 0.03125 "/></g></g></g><g fill="#d9d9d9" fill-opacity="1"><g transform="translate(382.461666, 268.29242)"><g><path d="M 5.578125 -11.28125 C 6.804688 -11.28125 7.804688 -10.867188 8.578125 -10.046875 C 9.347656 -9.222656 9.734375 -8.148438 9.734375 -6.828125 L 2.28125 -6.828125 L 2.28125 -6.53125 C 2.28125 -5.6875 2.445312 -4.878906 2.78125 -4.109375 C 3.113281 -3.347656 3.578125 -2.726562 4.171875 -2.25 C 4.773438 -1.78125 5.457031 -1.546875 6.21875 -1.546875 C 7.71875 -1.546875 8.769531 -2.382812 9.375 -4.0625 L 9.734375 -3.875 C 9.472656 -2.570312 8.945312 -1.546875 8.15625 -0.796875 C 7.375 -0.046875 6.425781 0.328125 5.3125 0.328125 C 4.488281 0.328125 3.722656 0.113281 3.015625 -0.3125 C 2.316406 -0.738281 1.75 -1.378906 1.3125 -2.234375 C 0.882812 -3.085938 0.671875 -4.125 0.671875 -5.34375 C 0.671875 -6.507812 0.875 -7.539062 1.28125 -8.4375 C 1.695312 -9.34375 2.273438 -10.039062 3.015625 -10.53125 C 3.753906 -11.03125 4.609375 -11.28125 5.578125 -11.28125 Z M 4.90625 -10.4375 C 4.25 -10.4375 3.675781 -10.175781 3.1875 -9.65625 C 2.707031 -9.132812 2.421875 -8.441406 2.328125 -7.578125 L 7.28125 -7.578125 C 7.25 -8.429688 7.03125 -9.117188 6.625 -9.640625 C 6.226562 -10.171875 5.65625 -10.4375 4.90625 -10.4375 Z M 4.90625 -10.4375 "/></g></g></g><g fill="#d9d9d9" fill-opacity="1"><g transform="translate(393.447834, 268.29242)"><g><path d="M 4.25 -8.953125 C 5.070312 -9.835938 5.742188 -10.445312 6.265625 -10.78125 C 6.785156 -11.113281 7.363281 -11.28125 8 -11.28125 C 8.695312 -11.28125 9.257812 -11.09375 9.6875 -10.71875 C 10.113281 -10.34375 10.421875 -9.882812 10.609375 -9.34375 C 10.796875 -8.8125 10.890625 -8.285156 10.890625 -7.765625 L 10.890625 -2.515625 C 10.890625 -1.710938 11.015625 -1.171875 11.265625 -0.890625 C 11.523438 -0.609375 11.960938 -0.453125 12.578125 -0.421875 L 12.578125 0 L 7.03125 0 L 7.03125 -0.421875 C 7.53125 -0.421875 7.914062 -0.476562 8.1875 -0.59375 C 8.457031 -0.707031 8.648438 -0.910156 8.765625 -1.203125 C 8.890625 -1.492188 8.953125 -1.929688 8.953125 -2.515625 L 8.953125 -7.859375 C 8.953125 -8.359375 8.785156 -8.816406 8.453125 -9.234375 C 8.117188 -9.660156 7.660156 -9.875 7.078125 -9.875 C 6.585938 -9.875 6.117188 -9.742188 5.671875 -9.484375 C 5.234375 -9.222656 4.757812 -8.820312 4.25 -8.28125 L 4.25 -2.515625 C 4.25 -1.691406 4.382812 -1.140625 4.65625 -0.859375 C 4.925781 -0.585938 5.390625 -0.441406 6.046875 -0.421875 L 6.046875 0 L 0.59375 0 L 0.59375 -0.421875 C 1.082031 -0.472656 1.445312 -0.5625 1.6875 -0.6875 C 1.925781 -0.8125 2.085938 -1.007812 2.171875 -1.28125 C 2.253906 -1.550781 2.296875 -1.9375 2.296875 -2.4375 L 2.296875 -8.359375 C 2.296875 -8.722656 2.21875 -9.035156 2.0625 -9.296875 C 1.90625 -9.566406 1.65625 -9.703125 1.3125 -9.703125 C 1.144531 -9.703125 0.992188 -9.675781 0.859375 -9.625 C 0.734375 -9.570312 0.644531 -9.535156 0.59375 -9.515625 L 0.421875 -9.96875 L 3.84375 -11.28125 L 4.25 -11.28125 Z M 4.25 -8.953125 "/></g></g></g><g fill="#d9d9d9" fill-opacity="1"><g transform="translate(407.138944, 268.29242)"><g><path d="M 4.265625 -8.953125 L 4.3125 -8.953125 C 4.84375 -9.660156 5.4375 -10.222656 6.09375 -10.640625 C 6.757812 -11.066406 7.414062 -11.28125 8.0625 -11.28125 C 9 -11.28125 9.707031 -10.925781 10.1875 -10.21875 C 10.675781 -9.507812 10.921875 -8.644531 10.921875 -7.625 L 10.921875 -2.546875 C 10.921875 -1.941406 10.984375 -1.488281 11.109375 -1.1875 C 11.234375 -0.882812 11.414062 -0.679688 11.65625 -0.578125 C 11.90625 -0.472656 12.257812 -0.421875 12.71875 -0.421875 L 12.71875 0 L 7.21875 0 L 7.21875 -0.421875 C 7.644531 -0.421875 7.976562 -0.46875 8.21875 -0.5625 C 8.46875 -0.664062 8.65625 -0.863281 8.78125 -1.15625 C 8.90625 -1.457031 8.96875 -1.910156 8.96875 -2.515625 L 8.96875 -7.921875 C 8.96875 -8.429688 8.804688 -8.875 8.484375 -9.25 C 8.160156 -9.632812 7.695312 -9.828125 7.09375 -9.828125 C 6.601562 -9.828125 6.140625 -9.710938 5.703125 -9.484375 C 5.273438 -9.253906 4.796875 -8.878906 4.265625 -8.359375 L 4.265625 -2.515625 C 4.265625 -1.898438 4.320312 -1.445312 4.4375 -1.15625 C 4.5625 -0.863281 4.753906 -0.664062 5.015625 -0.5625 C 5.273438 -0.46875 5.660156 -0.421875 6.171875 -0.421875 L 6.171875 0 L 0.59375 0 L 0.59375 -0.421875 C 1.019531 -0.421875 1.351562 -0.472656 1.59375 -0.578125 C 1.84375 -0.679688 2.023438 -0.882812 2.140625 -1.1875 C 2.265625 -1.5 2.328125 -1.953125 2.328125 -2.546875 L 2.328125 -13.6875 C 2.328125 -14.351562 2.222656 -14.789062 2.015625 -15 C 1.804688 -15.21875 1.546875 -15.328125 1.234375 -15.328125 C 1.015625 -15.328125 0.800781 -15.28125 0.59375 -15.1875 L 0.453125 -15.59375 L 3.84375 -17.015625 L 4.265625 -17.015625 Z M 4.265625 -8.953125 "/></g></g></g><g fill="#d9d9d9" fill-opacity="1"><g transform="translate(420.830054, 268.29242)"><g><path d="M 5.671875 -11.28125 C 8.046875 -11.28125 9.234375 -10.328125 9.234375 -8.421875 L 9.234375 -2.140625 C 9.234375 -1.710938 9.296875 -1.429688 9.421875 -1.296875 C 9.546875 -1.160156 9.710938 -1.09375 9.921875 -1.09375 C 10.160156 -1.09375 10.378906 -1.160156 10.578125 -1.296875 C 10.785156 -1.429688 11.085938 -1.6875 11.484375 -2.0625 L 11.484375 -1.46875 C 10.878906 -0.789062 10.382812 -0.320312 10 -0.0625 C 9.613281 0.195312 9.21875 0.328125 8.8125 0.328125 C 8.34375 0.328125 7.96875 0.164062 7.6875 -0.15625 C 7.414062 -0.476562 7.28125 -0.957031 7.28125 -1.59375 C 6.582031 -0.925781 5.9375 -0.4375 5.34375 -0.125 C 4.757812 0.175781 4.117188 0.328125 3.421875 0.328125 C 2.722656 0.328125 2.132812 0.0664062 1.65625 -0.453125 C 1.1875 -0.972656 0.953125 -1.601562 0.953125 -2.34375 C 0.953125 -3.613281 1.625 -4.597656 2.96875 -5.296875 C 4.25 -5.972656 5.6875 -6.597656 7.28125 -7.171875 L 7.28125 -7.828125 C 7.28125 -8.460938 7.238281 -8.96875 7.15625 -9.34375 C 7.070312 -9.726562 6.875 -10.035156 6.5625 -10.265625 C 6.25 -10.492188 5.78125 -10.609375 5.15625 -10.609375 C 4.53125 -10.609375 4.066406 -10.457031 3.765625 -10.15625 C 3.472656 -9.851562 3.328125 -9.484375 3.328125 -9.046875 L 3.34375 -8.421875 C 3.34375 -8.148438 3.253906 -7.925781 3.078125 -7.75 C 2.910156 -7.582031 2.691406 -7.5 2.421875 -7.5 C 2.117188 -7.5 1.875 -7.582031 1.6875 -7.75 C 1.5 -7.925781 1.40625 -8.175781 1.40625 -8.5 C 1.40625 -9.289062 1.773438 -9.953125 2.515625 -10.484375 C 3.253906 -11.015625 4.304688 -11.28125 5.671875 -11.28125 Z M 2.96875 -2.96875 C 2.96875 -2.425781 3.132812 -1.960938 3.46875 -1.578125 C 3.8125 -1.203125 4.238281 -1.015625 4.75 -1.015625 C 5.550781 -1.015625 6.394531 -1.410156 7.28125 -2.203125 L 7.28125 -6.53125 C 6.175781 -6.070312 5.320312 -5.671875 4.71875 -5.328125 C 4.125 -4.984375 3.679688 -4.628906 3.390625 -4.265625 C 3.109375 -3.898438 2.96875 -3.46875 2.96875 -2.96875 Z M 2.96875 -2.96875 "/></g></g></g><g fill="#d9d9d9" fill-opacity="1"><g transform="translate(433.287326, 268.29242)"><g><path d="M 4.390625 -9.046875 L 4.4375 -9.046875 C 4.851562 -9.773438 5.300781 -10.328125 5.78125 -10.703125 C 6.257812 -11.085938 6.800781 -11.28125 7.40625 -11.28125 C 7.832031 -11.28125 8.179688 -11.144531 8.453125 -10.875 C 8.722656 -10.613281 8.859375 -10.296875 8.859375 -9.921875 C 8.859375 -9.617188 8.75 -9.363281 8.53125 -9.15625 C 8.320312 -8.957031 8.082031 -8.859375 7.8125 -8.859375 C 7.582031 -8.859375 7.394531 -8.898438 7.25 -8.984375 C 7.113281 -9.066406 6.972656 -9.179688 6.828125 -9.328125 C 6.796875 -9.335938 6.738281 -9.382812 6.65625 -9.46875 C 6.582031 -9.550781 6.503906 -9.609375 6.421875 -9.640625 C 6.335938 -9.679688 6.242188 -9.703125 6.140625 -9.703125 C 5.773438 -9.703125 5.460938 -9.554688 5.203125 -9.265625 C 4.941406 -8.972656 4.671875 -8.570312 4.390625 -8.0625 L 4.390625 -2.515625 C 4.390625 -1.898438 4.457031 -1.441406 4.59375 -1.140625 C 4.726562 -0.835938 4.9375 -0.640625 5.21875 -0.546875 C 5.507812 -0.460938 5.929688 -0.421875 6.484375 -0.421875 L 6.484375 0 L 0.640625 0 L 0.640625 -0.421875 L 0.765625 -0.421875 C 1.347656 -0.421875 1.769531 -0.5625 2.03125 -0.84375 C 2.300781 -1.132812 2.4375 -1.660156 2.4375 -2.421875 L 2.4375 -7.828125 C 2.4375 -8.578125 2.359375 -9.066406 2.203125 -9.296875 C 2.046875 -9.523438 1.769531 -9.640625 1.375 -9.640625 C 1.132812 -9.640625 0.9375 -9.59375 0.78125 -9.5 L 0.640625 -9.890625 L 3.96875 -11.28125 L 4.390625 -11.28125 Z M 4.390625 -9.046875 "/></g></g></g><g fill="#d9d9d9" fill-opacity="1"><g transform="translate(443.01596, 268.29242)"><g><path d="M 3.234375 -17.09375 C 3.578125 -17.09375 3.867188 -16.972656 4.109375 -16.734375 C 4.347656 -16.492188 4.46875 -16.207031 4.46875 -15.875 C 4.46875 -15.53125 4.347656 -15.238281 4.109375 -15 C 3.867188 -14.757812 3.578125 -14.640625 3.234375 -14.640625 C 2.898438 -14.640625 2.613281 -14.757812 2.375 -15 C 2.132812 -15.238281 2.015625 -15.53125 2.015625 -15.875 C 2.015625 -16.207031 2.132812 -16.492188 2.375 -16.734375 C 2.613281 -16.972656 2.898438 -17.09375 3.234375 -17.09375 Z M 4.265625 -2.46875 C 4.265625 -1.695312 4.390625 -1.164062 4.640625 -0.875 C 4.898438 -0.59375 5.316406 -0.441406 5.890625 -0.421875 L 5.890625 0 L 0.546875 0 L 0.546875 -0.421875 C 1.191406 -0.421875 1.648438 -0.570312 1.921875 -0.875 C 2.191406 -1.175781 2.328125 -1.722656 2.328125 -2.515625 L 2.328125 -8.265625 C 2.328125 -8.691406 2.226562 -9.035156 2.03125 -9.296875 C 1.84375 -9.566406 1.550781 -9.703125 1.15625 -9.703125 C 0.988281 -9.703125 0.832031 -9.664062 0.6875 -9.59375 L 0.546875 -10.015625 L 3.84375 -11.28125 L 4.265625 -11.28125 Z M 4.265625 -2.46875 "/></g></g></g><g fill="#d9d9d9" fill-opacity="1"><g transform="translate(450.039653, 268.29242)"><g><path d="M 5.671875 -11.28125 C 8.046875 -11.28125 9.234375 -10.328125 9.234375 -8.421875 L 9.234375 -2.140625 C 9.234375 -1.710938 9.296875 -1.429688 9.421875 -1.296875 C 9.546875 -1.160156 9.710938 -1.09375 9.921875 -1.09375 C 10.160156 -1.09375 10.378906 -1.160156 10.578125 -1.296875 C 10.785156 -1.429688 11.085938 -1.6875 11.484375 -2.0625 L 11.484375 -1.46875 C 10.878906 -0.789062 10.382812 -0.320312 10 -0.0625 C 9.613281 0.195312 9.21875 0.328125 8.8125 0.328125 C 8.34375 0.328125 7.96875 0.164062 7.6875 -0.15625 C 7.414062 -0.476562 7.28125 -0.957031 7.28125 -1.59375 C 6.582031 -0.925781 5.9375 -0.4375 5.34375 -0.125 C 4.757812 0.175781 4.117188 0.328125 3.421875 0.328125 C 2.722656 0.328125 2.132812 0.0664062 1.65625 -0.453125 C 1.1875 -0.972656 0.953125 -1.601562 0.953125 -2.34375 C 0.953125 -3.613281 1.625 -4.597656 2.96875 -5.296875 C 4.25 -5.972656 5.6875 -6.597656 7.28125 -7.171875 L 7.28125 -7.828125 C 7.28125 -8.460938 7.238281 -8.96875 7.15625 -9.34375 C 7.070312 -9.726562 6.875 -10.035156 6.5625 -10.265625 C 6.25 -10.492188 5.78125 -10.609375 5.15625 -10.609375 C 4.53125 -10.609375 4.066406 -10.457031 3.765625 -10.15625 C 3.472656 -9.851562 3.328125 -9.484375 3.328125 -9.046875 L 3.34375 -8.421875 C 3.34375 -8.148438 3.253906 -7.925781 3.078125 -7.75 C 2.910156 -7.582031 2.691406 -7.5 2.421875 -7.5 C 2.117188 -7.5 1.875 -7.582031 1.6875 -7.75 C 1.5 -7.925781 1.40625 -8.175781 1.40625 -8.5 C 1.40625 -9.289062 1.773438 -9.953125 2.515625 -10.484375 C 3.253906 -11.015625 4.304688 -11.28125 5.671875 -11.28125 Z M 2.96875 -2.96875 C 2.96875 -2.425781 3.132812 -1.960938 3.46875 -1.578125 C 3.8125 -1.203125 4.238281 -1.015625 4.75 -1.015625 C 5.550781 -1.015625 6.394531 -1.410156 7.28125 -2.203125 L 7.28125 -6.53125 C 6.175781 -6.070312 5.320312 -5.671875 4.71875 -5.328125 C 4.125 -4.984375 3.679688 -4.628906 3.390625 -4.265625 C 3.109375 -3.898438 2.96875 -3.46875 2.96875 -2.96875 Z M 2.96875 -2.96875 "/></g></g></g><path fill="#545454" d="M 66.585938 143.308594 C 45.1875 143.308594 27.84375 125.964844 27.84375 104.570312 C 27.84375 83.175781 45.1875 65.832031 66.585938 65.832031 C 87.980469 65.832031 105.320312 83.175781 105.320312 104.570312 C 105.320312 125.964844 87.980469 143.308594 66.585938 143.308594 Z M 120.351562 104.570312 C 120.351562 102.898438 120.261719 101.25 120.113281 99.617188 L 131.4375 93.726562 C 131.011719 91.171875 130.445312 88.667969 129.730469 86.222656 L 116.980469 85.820312 C 115.820312 82.691406 114.371094 79.699219 112.671875 76.878906 L 120.304688 66.65625 C 118.816406 64.550781 117.207031 62.539062 115.488281 60.628906 L 103.820312 65.804688 C 101.4375 63.515625 98.847656 61.445312 96.082031 59.625 L 98.539062 47.097656 C 96.304688 45.855469 93.992188 44.738281 91.609375 43.757812 L 83.34375 53.480469 C 80.234375 52.464844 77.003906 51.726562 73.679688 51.285156 L 70.445312 38.9375 C 69.164062 38.863281 67.878906 38.824219 66.585938 38.824219 C 65.289062 38.824219 64 38.863281 62.722656 38.9375 L 59.488281 51.285156 C 56.160156 51.726562 52.929688 52.464844 49.824219 53.480469 L 41.554688 43.757812 C 39.175781 44.738281 36.859375 45.855469 34.628906 47.097656 L 37.085938 59.625 C 34.316406 61.445312 31.730469 63.519531 29.347656 65.804688 L 17.679688 60.628906 C 15.957031 62.539062 14.351562 64.550781 12.863281 66.65625 L 20.492188 76.878906 C 18.792969 79.699219 17.351562 82.691406 16.183594 85.820312 L 3.429688 86.222656 C 2.726562 88.667969 2.152344 91.175781 1.730469 93.726562 L 13.054688 99.617188 C 12.90625 101.25 12.820312 102.898438 12.820312 104.570312 C 12.820312 106.242188 12.90625 107.890625 13.054688 109.523438 L 1.730469 115.414062 C 2.152344 117.96875 2.726562 120.472656 3.429688 122.917969 L 16.183594 123.320312 C 17.351562 126.449219 18.792969 129.4375 20.492188 132.261719 L 12.863281 142.484375 C 14.351562 144.589844 15.957031 146.601562 17.679688 148.511719 L 29.347656 143.335938 C 31.730469 145.621094 34.316406 147.695312 37.085938 149.515625 L 34.628906 162.042969 C 36.863281 163.285156 39.175781 164.402344 41.554688 165.382812 L 49.824219 155.660156 C 52.929688 156.675781 56.160156 157.414062 59.488281 157.855469 L 62.722656 170.203125 C 64 170.277344 65.289062 170.320312 66.585938 170.320312 C 67.878906 170.320312 69.164062 170.277344 70.445312 170.203125 L 73.675781 157.855469 C 77.003906 157.417969 80.234375 156.675781 83.34375 155.660156 L 91.609375 165.382812 C 93.992188 164.402344 96.304688 163.285156 98.539062 162.042969 L 96.082031 149.515625 C 98.847656 147.695312 101.4375 145.621094 103.820312 143.335938 L 115.488281 148.511719 C 117.207031 146.601562 118.820312 144.589844 120.304688 142.484375 L 112.671875 132.261719 C 114.371094 129.4375 115.820312 126.449219 116.980469 123.320312 L 129.734375 122.917969 C 130.445312 120.472656 131.011719 117.96875 131.4375 115.414062 L 120.113281 109.523438 C 120.261719 107.890625 120.351562 106.242188 120.351562 104.570312 " fill-opacity="1" fill-rule="nonzero"/><g clip-path="url(#e27c6c4f4f)"><path fill="#d9d9d9" d="M 66.585938 143.308594 L 66.585938 142.324219 C 56.15625 142.324219 46.726562 138.097656 39.886719 131.265625 C 33.054688 124.429688 28.832031 114.996094 28.832031 104.570312 C 28.832031 94.144531 33.054688 84.710938 39.886719 77.875 C 46.726562 71.042969 56.15625 66.820312 66.585938 66.816406 C 77.011719 66.820312 86.441406 71.042969 93.277344 77.875 C 100.109375 84.710938 104.335938 94.144531 104.335938 104.570312 C 104.335938 114.996094 100.109375 124.429688 93.277344 131.265625 C 86.441406 138.097656 77.011719 142.324219 66.585938 142.324219 L 66.585938 144.296875 C 88.523438 144.296875 106.308594 126.511719 106.308594 104.570312 C 106.308594 82.628906 88.523438 64.84375 66.585938 64.84375 C 44.640625 64.84375 26.855469 82.628906 26.855469 104.570312 C 26.855469 126.511719 44.640625 144.296875 66.585938 144.296875 Z M 120.351562 104.570312 L 121.335938 104.570312 C 121.335938 102.863281 121.246094 101.183594 121.09375 99.527344 L 120.113281 99.617188 L 120.566406 100.496094 L 131.890625 94.601562 C 132.273438 94.40625 132.484375 93.984375 132.410156 93.5625 C 131.980469 90.972656 131.40625 88.429688 130.679688 85.945312 C 130.5625 85.535156 130.1875 85.246094 129.765625 85.234375 L 117.011719 84.832031 L 116.980469 85.820312 L 117.90625 85.472656 C 116.722656 82.289062 115.25 79.242188 113.519531 76.367188 L 112.671875 76.878906 L 113.464844 77.46875 L 121.097656 67.246094 C 121.351562 66.902344 121.359375 66.4375 121.109375 66.085938 C 119.601562 63.949219 117.964844 61.90625 116.222656 59.96875 C 115.9375 59.652344 115.476562 59.554688 115.089844 59.726562 L 103.417969 64.902344 L 103.820312 65.804688 L 104.503906 65.09375 C 102.078125 62.761719 99.441406 60.652344 96.621094 58.800781 L 96.082031 59.625 L 97.050781 59.816406 L 99.507812 47.289062 C 99.585938 46.871094 99.390625 46.445312 99.019531 46.238281 C 96.753906 44.972656 94.40625 43.839844 91.984375 42.84375 C 91.589844 42.679688 91.132812 42.789062 90.855469 43.117188 L 82.589844 52.84375 L 83.34375 53.480469 L 83.652344 52.542969 C 80.484375 51.503906 77.195312 50.753906 73.808594 50.308594 L 73.679688 51.285156 L 74.632812 51.035156 L 71.398438 38.6875 C 71.289062 38.269531 70.929688 37.976562 70.5 37.949219 C 69.207031 37.878906 67.898438 37.835938 66.585938 37.835938 C 65.265625 37.835938 63.964844 37.878906 62.667969 37.949219 C 62.238281 37.976562 61.878906 38.269531 61.769531 38.6875 L 58.535156 51.035156 L 59.488281 51.285156 L 59.359375 50.308594 C 55.972656 50.753906 52.679688 51.507812 49.515625 52.542969 L 49.824219 53.480469 L 50.578125 52.84375 L 42.308594 43.117188 C 42.03125 42.789062 41.578125 42.679688 41.179688 42.84375 C 38.761719 43.839844 36.414062 44.972656 34.148438 46.238281 C 33.777344 46.445312 33.578125 46.871094 33.660156 47.289062 L 36.117188 59.816406 L 37.085938 59.625 L 36.542969 58.800781 C 33.722656 60.652344 31.085938 62.765625 28.664062 65.09375 L 29.347656 65.804688 L 29.75 64.902344 L 18.078125 59.726562 C 17.6875 59.554688 17.230469 59.652344 16.945312 59.96875 C 15.199219 61.910156 13.566406 63.949219 12.058594 66.085938 C 11.8125 66.433594 11.816406 66.90625 12.070312 67.246094 L 19.703125 77.46875 L 20.492188 76.878906 L 19.648438 76.367188 C 17.917969 79.242188 16.445312 82.289062 15.257812 85.476562 L 16.183594 85.820312 L 16.152344 84.832031 L 3.398438 85.234375 C 2.96875 85.246094 2.601562 85.535156 2.480469 85.945312 C 1.765625 88.429688 1.1875 90.972656 0.753906 93.566406 C 0.6875 93.988281 0.894531 94.410156 1.273438 94.605469 L 12.597656 100.496094 L 13.054688 99.617188 L 12.070312 99.527344 C 11.917969 101.183594 11.832031 102.867188 11.832031 104.570312 C 11.832031 106.273438 11.917969 107.957031 12.070312 109.613281 L 13.054688 109.523438 L 12.597656 108.644531 L 1.273438 114.539062 C 0.894531 114.734375 0.6875 115.15625 0.753906 115.578125 C 1.1875 118.167969 1.765625 120.710938 2.480469 123.195312 C 2.601562 123.605469 2.96875 123.894531 3.398438 123.90625 L 16.152344 124.308594 L 16.183594 123.320312 L 15.257812 123.667969 C 16.445312 126.851562 17.917969 129.898438 19.648438 132.773438 L 20.492188 132.261719 L 19.703125 131.671875 L 12.070312 141.894531 C 11.816406 142.238281 11.8125 142.707031 12.058594 143.054688 C 13.566406 145.191406 15.199219 147.234375 16.945312 149.171875 C 17.230469 149.488281 17.691406 149.589844 18.082031 149.414062 L 29.75 144.238281 L 29.347656 143.335938 L 28.664062 144.046875 C 31.085938 146.375 33.722656 148.488281 36.542969 150.339844 L 37.085938 149.515625 L 36.117188 149.324219 L 33.660156 161.851562 C 33.578125 162.269531 33.777344 162.695312 34.148438 162.902344 C 36.414062 164.164062 38.761719 165.300781 41.179688 166.296875 C 41.574219 166.457031 42.03125 166.347656 42.308594 166.023438 L 50.578125 156.300781 L 49.824219 155.660156 L 49.519531 156.597656 C 52.679688 157.632812 55.972656 158.386719 59.359375 158.832031 L 59.488281 157.855469 L 58.535156 158.105469 L 61.769531 170.457031 C 61.875 170.867188 62.242188 171.164062 62.667969 171.191406 C 63.960938 171.265625 65.265625 171.308594 66.585938 171.308594 C 67.902344 171.308594 69.207031 171.265625 70.503906 171.191406 C 70.925781 171.164062 71.289062 170.867188 71.398438 170.457031 L 74.632812 158.105469 L 73.675781 157.855469 L 73.804688 158.832031 C 77.195312 158.386719 80.484375 157.632812 83.648438 156.597656 L 83.34375 155.660156 L 82.589844 156.300781 L 90.855469 166.023438 C 91.132812 166.347656 91.589844 166.457031 91.984375 166.296875 C 94.40625 165.300781 96.753906 164.164062 99.019531 162.902344 C 99.390625 162.695312 99.585938 162.269531 99.507812 161.851562 L 97.050781 149.324219 L 96.082031 149.515625 L 96.621094 150.339844 C 99.441406 148.488281 102.078125 146.375 104.503906 144.046875 L 103.820312 143.335938 L 103.417969 144.238281 L 115.089844 149.414062 C 115.476562 149.589844 115.9375 149.488281 116.222656 149.171875 C 117.96875 147.230469 119.601562 145.191406 121.109375 143.054688 C 121.355469 142.707031 121.351562 142.238281 121.097656 141.894531 L 113.464844 131.671875 L 112.671875 132.261719 L 113.519531 132.769531 C 115.25 129.898438 116.722656 126.851562 117.90625 123.664062 L 116.980469 123.320312 L 117.011719 124.308594 L 129.765625 123.90625 C 130.195312 123.894531 130.5625 123.609375 130.683594 123.195312 C 131.40625 120.710938 131.980469 118.167969 132.410156 115.574219 C 132.484375 115.152344 132.273438 114.734375 131.890625 114.535156 L 120.566406 108.644531 L 120.113281 109.523438 L 121.09375 109.613281 C 121.246094 107.957031 121.335938 106.273438 121.335938 104.570312 L 119.363281 104.570312 C 119.363281 106.207031 119.277344 107.828125 119.128906 109.433594 C 119.09375 109.835938 119.300781 110.210938 119.65625 110.398438 L 130.980469 116.289062 L 131.4375 115.414062 L 130.464844 115.25 C 130.042969 117.769531 129.484375 120.234375 128.785156 122.644531 L 129.734375 122.917969 L 129.703125 121.933594 L 116.953125 122.332031 C 116.546875 122.347656 116.195312 122.597656 116.054688 122.976562 C 114.914062 126.046875 113.496094 128.980469 111.828125 131.753906 C 111.617188 132.09375 111.640625 132.53125 111.878906 132.851562 L 119.511719 143.078125 L 120.304688 142.484375 L 119.5 141.914062 C 118.035156 143.988281 116.449219 145.96875 114.753906 147.851562 L 115.488281 148.511719 L 115.886719 147.609375 L 104.21875 142.433594 C 103.851562 142.269531 103.425781 142.34375 103.136719 142.625 C 100.796875 144.867188 98.253906 146.902344 95.535156 148.691406 C 95.203125 148.910156 95.035156 149.3125 95.109375 149.707031 L 97.566406 162.230469 L 98.539062 162.042969 L 98.054688 161.179688 C 95.859375 162.402344 93.582031 163.503906 91.234375 164.46875 L 91.609375 165.382812 L 92.363281 164.742188 L 84.09375 155.019531 C 83.835938 154.714844 83.417969 154.597656 83.035156 154.722656 C 79.984375 155.71875 76.816406 156.445312 73.546875 156.875 C 73.148438 156.929688 72.824219 157.214844 72.722656 157.605469 L 69.488281 169.953125 L 70.445312 170.203125 L 70.386719 169.21875 C 69.125 169.292969 67.859375 169.332031 66.585938 169.332031 C 65.308594 169.332031 64.042969 169.292969 62.78125 169.21875 L 62.722656 170.203125 L 63.679688 169.953125 L 60.445312 157.605469 C 60.34375 157.214844 60.019531 156.929688 59.621094 156.875 C 56.351562 156.445312 53.179688 155.71875 50.132812 154.722656 C 49.75 154.597656 49.332031 154.714844 49.070312 155.019531 L 40.804688 164.742188 L 41.554688 165.382812 L 41.929688 164.46875 C 39.585938 163.503906 37.308594 162.402344 35.109375 161.175781 L 34.628906 162.042969 L 35.597656 162.230469 L 38.054688 149.707031 C 38.132812 149.3125 37.964844 148.910156 37.628906 148.691406 C 34.914062 146.902344 32.371094 144.867188 30.03125 142.625 C 29.742188 142.34375 29.316406 142.269531 28.949219 142.433594 L 17.277344 147.609375 L 17.679688 148.511719 L 18.414062 147.851562 C 16.71875 145.96875 15.136719 143.988281 13.667969 141.914062 L 12.863281 142.484375 L 13.652344 143.078125 L 21.285156 132.851562 C 21.527344 132.53125 21.546875 132.097656 21.339844 131.753906 C 19.671875 128.980469 18.253906 126.046875 17.109375 122.976562 C 16.96875 122.597656 16.617188 122.347656 16.214844 122.332031 L 3.460938 121.933594 L 3.429688 122.917969 L 4.378906 122.644531 C 3.683594 120.238281 3.121094 117.769531 2.703125 115.253906 L 1.730469 115.414062 L 2.183594 116.289062 L 13.511719 110.398438 C 13.867188 110.210938 14.074219 109.832031 14.039062 109.429688 C 13.890625 107.828125 13.804688 106.207031 13.804688 104.570312 C 13.804688 102.933594 13.890625 101.3125 14.039062 99.710938 C 14.074219 99.308594 13.867188 98.929688 13.507812 98.742188 L 2.183594 92.851562 L 1.730469 93.726562 L 2.703125 93.890625 C 3.121094 91.371094 3.683594 88.90625 4.378906 86.496094 L 3.429688 86.222656 L 3.460938 87.207031 L 16.214844 86.808594 C 16.617188 86.796875 16.96875 86.542969 17.109375 86.164062 C 18.253906 83.09375 19.671875 80.160156 21.339844 77.386719 C 21.546875 77.042969 21.527344 76.609375 21.285156 76.285156 L 13.652344 66.066406 L 12.863281 66.65625 L 13.667969 67.226562 C 15.136719 65.152344 16.71875 63.171875 18.414062 61.289062 L 17.679688 60.628906 L 17.277344 61.53125 L 28.949219 66.707031 C 29.316406 66.871094 29.742188 66.796875 30.03125 66.515625 C 32.371094 64.273438 34.914062 62.238281 37.628906 60.449219 C 37.964844 60.230469 38.132812 59.828125 38.054688 59.433594 L 35.597656 46.910156 L 34.628906 47.097656 L 35.109375 47.964844 C 37.308594 46.738281 39.585938 45.640625 41.933594 44.667969 L 41.554688 43.757812 L 40.804688 44.394531 L 49.070312 54.121094 C 49.332031 54.429688 49.75 54.546875 50.132812 54.421875 C 53.179688 53.421875 56.351562 52.695312 59.621094 52.265625 C 60.019531 52.210938 60.34375 51.925781 60.445312 51.535156 L 63.679688 39.1875 L 62.722656 38.9375 L 62.78125 39.921875 C 64.042969 39.851562 65.308594 39.808594 66.585938 39.808594 C 67.859375 39.808594 69.125 39.851562 70.386719 39.921875 L 70.445312 38.9375 L 69.488281 39.1875 L 72.722656 51.535156 C 72.824219 51.925781 73.148438 52.210938 73.550781 52.265625 C 76.816406 52.695312 79.984375 53.421875 83.035156 54.421875 C 83.417969 54.546875 83.835938 54.429688 84.09375 54.121094 L 92.363281 44.394531 L 91.609375 43.757812 L 91.230469 44.667969 C 93.582031 45.640625 95.855469 46.738281 98.054688 47.964844 L 98.539062 47.097656 L 97.566406 46.910156 L 95.109375 59.433594 C 95.035156 59.828125 95.203125 60.230469 95.535156 60.449219 C 98.253906 62.238281 100.796875 64.269531 103.136719 66.515625 C 103.425781 66.796875 103.851562 66.871094 104.21875 66.707031 L 115.886719 61.53125 L 115.488281 60.628906 L 114.753906 61.289062 C 116.445312 63.171875 118.03125 65.152344 119.5 67.226562 L 120.304688 66.65625 L 119.511719 66.0625 L 111.878906 76.285156 C 111.640625 76.609375 111.617188 77.042969 111.828125 77.386719 C 113.492188 80.15625 114.914062 83.09375 116.054688 86.164062 C 116.195312 86.539062 116.546875 86.792969 116.953125 86.804688 L 129.703125 87.207031 L 129.730469 86.222656 L 128.785156 86.496094 C 129.484375 88.902344 130.042969 91.371094 130.464844 93.886719 L 131.4375 93.726562 L 130.980469 92.851562 L 119.65625 98.742188 C 119.300781 98.929688 119.09375 99.308594 119.128906 99.710938 C 119.277344 101.3125 119.363281 102.933594 119.363281 104.570312 L 120.351562 104.570312 " fill-opacity="1" fill-rule="nonzero"/></g><path fill="#545454" d="M 66.585938 61.296875 C 42.722656 61.296875 23.3125 80.707031 23.3125 104.570312 C 23.3125 128.429688 42.722656 147.84375 66.585938 147.84375 C 90.445312 147.84375 109.855469 128.429688 109.855469 104.570312 C 109.855469 80.707031 90.445312 61.296875 66.585938 61.296875 Z M 66.585938 65.832031 C 87.980469 65.832031 105.320312 83.175781 105.320312 104.570312 C 105.320312 125.964844 87.980469 143.308594 66.585938 143.308594 C 45.1875 143.308594 27.84375 125.964844 27.84375 104.570312 C 27.84375 83.175781 45.1875 65.832031 66.585938 65.832031 " fill-opacity="1" fill-rule="nonzero"/><path fill="#d9d9d9" d="M 66.585938 61.296875 L 66.585938 60.308594 C 42.175781 60.308594 22.324219 80.160156 22.324219 104.570312 C 22.324219 128.976562 42.175781 148.828125 66.585938 148.832031 C 90.992188 148.828125 110.84375 128.976562 110.84375 104.570312 C 110.84375 80.160156 90.992188 60.308594 66.585938 60.308594 L 66.585938 62.285156 C 78.242188 62.285156 88.808594 67.023438 96.46875 74.683594 C 104.128906 82.34375 108.871094 92.910156 108.871094 104.570312 C 108.871094 116.230469 104.128906 126.792969 96.46875 134.457031 C 88.808594 142.117188 78.242188 146.855469 66.585938 146.855469 C 54.925781 146.855469 44.359375 142.117188 36.699219 134.457031 C 29.039062 126.792969 24.300781 116.230469 24.300781 104.570312 C 24.300781 92.910156 29.039062 82.34375 36.699219 74.683594 C 44.359375 67.023438 54.925781 62.285156 66.585938 62.285156 Z M 66.585938 66.816406 C 77.011719 66.820312 86.441406 71.042969 93.277344 77.875 C 100.109375 84.710938 104.335938 94.144531 104.335938 104.570312 C 104.335938 114.996094 100.109375 124.429688 93.277344 131.265625 C 86.441406 138.097656 77.011719 142.324219 66.585938 142.324219 C 56.15625 142.324219 46.726562 138.097656 39.886719 131.265625 C 33.054688 124.429688 28.832031 114.996094 28.832031 104.570312 C 28.832031 94.144531 33.054688 84.710938 39.886719 77.875 C 46.726562 71.042969 56.15625 66.820312 66.585938 66.816406 L 66.585938 64.84375 C 44.640625 64.84375 26.855469 82.628906 26.855469 104.570312 C 26.855469 126.511719 44.640625 144.296875 66.585938 144.296875 C 88.523438 144.296875 106.308594 126.511719 106.308594 104.570312 C 106.308594 82.628906 88.523438 64.84375 66.585938 64.84375 L 66.585938 66.816406 " fill-opacity="1" fill-rule="nonzero"/><g clip-path="url(#d8ea8e9c43)"><path fill="#ff3131" d="M 1.171875 274.078125 C 45.84375 253.230469 93.195312 237.957031 141.636719 228.074219 L 159.847656 224.601562 L 178.15625 221.664062 L 196.546875 219.21875 L 214.988281 217.261719 C 239.621094 215.011719 264.382812 214.132812 289.121094 214.503906 C 313.855469 214.972656 338.570312 216.703125 363.117188 219.777344 L 381.480469 222.363281 L 399.777344 225.429688 L 417.980469 228.988281 L 436.0625 233.074219 C 484.132812 244.601562 530.9375 261.476562 574.878906 283.851562 C 529.890625 263.6875 482.992188 248.15625 435.035156 237.539062 L 417 233.804688 L 398.882812 230.488281 L 380.699219 227.648438 L 362.441406 225.289062 C 338.070312 222.402344 313.558594 220.730469 289.019531 220.359375 C 264.484375 219.890625 239.925781 220.734375 215.476562 222.777344 L 197.144531 224.515625 L 178.871094 226.738281 L 160.65625 229.429688 L 142.503906 232.546875 C 94.210938 241.535156 46.808594 255.460938 1.171875 274.078125 Z M 1.171875 274.078125 " fill-opacity="1" fill-rule="nonzero"/></g><g clip-path="url(#5376094117)"><path fill="#ffffff" d="M 176.492188 240.257812 L 111.757812 240.257812 L 71.5625 174.976562 L 56.0625 174.976562 L 56.0625 240.257812 L 0.746094 240.257812 L 0.664062 173.941406 L 55.792969 123.433594 L 78.410156 123.5625 C 90.171875 123.691406 100.898438 115.417969 100.898438 102.625 C 100.898438 89.699219 90.039062 81.691406 78.410156 81.691406 L 55.800781 81.691406 L 0.488281 31.941406 L 79.578125 31.941406 C 124.546875 31.941406 156.726562 62.308594 156.726562 99.660156 C 156.726562 125.632812 141.085938 147.347656 120.671875 156.652344 Z M 176.492188 240.257812 " fill-opacity="1" fill-rule="nonzero"/></g><g fill="#ffffff" fill-opacity="1"><g transform="translate(176.474993, 194.567202)"><g><path d="M 13.40625 -14.453125 L 37.875 -73.65625 L 38.9375 -73.65625 L 63.3125 -14.25 C 64.925781 -10.238281 66.523438 -7.175781 68.109375 -5.0625 C 69.691406 -2.957031 71.75 -1.90625 74.28125 -1.90625 L 74.28125 0 L 40.40625 0 L 40.40625 -1.90625 C 43.789062 -1.96875 46.046875 -2.226562 47.171875 -2.6875 C 48.296875 -3.144531 48.859375 -4.179688 48.859375 -5.796875 C 48.859375 -6.296875 48.734375 -6.859375 48.484375 -7.484375 C 48.234375 -8.117188 48.039062 -8.648438 47.90625 -9.078125 L 43.359375 -20.46875 L 20.15625 -20.46875 L 16.875 -12.5625 C 15.894531 -10.59375 15.40625 -8.867188 15.40625 -7.390625 C 15.40625 -5.203125 16.210938 -3.738281 17.828125 -3 C 19.453125 -2.269531 21.738281 -1.90625 24.6875 -1.90625 L 24.6875 0 L 1.484375 0 L 1.484375 -1.90625 C 3.867188 -2.113281 6.007812 -3.203125 7.90625 -5.171875 C 9.8125 -7.140625 11.644531 -10.234375 13.40625 -14.453125 Z M 41.78125 -24.375 L 31.765625 -48.640625 L 21.734375 -24.375 Z M 41.78125 -24.375 "/></g></g></g><g fill="#ffffff" fill-opacity="1"><g transform="translate(257.612238, 194.567202)"><g><path d="M 52.4375 -22.6875 L 74.8125 -72.484375 L 102.984375 -72.484375 L 102.984375 -70.59375 C 100.585938 -70.519531 98.738281 -70.304688 97.4375 -69.953125 C 96.132812 -69.597656 95.148438 -68.820312 94.484375 -67.625 C 93.816406 -66.4375 93.484375 -64.644531 93.484375 -62.25 L 93.484375 -11.078125 C 93.484375 -8.335938 93.816406 -6.316406 94.484375 -5.015625 C 95.148438 -3.710938 96.117188 -2.882812 97.390625 -2.53125 C 98.660156 -2.175781 100.523438 -1.96875 102.984375 -1.90625 L 102.984375 0 L 66.265625 0 L 66.265625 -1.90625 C 69.003906 -1.96875 71.078125 -2.191406 72.484375 -2.578125 C 73.890625 -2.972656 74.925781 -3.800781 75.59375 -5.0625 C 76.269531 -6.332031 76.609375 -8.300781 76.609375 -10.96875 L 76.609375 -67 L 76.390625 -67 L 46.421875 0 L 44.953125 0 L 15.09375 -66.46875 L 14.875 -66.46875 L 14.875 -10.546875 C 14.875 -7.597656 15.71875 -5.421875 17.40625 -4.015625 C 19.09375 -2.609375 21.660156 -1.90625 25.109375 -1.90625 L 25.109375 0 L 1.578125 0 L 1.578125 -1.90625 C 4.742188 -1.90625 7.132812 -2.75 8.75 -4.4375 C 10.375 -6.125 11.1875 -8.269531 11.1875 -10.875 L 11.1875 -61.40625 C 11.1875 -63.9375 10.882812 -65.851562 10.28125 -67.15625 C 9.6875 -68.457031 8.71875 -69.335938 7.375 -69.796875 C 6.039062 -70.253906 4.109375 -70.519531 1.578125 -70.59375 L 1.578125 -72.484375 L 29.96875 -72.484375 Z M 52.4375 -22.6875 "/></g></g></g><g fill="#ffffff" fill-opacity="1"><g transform="translate(367.342643, 194.567202)"><g><path d="M 43.265625 -74.078125 C 50.367188 -74.078125 56.910156 -72.5625 62.890625 -69.53125 C 68.867188 -66.507812 73.613281 -62.113281 77.125 -56.34375 C 80.644531 -50.570312 82.40625 -43.785156 82.40625 -35.984375 C 82.40625 -29.015625 80.820312 -22.679688 77.65625 -16.984375 C 74.488281 -11.285156 69.953125 -6.78125 64.046875 -3.46875 C 58.140625 -0.164062 51.242188 1.484375 43.359375 1.484375 C 35.765625 1.484375 29.015625 -0.113281 23.109375 -3.3125 C 17.203125 -6.519531 12.59375 -10.972656 9.28125 -16.671875 C 5.976562 -22.367188 4.328125 -28.910156 4.328125 -36.296875 C 4.328125 -43.546875 5.992188 -50.035156 9.328125 -55.765625 C 12.671875 -61.492188 17.296875 -65.976562 23.203125 -69.21875 C 29.117188 -72.457031 35.804688 -74.078125 43.265625 -74.078125 Z M 23.109375 -36.515625 C 23.109375 -30.878906 23.789062 -25.457031 25.15625 -20.25 C 26.53125 -15.050781 28.710938 -10.742188 31.703125 -7.328125 C 34.691406 -3.921875 38.546875 -2.21875 43.265625 -2.21875 C 47.335938 -2.21875 50.90625 -3.570312 53.96875 -6.28125 C 57.03125 -8.988281 59.40625 -12.851562 61.09375 -17.875 C 62.78125 -22.90625 63.625 -28.800781 63.625 -35.5625 C 63.625 -42.875 62.796875 -49.148438 61.140625 -54.390625 C 59.492188 -59.628906 57.140625 -63.601562 54.078125 -66.3125 C 51.015625 -69.019531 47.441406 -70.375 43.359375 -70.375 C 39.640625 -70.375 36.25 -69.125 33.1875 -66.625 C 30.125 -64.132812 27.675781 -60.335938 25.84375 -55.234375 C 24.019531 -50.140625 23.109375 -43.898438 23.109375 -36.515625 Z M 23.109375 -36.515625 "/></g></g></g><g fill="#ffffff" fill-opacity="1"><g transform="translate(426.357287, 189.79267)"><g><path d="M 52.125 -107.953125 C 48.144531 -107.953125 45.347656 -107.519531 43.734375 -106.65625 C 42.117188 -105.800781 41.3125 -104.351562 41.3125 -102.3125 C 41.3125 -100.695312 41.742188 -98.8125 42.609375 -96.65625 L 67.296875 -34.703125 L 89.71875 -89.71875 C 91.550781 -94.34375 92.46875 -97.570312 92.46875 -99.40625 C 92.46875 -101.988281 91.5 -104.054688 89.5625 -105.609375 C 87.625 -107.171875 84.503906 -107.953125 80.203125 -107.953125 L 80.203125 -110.859375 L 113.453125 -110.859375 L 113.453125 -107.953125 C 109.460938 -107.953125 105.960938 -105.878906 102.953125 -101.734375 C 99.941406 -97.597656 96.929688 -91.820312 93.921875 -84.40625 L 58.421875 2.265625 L 55.515625 2.265625 L 16.296875 -95.703125 C 14.472656 -100.429688 12.695312 -103.65625 10.96875 -105.375 C 9.25 -107.09375 6.507812 -107.953125 2.75 -107.953125 L 2.75 -110.859375 L 52.125 -110.859375 Z M 52.125 -107.953125 "/></g></g></g></svg>