<svg xmlns="http://www.w3.org/2000/svg" xmlns:xlink="http://www.w3.org/1999/xlink" width="847" zoomAndPan="magnify" viewBox="0 0 635.25 310.499991" height="414" preserveAspectRatio="xMidYMid meet" version="1.0"><defs><g/><clipPath id="06418aed96"><path d="M 0.136719 214.136719 L 575 214.136719 L 575 283.777344 L 0.136719 283.777344 Z M 0.136719 214.136719 " clip-rule="nonzero"/></clipPath><clipPath id="3ecfce0447"><path d="M 0.136719 31.804688 L 176.101562 31.804688 L 176.101562 240.71875 L 0.136719 240.71875 Z M 0.136719 31.804688 " clip-rule="nonzero"/></clipPath></defs><g clip-path="url(#06418aed96)"><path fill="#ff3131" d="M 0.816406 274.078125 C 45.492188 253.230469 92.84375 237.957031 141.28125 228.074219 L 159.492188 224.601562 L 177.800781 221.664062 L 196.191406 219.21875 L 214.636719 217.261719 C 239.269531 215.011719 264.03125 214.132812 288.765625 214.503906 C 313.503906 214.972656 338.21875 216.703125 362.761719 219.777344 L 381.128906 222.363281 L 399.425781 225.429688 L 417.628906 228.988281 L 435.710938 233.074219 C 483.78125 244.601562 530.585938 261.476562 574.523438 283.851562 C 529.535156 263.6875 482.640625 248.15625 434.683594 237.539062 L 416.648438 233.804688 L 398.53125 230.488281 L 380.34375 227.648438 L 362.085938 225.289062 C 337.71875 222.402344 313.203125 220.730469 288.667969 220.359375 C 264.132812 219.890625 239.574219 220.734375 215.121094 222.777344 L 196.789062 224.515625 L 178.515625 226.738281 L 160.304688 229.429688 L 142.152344 232.546875 C 93.855469 241.535156 46.457031 255.460938 0.816406 274.078125 Z M 0.816406 274.078125 " fill-opacity="1" fill-rule="nonzero"/></g><g clip-path="url(#3ecfce0447)"><path fill="#212121" d="M 176.140625 240.257812 L 111.402344 240.257812 L 71.207031 174.976562 L 55.707031 174.976562 L 55.707031 240.257812 L 0.394531 240.257812 L 0.308594 173.941406 L 55.4375 123.433594 L 78.054688 123.5625 C 89.820312 123.691406 100.542969 115.417969 100.542969 102.625 C 100.542969 89.699219 89.683594 81.691406 78.054688 81.691406 L 55.445312 81.691406 L 0.136719 31.941406 L 79.222656 31.941406 C 124.195312 31.941406 156.375 62.308594 156.375 99.660156 C 156.375 125.632812 140.734375 147.347656 120.316406 156.652344 Z M 176.140625 240.257812 " fill-opacity="1" fill-rule="nonzero"/></g><g fill="#212121" fill-opacity="1"><g transform="translate(176.121712, 194.567215)"><g><path d="M 13.40625 -14.453125 L 37.875 -73.65625 L 38.9375 -73.65625 L 63.3125 -14.25 C 64.925781 -10.238281 66.523438 -7.175781 68.109375 -5.0625 C 69.691406 -2.957031 71.75 -1.90625 74.28125 -1.90625 L 74.28125 0 L 40.40625 0 L 40.40625 -1.90625 C 43.789062 -1.96875 46.046875 -2.226562 47.171875 -2.6875 C 48.296875 -3.144531 48.859375 -4.179688 48.859375 -5.796875 C 48.859375 -6.296875 48.734375 -6.859375 48.484375 -7.484375 C 48.234375 -8.117188 48.039062 -8.648438 47.90625 -9.078125 L 43.359375 -20.46875 L 20.15625 -20.46875 L 16.875 -12.5625 C 15.894531 -10.59375 15.40625 -8.867188 15.40625 -7.390625 C 15.40625 -5.203125 16.210938 -3.738281 17.828125 -3 C 19.453125 -2.269531 21.738281 -1.90625 24.6875 -1.90625 L 24.6875 0 L 1.484375 0 L 1.484375 -1.90625 C 3.867188 -2.113281 6.007812 -3.203125 7.90625 -5.171875 C 9.8125 -7.140625 11.644531 -10.234375 13.40625 -14.453125 Z M 41.78125 -24.375 L 31.765625 -48.640625 L 21.734375 -24.375 Z M 41.78125 -24.375 "/></g></g></g><g fill="#212121" fill-opacity="1"><g transform="translate(257.258962, 194.567215)"><g><path d="M 52.4375 -22.6875 L 74.8125 -72.484375 L 102.984375 -72.484375 L 102.984375 -70.59375 C 100.585938 -70.519531 98.738281 -70.304688 97.4375 -69.953125 C 96.132812 -69.597656 95.148438 -68.820312 94.484375 -67.625 C 93.816406 -66.4375 93.484375 -64.644531 93.484375 -62.25 L 93.484375 -11.078125 C 93.484375 -8.335938 93.816406 -6.316406 94.484375 -5.015625 C 95.148438 -3.710938 96.117188 -2.882812 97.390625 -2.53125 C 98.660156 -2.175781 100.523438 -1.96875 102.984375 -1.90625 L 102.984375 0 L 66.265625 0 L 66.265625 -1.90625 C 69.003906 -1.96875 71.078125 -2.191406 72.484375 -2.578125 C 73.890625 -2.972656 74.925781 -3.800781 75.59375 -5.0625 C 76.269531 -6.332031 76.609375 -8.300781 76.609375 -10.96875 L 76.609375 -67 L 76.390625 -67 L 46.421875 0 L 44.953125 0 L 15.09375 -66.46875 L 14.875 -66.46875 L 14.875 -10.546875 C 14.875 -7.597656 15.71875 -5.421875 17.40625 -4.015625 C 19.09375 -2.609375 21.660156 -1.90625 25.109375 -1.90625 L 25.109375 0 L 1.578125 0 L 1.578125 -1.90625 C 4.742188 -1.90625 7.132812 -2.75 8.75 -4.4375 C 10.375 -6.125 11.1875 -8.269531 11.1875 -10.875 L 11.1875 -61.40625 C 11.1875 -63.9375 10.882812 -65.851562 10.28125 -67.15625 C 9.6875 -68.457031 8.71875 -69.335938 7.375 -69.796875 C 6.039062 -70.253906 4.109375 -70.519531 1.578125 -70.59375 L 1.578125 -72.484375 L 29.96875 -72.484375 Z M 52.4375 -22.6875 "/></g></g></g><g fill="#212121" fill-opacity="1"><g transform="translate(366.989374, 194.567215)"><g><path d="M 43.265625 -74.078125 C 50.367188 -74.078125 56.910156 -72.5625 62.890625 -69.53125 C 68.867188 -66.507812 73.613281 -62.113281 77.125 -56.34375 C 80.644531 -50.570312 82.40625 -43.785156 82.40625 -35.984375 C 82.40625 -29.015625 80.820312 -22.679688 77.65625 -16.984375 C 74.488281 -11.285156 69.953125 -6.78125 64.046875 -3.46875 C 58.140625 -0.164062 51.242188 1.484375 43.359375 1.484375 C 35.765625 1.484375 29.015625 -0.113281 23.109375 -3.3125 C 17.203125 -6.519531 12.59375 -10.972656 9.28125 -16.671875 C 5.976562 -22.367188 4.328125 -28.910156 4.328125 -36.296875 C 4.328125 -43.546875 5.992188 -50.035156 9.328125 -55.765625 C 12.671875 -61.492188 17.296875 -65.976562 23.203125 -69.21875 C 29.117188 -72.457031 35.804688 -74.078125 43.265625 -74.078125 Z M 23.109375 -36.515625 C 23.109375 -30.878906 23.789062 -25.457031 25.15625 -20.25 C 26.53125 -15.050781 28.710938 -10.742188 31.703125 -7.328125 C 34.691406 -3.921875 38.546875 -2.21875 43.265625 -2.21875 C 47.335938 -2.21875 50.90625 -3.570312 53.96875 -6.28125 C 57.03125 -8.988281 59.40625 -12.851562 61.09375 -17.875 C 62.78125 -22.90625 63.625 -28.800781 63.625 -35.5625 C 63.625 -42.875 62.796875 -49.148438 61.140625 -54.390625 C 59.492188 -59.628906 57.140625 -63.601562 54.078125 -66.3125 C 51.015625 -69.019531 47.441406 -70.375 43.359375 -70.375 C 39.640625 -70.375 36.25 -69.125 33.1875 -66.625 C 30.125 -64.132812 27.675781 -60.335938 25.84375 -55.234375 C 24.019531 -50.140625 23.109375 -43.898438 23.109375 -36.515625 Z M 23.109375 -36.515625 "/></g></g></g><g fill="#212121" fill-opacity="1"><g transform="translate(426.004016, 189.792681)"><g><path d="M 52.125 -107.953125 C 48.144531 -107.953125 45.347656 -107.519531 43.734375 -106.65625 C 42.117188 -105.800781 41.3125 -104.351562 41.3125 -102.3125 C 41.3125 -100.695312 41.742188 -98.8125 42.609375 -96.65625 L 67.296875 -34.703125 L 89.71875 -89.71875 C 91.550781 -94.34375 92.46875 -97.570312 92.46875 -99.40625 C 92.46875 -101.988281 91.5 -104.054688 89.5625 -105.609375 C 87.625 -107.171875 84.503906 -107.953125 80.203125 -107.953125 L 80.203125 -110.859375 L 113.453125 -110.859375 L 113.453125 -107.953125 C 109.460938 -107.953125 105.960938 -105.878906 102.953125 -101.734375 C 99.941406 -97.597656 96.929688 -91.820312 93.921875 -84.40625 L 58.421875 2.265625 L 55.515625 2.265625 L 16.296875 -95.703125 C 14.472656 -100.429688 12.695312 -103.65625 10.96875 -105.375 C 9.25 -107.09375 6.507812 -107.953125 2.75 -107.953125 L 2.75 -110.859375 L 52.125 -110.859375 Z M 52.125 -107.953125 "/></g></g></g></svg>